%TF.GenerationSoftware,KiCad,Pcbnew,6.0.2+dfsg-1*%
%TF.CreationDate,2023-09-09T18:17:54+01:00*%
%TF.ProjectId,useq,75736571-2e6b-4696-9361-645f70636258,rev?*%
%TF.SameCoordinates,Original*%
%TF.FileFunction,Copper,L2,Bot*%
%TF.FilePolarity,Positive*%
%FSLAX46Y46*%
G04 Gerber Fmt 4.6, Leading zero omitted, Abs format (unit mm)*
G04 Created by KiCad (PCBNEW 6.0.2+dfsg-1) date 2023-09-09 18:17:54*
%MOMM*%
%LPD*%
G01*
G04 APERTURE LIST*
G04 Aperture macros list*
%AMRoundRect*
0 Rectangle with rounded corners*
0 $1 Rounding radius*
0 $2 $3 $4 $5 $6 $7 $8 $9 X,Y pos of 4 corners*
0 Add a 4 corners polygon primitive as box body*
4,1,4,$2,$3,$4,$5,$6,$7,$8,$9,$2,$3,0*
0 Add four circle primitives for the rounded corners*
1,1,$1+$1,$2,$3*
1,1,$1+$1,$4,$5*
1,1,$1+$1,$6,$7*
1,1,$1+$1,$8,$9*
0 Add four rect primitives between the rounded corners*
20,1,$1+$1,$2,$3,$4,$5,0*
20,1,$1+$1,$4,$5,$6,$7,0*
20,1,$1+$1,$6,$7,$8,$9,0*
20,1,$1+$1,$8,$9,$2,$3,0*%
G04 Aperture macros list end*
%TA.AperFunction,ComponentPad*%
%ADD10O,1.700000X1.700000*%
%TD*%
%TA.AperFunction,ComponentPad*%
%ADD11R,1.700000X1.700000*%
%TD*%
%TA.AperFunction,ComponentPad*%
%ADD12RoundRect,0.250000X-0.600000X-0.600000X0.600000X-0.600000X0.600000X0.600000X-0.600000X0.600000X0*%
%TD*%
%TA.AperFunction,ComponentPad*%
%ADD13C,1.700000*%
%TD*%
%TA.AperFunction,ComponentPad*%
%ADD14O,3.200000X1.800000*%
%TD*%
%TA.AperFunction,ComponentPad*%
%ADD15R,2.200000X3.400000*%
%TD*%
%TA.AperFunction,ComponentPad*%
%ADD16R,1.800000X1.800000*%
%TD*%
%TA.AperFunction,ComponentPad*%
%ADD17C,1.800000*%
%TD*%
%TA.AperFunction,SMDPad,CuDef*%
%ADD18R,0.800000X1.700000*%
%TD*%
%TA.AperFunction,ComponentPad*%
%ADD19R,1.830000X1.930000*%
%TD*%
%TA.AperFunction,ComponentPad*%
%ADD20C,2.130000*%
%TD*%
%TA.AperFunction,ComponentPad*%
%ADD21C,3.000000*%
%TD*%
%TA.AperFunction,ComponentPad*%
%ADD22C,2.000000*%
%TD*%
%TA.AperFunction,ComponentPad*%
%ADD23R,2.800000X3.600000*%
%TD*%
%TA.AperFunction,ComponentPad*%
%ADD24O,1.800000X3.200000*%
%TD*%
%TA.AperFunction,ViaPad*%
%ADD25C,0.800000*%
%TD*%
%TA.AperFunction,Conductor*%
%ADD26C,0.250000*%
%TD*%
%TA.AperFunction,Conductor*%
%ADD27C,1.000000*%
%TD*%
%TA.AperFunction,Conductor*%
%ADD28C,0.200000*%
%TD*%
G04 APERTURE END LIST*
D10*
%TO.P,U1,1,GPIO0*%
%TO.N,Net-(J11-Pad2)*%
X148610000Y-34370000D03*
%TO.P,U1,2,GPIO1*%
%TO.N,Net-(J11-Pad1)*%
X148610000Y-36910000D03*
D11*
%TO.P,U1,3,GND*%
%TO.N,unconnected-(U1-Pad3)*%
X148610000Y-39450000D03*
D10*
%TO.P,U1,4,GPIO2*%
%TO.N,Net-(R10-Pad1)*%
X148610000Y-41990000D03*
%TO.P,U1,5,GPIO3*%
%TO.N,Net-(R9-Pad1)*%
X148610000Y-44530000D03*
%TO.P,U1,6,GPIO4*%
%TO.N,Net-(R8-Pad1)*%
X148610000Y-47070000D03*
%TO.P,U1,7,GPIO5*%
%TO.N,Net-(R7-Pad1)*%
X148610000Y-49610000D03*
D11*
%TO.P,U1,8,GND*%
%TO.N,unconnected-(U1-Pad8)*%
X148610000Y-52150000D03*
D10*
%TO.P,U1,9,GPIO6*%
%TO.N,unconnected-(U1-Pad9)*%
X148610000Y-54690000D03*
%TO.P,U1,10,GPIO7*%
%TO.N,Net-(S1-Pad1)*%
X148610000Y-57230000D03*
%TO.P,U1,11,GPIO8*%
%TO.N,Net-(Q1-Pad3)*%
X148610000Y-59770000D03*
%TO.P,U1,12,GPIO9*%
%TO.N,Net-(Q2-Pad3)*%
X148610000Y-62310000D03*
D11*
%TO.P,U1,13,GND*%
%TO.N,unconnected-(U1-Pad13)*%
X148610000Y-64850000D03*
D10*
%TO.P,U1,14,GPIO10*%
%TO.N,Net-(SW1-Pad2)*%
X148610000Y-67390000D03*
%TO.P,U1,15,GPIO11*%
%TO.N,Net-(SW2-Pad2)*%
X148610000Y-69930000D03*
%TO.P,U1,16,GPIO12*%
%TO.N,Net-(S1-PadB)*%
X148610000Y-72470000D03*
%TO.P,U1,17,GPIO13*%
%TO.N,Net-(S1-PadA)*%
X148610000Y-75010000D03*
D11*
%TO.P,U1,18,GND*%
%TO.N,unconnected-(U1-Pad18)*%
X148610000Y-77550000D03*
D10*
%TO.P,U1,19,GPIO14*%
%TO.N,Net-(SW3-Pad2)*%
X148610000Y-80090000D03*
%TO.P,U1,20,GPIO15*%
%TO.N,Net-(SW4-Pad2)*%
X148610000Y-82630000D03*
%TO.P,U1,21,GPIO16*%
%TO.N,Net-(U1-Pad21)*%
X166390000Y-82630000D03*
%TO.P,U1,22,GPIO17*%
%TO.N,Net-(U1-Pad22)*%
X166390000Y-80090000D03*
D11*
%TO.P,U1,23,GND*%
%TO.N,GND*%
X166390000Y-77550000D03*
D10*
%TO.P,U1,24,GPIO18*%
%TO.N,Net-(U1-Pad24)*%
X166390000Y-75010000D03*
%TO.P,U1,25,GPIO19*%
%TO.N,Net-(U1-Pad25)*%
X166390000Y-72470000D03*
%TO.P,U1,26,GPIO20*%
%TO.N,Net-(U1-Pad26)*%
X166390000Y-69930000D03*
%TO.P,U1,27,GPIO21*%
%TO.N,Net-(U1-Pad27)*%
X166390000Y-67390000D03*
D11*
%TO.P,U1,28,GND*%
%TO.N,unconnected-(U1-Pad28)*%
X166390000Y-64850000D03*
D10*
%TO.P,U1,29,GPIO22*%
%TO.N,Net-(R14-Pad1)*%
X166390000Y-62310000D03*
%TO.P,U1,30,RUN*%
%TO.N,Net-(S2-Pad2)*%
X166390000Y-59770000D03*
%TO.P,U1,31,GPIO26_ADC0*%
%TO.N,Net-(R13-Pad1)*%
X166390000Y-57230000D03*
%TO.P,U1,32,GPIO27_ADC1*%
%TO.N,Net-(R12-Pad1)*%
X166390000Y-54690000D03*
D11*
%TO.P,U1,33,AGND*%
%TO.N,unconnected-(U1-Pad33)*%
X166390000Y-52150000D03*
D10*
%TO.P,U1,34,GPIO28_ADC2*%
%TO.N,Net-(R11-Pad1)*%
X166390000Y-49610000D03*
%TO.P,U1,35,ADC_VREF*%
%TO.N,unconnected-(U1-Pad35)*%
X166390000Y-47070000D03*
%TO.P,U1,36,3V3*%
%TO.N,/3V3*%
X166390000Y-44530000D03*
%TO.P,U1,37,3V3_EN*%
%TO.N,unconnected-(U1-Pad37)*%
X166390000Y-41990000D03*
D11*
%TO.P,U1,38,GND*%
%TO.N,GND*%
X166390000Y-39450000D03*
D10*
%TO.P,U1,39,VSYS*%
%TO.N,/5V*%
X166390000Y-36910000D03*
%TO.P,U1,40,VBUS*%
%TO.N,unconnected-(U1-Pad40)*%
X166390000Y-34370000D03*
%TD*%
D11*
%TO.P,J10,1,Pin_1*%
%TO.N,Net-(D3-Pad1)*%
X148250000Y-27905000D03*
D10*
%TO.P,J10,2,Pin_2*%
%TO.N,Net-(D1-Pad2)*%
X148250000Y-25365000D03*
%TO.P,J10,3,Pin_3*%
%TO.N,Net-(J10-Pad3)*%
X148250000Y-22825000D03*
%TD*%
D12*
%TO.P,H1,1,1*%
%TO.N,unconnected-(H1-Pad1)*%
X179997500Y-25710000D03*
D13*
%TO.P,H1,2,2*%
%TO.N,unconnected-(H1-Pad2)*%
X182537500Y-25710000D03*
%TO.P,H1,3,3*%
%TO.N,GND*%
X179997500Y-28250000D03*
%TO.P,H1,4,4*%
X182537500Y-28250000D03*
%TO.P,H1,5,5*%
X179997500Y-30790000D03*
%TO.P,H1,6,6*%
X182537500Y-30790000D03*
%TO.P,H1,7,7*%
X179997500Y-33330000D03*
%TO.P,H1,8,8*%
X182537500Y-33330000D03*
%TO.P,H1,9,9*%
%TO.N,unconnected-(H1-Pad9)*%
X179997500Y-35870000D03*
%TO.P,H1,10,10*%
%TO.N,unconnected-(H1-Pad10)*%
X182537500Y-35870000D03*
%TO.P,H1,11,11*%
%TO.N,Net-(D5-Pad2)*%
X179997500Y-38410000D03*
%TO.P,H1,12,12*%
X182537500Y-38410000D03*
%TO.P,H1,13,13*%
%TO.N,unconnected-(H1-Pad13)*%
X179997500Y-40950000D03*
%TO.P,H1,14,14*%
%TO.N,unconnected-(H1-Pad14)*%
X182537500Y-40950000D03*
%TO.P,H1,15,15*%
%TO.N,unconnected-(H1-Pad15)*%
X179997500Y-43490000D03*
%TO.P,H1,16,16*%
%TO.N,unconnected-(H1-Pad16)*%
X182537500Y-43490000D03*
%TD*%
D11*
%TO.P,J11,1,Pin_1*%
%TO.N,Net-(J11-Pad1)*%
X184350000Y-71530000D03*
D10*
%TO.P,J11,2,Pin_2*%
%TO.N,Net-(J11-Pad2)*%
X184350000Y-74070000D03*
%TO.P,J11,3,Pin_3*%
%TO.N,/5V*%
X184350000Y-76610000D03*
%TO.P,J11,4,Pin_4*%
%TO.N,/3V3*%
X184350000Y-79150000D03*
%TO.P,J11,5,Pin_5*%
%TO.N,GND*%
X184350000Y-81690000D03*
%TD*%
D14*
%TO.P,SW3,1,A*%
%TO.N,GND*%
X178400000Y-71800000D03*
%TO.P,SW3,2,B*%
%TO.N,Net-(SW3-Pad2)*%
X178400000Y-76500000D03*
%TD*%
D15*
%TO.P,SW2,1,1*%
%TO.N,GND*%
X159250000Y-36500000D03*
%TO.P,SW2,2,2*%
%TO.N,Net-(SW2-Pad2)*%
X155750000Y-36500000D03*
%TD*%
D16*
%TO.P,D12,1,K*%
%TO.N,GND*%
X169775000Y-119750000D03*
D17*
%TO.P,D12,2,A*%
%TO.N,Net-(D12-Pad2)*%
X167235000Y-119750000D03*
%TD*%
D16*
%TO.P,D6,1,K*%
%TO.N,GND*%
X169775000Y-88250000D03*
D17*
%TO.P,D6,2,A*%
%TO.N,Net-(D6-Pad2)*%
X167235000Y-88250000D03*
%TD*%
D18*
%TO.P,S2,1*%
%TO.N,GND*%
X156200000Y-22900000D03*
%TO.P,S2,2*%
%TO.N,Net-(S2-Pad2)*%
X152800000Y-22900000D03*
%TD*%
D15*
%TO.P,SW1,1,1*%
%TO.N,GND*%
X159250000Y-64500000D03*
%TO.P,SW1,2,2*%
%TO.N,Net-(SW1-Pad2)*%
X155750000Y-64500000D03*
%TD*%
D19*
%TO.P,J7,S*%
%TO.N,GND*%
X173000000Y-122500000D03*
D20*
%TO.P,J7,T*%
%TO.N,Net-(C7-Pad2)*%
X184400000Y-122500000D03*
%TO.P,J7,TN*%
%TO.N,unconnected-(J7-PadTN)*%
X176100000Y-122500000D03*
%TD*%
D16*
%TO.P,D13,1,K*%
%TO.N,GND*%
X162000000Y-125250000D03*
D17*
%TO.P,D13,2,A*%
%TO.N,Net-(D13-Pad2)*%
X164540000Y-125250000D03*
%TD*%
D19*
%TO.P,J4,S*%
%TO.N,GND*%
X173000000Y-101500000D03*
D20*
%TO.P,J4,T*%
%TO.N,Net-(C3-Pad2)*%
X184400000Y-101500000D03*
%TO.P,J4,TN*%
%TO.N,unconnected-(J4-PadTN)*%
X176100000Y-101500000D03*
%TD*%
D16*
%TO.P,D7,1,K*%
%TO.N,GND*%
X162000000Y-93750000D03*
D17*
%TO.P,D7,2,A*%
%TO.N,Net-(D7-Pad2)*%
X164540000Y-93750000D03*
%TD*%
D19*
%TO.P,J3,S*%
%TO.N,GND*%
X158780000Y-101500000D03*
D20*
%TO.P,J3,T*%
%TO.N,Net-(C4-Pad2)*%
X147380000Y-101500000D03*
%TO.P,J3,TN*%
%TO.N,unconnected-(J3-PadTN)*%
X155680000Y-101500000D03*
%TD*%
D16*
%TO.P,D9,1,K*%
%TO.N,GND*%
X162000000Y-104250000D03*
D17*
%TO.P,D9,2,A*%
%TO.N,Net-(D9-Pad2)*%
X164540000Y-104250000D03*
%TD*%
D21*
%TO.P,J9,*%
%TO.N,*%
X166000000Y-25675000D03*
D10*
%TO.P,J9,1*%
%TO.N,Net-(J10-Pad3)*%
X159520000Y-25675000D03*
%TO.P,J9,2*%
%TO.N,Net-(D1-Pad2)*%
X162620000Y-25675000D03*
%TO.P,J9,3*%
%TO.N,Net-(D3-Pad1)*%
X170920000Y-25675000D03*
%TD*%
D19*
%TO.P,J1,S*%
%TO.N,GND*%
X173000000Y-91000000D03*
D20*
%TO.P,J1,T*%
%TO.N,Net-(J1-PadT)*%
X184400000Y-91000000D03*
%TO.P,J1,TN*%
%TO.N,unconnected-(J1-PadTN)*%
X176100000Y-91000000D03*
%TD*%
D19*
%TO.P,J8,S*%
%TO.N,GND*%
X158780000Y-122500000D03*
D20*
%TO.P,J8,T*%
%TO.N,Net-(C8-Pad2)*%
X147380000Y-122500000D03*
%TO.P,J8,TN*%
%TO.N,unconnected-(J8-PadTN)*%
X155680000Y-122500000D03*
%TD*%
D19*
%TO.P,J6,S*%
%TO.N,GND*%
X158780000Y-112000000D03*
D20*
%TO.P,J6,T*%
%TO.N,Net-(C6-Pad2)*%
X147380000Y-112000000D03*
%TO.P,J6,TN*%
%TO.N,unconnected-(J6-PadTN)*%
X155680000Y-112000000D03*
%TD*%
D16*
%TO.P,D11,1,K*%
%TO.N,GND*%
X162000000Y-114750000D03*
D17*
%TO.P,D11,2,A*%
%TO.N,Net-(D11-Pad2)*%
X164540000Y-114750000D03*
%TD*%
D16*
%TO.P,D10,1,K*%
%TO.N,GND*%
X169775000Y-109250000D03*
D17*
%TO.P,D10,2,A*%
%TO.N,Net-(D10-Pad2)*%
X167235000Y-109250000D03*
%TD*%
D22*
%TO.P,S1,1*%
%TO.N,Net-(S1-Pad1)*%
X180000000Y-51250000D03*
%TO.P,S1,2*%
%TO.N,GND*%
X175000000Y-51250000D03*
D23*
%TO.P,S1,3*%
%TO.N,unconnected-(S1-Pad3)*%
X171800000Y-58250000D03*
X183200000Y-58250000D03*
D22*
%TO.P,S1,A,CH_A*%
%TO.N,Net-(S1-PadA)*%
X180000000Y-65750000D03*
%TO.P,S1,B,CH_B*%
%TO.N,Net-(S1-PadB)*%
X175000000Y-65750000D03*
%TO.P,S1,C,COM*%
%TO.N,GND*%
X177500000Y-65750000D03*
%TD*%
D19*
%TO.P,J2,S*%
%TO.N,GND*%
X158780000Y-91000000D03*
D20*
%TO.P,J2,T*%
%TO.N,Net-(J2-PadT)*%
X147380000Y-91000000D03*
%TO.P,J2,TN*%
%TO.N,unconnected-(J2-PadTN)*%
X155680000Y-91000000D03*
%TD*%
D16*
%TO.P,D8,1,K*%
%TO.N,GND*%
X169775000Y-98750000D03*
D17*
%TO.P,D8,2,A*%
%TO.N,Net-(D8-Pad2)*%
X167235000Y-98750000D03*
%TD*%
D24*
%TO.P,SW4,1,A*%
%TO.N,GND*%
X152800000Y-50600000D03*
%TO.P,SW4,2,B*%
%TO.N,Net-(SW4-Pad2)*%
X157500000Y-50600000D03*
%TD*%
D19*
%TO.P,J5,S*%
%TO.N,GND*%
X173000000Y-112000000D03*
D20*
%TO.P,J5,T*%
%TO.N,Net-(C5-Pad2)*%
X184400000Y-112000000D03*
%TO.P,J5,TN*%
%TO.N,unconnected-(J5-PadTN)*%
X176100000Y-112000000D03*
%TD*%
D25*
%TO.N,/5V*%
X163600000Y-37200000D03*
X163600000Y-45600000D03*
%TO.N,GND*%
X155500000Y-33100000D03*
%TO.N,Net-(Q1-Pad3)*%
X153200000Y-58300000D03*
X176000000Y-87800000D03*
%TO.N,/D Out 1*%
X153100000Y-81600000D03*
X179500000Y-104800000D03*
%TO.N,Net-(R7-Pad1)*%
X151600000Y-59200000D03*
X168800000Y-79500000D03*
%TO.N,Net-(R8-Pad1)*%
X155100000Y-61500000D03*
X163900000Y-84800000D03*
%TO.N,Net-(R9-Pad1)*%
X153700000Y-46100000D03*
X158900000Y-106900000D03*
%TO.N,Net-(R10-Pad1)*%
X160000000Y-47300000D03*
X158800000Y-97800000D03*
X150900000Y-40100000D03*
X161400000Y-69000000D03*
%TO.N,Net-(R11-Pad1)*%
X171900000Y-115700000D03*
X168900000Y-49800000D03*
%TO.N,Net-(R12-Pad1)*%
X175600000Y-55200000D03*
X171700000Y-106400000D03*
%TO.N,Net-(R13-Pad1)*%
X170700000Y-124400000D03*
X168900000Y-57000000D03*
%TO.N,Net-(R14-Pad1)*%
X160600000Y-118600000D03*
X169600000Y-62300000D03*
%TO.N,/D Out 4*%
X156000000Y-117500000D03*
X161600000Y-76300000D03*
%TO.N,Net-(S1-Pad1)*%
X177600000Y-49100000D03*
X151700000Y-58000000D03*
%TO.N,Net-(S1-PadA)*%
X153700000Y-72600000D03*
X179300000Y-62600000D03*
X163500000Y-65500000D03*
X174700000Y-62600000D03*
%TO.N,Net-(S1-PadB)*%
X156875480Y-70575480D03*
X152000000Y-72300000D03*
%TO.N,Net-(S2-Pad2)*%
X162700000Y-59700000D03*
%TO.N,Net-(SW3-Pad2)*%
X162900000Y-73300000D03*
X151500000Y-76400000D03*
%TO.N,Net-(SW4-Pad2)*%
X146400000Y-80900000D03*
X159700000Y-50700000D03*
%TO.N,Net-(U1-Pad21)*%
X161600000Y-77500000D03*
X158100000Y-82800000D03*
%TO.N,Net-(U1-Pad24)*%
X165100000Y-84200000D03*
X167900000Y-75800000D03*
%TO.N,Net-(U1-Pad26)*%
X157400000Y-74000000D03*
X161700000Y-72000000D03*
%TO.N,Net-(U1-Pad27)*%
X156500000Y-75600000D03*
X161800000Y-70900000D03*
%TO.N,/PWM Out 1*%
X179800000Y-93900000D03*
X151000000Y-79600000D03*
%TO.N,/3V3*%
X183230000Y-77850000D03*
X169510000Y-46340000D03*
%TO.N,Net-(Q2-Pad1)*%
X147500000Y-85900000D03*
X151000000Y-54600000D03*
%TD*%
D26*
%TO.N,/5V*%
X163600000Y-45600000D02*
X163600000Y-37200000D01*
D27*
%TO.N,GND*%
X151700489Y-29300489D02*
X155500000Y-33100000D01*
X152049511Y-21350489D02*
X151700489Y-21699511D01*
X154650489Y-21350489D02*
X152049511Y-21350489D01*
X156200000Y-22900000D02*
X154650489Y-21350489D01*
X151700489Y-21699511D02*
X151700489Y-29300489D01*
D26*
%TO.N,Net-(Q1-Pad3)*%
X166699897Y-50975489D02*
X168675386Y-49000000D01*
X168675386Y-49000000D02*
X170775489Y-49000000D01*
X165215489Y-50975489D02*
X166699897Y-50975489D01*
X163110812Y-60949520D02*
X165215489Y-58844843D01*
X182100000Y-81700000D02*
X176000000Y-87800000D01*
X162289188Y-60949520D02*
X163110812Y-60949520D01*
X181475489Y-60375489D02*
X182100000Y-61000000D01*
X170775489Y-49000000D02*
X181475489Y-59700000D01*
X165215489Y-58844843D02*
X165215489Y-50975489D01*
X153200000Y-58300000D02*
X159639668Y-58300000D01*
X159639668Y-58300000D02*
X162289188Y-60949520D01*
X182100000Y-61000000D02*
X182100000Y-81700000D01*
X181475489Y-59700000D02*
X181475489Y-60375489D01*
%TO.N,/D Out 1*%
X174239511Y-118460489D02*
X171449031Y-121250969D01*
X171449031Y-121250969D02*
X171449031Y-124866449D01*
X171449031Y-124866449D02*
X169840969Y-126474511D01*
X157069511Y-123469511D02*
X157069511Y-120969511D01*
X174239511Y-110060489D02*
X174239511Y-118460489D01*
X157069511Y-120969511D02*
X150671388Y-114571388D01*
X160074511Y-126474511D02*
X157069511Y-123469511D01*
X150671388Y-114571388D02*
X150671388Y-84028612D01*
X179500000Y-104800000D02*
X174239511Y-110060489D01*
X150671388Y-84028612D02*
X153100000Y-81600000D01*
X169840969Y-126474511D02*
X160074511Y-126474511D01*
%TO.N,Net-(R7-Pad1)*%
X164674031Y-73174031D02*
X164674031Y-65013699D01*
X158860332Y-59200000D02*
X151600000Y-59200000D01*
X168800000Y-79500000D02*
X168800000Y-75675386D01*
X165335489Y-73835489D02*
X164674031Y-73174031D01*
X168800000Y-75675386D02*
X166960103Y-73835489D01*
X164674031Y-65013699D02*
X158860332Y-59200000D01*
X166960103Y-73835489D02*
X165335489Y-73835489D01*
%TO.N,Net-(R8-Pad1)*%
X164224511Y-65199897D02*
X160524614Y-61500000D01*
X163900000Y-84800000D02*
X164224511Y-84475489D01*
X164224511Y-84475489D02*
X164224511Y-65199897D01*
X160524614Y-61500000D02*
X155100000Y-61500000D01*
%TO.N,Net-(R9-Pad1)*%
X150775489Y-73024511D02*
X150775489Y-70924511D01*
X150575489Y-56724511D02*
X154400000Y-52900000D01*
X150775489Y-76700103D02*
X150775489Y-73024511D01*
X158900000Y-106900000D02*
X153926495Y-101926495D01*
X150575489Y-64275489D02*
X150575489Y-56724511D01*
X150775489Y-70924511D02*
X154000000Y-67700000D01*
X154000000Y-67700000D02*
X150575489Y-64275489D01*
X153926495Y-79851109D02*
X150775489Y-76700103D01*
X154400000Y-46800000D02*
X153700000Y-46100000D01*
X154400000Y-52900000D02*
X154400000Y-46800000D01*
X153926495Y-101926495D02*
X153926495Y-79851109D01*
%TO.N,Net-(R10-Pad1)*%
X163624511Y-73600103D02*
X163624511Y-71224511D01*
X158200000Y-47400000D02*
X150900000Y-40100000D01*
X157069511Y-79766207D02*
X162811207Y-74024511D01*
X157069511Y-96069511D02*
X157069511Y-79766207D01*
X163624511Y-71224511D02*
X161400000Y-69000000D01*
D28*
X158800000Y-47400000D02*
X158900000Y-47300000D01*
D26*
X163200103Y-74024511D02*
X163624511Y-73600103D01*
X158800000Y-47400000D02*
X158200000Y-47400000D01*
X162811207Y-74024511D02*
X163200103Y-74024511D01*
D28*
X158900000Y-47300000D02*
X160000000Y-47300000D01*
D26*
X158800000Y-97800000D02*
X157069511Y-96069511D01*
%TO.N,Net-(R11-Pad1)*%
X170398062Y-106500000D02*
X170398062Y-106100000D01*
X171449031Y-115249031D02*
X171449031Y-107550969D01*
X171449031Y-105049031D02*
X171449031Y-72900000D01*
X170398062Y-106100000D02*
X171449031Y-105049031D01*
X171900000Y-115700000D02*
X171449031Y-115249031D01*
X173524511Y-70824520D02*
X173524511Y-54424511D01*
X173524511Y-54424511D02*
X168900000Y-49800000D01*
X171449031Y-72900000D02*
X173524511Y-70824520D01*
X171449031Y-107550969D02*
X170398062Y-106500000D01*
%TO.N,Net-(R12-Pad1)*%
X171700000Y-106400000D02*
X174239511Y-103860489D01*
X181400000Y-66223143D02*
X181400000Y-61000000D01*
X174239511Y-103860489D02*
X174239511Y-73383632D01*
X174239511Y-73383632D02*
X181400000Y-66223143D01*
X181400000Y-61000000D02*
X175600000Y-55200000D01*
%TO.N,Net-(R13-Pad1)*%
X170999511Y-124100489D02*
X170999511Y-107799511D01*
X168900000Y-59600000D02*
X168900000Y-57000000D01*
X170499511Y-107799511D02*
X169500000Y-106800000D01*
X169500000Y-105999022D02*
X170999511Y-104499511D01*
X170999511Y-61699511D02*
X168900000Y-59600000D01*
X169500000Y-106800000D02*
X169500000Y-105999022D01*
X170999511Y-104499511D02*
X170999511Y-61699511D01*
X170999511Y-107799511D02*
X170499511Y-107799511D01*
X170700000Y-124400000D02*
X170999511Y-124100489D01*
%TO.N,Net-(R14-Pad1)*%
X160600000Y-90081010D02*
X169600000Y-81081010D01*
X169600000Y-81081010D02*
X169600000Y-62300000D01*
X160600000Y-118600000D02*
X160600000Y-90081010D01*
D28*
%TO.N,/D Out 4*%
X162600000Y-76300000D02*
X161600000Y-76300000D01*
X159994511Y-113505489D02*
X159994511Y-87205489D01*
X162600000Y-84600000D02*
X162600000Y-76300000D01*
X156000000Y-117500000D02*
X159994511Y-113505489D01*
X159994511Y-87205489D02*
X162600000Y-84600000D01*
D26*
%TO.N,Net-(S1-Pad1)*%
X152500000Y-57200000D02*
X151700000Y-58000000D01*
X163424511Y-59399897D02*
X163424511Y-60000103D01*
X176744511Y-48244511D02*
X177600000Y-49100000D01*
X159175386Y-57200000D02*
X152500000Y-57200000D01*
X165689520Y-48244511D02*
X176744511Y-48244511D01*
X163424511Y-60000103D02*
X162924614Y-60500000D01*
X162475386Y-60500000D02*
X159175386Y-57200000D01*
X162924614Y-60500000D02*
X162475386Y-60500000D01*
X163149520Y-59124906D02*
X163424511Y-59399897D01*
X163149520Y-50784511D02*
X165689520Y-48244511D01*
X163149520Y-50784511D02*
X163149520Y-59124906D01*
%TO.N,Net-(S1-PadA)*%
X156400000Y-72600000D02*
X153700000Y-72600000D01*
X179300000Y-62600000D02*
X174700000Y-62600000D01*
X163500000Y-65500000D02*
X156400000Y-72600000D01*
D28*
%TO.N,Net-(S1-PadB)*%
X156875480Y-70575480D02*
X153724520Y-70575480D01*
X153724520Y-70575480D02*
X152000000Y-72300000D01*
D26*
%TO.N,Net-(S2-Pad2)*%
X152800000Y-22900000D02*
X162700000Y-32800000D01*
X162700000Y-32800000D02*
X162700000Y-59700000D01*
%TO.N,Net-(SW3-Pad2)*%
X159800000Y-76400000D02*
X151500000Y-76400000D01*
X162900000Y-73300000D02*
X159800000Y-76400000D01*
%TO.N,Net-(SW4-Pad2)*%
X154375489Y-45375489D02*
X153024511Y-45375489D01*
X153024511Y-45375489D02*
X149784511Y-48615489D01*
X146400000Y-57778990D02*
X146400000Y-80900000D01*
X159700000Y-50700000D02*
X154375489Y-45375489D01*
X148123501Y-56055489D02*
X146400000Y-57778990D01*
X149784511Y-55176499D02*
X148905521Y-56055489D01*
X148905521Y-56055489D02*
X148123501Y-56055489D01*
X149784511Y-48615489D02*
X149784511Y-55176499D01*
%TO.N,Net-(U1-Pad21)*%
X158100000Y-82800000D02*
X158100000Y-81000000D01*
X158100000Y-81000000D02*
X161600000Y-77500000D01*
%TO.N,Net-(U1-Pad24)*%
X165100000Y-82258990D02*
X166058990Y-81300000D01*
X166058990Y-81300000D02*
X166841010Y-81300000D01*
X165100000Y-84200000D02*
X165100000Y-82258990D01*
X167900000Y-80241010D02*
X167900000Y-75800000D01*
X166841010Y-81300000D02*
X167900000Y-80241010D01*
%TO.N,Net-(U1-Pad26)*%
X159700000Y-74000000D02*
X161700000Y-72000000D01*
X157400000Y-74000000D02*
X159700000Y-74000000D01*
%TO.N,Net-(U1-Pad27)*%
X156500000Y-75600000D02*
X156500000Y-73875386D01*
X159475386Y-70900000D02*
X161800000Y-70900000D01*
X156500000Y-73875386D02*
X159475386Y-70900000D01*
%TO.N,/PWM Out 1*%
X179800000Y-93900000D02*
X181108612Y-95208612D01*
X150221868Y-83813850D02*
X151000000Y-83035718D01*
X153926495Y-118526495D02*
X154300000Y-118900000D01*
X153926495Y-118526495D02*
X150221868Y-114821868D01*
X181108612Y-95208612D02*
X181108612Y-116677432D01*
X158600000Y-127500000D02*
X155400000Y-124300000D01*
D28*
X155400000Y-124300000D02*
X154300000Y-123200000D01*
D26*
X154300000Y-123200000D02*
X154300000Y-123085066D01*
X177489511Y-123075555D02*
X173065066Y-127500000D01*
X173065066Y-127500000D02*
X158600000Y-127500000D01*
X150221868Y-114821868D02*
X150221868Y-83813850D01*
X177489511Y-120296533D02*
X177489511Y-123075555D01*
D28*
X154300000Y-123200000D02*
X154300000Y-118900000D01*
D26*
X151000000Y-83035718D02*
X151000000Y-79600000D01*
X181108612Y-116677432D02*
X177489511Y-120296533D01*
%TO.N,/3V3*%
X169510000Y-46340000D02*
X176963143Y-46340000D01*
X183160000Y-77780000D02*
X183230000Y-77850000D01*
X183160000Y-76138990D02*
X183160000Y-77780000D01*
X185524511Y-54901368D02*
X185524511Y-74556499D01*
X185524511Y-74556499D02*
X184836499Y-75244511D01*
X184836499Y-75244511D02*
X184054479Y-75244511D01*
X184054479Y-75244511D02*
X183160000Y-76138990D01*
X176963143Y-46340000D02*
X185524511Y-54901368D01*
%TO.N,Net-(Q2-Pad1)*%
X150125969Y-83274031D02*
X150125969Y-55474031D01*
X150125969Y-55474031D02*
X151000000Y-54600000D01*
X147500000Y-85900000D02*
X150125969Y-83274031D01*
%TD*%
M02*
