M48
; DRILL file {KiCad 7.0.10-7.0.10~ubuntu22.04.1} date Wed 13 Mar 2024 10:21:03 GMT
; FORMAT={-:-/ absolute / inch / decimal}
; #@! TF.CreationDate,2024-03-13T10:21:03+00:00
; #@! TF.GenerationSoftware,Kicad,Pcbnew,7.0.10-7.0.10~ubuntu22.04.1
; #@! TF.FileFunction,Plated,1,2,PTH
FMAT,2
INCH
; #@! TA.AperFunction,Plated,PTH,ComponentDrill
T1C0.0079
; #@! TA.AperFunction,Plated,PTH,ViaDrill
T2C0.0118
; #@! TA.AperFunction,Plated,PTH,ViaDrill
T3C0.0138
; #@! TA.AperFunction,Plated,PTH,ComponentDrill
T4C0.0138
; #@! TA.AperFunction,Plated,PTH,ComponentDrill
T5C0.0197
; #@! TA.AperFunction,Plated,PTH,ComponentDrill
T6C0.0236
; #@! TA.AperFunction,Plated,PTH,ComponentDrill
T7C0.0276
; #@! TA.AperFunction,Plated,PTH,ComponentDrill
T8C0.0354
; #@! TA.AperFunction,Plated,PTH,ComponentDrill
T9C0.0394
; #@! TA.AperFunction,Plated,PTH,ComponentDrill
T10C0.0480
; #@! TA.AperFunction,Plated,PTH,ComponentDrill
T11C0.0559
; #@! TA.AperFunction,Plated,PTH,ComponentDrill
T12C0.0563
; #@! TA.AperFunction,Plated,PTH,ComponentDrill
T13C0.0709
%
G90
G05
T1
X7.0236Y-1.3666
X7.0236Y-1.4099
X7.1045Y-1.6478
X7.1045Y-1.6911
T2
X6.3677Y-1.499
T3
X5.8031Y-4.5335
X5.8091Y-4.7461
X5.8602Y-3.6752
X5.8602Y-4.065
X5.8681Y-4.9783
X5.876Y-1.0177
X5.8907Y-1.872
X5.8917Y-3.3839
X5.9112Y-1.9058
X5.9232Y-4.4705
X5.9409Y-1.8799
X5.948Y-0.8724
X5.9547Y-4.7067
X5.9646Y-2.4685
X5.9689Y-1.0362
X5.9705Y-1.25
X5.9724Y-1.8976
X5.9843Y-2.5748
X6.0Y-1.4823
X6.002Y-4.1969
X6.0059Y-2.1988
X6.0079Y-3.4193
X6.0118Y-4.1496
X6.0374Y-1.9646
X6.0531Y-2.9823
X6.0555Y-3.8626
X6.0669Y-4.2106
X6.0768Y-1.9665
X6.1043Y-4.4819
X6.1063Y-1.9665
X6.1114Y-3.4791
X6.1476Y-1.2441
X6.1496Y-1.9646
X6.1516Y-2.1909
X6.1516Y-2.2795
X6.1516Y-2.6063
X6.2106Y-4.5098
X6.2421Y-1.9764
X6.249Y-2.8878
X6.252Y-1.5236
X6.2598Y-2.0098
X6.2618Y-1.3839
X6.2618Y-2.6437
X6.2677Y-1.8051
X6.2677Y-1.8917
X6.2677Y-3.1811
X6.2697Y-2.1693
X6.2835Y-2.061
X6.2881Y-2.4321
X6.2933Y-1.7657
X6.2972Y-1.8465
X6.3131Y-2.1102
X6.3169Y-3.2185
X6.3209Y-1.8012
X6.3209Y-1.8917
X6.3209Y-4.0551
X6.3366Y-1.7343
X6.3425Y-2.0925
X6.3473Y-2.7469
X6.3563Y-1.6929
X6.3681Y-3.3189
X6.3701Y-4.185
X6.376Y-2.3406
X6.3878Y-3.689
X6.4016Y-3.1575
X6.4024Y-4.5835
X6.4291Y-2.0689
X6.4449Y-1.2205
X6.4488Y-1.1575
X6.4528Y-3.2087
X6.4606Y-2.8465
X6.4626Y-2.2146
X6.4744Y-3.7657
X6.4774Y-1.6683
X6.4882Y-1.1909
X6.5Y-3.2569
X6.5118Y-3.9488
X6.5217Y-3.3681
X6.5286Y-1.306
X6.5354Y-1.3976
X6.5374Y-4.2638
X6.5413Y-2.0866
X6.5453Y-3.7992
X6.5492Y-3.0709
X6.5551Y-3.1693
X6.561Y-1.187
X6.5669Y-1.5669
X6.5669Y-3.7195
X6.5807Y-1.8484
X6.5827Y-2.2697
X6.5846Y-1.6575
X6.5886Y-1.8898
X6.5984Y-2.9409
X6.606Y-1.7104
X6.6122Y-2.8996
X6.6161Y-1.8524
X6.6181Y-4.189
X6.6212Y-1.9165
X6.6315Y-2.7382
X6.6427Y-1.8958
X6.6476Y-2.0768
X6.6516Y-1.8012
X6.6645Y-1.8456
X6.6713Y-1.7205
X6.6732Y-1.7717
X6.6736Y-4.472
X6.6772Y-2.2165
X6.6835Y-4.9173
X6.6969Y-1.6083
X6.7157Y-1.2839
X6.7165Y-2.06
X6.7205Y-2.3425
X6.7205Y-3.0217
X6.7244Y-1.8501
X6.7402Y-4.252
X6.7421Y-4.1063
X6.7539Y-3.4685
X6.772Y-3.2811
X6.7953Y-1.5748
X6.7992Y-1.4272
X6.8051Y-1.3465
X6.8067Y-1.3118
X6.8091Y-3.1811
X6.815Y-2.5768
X6.8161Y-1.028
X6.8354Y-2.8122
X6.8445Y-2.7205
X6.8681Y-3.0315
X6.8732Y-4.9173
X6.874Y-2.0886
X6.898Y-1.2071
X6.9031Y-0.9378
X6.9075Y-3.8598
X6.9114Y-1.0315
X6.9114Y-2.8194
X6.9114Y-3.0138
X6.9193Y-2.5748
X6.9193Y-3.6122
X6.9196Y-2.1634
X6.9311Y-3.8839
X6.9386Y-4.5969
X6.9587Y-4.3169
X6.9713Y-4.9201
X6.989Y-3.4834
X6.9933Y-1.0272
X7.0059Y-2.7736
X7.0106Y-0.928
X7.0236Y-1.4513
X7.0248Y-1.7906
X7.0433Y-4.6701
X7.0728Y-2.7205
X7.0778Y-2.5529
X7.0781Y-2.9062
X7.0866Y-1.2063
X7.0964Y-1.3405
X7.0996Y-1.0311
X7.1043Y-4.2618
X7.1152Y-4.6929
X7.1157Y-4.165
X7.126Y-4.748
X7.1272Y-2.3928
X7.1516Y-2.9862
X7.1516Y-3.0177
X7.1555Y-2.7461
X7.1555Y-2.9547
X7.1575Y-4.9114
X7.1625Y-2.8572
X7.1725Y-1.4339
X7.1854Y-1.7089
X7.2008Y-3.0177
X7.2055Y-2.0398
X7.2067Y-2.7047
X7.2096Y-4.3075
X7.215Y-1.0315
X7.2228Y-1.2362
X7.226Y-1.3894
X7.2343Y-3.8937
X7.2461Y-1.7071
X7.2539Y-4.128
X7.2559Y-4.5472
X7.2559Y-4.9449
X7.2697Y-3.8445
X7.2776Y-2.9862
X7.2776Y-4.75
X7.2835Y-1.7736
X7.2854Y-3.2264
T4
X6.4941Y-1.4331
X6.4941Y-1.4833
X6.4941Y-1.5335
X6.5443Y-1.4331
X6.5443Y-1.4833
X6.5443Y-1.5335
X6.5945Y-1.4331
X6.5945Y-1.4833
X6.5945Y-1.5335
T5
X6.353Y-0.8813
X6.353Y-0.9463
X6.3923Y-0.8813
X6.3923Y-0.9463
X6.4317Y-0.8813
X6.4317Y-0.9463
X6.4711Y-0.8813
X6.4711Y-0.9463
T7
X6.435Y-2.3996
X6.435Y-2.6122
X6.5335Y-2.3996
X6.5335Y-2.6122
X6.6319Y-2.3996
X6.6319Y-2.6122
T8
X6.4094Y-2.9758
X6.4094Y-3.0758
X6.4094Y-3.4055
X6.4094Y-3.5055
X6.4094Y-3.836
X6.4094Y-3.936
X6.4094Y-4.2654
X6.4094Y-4.3654
X6.4094Y-4.6963
X6.4094Y-4.7963
X6.6571Y-3.4055
X6.6571Y-3.5055
X6.6575Y-2.9764
X6.6575Y-3.0764
X6.6575Y-3.837
X6.6575Y-3.937
X6.6575Y-4.2671
X6.6575Y-4.3671
X6.6575Y-4.6972
X6.6575Y-4.7972
T9
X5.8238Y-1.3366
X5.8258Y-1.5039
X5.8307Y-1.6927
X5.8307Y-1.7927
X5.8307Y-1.8927
X5.9134Y-2.7987
X5.9238Y-1.3366
X5.9258Y-1.5039
X6.0118Y-2.7987
X6.1102Y-2.7987
X6.9606Y-2.7987
X7.0591Y-2.7987
X7.1575Y-2.7987
T10
X6.2569Y-3.1112
X6.2569Y-3.5413
X6.2569Y-3.9715
X6.2569Y-4.4016
X6.2569Y-4.8317
X6.8089Y-3.1122
X6.8089Y-3.5423
X6.8089Y-3.9724
X6.8089Y-4.4026
X6.8089Y-4.8327
T11
X6.1348Y-3.1112
X6.1348Y-3.5413
X6.1348Y-3.9715
X6.1348Y-4.4016
X6.1348Y-4.8317
X6.9309Y-3.1122
X6.9309Y-3.5423
X6.9309Y-3.9724
X6.9309Y-4.4026
X6.9309Y-4.8327
T12
X5.8081Y-3.1112
X5.8081Y-3.5413
X5.8081Y-3.9715
X5.8081Y-4.4016
X5.8081Y-4.8317
X7.2577Y-3.1122
X7.2577Y-3.5423
X7.2577Y-3.9724
X7.2577Y-4.4026
X7.2577Y-4.8327
T13
X5.8228Y-2.5034
X6.2008Y-2.5034
X6.8701Y-2.5034
X7.248Y-2.5034
T5
G00X6.2742Y-0.9177
M15
G01X6.2742Y-0.9098
M16
G05
G00X6.3136Y-0.9177
M15
G01X6.3136Y-0.9098
M16
G05
G00X6.5104Y-0.9098
M15
G01X6.5104Y-0.9177
M16
G05
G00X6.5498Y-0.9098
M15
G01X6.5498Y-0.9177
M16
G05
T6
G00X6.2319Y-0.8575
M15
G01X6.2594Y-0.8575
M16
G05
G00X6.2594Y-0.9701
M15
G01X6.2319Y-0.9701
M16
G05
G00X6.5646Y-0.8575
M15
G01X6.5921Y-0.8575
M16
G05
G00X6.5646Y-0.9701
M15
G01X6.5921Y-0.9701
M16
G05
T8
G00X7.0197Y-1.9559
M15
G01X7.0197Y-1.9047
M16
G05
G00X7.2047Y-1.9559
M15
G01X7.2047Y-1.9047
M16
G05
M30
