%TF.GenerationSoftware,KiCad,Pcbnew,7.0.10-7.0.10~ubuntu22.04.1*%
%TF.CreationDate,2024-03-13T10:21:15+00:00*%
%TF.ProjectId,useq1,75736571-312e-46b6-9963-61645f706362,rev?*%
%TF.SameCoordinates,Original*%
%TF.FileFunction,Paste,Top*%
%TF.FilePolarity,Positive*%
%FSLAX46Y46*%
G04 Gerber Fmt 4.6, Leading zero omitted, Abs format (unit mm)*
G04 Created by KiCad (PCBNEW 7.0.10-7.0.10~ubuntu22.04.1) date 2024-03-13 10:21:15*
%MOMM*%
%LPD*%
G01*
G04 APERTURE LIST*
G04 Aperture macros list*
%AMRoundRect*
0 Rectangle with rounded corners*
0 $1 Rounding radius*
0 $2 $3 $4 $5 $6 $7 $8 $9 X,Y pos of 4 corners*
0 Add a 4 corners polygon primitive as box body*
4,1,4,$2,$3,$4,$5,$6,$7,$8,$9,$2,$3,0*
0 Add four circle primitives for the rounded corners*
1,1,$1+$1,$2,$3*
1,1,$1+$1,$4,$5*
1,1,$1+$1,$6,$7*
1,1,$1+$1,$8,$9*
0 Add four rect primitives between the rounded corners*
20,1,$1+$1,$2,$3,$4,$5,0*
20,1,$1+$1,$4,$5,$6,$7,0*
20,1,$1+$1,$6,$7,$8,$9,0*
20,1,$1+$1,$8,$9,$2,$3,0*%
G04 Aperture macros list end*
%ADD10RoundRect,0.150000X-0.587500X-0.150000X0.587500X-0.150000X0.587500X0.150000X-0.587500X0.150000X0*%
%ADD11RoundRect,0.200000X-0.275000X0.200000X-0.275000X-0.200000X0.275000X-0.200000X0.275000X0.200000X0*%
%ADD12RoundRect,0.135000X-0.135000X-0.185000X0.135000X-0.185000X0.135000X0.185000X-0.135000X0.185000X0*%
%ADD13RoundRect,0.250000X-0.450000X0.262500X-0.450000X-0.262500X0.450000X-0.262500X0.450000X0.262500X0*%
%ADD14RoundRect,0.135000X0.185000X-0.135000X0.185000X0.135000X-0.185000X0.135000X-0.185000X-0.135000X0*%
%ADD15RoundRect,0.135000X0.135000X0.185000X-0.135000X0.185000X-0.135000X-0.185000X0.135000X-0.185000X0*%
%ADD16RoundRect,0.225000X-0.225000X-0.250000X0.225000X-0.250000X0.225000X0.250000X-0.225000X0.250000X0*%
%ADD17RoundRect,0.150000X-0.725000X-0.150000X0.725000X-0.150000X0.725000X0.150000X-0.725000X0.150000X0*%
%ADD18RoundRect,0.200000X-0.200000X-0.275000X0.200000X-0.275000X0.200000X0.275000X-0.200000X0.275000X0*%
%ADD19RoundRect,0.200000X0.275000X-0.200000X0.275000X0.200000X-0.275000X0.200000X-0.275000X-0.200000X0*%
%ADD20RoundRect,0.140000X0.140000X0.170000X-0.140000X0.170000X-0.140000X-0.170000X0.140000X-0.170000X0*%
%ADD21RoundRect,0.200000X0.200000X0.275000X-0.200000X0.275000X-0.200000X-0.275000X0.200000X-0.275000X0*%
%ADD22RoundRect,0.140000X-0.170000X0.140000X-0.170000X-0.140000X0.170000X-0.140000X0.170000X0.140000X0*%
%ADD23RoundRect,0.225000X-0.250000X0.225000X-0.250000X-0.225000X0.250000X-0.225000X0.250000X0.225000X0*%
%ADD24RoundRect,0.140000X0.170000X-0.140000X0.170000X0.140000X-0.170000X0.140000X-0.170000X-0.140000X0*%
%ADD25RoundRect,0.250000X-0.292217X-0.292217X0.292217X-0.292217X0.292217X0.292217X-0.292217X0.292217X0*%
%ADD26RoundRect,0.050000X-0.387500X-0.050000X0.387500X-0.050000X0.387500X0.050000X-0.387500X0.050000X0*%
%ADD27RoundRect,0.050000X-0.050000X-0.387500X0.050000X-0.387500X0.050000X0.387500X-0.050000X0.387500X0*%
%ADD28RoundRect,0.225000X0.250000X-0.225000X0.250000X0.225000X-0.250000X0.225000X-0.250000X-0.225000X0*%
%ADD29RoundRect,0.250000X-0.262500X-0.450000X0.262500X-0.450000X0.262500X0.450000X-0.262500X0.450000X0*%
%ADD30RoundRect,0.140000X0.219203X0.021213X0.021213X0.219203X-0.219203X-0.021213X-0.021213X-0.219203X0*%
%ADD31RoundRect,0.250000X-0.250000X-0.475000X0.250000X-0.475000X0.250000X0.475000X-0.250000X0.475000X0*%
%ADD32RoundRect,0.140000X-0.140000X-0.170000X0.140000X-0.170000X0.140000X0.170000X-0.140000X0.170000X0*%
%ADD33RoundRect,0.225000X-0.225000X-0.375000X0.225000X-0.375000X0.225000X0.375000X-0.225000X0.375000X0*%
%ADD34R,1.000000X3.150000*%
%ADD35RoundRect,0.250000X-0.475000X0.337500X-0.475000X-0.337500X0.475000X-0.337500X0.475000X0.337500X0*%
%ADD36RoundRect,0.172500X-0.262500X-0.172500X0.262500X-0.172500X0.262500X0.172500X-0.262500X0.172500X0*%
%ADD37RoundRect,0.093750X-0.093750X-0.106250X0.093750X-0.106250X0.093750X0.106250X-0.093750X0.106250X0*%
%ADD38RoundRect,0.100000X-0.712500X-0.100000X0.712500X-0.100000X0.712500X0.100000X-0.712500X0.100000X0*%
%ADD39RoundRect,0.225000X0.225000X0.250000X-0.225000X0.250000X-0.225000X-0.250000X0.225000X-0.250000X0*%
%ADD40RoundRect,0.218750X-0.256250X0.218750X-0.256250X-0.218750X0.256250X-0.218750X0.256250X0.218750X0*%
%ADD41R,1.400000X1.200000*%
%ADD42RoundRect,0.237500X-0.237500X0.300000X-0.237500X-0.300000X0.237500X-0.300000X0.237500X0.300000X0*%
%ADD43RoundRect,0.112500X0.187500X0.112500X-0.187500X0.112500X-0.187500X-0.112500X0.187500X-0.112500X0*%
%ADD44RoundRect,0.112500X0.112500X-0.187500X0.112500X0.187500X-0.112500X0.187500X-0.112500X-0.187500X0*%
%ADD45RoundRect,0.150000X-0.650000X-0.150000X0.650000X-0.150000X0.650000X0.150000X-0.650000X0.150000X0*%
%ADD46RoundRect,0.140000X-0.219203X-0.021213X-0.021213X-0.219203X0.219203X0.021213X0.021213X0.219203X0*%
%ADD47O,1.800000X1.200000*%
%ADD48O,0.800000X1.000000*%
%ADD49C,0.800000*%
G04 APERTURE END LIST*
D10*
%TO.C,U6*%
X177275000Y-73600000D03*
X177275000Y-75500000D03*
X179150000Y-74550000D03*
%TD*%
D11*
%TO.C,R26*%
X169050000Y-103725000D03*
X169050000Y-105375000D03*
%TD*%
D12*
%TO.C,R14*%
X183840000Y-74000000D03*
X184860000Y-74000000D03*
%TD*%
%TO.C,R63*%
X151380000Y-114450000D03*
X152400000Y-114450000D03*
%TD*%
D13*
%TO.C,FB2*%
X184900000Y-21585000D03*
X184900000Y-23410000D03*
%TD*%
D14*
%TO.C,R5*%
X149700000Y-94500000D03*
X149700000Y-93480000D03*
%TD*%
D15*
%TO.C,R3*%
X153170000Y-22180000D03*
X152150000Y-22180000D03*
%TD*%
D16*
%TO.C,C25*%
X181200000Y-102800000D03*
X182750000Y-102800000D03*
%TD*%
D17*
%TO.C,U10*%
X150675000Y-104295000D03*
X150675000Y-105565000D03*
X150675000Y-106835000D03*
X150675000Y-108105000D03*
X155825000Y-108105000D03*
X155825000Y-106835000D03*
X155825000Y-105565000D03*
X155825000Y-104295000D03*
%TD*%
D12*
%TO.C,R12*%
X174240000Y-66400000D03*
X175260000Y-66400000D03*
%TD*%
D18*
%TO.C,R28*%
X165950000Y-82100000D03*
X167600000Y-82100000D03*
%TD*%
D19*
%TO.C,R39*%
X181100000Y-96800000D03*
X181100000Y-95150000D03*
%TD*%
D20*
%TO.C,C20*%
X160710000Y-38700000D03*
X159750000Y-38700000D03*
%TD*%
D15*
%TO.C,R17*%
X178260000Y-82550000D03*
X177240000Y-82550000D03*
%TD*%
D21*
%TO.C,R66*%
X156875000Y-126650000D03*
X155225000Y-126650000D03*
%TD*%
D11*
%TO.C,R51*%
X177050000Y-95175000D03*
X177050000Y-96825000D03*
%TD*%
D22*
%TO.C,C7*%
X183500000Y-66750000D03*
X183500000Y-67710000D03*
%TD*%
D23*
%TO.C,C40*%
X184750000Y-117700000D03*
X184750000Y-119250000D03*
%TD*%
D24*
%TO.C,C36*%
X163050000Y-54800000D03*
X163050000Y-53840000D03*
%TD*%
D15*
%TO.C,R59*%
X182750000Y-98180000D03*
X181730000Y-98180000D03*
%TD*%
D11*
%TO.C,R45*%
X179150000Y-95175000D03*
X179150000Y-96825000D03*
%TD*%
D21*
%TO.C,R48*%
X160025000Y-109000000D03*
X158375000Y-109000000D03*
%TD*%
D17*
%TO.C,U2*%
X166175000Y-68195000D03*
X166175000Y-69465000D03*
X166175000Y-70735000D03*
X166175000Y-72005000D03*
X171325000Y-72005000D03*
X171325000Y-70735000D03*
X171325000Y-69465000D03*
X171325000Y-68195000D03*
%TD*%
D23*
%TO.C,C22*%
X171550000Y-64475000D03*
X171550000Y-66025000D03*
%TD*%
D10*
%TO.C,Q1*%
X151325000Y-73550000D03*
X151325000Y-75450000D03*
X153200000Y-74500000D03*
%TD*%
D25*
%TO.C,U7*%
X165587500Y-37037500D03*
X165587500Y-38312500D03*
X166862500Y-37037500D03*
X166862500Y-38312500D03*
D26*
X162787500Y-35075000D03*
X162787500Y-35475000D03*
X162787500Y-35875000D03*
X162787500Y-36275000D03*
X162787500Y-36675000D03*
X162787500Y-37075000D03*
X162787500Y-37475000D03*
X162787500Y-37875000D03*
X162787500Y-38275000D03*
X162787500Y-38675000D03*
X162787500Y-39075000D03*
X162787500Y-39475000D03*
X162787500Y-39875000D03*
X162787500Y-40275000D03*
D27*
X163625000Y-41112500D03*
X164025000Y-41112500D03*
X164425000Y-41112500D03*
X164825000Y-41112500D03*
X165225000Y-41112500D03*
X165625000Y-41112500D03*
X166025000Y-41112500D03*
X166425000Y-41112500D03*
X166825000Y-41112500D03*
X167225000Y-41112500D03*
X167625000Y-41112500D03*
X168025000Y-41112500D03*
X168425000Y-41112500D03*
X168825000Y-41112500D03*
D26*
X169662500Y-40275000D03*
X169662500Y-39875000D03*
X169662500Y-39475000D03*
X169662500Y-39075000D03*
X169662500Y-38675000D03*
X169662500Y-38275000D03*
X169662500Y-37875000D03*
X169662500Y-37475000D03*
X169662500Y-37075000D03*
X169662500Y-36675000D03*
X169662500Y-36275000D03*
X169662500Y-35875000D03*
X169662500Y-35475000D03*
X169662500Y-35075000D03*
D27*
X168825000Y-34237500D03*
X168425000Y-34237500D03*
X168025000Y-34237500D03*
X167625000Y-34237500D03*
X167225000Y-34237500D03*
X166825000Y-34237500D03*
X166425000Y-34237500D03*
X166025000Y-34237500D03*
X165625000Y-34237500D03*
X165225000Y-34237500D03*
X164825000Y-34237500D03*
X164425000Y-34237500D03*
X164025000Y-34237500D03*
X163625000Y-34237500D03*
%TD*%
D28*
%TO.C,C39*%
X184450000Y-96250000D03*
X184450000Y-94700000D03*
%TD*%
D15*
%TO.C,R61*%
X183310000Y-126100000D03*
X182290000Y-126100000D03*
%TD*%
D22*
%TO.C,C10*%
X168450000Y-42970000D03*
X168450000Y-43930000D03*
%TD*%
D21*
%TO.C,R38*%
X180175000Y-93600000D03*
X178525000Y-93600000D03*
%TD*%
D24*
%TO.C,C34*%
X168350000Y-54710000D03*
X168350000Y-53750000D03*
%TD*%
D15*
%TO.C,R60*%
X182460000Y-109850000D03*
X181440000Y-109850000D03*
%TD*%
D12*
%TO.C,R19*%
X174740000Y-73350000D03*
X175760000Y-73350000D03*
%TD*%
D11*
%TO.C,R49*%
X173050000Y-115350000D03*
X173050000Y-117000000D03*
%TD*%
D16*
%TO.C,C30*%
X173924000Y-119116000D03*
X175474000Y-119116000D03*
%TD*%
D29*
%TO.C,FB1*%
X183197500Y-36730000D03*
X185022500Y-36730000D03*
%TD*%
D11*
%TO.C,R35*%
X159100000Y-115975000D03*
X159100000Y-117625000D03*
%TD*%
D15*
%TO.C,R29*%
X154030000Y-26130000D03*
X153010000Y-26130000D03*
%TD*%
D14*
%TO.C,R7*%
X163650000Y-69420000D03*
X163650000Y-68400000D03*
%TD*%
D18*
%TO.C,R18*%
X173925000Y-75650000D03*
X175575000Y-75650000D03*
%TD*%
D20*
%TO.C,C18*%
X160980000Y-35150000D03*
X160020000Y-35150000D03*
%TD*%
D21*
%TO.C,R52*%
X176175000Y-126470000D03*
X174525000Y-126470000D03*
%TD*%
D28*
%TO.C,C31*%
X159300000Y-105675000D03*
X159300000Y-104125000D03*
%TD*%
D30*
%TO.C,C11*%
X165100000Y-32300000D03*
X164421178Y-31621178D03*
%TD*%
D19*
%TO.C,R27*%
X168100000Y-95100000D03*
X168100000Y-93450000D03*
%TD*%
D31*
%TO.C,C4*%
X179290000Y-38780000D03*
X181190000Y-38780000D03*
%TD*%
D32*
%TO.C,C24*%
X171020000Y-35850000D03*
X171980000Y-35850000D03*
%TD*%
D33*
%TO.C,D2*%
X150100000Y-82650000D03*
X153400000Y-82650000D03*
%TD*%
D11*
%TO.C,R42*%
X167050000Y-53450000D03*
X167050000Y-55100000D03*
%TD*%
D21*
%TO.C,R36*%
X167745000Y-45500000D03*
X166095000Y-45500000D03*
%TD*%
D12*
%TO.C,R8*%
X168840000Y-73450000D03*
X169860000Y-73450000D03*
%TD*%
D19*
%TO.C,R56*%
X147450000Y-108750000D03*
X147450000Y-107100000D03*
%TD*%
D18*
%TO.C,R33*%
X157875000Y-97000000D03*
X159525000Y-97000000D03*
%TD*%
D34*
%TO.C,H1*%
X171750000Y-28760000D03*
X171750000Y-23710000D03*
X174290000Y-28760000D03*
X174290000Y-23710000D03*
X176830000Y-28760000D03*
X176830000Y-23710000D03*
X179370000Y-28760000D03*
X179370000Y-23710000D03*
X181910000Y-28760000D03*
X181910000Y-23710000D03*
%TD*%
D10*
%TO.C,U5*%
X179812500Y-83200000D03*
X179812500Y-85100000D03*
X181687500Y-84150000D03*
%TD*%
D15*
%TO.C,R4*%
X148510000Y-74550000D03*
X147490000Y-74550000D03*
%TD*%
D35*
%TO.C,C8*%
X177900000Y-42002500D03*
X177900000Y-44077500D03*
%TD*%
D21*
%TO.C,R31*%
X155175000Y-36000000D03*
X153525000Y-36000000D03*
%TD*%
D32*
%TO.C,C12*%
X168780000Y-32880000D03*
X169740000Y-32880000D03*
%TD*%
D12*
%TO.C,R10*%
X181740000Y-74150000D03*
X182760000Y-74150000D03*
%TD*%
D11*
%TO.C,R43*%
X164350000Y-53515000D03*
X164350000Y-55165000D03*
%TD*%
D22*
%TO.C,R22*%
X168625000Y-30955000D03*
X168625000Y-31915000D03*
%TD*%
D12*
%TO.C,R9*%
X182640000Y-72950000D03*
X183660000Y-72950000D03*
%TD*%
D21*
%TO.C,R44*%
X176650000Y-93600000D03*
X175000000Y-93600000D03*
%TD*%
D36*
%TO.C,U4*%
X180455000Y-42005000D03*
X180455000Y-42805000D03*
D37*
X179567500Y-41755000D03*
X179567500Y-42405000D03*
X179567500Y-43055000D03*
X181342500Y-43055000D03*
X181342500Y-42405000D03*
X181342500Y-41755000D03*
%TD*%
D16*
%TO.C,C29*%
X179775000Y-113550000D03*
X181325000Y-113550000D03*
%TD*%
D38*
%TO.C,U3*%
X177337500Y-65775000D03*
X177337500Y-66425000D03*
X177337500Y-67075000D03*
X177337500Y-67725000D03*
X181562500Y-67725000D03*
X181562500Y-67075000D03*
X181562500Y-66425000D03*
X181562500Y-65775000D03*
%TD*%
D39*
%TO.C,C42*%
X153000000Y-118350000D03*
X151450000Y-118350000D03*
%TD*%
D28*
%TO.C,C23*%
X166250000Y-75250000D03*
X166250000Y-73700000D03*
%TD*%
D19*
%TO.C,R65*%
X148150000Y-29775000D03*
X148150000Y-28125000D03*
%TD*%
D40*
%TO.C,D15*%
X147650000Y-24775000D03*
X147650000Y-26350000D03*
%TD*%
D24*
%TO.C,C35*%
X165650000Y-54800000D03*
X165650000Y-53840000D03*
%TD*%
D23*
%TO.C,C19*%
X181032000Y-62550000D03*
X181032000Y-64100000D03*
%TD*%
D11*
%TO.C,R34*%
X162700000Y-103725000D03*
X162700000Y-105375000D03*
%TD*%
D15*
%TO.C,R16*%
X178260000Y-83750000D03*
X177240000Y-83750000D03*
%TD*%
D10*
%TO.C,Q2*%
X151875000Y-93200000D03*
X151875000Y-95100000D03*
X153750000Y-94150000D03*
%TD*%
D41*
%TO.C,Y1*%
X162100000Y-47200000D03*
X164300000Y-47200000D03*
X164300000Y-45500000D03*
X162100000Y-45500000D03*
%TD*%
D15*
%TO.C,R20*%
X175750000Y-74350000D03*
X174730000Y-74350000D03*
%TD*%
D42*
%TO.C,C1*%
X180750000Y-34987500D03*
X180750000Y-36712500D03*
%TD*%
D22*
%TO.C,C33*%
X163800000Y-27670000D03*
X163800000Y-28630000D03*
%TD*%
D11*
%TO.C,R54*%
X174900000Y-95175000D03*
X174900000Y-96825000D03*
%TD*%
%TO.C,R53*%
X172950000Y-93925000D03*
X172950000Y-95575000D03*
%TD*%
D28*
%TO.C,C41*%
X147550000Y-118825000D03*
X147550000Y-117275000D03*
%TD*%
D23*
%TO.C,C13*%
X172400000Y-74475000D03*
X172400000Y-76025000D03*
%TD*%
D11*
%TO.C,R23*%
X159850000Y-75050000D03*
X159850000Y-76700000D03*
%TD*%
%TO.C,R32*%
X166100000Y-120100000D03*
X166100000Y-121750000D03*
%TD*%
D32*
%TO.C,C15*%
X171100000Y-33310000D03*
X172060000Y-33310000D03*
%TD*%
D17*
%TO.C,U9*%
X177625000Y-115395000D03*
X177625000Y-116665000D03*
X177625000Y-117935000D03*
X177625000Y-119205000D03*
X182775000Y-119205000D03*
X182775000Y-117935000D03*
X182775000Y-116665000D03*
X182775000Y-115395000D03*
%TD*%
D35*
%TO.C,C2*%
X175900000Y-34175000D03*
X175900000Y-36250000D03*
%TD*%
D15*
%TO.C,R6*%
X153210000Y-23490000D03*
X152190000Y-23490000D03*
%TD*%
D18*
%TO.C,R40*%
X168025000Y-126450000D03*
X169675000Y-126450000D03*
%TD*%
%TO.C,R24*%
X158325000Y-84250000D03*
X159975000Y-84250000D03*
%TD*%
D31*
%TO.C,C3*%
X183060000Y-33890000D03*
X184960000Y-33890000D03*
%TD*%
D43*
%TO.C,D3*%
X185140000Y-38810000D03*
X183040000Y-38810000D03*
%TD*%
D32*
%TO.C,C6*%
X177504000Y-61032000D03*
X178464000Y-61032000D03*
%TD*%
D14*
%TO.C,R67*%
X158450000Y-126860000D03*
X158450000Y-125840000D03*
%TD*%
D15*
%TO.C,R68*%
X161560000Y-125150000D03*
X160540000Y-125150000D03*
%TD*%
D14*
%TO.C,R1*%
X180750000Y-75060000D03*
X180750000Y-74040000D03*
%TD*%
D22*
%TO.C,C28*%
X165950000Y-46770000D03*
X165950000Y-47730000D03*
%TD*%
D39*
%TO.C,C38*%
X161325000Y-126450000D03*
X159775000Y-126450000D03*
%TD*%
D24*
%TO.C,C16*%
X165725000Y-31235000D03*
X165725000Y-30275000D03*
%TD*%
D19*
%TO.C,R15*%
X184050000Y-85275000D03*
X184050000Y-83625000D03*
%TD*%
D44*
%TO.C,D4*%
X184890000Y-27140000D03*
X184890000Y-25040000D03*
%TD*%
D12*
%TO.C,R11*%
X174934000Y-60016000D03*
X175954000Y-60016000D03*
%TD*%
D42*
%TO.C,C5*%
X182930000Y-40717500D03*
X182930000Y-42442500D03*
%TD*%
D11*
%TO.C,R50*%
X170800000Y-93425000D03*
X170800000Y-95075000D03*
%TD*%
D39*
%TO.C,C32*%
X152250000Y-109800000D03*
X150700000Y-109800000D03*
%TD*%
D20*
%TO.C,C27*%
X163380000Y-43300000D03*
X162420000Y-43300000D03*
%TD*%
D32*
%TO.C,C37*%
X171120000Y-34400000D03*
X172080000Y-34400000D03*
%TD*%
D39*
%TO.C,C9*%
X177925000Y-85250000D03*
X176375000Y-85250000D03*
%TD*%
D18*
%TO.C,R46*%
X171425000Y-126450000D03*
X173075000Y-126450000D03*
%TD*%
D12*
%TO.C,R62*%
X147490000Y-97000000D03*
X148510000Y-97000000D03*
%TD*%
D15*
%TO.C,R2*%
X153610000Y-67200000D03*
X152590000Y-67200000D03*
%TD*%
D12*
%TO.C,R13*%
X177440000Y-69150000D03*
X178460000Y-69150000D03*
%TD*%
D39*
%TO.C,C26*%
X180025000Y-110050000D03*
X178475000Y-110050000D03*
%TD*%
D22*
%TO.C,R21*%
X167625000Y-30955000D03*
X167625000Y-31915000D03*
%TD*%
D17*
%TO.C,U8*%
X177325000Y-104495000D03*
X177325000Y-105765000D03*
X177325000Y-107035000D03*
X177325000Y-108305000D03*
X182475000Y-108305000D03*
X182475000Y-107035000D03*
X182475000Y-105765000D03*
X182475000Y-104495000D03*
%TD*%
D31*
%TO.C,R30*%
X150050000Y-27850000D03*
X151950000Y-27850000D03*
%TD*%
D10*
%TO.C,U12*%
X163175000Y-125000000D03*
X163175000Y-126900000D03*
X165050000Y-125950000D03*
%TD*%
D11*
%TO.C,R25*%
X165900000Y-93475000D03*
X165900000Y-95125000D03*
%TD*%
D36*
%TO.C,U1*%
X178400000Y-34862500D03*
X178400000Y-35662500D03*
D37*
X177512500Y-34612500D03*
X177512500Y-35262500D03*
X177512500Y-35912500D03*
X179287500Y-35912500D03*
X179287500Y-35262500D03*
X179287500Y-34612500D03*
%TD*%
D18*
%TO.C,R57*%
X158375000Y-107400000D03*
X160025000Y-107400000D03*
%TD*%
D24*
%TO.C,C14*%
X166650000Y-31905000D03*
X166650000Y-30945000D03*
%TD*%
D19*
%TO.C,R58*%
X175050000Y-116975000D03*
X175050000Y-115325000D03*
%TD*%
D21*
%TO.C,R37*%
X155175000Y-37650000D03*
X153525000Y-37650000D03*
%TD*%
D45*
%TO.C,U11*%
X154500000Y-27845000D03*
X154500000Y-29115000D03*
X154500000Y-30385000D03*
X154500000Y-31655000D03*
X161700000Y-31655000D03*
X161700000Y-30385000D03*
X161700000Y-29115000D03*
X161700000Y-27845000D03*
%TD*%
D11*
%TO.C,R41*%
X169600000Y-53435000D03*
X169600000Y-55085000D03*
%TD*%
D18*
%TO.C,R55*%
X178225000Y-126450000D03*
X179875000Y-126450000D03*
%TD*%
D33*
%TO.C,D1*%
X156500000Y-93650000D03*
X159800000Y-93650000D03*
%TD*%
D11*
%TO.C,R47*%
X147400000Y-103950000D03*
X147400000Y-105600000D03*
%TD*%
D22*
%TO.C,C21*%
X167200000Y-42890000D03*
X167200000Y-43850000D03*
%TD*%
D12*
%TO.C,R64*%
X151840000Y-125950000D03*
X152860000Y-125950000D03*
%TD*%
D46*
%TO.C,C17*%
X171271178Y-38721178D03*
X171950000Y-39400000D03*
%TD*%
D47*
%TO.C,J1*%
X167090000Y-24640000D03*
X167090000Y-21780000D03*
X158640000Y-24640000D03*
X158640000Y-21780000D03*
D48*
X159365000Y-23210000D03*
X160365000Y-23210000D03*
D49*
X161365000Y-24035000D03*
X162365000Y-24035000D03*
X163365000Y-24035000D03*
X164365000Y-24035000D03*
D48*
X165365000Y-23210000D03*
X166365000Y-23210000D03*
D49*
X164365000Y-22385000D03*
X163365000Y-22385000D03*
X162365000Y-22385000D03*
X161365000Y-22385000D03*
%TD*%
M02*
