%TF.GenerationSoftware,KiCad,Pcbnew,7.0.10-7.0.10~ubuntu22.04.1*%
%TF.CreationDate,2024-03-13T10:21:15+00:00*%
%TF.ProjectId,useq1,75736571-312e-46b6-9963-61645f706362,rev?*%
%TF.SameCoordinates,Original*%
%TF.FileFunction,Soldermask,Bot*%
%TF.FilePolarity,Negative*%
%FSLAX46Y46*%
G04 Gerber Fmt 4.6, Leading zero omitted, Abs format (unit mm)*
G04 Created by KiCad (PCBNEW 7.0.10-7.0.10~ubuntu22.04.1) date 2024-03-13 10:21:15*
%MOMM*%
%LPD*%
G01*
G04 APERTURE LIST*
%ADD10R,1.700000X1.700000*%
%ADD11O,1.700000X1.700000*%
%ADD12O,1.800000X3.200000*%
%ADD13R,1.800000X1.800000*%
%ADD14C,1.800000*%
%ADD15R,1.830000X1.930000*%
%ADD16C,2.130000*%
%ADD17R,1.500000X1.500000*%
%ADD18R,0.800000X1.700000*%
%ADD19R,1.200000X1.200000*%
%ADD20C,1.200000*%
%ADD21C,2.000000*%
%ADD22C,1.300000*%
%ADD23O,1.800000X1.200000*%
%ADD24O,0.800000X1.000000*%
%ADD25C,0.800000*%
G04 APERTURE END LIST*
D10*
%TO.C,J15*%
X148100000Y-42995000D03*
D11*
X148100000Y-45535000D03*
X148100000Y-48075000D03*
%TD*%
D10*
%TO.C,J8*%
X147925000Y-33950000D03*
D11*
X150465000Y-33950000D03*
%TD*%
D10*
%TO.C,J7*%
X147975000Y-38200000D03*
D11*
X150515000Y-38200000D03*
%TD*%
D12*
%TO.C,SW2*%
X183000000Y-49030000D03*
X178300000Y-49030000D03*
%TD*%
D13*
%TO.C,D9*%
X169090000Y-89040000D03*
D14*
X169090000Y-86500000D03*
%TD*%
D15*
%TO.C,J11*%
X172945000Y-122750000D03*
D16*
X184345000Y-122750000D03*
X176045000Y-122750000D03*
%TD*%
D13*
%TO.C,D13*%
X162800000Y-110880000D03*
D14*
X162800000Y-108340000D03*
%TD*%
D15*
%TO.C,J13*%
X158925000Y-111800000D03*
D16*
X147525000Y-111800000D03*
X155825000Y-111800000D03*
%TD*%
D17*
%TO.C,TP8*%
X172870000Y-41990000D03*
%TD*%
D18*
%TO.C,S2*%
X146810000Y-26900000D03*
X150210000Y-26900000D03*
%TD*%
D13*
%TO.C,D10*%
X169100000Y-78140000D03*
D14*
X169100000Y-75600000D03*
%TD*%
D13*
%TO.C,D5*%
X162800000Y-78125000D03*
D14*
X162800000Y-75585000D03*
%TD*%
D15*
%TO.C,J5*%
X172945000Y-89975000D03*
D16*
X184345000Y-89975000D03*
X176045000Y-89975000D03*
%TD*%
D18*
%TO.C,S1*%
X150200000Y-22900000D03*
X146800000Y-22900000D03*
%TD*%
D15*
%TO.C,J10*%
X172945000Y-111825000D03*
D16*
X184345000Y-111825000D03*
X176045000Y-111825000D03*
%TD*%
D19*
%TO.C,SW1*%
X168450000Y-66350000D03*
D20*
X165950000Y-66350000D03*
X163450000Y-66350000D03*
X168450000Y-60950000D03*
X165950000Y-60950000D03*
X163450000Y-60950000D03*
%TD*%
D13*
%TO.C,D14*%
X162800000Y-121825000D03*
D14*
X162800000Y-119285000D03*
%TD*%
D15*
%TO.C,J9*%
X172945000Y-100900000D03*
D16*
X184345000Y-100900000D03*
X176045000Y-100900000D03*
%TD*%
D13*
%TO.C,D6*%
X162800000Y-89040000D03*
D14*
X162800000Y-86500000D03*
%TD*%
D13*
%TO.C,D8*%
X169100000Y-110925000D03*
D14*
X169100000Y-108385000D03*
%TD*%
D21*
%TO.C,RV2*%
X157500000Y-63587500D03*
X147900000Y-63587500D03*
D22*
X155200000Y-71087500D03*
X152700000Y-71087500D03*
X150200000Y-71087500D03*
%TD*%
D15*
%TO.C,J2*%
X158925000Y-79025000D03*
D16*
X147525000Y-79025000D03*
X155825000Y-79025000D03*
%TD*%
D13*
%TO.C,D12*%
X162800000Y-99975000D03*
D14*
X162800000Y-97435000D03*
%TD*%
D15*
%TO.C,J12*%
X158925000Y-100875000D03*
D16*
X147525000Y-100875000D03*
X155825000Y-100875000D03*
%TD*%
D23*
%TO.C,J1*%
X167090000Y-24640000D03*
X167090000Y-21780000D03*
X158640000Y-24640000D03*
X158640000Y-21780000D03*
D24*
X159365000Y-23210000D03*
X160365000Y-23210000D03*
D25*
X161365000Y-24035000D03*
X162365000Y-24035000D03*
X163365000Y-24035000D03*
X164365000Y-24035000D03*
D24*
X165365000Y-23210000D03*
X166365000Y-23210000D03*
D25*
X164365000Y-22385000D03*
X163365000Y-22385000D03*
X162365000Y-22385000D03*
X161365000Y-22385000D03*
%TD*%
D21*
%TO.C,RV1*%
X184100000Y-63587500D03*
X174500000Y-63587500D03*
D22*
X181800000Y-71087500D03*
X179300000Y-71087500D03*
X176800000Y-71087500D03*
%TD*%
D13*
%TO.C,D11*%
X169100000Y-121850000D03*
D14*
X169100000Y-119310000D03*
%TD*%
D15*
%TO.C,J14*%
X158925000Y-122725000D03*
D16*
X147525000Y-122725000D03*
X155825000Y-122725000D03*
%TD*%
D15*
%TO.C,J4*%
X172945000Y-79050000D03*
D16*
X184345000Y-79050000D03*
X176045000Y-79050000D03*
%TD*%
D15*
%TO.C,J3*%
X158925000Y-89950000D03*
D16*
X147525000Y-89950000D03*
X155825000Y-89950000D03*
%TD*%
D13*
%TO.C,D7*%
X169100000Y-100000000D03*
D14*
X169100000Y-97460000D03*
%TD*%
M02*
