%TF.GenerationSoftware,KiCad,Pcbnew,7.0.10-7.0.10~ubuntu22.04.1*%
%TF.CreationDate,2024-03-13T10:21:02+00:00*%
%TF.ProjectId,useq1,75736571-312e-46b6-9963-61645f706362,rev?*%
%TF.SameCoordinates,Original*%
%TF.FileFunction,Drillmap*%
%TF.FilePolarity,Positive*%
%FSLAX45Y45*%
G04 Gerber Fmt 4.5, Leading zero omitted, Abs format (unit mm)*
G04 Created by KiCad (PCBNEW 7.0.10-7.0.10~ubuntu22.04.1) date 2024-03-13 10:21:02*
%MOMM*%
%LPD*%
G01*
G04 APERTURE LIST*
%ADD10C,0.100000*%
%ADD11C,0.200000*%
G04 APERTURE END LIST*
D10*
X14560000Y-2005000D02*
X18620000Y-2005000D01*
X18620000Y-12805000D01*
X14560000Y-12805000D01*
X14560000Y-2005000D01*
D11*
X14815777Y-13121484D02*
X14815777Y-12921484D01*
X14815777Y-12921484D02*
X14863396Y-12921484D01*
X14863396Y-12921484D02*
X14891967Y-12931008D01*
X14891967Y-12931008D02*
X14911015Y-12950055D01*
X14911015Y-12950055D02*
X14920539Y-12969103D01*
X14920539Y-12969103D02*
X14930062Y-13007198D01*
X14930062Y-13007198D02*
X14930062Y-13035769D01*
X14930062Y-13035769D02*
X14920539Y-13073865D01*
X14920539Y-13073865D02*
X14911015Y-13092912D01*
X14911015Y-13092912D02*
X14891967Y-13111960D01*
X14891967Y-13111960D02*
X14863396Y-13121484D01*
X14863396Y-13121484D02*
X14815777Y-13121484D01*
X15015777Y-13121484D02*
X15015777Y-12988150D01*
X15015777Y-13026246D02*
X15025301Y-13007198D01*
X15025301Y-13007198D02*
X15034824Y-12997674D01*
X15034824Y-12997674D02*
X15053872Y-12988150D01*
X15053872Y-12988150D02*
X15072920Y-12988150D01*
X15139586Y-13121484D02*
X15139586Y-12988150D01*
X15139586Y-12921484D02*
X15130062Y-12931008D01*
X15130062Y-12931008D02*
X15139586Y-12940531D01*
X15139586Y-12940531D02*
X15149110Y-12931008D01*
X15149110Y-12931008D02*
X15139586Y-12921484D01*
X15139586Y-12921484D02*
X15139586Y-12940531D01*
X15263396Y-13121484D02*
X15244348Y-13111960D01*
X15244348Y-13111960D02*
X15234824Y-13092912D01*
X15234824Y-13092912D02*
X15234824Y-12921484D01*
X15368158Y-13121484D02*
X15349110Y-13111960D01*
X15349110Y-13111960D02*
X15339586Y-13092912D01*
X15339586Y-13092912D02*
X15339586Y-12921484D01*
X15596729Y-13121484D02*
X15596729Y-12921484D01*
X15596729Y-12921484D02*
X15663396Y-13064341D01*
X15663396Y-13064341D02*
X15730062Y-12921484D01*
X15730062Y-12921484D02*
X15730062Y-13121484D01*
X15911015Y-13121484D02*
X15911015Y-13016722D01*
X15911015Y-13016722D02*
X15901491Y-12997674D01*
X15901491Y-12997674D02*
X15882443Y-12988150D01*
X15882443Y-12988150D02*
X15844348Y-12988150D01*
X15844348Y-12988150D02*
X15825301Y-12997674D01*
X15911015Y-13111960D02*
X15891967Y-13121484D01*
X15891967Y-13121484D02*
X15844348Y-13121484D01*
X15844348Y-13121484D02*
X15825301Y-13111960D01*
X15825301Y-13111960D02*
X15815777Y-13092912D01*
X15815777Y-13092912D02*
X15815777Y-13073865D01*
X15815777Y-13073865D02*
X15825301Y-13054817D01*
X15825301Y-13054817D02*
X15844348Y-13045293D01*
X15844348Y-13045293D02*
X15891967Y-13045293D01*
X15891967Y-13045293D02*
X15911015Y-13035769D01*
X16006253Y-12988150D02*
X16006253Y-13188150D01*
X16006253Y-12997674D02*
X16025301Y-12988150D01*
X16025301Y-12988150D02*
X16063396Y-12988150D01*
X16063396Y-12988150D02*
X16082443Y-12997674D01*
X16082443Y-12997674D02*
X16091967Y-13007198D01*
X16091967Y-13007198D02*
X16101491Y-13026246D01*
X16101491Y-13026246D02*
X16101491Y-13083388D01*
X16101491Y-13083388D02*
X16091967Y-13102436D01*
X16091967Y-13102436D02*
X16082443Y-13111960D01*
X16082443Y-13111960D02*
X16063396Y-13121484D01*
X16063396Y-13121484D02*
X16025301Y-13121484D01*
X16025301Y-13121484D02*
X16006253Y-13111960D01*
X16187205Y-13102436D02*
X16196729Y-13111960D01*
X16196729Y-13111960D02*
X16187205Y-13121484D01*
X16187205Y-13121484D02*
X16177682Y-13111960D01*
X16177682Y-13111960D02*
X16187205Y-13102436D01*
X16187205Y-13102436D02*
X16187205Y-13121484D01*
X16187205Y-12997674D02*
X16196729Y-13007198D01*
X16196729Y-13007198D02*
X16187205Y-13016722D01*
X16187205Y-13016722D02*
X16177682Y-13007198D01*
X16177682Y-13007198D02*
X16187205Y-12997674D01*
X16187205Y-12997674D02*
X16187205Y-13016722D01*
M02*
