%TF.GenerationSoftware,KiCad,Pcbnew,6.0.2+dfsg-1*%
%TF.CreationDate,2023-09-09T19:36:37+01:00*%
%TF.ProjectId,useq,75736571-2e6b-4696-9361-645f70636258,rev?*%
%TF.SameCoordinates,Original*%
%TF.FileFunction,Legend,Top*%
%TF.FilePolarity,Positive*%
%FSLAX46Y46*%
G04 Gerber Fmt 4.6, Leading zero omitted, Abs format (unit mm)*
G04 Created by KiCad (PCBNEW 6.0.2+dfsg-1) date 2023-09-09 19:36:37*
%MOMM*%
%LPD*%
G01*
G04 APERTURE LIST*
G04 Aperture macros list*
%AMRoundRect*
0 Rectangle with rounded corners*
0 $1 Rounding radius*
0 $2 $3 $4 $5 $6 $7 $8 $9 X,Y pos of 4 corners*
0 Add a 4 corners polygon primitive as box body*
4,1,4,$2,$3,$4,$5,$6,$7,$8,$9,$2,$3,0*
0 Add four circle primitives for the rounded corners*
1,1,$1+$1,$2,$3*
1,1,$1+$1,$4,$5*
1,1,$1+$1,$6,$7*
1,1,$1+$1,$8,$9*
0 Add four rect primitives between the rounded corners*
20,1,$1+$1,$2,$3,$4,$5,0*
20,1,$1+$1,$4,$5,$6,$7,0*
20,1,$1+$1,$6,$7,$8,$9,0*
20,1,$1+$1,$8,$9,$2,$3,0*%
G04 Aperture macros list end*
%ADD10C,0.150000*%
%ADD11C,0.120000*%
%ADD12C,0.100000*%
%ADD13RoundRect,0.150000X-0.825000X-0.150000X0.825000X-0.150000X0.825000X0.150000X-0.825000X0.150000X0*%
%ADD14RoundRect,0.250000X-0.625000X0.400000X-0.625000X-0.400000X0.625000X-0.400000X0.625000X0.400000X0*%
%ADD15RoundRect,0.250000X0.400000X0.625000X-0.400000X0.625000X-0.400000X-0.625000X0.400000X-0.625000X0*%
%ADD16RoundRect,0.250000X0.412500X0.650000X-0.412500X0.650000X-0.412500X-0.650000X0.412500X-0.650000X0*%
%ADD17RoundRect,0.250000X-0.650000X0.412500X-0.650000X-0.412500X0.650000X-0.412500X0.650000X0.412500X0*%
%ADD18RoundRect,0.070000X-0.300000X0.650000X-0.300000X-0.650000X0.300000X-0.650000X0.300000X0.650000X0*%
%ADD19O,1.700000X1.700000*%
%ADD20R,1.700000X1.700000*%
%ADD21RoundRect,0.250000X-0.400000X-0.625000X0.400000X-0.625000X0.400000X0.625000X-0.400000X0.625000X0*%
%ADD22R,0.450000X0.600000*%
%ADD23RoundRect,0.250000X-0.412500X-0.650000X0.412500X-0.650000X0.412500X0.650000X-0.412500X0.650000X0*%
%ADD24RoundRect,0.250000X-0.600000X-0.600000X0.600000X-0.600000X0.600000X0.600000X-0.600000X0.600000X0*%
%ADD25C,1.700000*%
%ADD26RoundRect,0.250000X0.625000X-0.400000X0.625000X0.400000X-0.625000X0.400000X-0.625000X-0.400000X0*%
%ADD27RoundRect,0.070000X-0.650000X-0.300000X0.650000X-0.300000X0.650000X0.300000X-0.650000X0.300000X0*%
%ADD28R,0.600000X0.450000*%
%ADD29RoundRect,0.250000X0.650000X-0.412500X0.650000X0.412500X-0.650000X0.412500X-0.650000X-0.412500X0*%
%ADD30O,3.200000X1.800000*%
%ADD31R,2.200000X3.400000*%
%ADD32R,1.800000X1.800000*%
%ADD33C,1.800000*%
%ADD34R,1.830000X1.930000*%
%ADD35C,2.130000*%
%ADD36C,3.000000*%
%ADD37C,2.000000*%
%ADD38R,2.800000X3.600000*%
%ADD39O,1.800000X3.200000*%
G04 APERTURE END LIST*
D10*
%TO.C,U2*%
X156638095Y-73052380D02*
X156638095Y-73861904D01*
X156685714Y-73957142D01*
X156733333Y-74004761D01*
X156828571Y-74052380D01*
X157019047Y-74052380D01*
X157114285Y-74004761D01*
X157161904Y-73957142D01*
X157209523Y-73861904D01*
X157209523Y-73052380D01*
X157638095Y-73147619D02*
X157685714Y-73100000D01*
X157780952Y-73052380D01*
X158019047Y-73052380D01*
X158114285Y-73100000D01*
X158161904Y-73147619D01*
X158209523Y-73242857D01*
X158209523Y-73338095D01*
X158161904Y-73480952D01*
X157590476Y-74052380D01*
X158209523Y-74052380D01*
%TO.C,R10*%
X165672380Y-99742857D02*
X165196190Y-100076190D01*
X165672380Y-100314285D02*
X164672380Y-100314285D01*
X164672380Y-99933333D01*
X164720000Y-99838095D01*
X164767619Y-99790476D01*
X164862857Y-99742857D01*
X165005714Y-99742857D01*
X165100952Y-99790476D01*
X165148571Y-99838095D01*
X165196190Y-99933333D01*
X165196190Y-100314285D01*
X165672380Y-98790476D02*
X165672380Y-99361904D01*
X165672380Y-99076190D02*
X164672380Y-99076190D01*
X164815238Y-99171428D01*
X164910476Y-99266666D01*
X164958095Y-99361904D01*
X164672380Y-98171428D02*
X164672380Y-98076190D01*
X164720000Y-97980952D01*
X164767619Y-97933333D01*
X164862857Y-97885714D01*
X165053333Y-97838095D01*
X165291428Y-97838095D01*
X165481904Y-97885714D01*
X165577142Y-97933333D01*
X165624761Y-97980952D01*
X165672380Y-98076190D01*
X165672380Y-98171428D01*
X165624761Y-98266666D01*
X165577142Y-98314285D01*
X165481904Y-98361904D01*
X165291428Y-98409523D01*
X165053333Y-98409523D01*
X164862857Y-98361904D01*
X164767619Y-98314285D01*
X164720000Y-98266666D01*
X164672380Y-98171428D01*
%TO.C,R15*%
X179857142Y-121272380D02*
X179523809Y-120796190D01*
X179285714Y-121272380D02*
X179285714Y-120272380D01*
X179666666Y-120272380D01*
X179761904Y-120320000D01*
X179809523Y-120367619D01*
X179857142Y-120462857D01*
X179857142Y-120605714D01*
X179809523Y-120700952D01*
X179761904Y-120748571D01*
X179666666Y-120796190D01*
X179285714Y-120796190D01*
X180809523Y-121272380D02*
X180238095Y-121272380D01*
X180523809Y-121272380D02*
X180523809Y-120272380D01*
X180428571Y-120415238D01*
X180333333Y-120510476D01*
X180238095Y-120558095D01*
X181714285Y-120272380D02*
X181238095Y-120272380D01*
X181190476Y-120748571D01*
X181238095Y-120700952D01*
X181333333Y-120653333D01*
X181571428Y-120653333D01*
X181666666Y-120700952D01*
X181714285Y-120748571D01*
X181761904Y-120843809D01*
X181761904Y-121081904D01*
X181714285Y-121177142D01*
X181666666Y-121224761D01*
X181571428Y-121272380D01*
X181333333Y-121272380D01*
X181238095Y-121224761D01*
X181190476Y-121177142D01*
%TO.C,R2*%
X151972380Y-87566666D02*
X151496190Y-87900000D01*
X151972380Y-88138095D02*
X150972380Y-88138095D01*
X150972380Y-87757142D01*
X151020000Y-87661904D01*
X151067619Y-87614285D01*
X151162857Y-87566666D01*
X151305714Y-87566666D01*
X151400952Y-87614285D01*
X151448571Y-87661904D01*
X151496190Y-87757142D01*
X151496190Y-88138095D01*
X151067619Y-87185714D02*
X151020000Y-87138095D01*
X150972380Y-87042857D01*
X150972380Y-86804761D01*
X151020000Y-86709523D01*
X151067619Y-86661904D01*
X151162857Y-86614285D01*
X151258095Y-86614285D01*
X151400952Y-86661904D01*
X151972380Y-87233333D01*
X151972380Y-86614285D01*
%TO.C,C6*%
X151333333Y-102857142D02*
X151285714Y-102904761D01*
X151142857Y-102952380D01*
X151047619Y-102952380D01*
X150904761Y-102904761D01*
X150809523Y-102809523D01*
X150761904Y-102714285D01*
X150714285Y-102523809D01*
X150714285Y-102380952D01*
X150761904Y-102190476D01*
X150809523Y-102095238D01*
X150904761Y-102000000D01*
X151047619Y-101952380D01*
X151142857Y-101952380D01*
X151285714Y-102000000D01*
X151333333Y-102047619D01*
X152190476Y-101952380D02*
X152000000Y-101952380D01*
X151904761Y-102000000D01*
X151857142Y-102047619D01*
X151761904Y-102190476D01*
X151714285Y-102380952D01*
X151714285Y-102761904D01*
X151761904Y-102857142D01*
X151809523Y-102904761D01*
X151904761Y-102952380D01*
X152095238Y-102952380D01*
X152190476Y-102904761D01*
X152238095Y-102857142D01*
X152285714Y-102761904D01*
X152285714Y-102523809D01*
X152238095Y-102428571D01*
X152190476Y-102380952D01*
X152095238Y-102333333D01*
X151904761Y-102333333D01*
X151809523Y-102380952D01*
X151761904Y-102428571D01*
X151714285Y-102523809D01*
%TO.C,R3*%
X181033333Y-98172380D02*
X180700000Y-97696190D01*
X180461904Y-98172380D02*
X180461904Y-97172380D01*
X180842857Y-97172380D01*
X180938095Y-97220000D01*
X180985714Y-97267619D01*
X181033333Y-97362857D01*
X181033333Y-97505714D01*
X180985714Y-97600952D01*
X180938095Y-97648571D01*
X180842857Y-97696190D01*
X180461904Y-97696190D01*
X181366666Y-97172380D02*
X181985714Y-97172380D01*
X181652380Y-97553333D01*
X181795238Y-97553333D01*
X181890476Y-97600952D01*
X181938095Y-97648571D01*
X181985714Y-97743809D01*
X181985714Y-97981904D01*
X181938095Y-98077142D01*
X181890476Y-98124761D01*
X181795238Y-98172380D01*
X181509523Y-98172380D01*
X181414285Y-98124761D01*
X181366666Y-98077142D01*
%TO.C,C3*%
X177807142Y-95866666D02*
X177854761Y-95914285D01*
X177902380Y-96057142D01*
X177902380Y-96152380D01*
X177854761Y-96295238D01*
X177759523Y-96390476D01*
X177664285Y-96438095D01*
X177473809Y-96485714D01*
X177330952Y-96485714D01*
X177140476Y-96438095D01*
X177045238Y-96390476D01*
X176950000Y-96295238D01*
X176902380Y-96152380D01*
X176902380Y-96057142D01*
X176950000Y-95914285D01*
X176997619Y-95866666D01*
X176902380Y-95533333D02*
X176902380Y-94914285D01*
X177283333Y-95247619D01*
X177283333Y-95104761D01*
X177330952Y-95009523D01*
X177378571Y-94961904D01*
X177473809Y-94914285D01*
X177711904Y-94914285D01*
X177807142Y-94961904D01*
X177854761Y-95009523D01*
X177902380Y-95104761D01*
X177902380Y-95390476D01*
X177854761Y-95485714D01*
X177807142Y-95533333D01*
%TO.C,Q1*%
X178888619Y-82626238D02*
X178841000Y-82721476D01*
X178745761Y-82816714D01*
X178602904Y-82959571D01*
X178555285Y-83054809D01*
X178555285Y-83150047D01*
X178793380Y-83102428D02*
X178745761Y-83197666D01*
X178650523Y-83292904D01*
X178460047Y-83340523D01*
X178126714Y-83340523D01*
X177936238Y-83292904D01*
X177841000Y-83197666D01*
X177793380Y-83102428D01*
X177793380Y-82911952D01*
X177841000Y-82816714D01*
X177936238Y-82721476D01*
X178126714Y-82673857D01*
X178460047Y-82673857D01*
X178650523Y-82721476D01*
X178745761Y-82816714D01*
X178793380Y-82911952D01*
X178793380Y-83102428D01*
X178793380Y-81721476D02*
X178793380Y-82292904D01*
X178793380Y-82007190D02*
X177793380Y-82007190D01*
X177936238Y-82102428D01*
X178031476Y-82197666D01*
X178079095Y-82292904D01*
%TO.C,U1*%
X150638095Y-32052380D02*
X150638095Y-32861904D01*
X150685714Y-32957142D01*
X150733333Y-33004761D01*
X150828571Y-33052380D01*
X151019047Y-33052380D01*
X151114285Y-33004761D01*
X151161904Y-32957142D01*
X151209523Y-32861904D01*
X151209523Y-32052380D01*
X152209523Y-33052380D02*
X151638095Y-33052380D01*
X151923809Y-33052380D02*
X151923809Y-32052380D01*
X151828571Y-32195238D01*
X151733333Y-32290476D01*
X151638095Y-32338095D01*
X150243722Y-70150592D02*
X150162910Y-70177529D01*
X150082097Y-70258341D01*
X150028223Y-70366091D01*
X150028223Y-70473841D01*
X150055160Y-70554653D01*
X150135972Y-70689340D01*
X150216784Y-70770152D01*
X150351471Y-70850964D01*
X150432284Y-70877902D01*
X150540033Y-70877902D01*
X150647783Y-70824027D01*
X150701658Y-70770152D01*
X150755532Y-70662402D01*
X150755532Y-70608528D01*
X150566971Y-70419966D01*
X150459221Y-70527715D01*
X151051844Y-70419966D02*
X150486158Y-69854280D01*
X150701658Y-69638781D01*
X150782470Y-69611844D01*
X150836345Y-69611844D01*
X150917157Y-69638781D01*
X150997969Y-69719593D01*
X151024906Y-69800406D01*
X151024906Y-69854280D01*
X150997969Y-69935093D01*
X150782470Y-70150592D01*
X151913841Y-69557969D02*
X151590592Y-69881218D01*
X151752216Y-69719593D02*
X151186531Y-69153908D01*
X151213468Y-69288595D01*
X151213468Y-69396345D01*
X151186531Y-69477157D01*
X152452589Y-69019221D02*
X152129340Y-69342470D01*
X152290964Y-69180845D02*
X151725279Y-68615160D01*
X151752216Y-68749847D01*
X151752216Y-68857597D01*
X151725279Y-68938409D01*
X161953129Y-34827309D02*
X162707377Y-35204433D01*
X162330253Y-34450186D01*
X162976751Y-34342436D02*
X163084500Y-34288561D01*
X163138375Y-34288561D01*
X163219187Y-34315499D01*
X163300000Y-34396311D01*
X163326937Y-34477123D01*
X163326937Y-34530998D01*
X163300000Y-34611810D01*
X163084500Y-34827309D01*
X162518815Y-34261624D01*
X162707377Y-34073062D01*
X162788189Y-34046125D01*
X162842064Y-34046125D01*
X162922876Y-34073062D01*
X162976751Y-34126937D01*
X163003688Y-34207749D01*
X163003688Y-34261624D01*
X162976751Y-34342436D01*
X162788189Y-34530998D01*
X163084500Y-33695938D02*
X163542436Y-34153874D01*
X163623248Y-34180812D01*
X163677123Y-34180812D01*
X163757935Y-34153874D01*
X163865685Y-34046125D01*
X163892622Y-33965312D01*
X163892622Y-33911438D01*
X163865685Y-33830625D01*
X163407749Y-33372690D01*
X164188934Y-33669001D02*
X164296683Y-33615126D01*
X164431370Y-33480439D01*
X164458308Y-33399627D01*
X164458308Y-33345752D01*
X164431370Y-33264940D01*
X164377496Y-33211065D01*
X164296683Y-33184128D01*
X164242809Y-33184128D01*
X164161996Y-33211065D01*
X164027309Y-33291877D01*
X163946497Y-33318815D01*
X163892622Y-33318815D01*
X163811810Y-33291877D01*
X163757935Y-33238003D01*
X163730998Y-33157190D01*
X163730998Y-33103316D01*
X163757935Y-33022503D01*
X163892622Y-32887816D01*
X164000372Y-32833942D01*
X169586158Y-64998155D02*
X169505346Y-65025093D01*
X169424534Y-65105905D01*
X169370659Y-65213654D01*
X169370659Y-65321404D01*
X169397597Y-65402216D01*
X169478409Y-65536903D01*
X169559221Y-65617715D01*
X169693908Y-65698528D01*
X169774720Y-65725465D01*
X169882470Y-65725465D01*
X169990219Y-65671590D01*
X170044094Y-65617715D01*
X170097969Y-65509966D01*
X170097969Y-65456091D01*
X169909407Y-65267529D01*
X169801658Y-65375279D01*
X170394280Y-65267529D02*
X169828595Y-64701844D01*
X170717529Y-64944280D01*
X170151844Y-64378595D01*
X170986903Y-64674906D02*
X170421218Y-64109221D01*
X170555905Y-63974534D01*
X170663654Y-63920659D01*
X170771404Y-63920659D01*
X170852216Y-63947597D01*
X170986903Y-64028409D01*
X171067715Y-64109221D01*
X171148528Y-64243908D01*
X171175465Y-64324720D01*
X171175465Y-64432470D01*
X171121590Y-64540219D01*
X170986903Y-64674906D01*
X169654788Y-48033773D02*
X169924162Y-47764399D01*
X169762537Y-48249272D02*
X169385414Y-47495025D01*
X170139661Y-47872149D01*
X170328223Y-47683587D02*
X169762537Y-47117902D01*
X169897224Y-46983215D01*
X170004974Y-46929340D01*
X170112723Y-46929340D01*
X170193536Y-46956277D01*
X170328223Y-47037089D01*
X170409035Y-47117902D01*
X170489847Y-47252589D01*
X170516784Y-47333401D01*
X170516784Y-47441150D01*
X170462910Y-47548900D01*
X170328223Y-47683587D01*
X171163282Y-46740778D02*
X171163282Y-46794653D01*
X171109407Y-46902402D01*
X171055532Y-46956277D01*
X170947783Y-47010152D01*
X170840033Y-47010152D01*
X170759221Y-46983215D01*
X170624534Y-46902402D01*
X170543722Y-46821590D01*
X170462910Y-46686903D01*
X170435972Y-46606091D01*
X170435972Y-46498341D01*
X170489847Y-46390592D01*
X170543722Y-46336717D01*
X170651471Y-46282842D01*
X170705346Y-46282842D01*
X171378781Y-46740778D02*
X171809780Y-46309780D01*
X171244094Y-45636345D02*
X171998341Y-46013468D01*
X171621218Y-45259221D01*
X172698714Y-45313096D02*
X172240778Y-45232284D01*
X172375465Y-45636345D02*
X171809780Y-45070659D01*
X172025279Y-44855160D01*
X172106091Y-44828223D01*
X172159966Y-44828223D01*
X172240778Y-44855160D01*
X172321590Y-44935972D01*
X172348528Y-45016784D01*
X172348528Y-45070659D01*
X172321590Y-45151471D01*
X172106091Y-45366971D01*
X172644839Y-44774348D02*
X172833401Y-44585786D01*
X173210524Y-44801285D02*
X172941150Y-45070659D01*
X172375465Y-44504974D01*
X172644839Y-44235600D01*
X173345211Y-44073975D02*
X173156650Y-44262537D01*
X173452961Y-44558849D02*
X172887276Y-43993163D01*
X173156650Y-43723789D01*
X169597722Y-67790592D02*
X169516910Y-67817529D01*
X169436097Y-67898341D01*
X169382223Y-68006091D01*
X169382223Y-68113841D01*
X169409160Y-68194653D01*
X169489972Y-68329340D01*
X169570784Y-68410152D01*
X169705471Y-68490964D01*
X169786284Y-68517902D01*
X169894033Y-68517902D01*
X170001783Y-68464027D01*
X170055658Y-68410152D01*
X170109532Y-68302402D01*
X170109532Y-68248528D01*
X169920971Y-68059966D01*
X169813221Y-68167715D01*
X170405844Y-68059966D02*
X169840158Y-67494280D01*
X170055658Y-67278781D01*
X170136470Y-67251844D01*
X170190345Y-67251844D01*
X170271157Y-67278781D01*
X170351969Y-67359593D01*
X170378906Y-67440406D01*
X170378906Y-67494280D01*
X170351969Y-67575093D01*
X170136470Y-67790592D01*
X170432781Y-67009407D02*
X170432781Y-66955532D01*
X170459719Y-66874720D01*
X170594406Y-66740033D01*
X170675218Y-66713096D01*
X170729093Y-66713096D01*
X170809905Y-66740033D01*
X170863780Y-66793908D01*
X170917654Y-66901658D01*
X170917654Y-67548155D01*
X171267841Y-67197969D01*
X171806589Y-66659221D02*
X171483340Y-66982470D01*
X171644964Y-66820845D02*
X171079279Y-66255160D01*
X171106216Y-66389847D01*
X171106216Y-66497597D01*
X171079279Y-66578409D01*
X169389847Y-44990592D02*
X169740033Y-44640406D01*
X169766971Y-45044467D01*
X169847783Y-44963654D01*
X169928595Y-44936717D01*
X169982470Y-44936717D01*
X170063282Y-44963654D01*
X170197969Y-45098341D01*
X170224906Y-45179154D01*
X170224906Y-45233028D01*
X170197969Y-45313841D01*
X170036345Y-45475465D01*
X169955532Y-45502402D01*
X169901658Y-45502402D01*
X169901658Y-44478781D02*
X170655905Y-44855905D01*
X170278781Y-44101658D01*
X170413468Y-43966971D02*
X170763654Y-43616784D01*
X170790592Y-44020845D01*
X170871404Y-43940033D01*
X170952216Y-43913096D01*
X171006091Y-43913096D01*
X171086903Y-43940033D01*
X171221590Y-44074720D01*
X171248528Y-44155532D01*
X171248528Y-44209407D01*
X171221590Y-44290219D01*
X171059966Y-44451844D01*
X170979154Y-44478781D01*
X170925279Y-44478781D01*
X150913096Y-48721218D02*
X150832284Y-48748155D01*
X150751471Y-48828967D01*
X150697597Y-48936717D01*
X150697597Y-49044467D01*
X150724534Y-49125279D01*
X150805346Y-49259966D01*
X150886158Y-49340778D01*
X151020845Y-49421590D01*
X151101658Y-49448528D01*
X151209407Y-49448528D01*
X151317157Y-49394653D01*
X151371032Y-49340778D01*
X151424906Y-49233028D01*
X151424906Y-49179154D01*
X151236345Y-48990592D01*
X151128595Y-49098341D01*
X151721218Y-48990592D02*
X151155532Y-48424906D01*
X151371032Y-48209407D01*
X151451844Y-48182470D01*
X151505719Y-48182470D01*
X151586531Y-48209407D01*
X151667343Y-48290219D01*
X151694280Y-48371032D01*
X151694280Y-48424906D01*
X151667343Y-48505719D01*
X151451844Y-48721218D01*
X151990592Y-47589847D02*
X151721218Y-47859221D01*
X151963654Y-48155532D01*
X151963654Y-48101658D01*
X151990592Y-48020845D01*
X152125279Y-47886158D01*
X152206091Y-47859221D01*
X152259966Y-47859221D01*
X152340778Y-47886158D01*
X152475465Y-48020845D01*
X152502402Y-48101658D01*
X152502402Y-48155532D01*
X152475465Y-48236345D01*
X152340778Y-48371032D01*
X152259966Y-48397969D01*
X152206091Y-48397969D01*
X162743722Y-58190592D02*
X162662910Y-58217529D01*
X162582097Y-58298341D01*
X162528223Y-58406091D01*
X162528223Y-58513841D01*
X162555160Y-58594653D01*
X162635972Y-58729340D01*
X162716784Y-58810152D01*
X162851471Y-58890964D01*
X162932284Y-58917902D01*
X163040033Y-58917902D01*
X163147783Y-58864027D01*
X163201658Y-58810152D01*
X163255532Y-58702402D01*
X163255532Y-58648528D01*
X163066971Y-58459966D01*
X162959221Y-58567715D01*
X163551844Y-58459966D02*
X162986158Y-57894280D01*
X163201658Y-57678781D01*
X163282470Y-57651844D01*
X163336345Y-57651844D01*
X163417157Y-57678781D01*
X163497969Y-57759593D01*
X163524906Y-57840406D01*
X163524906Y-57894280D01*
X163497969Y-57975093D01*
X163282470Y-58190592D01*
X163578781Y-57409407D02*
X163578781Y-57355532D01*
X163605719Y-57274720D01*
X163740406Y-57140033D01*
X163821218Y-57113096D01*
X163875093Y-57113096D01*
X163955905Y-57140033D01*
X164009780Y-57193908D01*
X164063654Y-57301658D01*
X164063654Y-57948155D01*
X164413841Y-57597969D01*
X164333028Y-56547410D02*
X164225279Y-56655160D01*
X164198341Y-56735972D01*
X164198341Y-56789847D01*
X164225279Y-56924534D01*
X164306091Y-57059221D01*
X164521590Y-57274720D01*
X164602402Y-57301658D01*
X164656277Y-57301658D01*
X164737089Y-57274720D01*
X164844839Y-57166971D01*
X164871776Y-57086158D01*
X164871776Y-57032284D01*
X164844839Y-56951471D01*
X164710152Y-56816784D01*
X164629340Y-56789847D01*
X164575465Y-56789847D01*
X164494653Y-56816784D01*
X164386903Y-56924534D01*
X164359966Y-57005346D01*
X164359966Y-57059221D01*
X164386903Y-57140033D01*
X150813096Y-41941218D02*
X150732284Y-41968155D01*
X150651471Y-42048967D01*
X150597597Y-42156717D01*
X150597597Y-42264467D01*
X150624534Y-42345279D01*
X150705346Y-42479966D01*
X150786158Y-42560778D01*
X150920845Y-42641590D01*
X151001658Y-42668528D01*
X151109407Y-42668528D01*
X151217157Y-42614653D01*
X151271032Y-42560778D01*
X151324906Y-42453028D01*
X151324906Y-42399154D01*
X151136345Y-42210592D01*
X151028595Y-42318341D01*
X151621218Y-42210592D02*
X151055532Y-41644906D01*
X151271032Y-41429407D01*
X151351844Y-41402470D01*
X151405719Y-41402470D01*
X151486531Y-41429407D01*
X151567343Y-41510219D01*
X151594280Y-41591032D01*
X151594280Y-41644906D01*
X151567343Y-41725719D01*
X151351844Y-41941218D01*
X151648155Y-41160033D02*
X151648155Y-41106158D01*
X151675093Y-41025346D01*
X151809780Y-40890659D01*
X151890592Y-40863722D01*
X151944467Y-40863722D01*
X152025279Y-40890659D01*
X152079154Y-40944534D01*
X152133028Y-41052284D01*
X152133028Y-41698781D01*
X152483215Y-41348595D01*
X150913096Y-54641218D02*
X150832284Y-54668155D01*
X150751471Y-54748967D01*
X150697597Y-54856717D01*
X150697597Y-54964467D01*
X150724534Y-55045279D01*
X150805346Y-55179966D01*
X150886158Y-55260778D01*
X151020845Y-55341590D01*
X151101658Y-55368528D01*
X151209407Y-55368528D01*
X151317157Y-55314653D01*
X151371032Y-55260778D01*
X151424906Y-55153028D01*
X151424906Y-55099154D01*
X151236345Y-54910592D01*
X151128595Y-55018341D01*
X151721218Y-54910592D02*
X151155532Y-54344906D01*
X151371032Y-54129407D01*
X151451844Y-54102470D01*
X151505719Y-54102470D01*
X151586531Y-54129407D01*
X151667343Y-54210219D01*
X151694280Y-54291032D01*
X151694280Y-54344906D01*
X151667343Y-54425719D01*
X151451844Y-54641218D01*
X151963654Y-53536784D02*
X151855905Y-53644534D01*
X151828967Y-53725346D01*
X151828967Y-53779221D01*
X151855905Y-53913908D01*
X151936717Y-54048595D01*
X152152216Y-54264094D01*
X152233028Y-54291032D01*
X152286903Y-54291032D01*
X152367715Y-54264094D01*
X152475465Y-54156345D01*
X152502402Y-54075532D01*
X152502402Y-54021658D01*
X152475465Y-53940845D01*
X152340778Y-53806158D01*
X152259966Y-53779221D01*
X152206091Y-53779221D01*
X152125279Y-53806158D01*
X152017529Y-53913908D01*
X151990592Y-53994720D01*
X151990592Y-54048595D01*
X152017529Y-54129407D01*
X150913096Y-44481218D02*
X150832284Y-44508155D01*
X150751471Y-44588967D01*
X150697597Y-44696717D01*
X150697597Y-44804467D01*
X150724534Y-44885279D01*
X150805346Y-45019966D01*
X150886158Y-45100778D01*
X151020845Y-45181590D01*
X151101658Y-45208528D01*
X151209407Y-45208528D01*
X151317157Y-45154653D01*
X151371032Y-45100778D01*
X151424906Y-44993028D01*
X151424906Y-44939154D01*
X151236345Y-44750592D01*
X151128595Y-44858341D01*
X151721218Y-44750592D02*
X151155532Y-44184906D01*
X151371032Y-43969407D01*
X151451844Y-43942470D01*
X151505719Y-43942470D01*
X151586531Y-43969407D01*
X151667343Y-44050219D01*
X151694280Y-44131032D01*
X151694280Y-44184906D01*
X151667343Y-44265719D01*
X151451844Y-44481218D01*
X151667343Y-43673096D02*
X152017529Y-43322910D01*
X152044467Y-43726971D01*
X152125279Y-43646158D01*
X152206091Y-43619221D01*
X152259966Y-43619221D01*
X152340778Y-43646158D01*
X152475465Y-43780845D01*
X152502402Y-43861658D01*
X152502402Y-43915532D01*
X152475465Y-43996345D01*
X152313841Y-44157969D01*
X152233028Y-44184906D01*
X152179154Y-44184906D01*
X169597722Y-49746592D02*
X169516910Y-49773529D01*
X169436097Y-49854341D01*
X169382223Y-49962091D01*
X169382223Y-50069841D01*
X169409160Y-50150653D01*
X169489972Y-50285340D01*
X169570784Y-50366152D01*
X169705471Y-50446964D01*
X169786284Y-50473902D01*
X169894033Y-50473902D01*
X170001783Y-50420027D01*
X170055658Y-50366152D01*
X170109532Y-50258402D01*
X170109532Y-50204528D01*
X169920971Y-50015966D01*
X169813221Y-50123715D01*
X170405844Y-50015966D02*
X169840158Y-49450280D01*
X170055658Y-49234781D01*
X170136470Y-49207844D01*
X170190345Y-49207844D01*
X170271157Y-49234781D01*
X170351969Y-49315593D01*
X170378906Y-49396406D01*
X170378906Y-49450280D01*
X170351969Y-49531093D01*
X170136470Y-49746592D01*
X170432781Y-48965407D02*
X170432781Y-48911532D01*
X170459719Y-48830720D01*
X170594406Y-48696033D01*
X170675218Y-48669096D01*
X170729093Y-48669096D01*
X170809905Y-48696033D01*
X170863780Y-48749908D01*
X170917654Y-48857658D01*
X170917654Y-49504155D01*
X171267841Y-49153969D01*
X171267841Y-48507471D02*
X171187028Y-48534409D01*
X171133154Y-48534409D01*
X171052341Y-48507471D01*
X171025404Y-48480534D01*
X170998467Y-48399722D01*
X170998467Y-48345847D01*
X171025404Y-48265035D01*
X171133154Y-48157285D01*
X171213966Y-48130348D01*
X171267841Y-48130348D01*
X171348653Y-48157285D01*
X171375590Y-48184223D01*
X171402528Y-48265035D01*
X171402528Y-48318910D01*
X171375590Y-48399722D01*
X171267841Y-48507471D01*
X171240903Y-48588284D01*
X171240903Y-48642158D01*
X171267841Y-48722971D01*
X171375590Y-48830720D01*
X171456402Y-48857658D01*
X171510277Y-48857658D01*
X171591089Y-48830720D01*
X171698839Y-48722971D01*
X171725776Y-48642158D01*
X171725776Y-48588284D01*
X171698839Y-48507471D01*
X171591089Y-48399722D01*
X171510277Y-48372784D01*
X171456402Y-48372784D01*
X171375590Y-48399722D01*
X168838375Y-60873435D02*
X168380439Y-60792622D01*
X168515126Y-61196683D02*
X167949441Y-60630998D01*
X168164940Y-60415499D01*
X168245752Y-60388561D01*
X168299627Y-60388561D01*
X168380439Y-60415499D01*
X168461251Y-60496311D01*
X168488189Y-60577123D01*
X168488189Y-60630998D01*
X168461251Y-60711810D01*
X168245752Y-60927309D01*
X168515126Y-60065312D02*
X168973062Y-60523248D01*
X169053874Y-60550186D01*
X169107749Y-60550186D01*
X169188561Y-60523248D01*
X169296311Y-60415499D01*
X169323248Y-60334687D01*
X169323248Y-60280812D01*
X169296311Y-60199999D01*
X168838375Y-59742064D01*
X169673435Y-60038375D02*
X169107749Y-59472690D01*
X169996683Y-59715126D01*
X169430998Y-59149441D01*
X150886158Y-77528155D02*
X150805346Y-77555093D01*
X150724534Y-77635905D01*
X150670659Y-77743654D01*
X150670659Y-77851404D01*
X150697597Y-77932216D01*
X150778409Y-78066903D01*
X150859221Y-78147715D01*
X150993908Y-78228528D01*
X151074720Y-78255465D01*
X151182470Y-78255465D01*
X151290219Y-78201590D01*
X151344094Y-78147715D01*
X151397969Y-78039966D01*
X151397969Y-77986091D01*
X151209407Y-77797529D01*
X151101658Y-77905279D01*
X151694280Y-77797529D02*
X151128595Y-77231844D01*
X152017529Y-77474280D01*
X151451844Y-76908595D01*
X152286903Y-77204906D02*
X151721218Y-76639221D01*
X151855905Y-76504534D01*
X151963654Y-76450659D01*
X152071404Y-76450659D01*
X152152216Y-76477597D01*
X152286903Y-76558409D01*
X152367715Y-76639221D01*
X152448528Y-76773908D01*
X152475465Y-76854720D01*
X152475465Y-76962470D01*
X152421590Y-77070219D01*
X152286903Y-77204906D01*
X150886158Y-39428155D02*
X150805346Y-39455093D01*
X150724534Y-39535905D01*
X150670659Y-39643654D01*
X150670659Y-39751404D01*
X150697597Y-39832216D01*
X150778409Y-39966903D01*
X150859221Y-40047715D01*
X150993908Y-40128528D01*
X151074720Y-40155465D01*
X151182470Y-40155465D01*
X151290219Y-40101590D01*
X151344094Y-40047715D01*
X151397969Y-39939966D01*
X151397969Y-39886091D01*
X151209407Y-39697529D01*
X151101658Y-39805279D01*
X151694280Y-39697529D02*
X151128595Y-39131844D01*
X152017529Y-39374280D01*
X151451844Y-38808595D01*
X152286903Y-39104906D02*
X151721218Y-38539221D01*
X151855905Y-38404534D01*
X151963654Y-38350659D01*
X152071404Y-38350659D01*
X152152216Y-38377597D01*
X152286903Y-38458409D01*
X152367715Y-38539221D01*
X152448528Y-38673908D01*
X152475465Y-38754720D01*
X152475465Y-38862470D01*
X152421590Y-38970219D01*
X152286903Y-39104906D01*
X150389722Y-67610592D02*
X150308910Y-67637529D01*
X150228097Y-67718341D01*
X150174223Y-67826091D01*
X150174223Y-67933841D01*
X150201160Y-68014653D01*
X150281972Y-68149340D01*
X150362784Y-68230152D01*
X150497471Y-68310964D01*
X150578284Y-68337902D01*
X150686033Y-68337902D01*
X150793783Y-68284027D01*
X150847658Y-68230152D01*
X150901532Y-68122402D01*
X150901532Y-68068528D01*
X150712971Y-67879966D01*
X150605221Y-67987715D01*
X151197844Y-67879966D02*
X150632158Y-67314280D01*
X150847658Y-67098781D01*
X150928470Y-67071844D01*
X150982345Y-67071844D01*
X151063157Y-67098781D01*
X151143969Y-67179593D01*
X151170906Y-67260406D01*
X151170906Y-67314280D01*
X151143969Y-67395093D01*
X150928470Y-67610592D01*
X152059841Y-67017969D02*
X151736592Y-67341218D01*
X151898216Y-67179593D02*
X151332531Y-66613908D01*
X151359468Y-66748595D01*
X151359468Y-66856345D01*
X151332531Y-66937157D01*
X151844341Y-66102097D02*
X151898216Y-66048223D01*
X151979028Y-66021285D01*
X152032903Y-66021285D01*
X152113715Y-66048223D01*
X152248402Y-66129035D01*
X152383089Y-66263722D01*
X152463902Y-66398409D01*
X152490839Y-66479221D01*
X152490839Y-66533096D01*
X152463902Y-66613908D01*
X152410027Y-66667783D01*
X152329215Y-66694720D01*
X152275340Y-66694720D01*
X152194528Y-66667783D01*
X152059841Y-66586971D01*
X151925154Y-66452284D01*
X151844341Y-66317597D01*
X151817404Y-66236784D01*
X151817404Y-66182910D01*
X151844341Y-66102097D01*
X169597722Y-55090592D02*
X169516910Y-55117529D01*
X169436097Y-55198341D01*
X169382223Y-55306091D01*
X169382223Y-55413841D01*
X169409160Y-55494653D01*
X169489972Y-55629340D01*
X169570784Y-55710152D01*
X169705471Y-55790964D01*
X169786284Y-55817902D01*
X169894033Y-55817902D01*
X170001783Y-55764027D01*
X170055658Y-55710152D01*
X170109532Y-55602402D01*
X170109532Y-55548528D01*
X169920971Y-55359966D01*
X169813221Y-55467715D01*
X170405844Y-55359966D02*
X169840158Y-54794280D01*
X170055658Y-54578781D01*
X170136470Y-54551844D01*
X170190345Y-54551844D01*
X170271157Y-54578781D01*
X170351969Y-54659593D01*
X170378906Y-54740406D01*
X170378906Y-54794280D01*
X170351969Y-54875093D01*
X170136470Y-55090592D01*
X170432781Y-54309407D02*
X170432781Y-54255532D01*
X170459719Y-54174720D01*
X170594406Y-54040033D01*
X170675218Y-54013096D01*
X170729093Y-54013096D01*
X170809905Y-54040033D01*
X170863780Y-54093908D01*
X170917654Y-54201658D01*
X170917654Y-54848155D01*
X171267841Y-54497969D01*
X170890717Y-53743722D02*
X171267841Y-53366598D01*
X171591089Y-54174720D01*
X150913096Y-34321218D02*
X150832284Y-34348155D01*
X150751471Y-34428967D01*
X150697597Y-34536717D01*
X150697597Y-34644467D01*
X150724534Y-34725279D01*
X150805346Y-34859966D01*
X150886158Y-34940778D01*
X151020845Y-35021590D01*
X151101658Y-35048528D01*
X151209407Y-35048528D01*
X151317157Y-34994653D01*
X151371032Y-34940778D01*
X151424906Y-34833028D01*
X151424906Y-34779154D01*
X151236345Y-34590592D01*
X151128595Y-34698341D01*
X151721218Y-34590592D02*
X151155532Y-34024906D01*
X151371032Y-33809407D01*
X151451844Y-33782470D01*
X151505719Y-33782470D01*
X151586531Y-33809407D01*
X151667343Y-33890219D01*
X151694280Y-33971032D01*
X151694280Y-34024906D01*
X151667343Y-34105719D01*
X151451844Y-34321218D01*
X151828967Y-33351471D02*
X151882842Y-33297597D01*
X151963654Y-33270659D01*
X152017529Y-33270659D01*
X152098341Y-33297597D01*
X152233028Y-33378409D01*
X152367715Y-33513096D01*
X152448528Y-33647783D01*
X152475465Y-33728595D01*
X152475465Y-33782470D01*
X152448528Y-33863282D01*
X152394653Y-33917157D01*
X152313841Y-33944094D01*
X152259966Y-33944094D01*
X152179154Y-33917157D01*
X152044467Y-33836345D01*
X151909780Y-33701658D01*
X151828967Y-33566971D01*
X151802030Y-33486158D01*
X151802030Y-33432284D01*
X151828967Y-33351471D01*
X150913096Y-47021218D02*
X150832284Y-47048155D01*
X150751471Y-47128967D01*
X150697597Y-47236717D01*
X150697597Y-47344467D01*
X150724534Y-47425279D01*
X150805346Y-47559966D01*
X150886158Y-47640778D01*
X151020845Y-47721590D01*
X151101658Y-47748528D01*
X151209407Y-47748528D01*
X151317157Y-47694653D01*
X151371032Y-47640778D01*
X151424906Y-47533028D01*
X151424906Y-47479154D01*
X151236345Y-47290592D01*
X151128595Y-47398341D01*
X151721218Y-47290592D02*
X151155532Y-46724906D01*
X151371032Y-46509407D01*
X151451844Y-46482470D01*
X151505719Y-46482470D01*
X151586531Y-46509407D01*
X151667343Y-46590219D01*
X151694280Y-46671032D01*
X151694280Y-46724906D01*
X151667343Y-46805719D01*
X151451844Y-47021218D01*
X152152216Y-46105346D02*
X152529340Y-46482470D01*
X151802030Y-46024534D02*
X152071404Y-46563282D01*
X152421590Y-46213096D01*
X169651597Y-53240964D02*
X169920971Y-52971590D01*
X169759346Y-53456463D02*
X169382223Y-52702216D01*
X170136470Y-53079340D01*
X170082595Y-52055719D02*
X170001783Y-52082656D01*
X169920971Y-52163468D01*
X169867096Y-52271218D01*
X169867096Y-52378967D01*
X169894033Y-52459780D01*
X169974845Y-52594467D01*
X170055658Y-52675279D01*
X170190345Y-52756091D01*
X170271157Y-52783028D01*
X170378906Y-52783028D01*
X170486656Y-52729154D01*
X170540531Y-52675279D01*
X170594406Y-52567529D01*
X170594406Y-52513654D01*
X170405844Y-52325093D01*
X170298094Y-52432842D01*
X170890717Y-52325093D02*
X170325032Y-51759407D01*
X171213966Y-52001844D01*
X170648280Y-51436158D01*
X171483340Y-51732470D02*
X170917654Y-51166784D01*
X171052341Y-51032097D01*
X171160091Y-50978223D01*
X171267841Y-50978223D01*
X171348653Y-51005160D01*
X171483340Y-51085972D01*
X171564152Y-51166784D01*
X171644964Y-51301471D01*
X171671902Y-51382284D01*
X171671902Y-51490033D01*
X171618027Y-51597783D01*
X171483340Y-51732470D01*
X169597722Y-80480592D02*
X169516910Y-80507529D01*
X169436097Y-80588341D01*
X169382223Y-80696091D01*
X169382223Y-80803841D01*
X169409160Y-80884653D01*
X169489972Y-81019340D01*
X169570784Y-81100152D01*
X169705471Y-81180964D01*
X169786284Y-81207902D01*
X169894033Y-81207902D01*
X170001783Y-81154027D01*
X170055658Y-81100152D01*
X170109532Y-80992402D01*
X170109532Y-80938528D01*
X169920971Y-80749966D01*
X169813221Y-80857715D01*
X170405844Y-80749966D02*
X169840158Y-80184280D01*
X170055658Y-79968781D01*
X170136470Y-79941844D01*
X170190345Y-79941844D01*
X170271157Y-79968781D01*
X170351969Y-80049593D01*
X170378906Y-80130406D01*
X170378906Y-80184280D01*
X170351969Y-80265093D01*
X170136470Y-80480592D01*
X171267841Y-79887969D02*
X170944592Y-80211218D01*
X171106216Y-80049593D02*
X170540531Y-79483908D01*
X170567468Y-79618595D01*
X170567468Y-79726345D01*
X170540531Y-79807157D01*
X170890717Y-79133722D02*
X171267841Y-78756598D01*
X171591089Y-79564720D01*
X169597722Y-70320592D02*
X169516910Y-70347529D01*
X169436097Y-70428341D01*
X169382223Y-70536091D01*
X169382223Y-70643841D01*
X169409160Y-70724653D01*
X169489972Y-70859340D01*
X169570784Y-70940152D01*
X169705471Y-71020964D01*
X169786284Y-71047902D01*
X169894033Y-71047902D01*
X170001783Y-70994027D01*
X170055658Y-70940152D01*
X170109532Y-70832402D01*
X170109532Y-70778528D01*
X169920971Y-70589966D01*
X169813221Y-70697715D01*
X170405844Y-70589966D02*
X169840158Y-70024280D01*
X170055658Y-69808781D01*
X170136470Y-69781844D01*
X170190345Y-69781844D01*
X170271157Y-69808781D01*
X170351969Y-69889593D01*
X170378906Y-69970406D01*
X170378906Y-70024280D01*
X170351969Y-70105093D01*
X170136470Y-70320592D01*
X170432781Y-69539407D02*
X170432781Y-69485532D01*
X170459719Y-69404720D01*
X170594406Y-69270033D01*
X170675218Y-69243096D01*
X170729093Y-69243096D01*
X170809905Y-69270033D01*
X170863780Y-69323908D01*
X170917654Y-69431658D01*
X170917654Y-70078155D01*
X171267841Y-69727969D01*
X171052341Y-68812097D02*
X171106216Y-68758223D01*
X171187028Y-68731285D01*
X171240903Y-68731285D01*
X171321715Y-68758223D01*
X171456402Y-68839035D01*
X171591089Y-68973722D01*
X171671902Y-69108409D01*
X171698839Y-69189221D01*
X171698839Y-69243096D01*
X171671902Y-69323908D01*
X171618027Y-69377783D01*
X171537215Y-69404720D01*
X171483340Y-69404720D01*
X171402528Y-69377783D01*
X171267841Y-69296971D01*
X171133154Y-69162284D01*
X171052341Y-69027597D01*
X171025404Y-68946784D01*
X171025404Y-68892910D01*
X171052341Y-68812097D01*
X150886158Y-64828155D02*
X150805346Y-64855093D01*
X150724534Y-64935905D01*
X150670659Y-65043654D01*
X150670659Y-65151404D01*
X150697597Y-65232216D01*
X150778409Y-65366903D01*
X150859221Y-65447715D01*
X150993908Y-65528528D01*
X151074720Y-65555465D01*
X151182470Y-65555465D01*
X151290219Y-65501590D01*
X151344094Y-65447715D01*
X151397969Y-65339966D01*
X151397969Y-65286091D01*
X151209407Y-65097529D01*
X151101658Y-65205279D01*
X151694280Y-65097529D02*
X151128595Y-64531844D01*
X152017529Y-64774280D01*
X151451844Y-64208595D01*
X152286903Y-64504906D02*
X151721218Y-63939221D01*
X151855905Y-63804534D01*
X151963654Y-63750659D01*
X152071404Y-63750659D01*
X152152216Y-63777597D01*
X152286903Y-63858409D01*
X152367715Y-63939221D01*
X152448528Y-64073908D01*
X152475465Y-64154720D01*
X152475465Y-64262470D01*
X152421590Y-64370219D01*
X152286903Y-64504906D01*
X162620473Y-36559966D02*
X163374720Y-36937089D01*
X162997597Y-36182842D01*
X163697969Y-36559966D02*
X163805719Y-36506091D01*
X163940406Y-36371404D01*
X163967343Y-36290592D01*
X163967343Y-36236717D01*
X163940406Y-36155905D01*
X163886531Y-36102030D01*
X163805719Y-36075093D01*
X163751844Y-36075093D01*
X163671032Y-36102030D01*
X163536345Y-36182842D01*
X163455532Y-36209780D01*
X163401658Y-36209780D01*
X163320845Y-36182842D01*
X163266971Y-36128967D01*
X163240033Y-36048155D01*
X163240033Y-35994280D01*
X163266971Y-35913468D01*
X163401658Y-35778781D01*
X163509407Y-35724906D01*
X164128967Y-35644094D02*
X164398341Y-35913468D01*
X163644094Y-35536345D02*
X164128967Y-35644094D01*
X164021218Y-35159221D01*
X164721590Y-35536345D02*
X164829340Y-35482470D01*
X164964027Y-35347783D01*
X164990964Y-35266971D01*
X164990964Y-35213096D01*
X164964027Y-35132284D01*
X164910152Y-35078409D01*
X164829340Y-35051471D01*
X164775465Y-35051471D01*
X164694653Y-35078409D01*
X164559966Y-35159221D01*
X164479154Y-35186158D01*
X164425279Y-35186158D01*
X164344467Y-35159221D01*
X164290592Y-35105346D01*
X164263654Y-35024534D01*
X164263654Y-34970659D01*
X164290592Y-34889847D01*
X164425279Y-34755160D01*
X164533028Y-34701285D01*
X150813096Y-57121218D02*
X150732284Y-57148155D01*
X150651471Y-57228967D01*
X150597597Y-57336717D01*
X150597597Y-57444467D01*
X150624534Y-57525279D01*
X150705346Y-57659966D01*
X150786158Y-57740778D01*
X150920845Y-57821590D01*
X151001658Y-57848528D01*
X151109407Y-57848528D01*
X151217157Y-57794653D01*
X151271032Y-57740778D01*
X151324906Y-57633028D01*
X151324906Y-57579154D01*
X151136345Y-57390592D01*
X151028595Y-57498341D01*
X151621218Y-57390592D02*
X151055532Y-56824906D01*
X151271032Y-56609407D01*
X151351844Y-56582470D01*
X151405719Y-56582470D01*
X151486531Y-56609407D01*
X151567343Y-56690219D01*
X151594280Y-56771032D01*
X151594280Y-56824906D01*
X151567343Y-56905719D01*
X151351844Y-57121218D01*
X151567343Y-56313096D02*
X151944467Y-55935972D01*
X152267715Y-56744094D01*
X150389722Y-82850592D02*
X150308910Y-82877529D01*
X150228097Y-82958341D01*
X150174223Y-83066091D01*
X150174223Y-83173841D01*
X150201160Y-83254653D01*
X150281972Y-83389340D01*
X150362784Y-83470152D01*
X150497471Y-83550964D01*
X150578284Y-83577902D01*
X150686033Y-83577902D01*
X150793783Y-83524027D01*
X150847658Y-83470152D01*
X150901532Y-83362402D01*
X150901532Y-83308528D01*
X150712971Y-83119966D01*
X150605221Y-83227715D01*
X151197844Y-83119966D02*
X150632158Y-82554280D01*
X150847658Y-82338781D01*
X150928470Y-82311844D01*
X150982345Y-82311844D01*
X151063157Y-82338781D01*
X151143969Y-82419593D01*
X151170906Y-82500406D01*
X151170906Y-82554280D01*
X151143969Y-82635093D01*
X150928470Y-82850592D01*
X152059841Y-82257969D02*
X151736592Y-82581218D01*
X151898216Y-82419593D02*
X151332531Y-81853908D01*
X151359468Y-81988595D01*
X151359468Y-82096345D01*
X151332531Y-82177157D01*
X152005966Y-81180473D02*
X151736592Y-81449847D01*
X151979028Y-81746158D01*
X151979028Y-81692284D01*
X152005966Y-81611471D01*
X152140653Y-81476784D01*
X152221465Y-81449847D01*
X152275340Y-81449847D01*
X152356152Y-81476784D01*
X152490839Y-81611471D01*
X152517776Y-81692284D01*
X152517776Y-81746158D01*
X152490839Y-81826971D01*
X152356152Y-81961658D01*
X152275340Y-81988595D01*
X152221465Y-81988595D01*
X169597722Y-62700592D02*
X169516910Y-62727529D01*
X169436097Y-62808341D01*
X169382223Y-62916091D01*
X169382223Y-63023841D01*
X169409160Y-63104653D01*
X169489972Y-63239340D01*
X169570784Y-63320152D01*
X169705471Y-63400964D01*
X169786284Y-63427902D01*
X169894033Y-63427902D01*
X170001783Y-63374027D01*
X170055658Y-63320152D01*
X170109532Y-63212402D01*
X170109532Y-63158528D01*
X169920971Y-62969966D01*
X169813221Y-63077715D01*
X170405844Y-62969966D02*
X169840158Y-62404280D01*
X170055658Y-62188781D01*
X170136470Y-62161844D01*
X170190345Y-62161844D01*
X170271157Y-62188781D01*
X170351969Y-62269593D01*
X170378906Y-62350406D01*
X170378906Y-62404280D01*
X170351969Y-62485093D01*
X170136470Y-62700592D01*
X170432781Y-61919407D02*
X170432781Y-61865532D01*
X170459719Y-61784720D01*
X170594406Y-61650033D01*
X170675218Y-61623096D01*
X170729093Y-61623096D01*
X170809905Y-61650033D01*
X170863780Y-61703908D01*
X170917654Y-61811658D01*
X170917654Y-62458155D01*
X171267841Y-62107969D01*
X170971529Y-61380659D02*
X170971529Y-61326784D01*
X170998467Y-61245972D01*
X171133154Y-61111285D01*
X171213966Y-61084348D01*
X171267841Y-61084348D01*
X171348653Y-61111285D01*
X171402528Y-61165160D01*
X171456402Y-61272910D01*
X171456402Y-61919407D01*
X171806589Y-61569221D01*
X169422131Y-42458308D02*
X169772317Y-42108122D01*
X169799255Y-42512183D01*
X169880067Y-42431370D01*
X169960879Y-42404433D01*
X170014754Y-42404433D01*
X170095566Y-42431370D01*
X170230253Y-42566057D01*
X170257190Y-42646870D01*
X170257190Y-42700744D01*
X170230253Y-42781557D01*
X170068629Y-42943181D01*
X169987816Y-42970118D01*
X169933942Y-42970118D01*
X169933942Y-41946497D02*
X170688189Y-42323621D01*
X170311065Y-41569374D01*
X170445752Y-41434687D02*
X170795938Y-41084500D01*
X170822876Y-41488561D01*
X170903688Y-41407749D01*
X170984500Y-41380812D01*
X171038375Y-41380812D01*
X171119187Y-41407749D01*
X171253874Y-41542436D01*
X171280812Y-41623248D01*
X171280812Y-41677123D01*
X171253874Y-41757935D01*
X171092250Y-41919560D01*
X171011438Y-41946497D01*
X170957563Y-41946497D01*
X171523248Y-41596311D02*
X171954247Y-41165312D01*
X171738748Y-40680439D02*
X171927309Y-40491877D01*
X172304433Y-40707377D02*
X172035059Y-40976751D01*
X171469374Y-40411065D01*
X171738748Y-40141691D01*
X172546870Y-40464940D02*
X171981184Y-39899255D01*
X172870118Y-40141691D01*
X172304433Y-39576006D01*
X168986158Y-39748155D02*
X168905346Y-39775093D01*
X168824534Y-39855905D01*
X168770659Y-39963654D01*
X168770659Y-40071404D01*
X168797597Y-40152216D01*
X168878409Y-40286903D01*
X168959221Y-40367715D01*
X169093908Y-40448528D01*
X169174720Y-40475465D01*
X169282470Y-40475465D01*
X169390219Y-40421590D01*
X169444094Y-40367715D01*
X169497969Y-40259966D01*
X169497969Y-40206091D01*
X169309407Y-40017529D01*
X169201658Y-40125279D01*
X169794280Y-40017529D02*
X169228595Y-39451844D01*
X170117529Y-39694280D01*
X169551844Y-39128595D01*
X170386903Y-39424906D02*
X169821218Y-38859221D01*
X169955905Y-38724534D01*
X170063654Y-38670659D01*
X170171404Y-38670659D01*
X170252216Y-38697597D01*
X170386903Y-38778409D01*
X170467715Y-38859221D01*
X170548528Y-38993908D01*
X170575465Y-39074720D01*
X170575465Y-39182470D01*
X170521590Y-39290219D01*
X170386903Y-39424906D01*
X169597722Y-72860592D02*
X169516910Y-72887529D01*
X169436097Y-72968341D01*
X169382223Y-73076091D01*
X169382223Y-73183841D01*
X169409160Y-73264653D01*
X169489972Y-73399340D01*
X169570784Y-73480152D01*
X169705471Y-73560964D01*
X169786284Y-73587902D01*
X169894033Y-73587902D01*
X170001783Y-73534027D01*
X170055658Y-73480152D01*
X170109532Y-73372402D01*
X170109532Y-73318528D01*
X169920971Y-73129966D01*
X169813221Y-73237715D01*
X170405844Y-73129966D02*
X169840158Y-72564280D01*
X170055658Y-72348781D01*
X170136470Y-72321844D01*
X170190345Y-72321844D01*
X170271157Y-72348781D01*
X170351969Y-72429593D01*
X170378906Y-72510406D01*
X170378906Y-72564280D01*
X170351969Y-72645093D01*
X170136470Y-72860592D01*
X171267841Y-72267969D02*
X170944592Y-72591218D01*
X171106216Y-72429593D02*
X170540531Y-71863908D01*
X170567468Y-71998595D01*
X170567468Y-72106345D01*
X170540531Y-72187157D01*
X171537215Y-71998595D02*
X171644964Y-71890845D01*
X171671902Y-71810033D01*
X171671902Y-71756158D01*
X171644964Y-71621471D01*
X171564152Y-71486784D01*
X171348653Y-71271285D01*
X171267841Y-71244348D01*
X171213966Y-71244348D01*
X171133154Y-71271285D01*
X171025404Y-71379035D01*
X170998467Y-71459847D01*
X170998467Y-71513722D01*
X171025404Y-71594534D01*
X171160091Y-71729221D01*
X171240903Y-71756158D01*
X171294778Y-71756158D01*
X171375590Y-71729221D01*
X171483340Y-71621471D01*
X171510277Y-71540659D01*
X171510277Y-71486784D01*
X171483340Y-71405972D01*
X150913096Y-59721218D02*
X150832284Y-59748155D01*
X150751471Y-59828967D01*
X150697597Y-59936717D01*
X150697597Y-60044467D01*
X150724534Y-60125279D01*
X150805346Y-60259966D01*
X150886158Y-60340778D01*
X151020845Y-60421590D01*
X151101658Y-60448528D01*
X151209407Y-60448528D01*
X151317157Y-60394653D01*
X151371032Y-60340778D01*
X151424906Y-60233028D01*
X151424906Y-60179154D01*
X151236345Y-59990592D01*
X151128595Y-60098341D01*
X151721218Y-59990592D02*
X151155532Y-59424906D01*
X151371032Y-59209407D01*
X151451844Y-59182470D01*
X151505719Y-59182470D01*
X151586531Y-59209407D01*
X151667343Y-59290219D01*
X151694280Y-59371032D01*
X151694280Y-59424906D01*
X151667343Y-59505719D01*
X151451844Y-59721218D01*
X152044467Y-59020845D02*
X151963654Y-59047783D01*
X151909780Y-59047783D01*
X151828967Y-59020845D01*
X151802030Y-58993908D01*
X151775093Y-58913096D01*
X151775093Y-58859221D01*
X151802030Y-58778409D01*
X151909780Y-58670659D01*
X151990592Y-58643722D01*
X152044467Y-58643722D01*
X152125279Y-58670659D01*
X152152216Y-58697597D01*
X152179154Y-58778409D01*
X152179154Y-58832284D01*
X152152216Y-58913096D01*
X152044467Y-59020845D01*
X152017529Y-59101658D01*
X152017529Y-59155532D01*
X152044467Y-59236345D01*
X152152216Y-59344094D01*
X152233028Y-59371032D01*
X152286903Y-59371032D01*
X152367715Y-59344094D01*
X152475465Y-59236345D01*
X152502402Y-59155532D01*
X152502402Y-59101658D01*
X152475465Y-59020845D01*
X152367715Y-58913096D01*
X152286903Y-58886158D01*
X152233028Y-58886158D01*
X152152216Y-58913096D01*
X150913096Y-62261218D02*
X150832284Y-62288155D01*
X150751471Y-62368967D01*
X150697597Y-62476717D01*
X150697597Y-62584467D01*
X150724534Y-62665279D01*
X150805346Y-62799966D01*
X150886158Y-62880778D01*
X151020845Y-62961590D01*
X151101658Y-62988528D01*
X151209407Y-62988528D01*
X151317157Y-62934653D01*
X151371032Y-62880778D01*
X151424906Y-62773028D01*
X151424906Y-62719154D01*
X151236345Y-62530592D01*
X151128595Y-62638341D01*
X151721218Y-62530592D02*
X151155532Y-61964906D01*
X151371032Y-61749407D01*
X151451844Y-61722470D01*
X151505719Y-61722470D01*
X151586531Y-61749407D01*
X151667343Y-61830219D01*
X151694280Y-61911032D01*
X151694280Y-61964906D01*
X151667343Y-62045719D01*
X151451844Y-62261218D01*
X152313841Y-61937969D02*
X152421590Y-61830219D01*
X152448528Y-61749407D01*
X152448528Y-61695532D01*
X152421590Y-61560845D01*
X152340778Y-61426158D01*
X152125279Y-61210659D01*
X152044467Y-61183722D01*
X151990592Y-61183722D01*
X151909780Y-61210659D01*
X151802030Y-61318409D01*
X151775093Y-61399221D01*
X151775093Y-61453096D01*
X151802030Y-61533908D01*
X151936717Y-61668595D01*
X152017529Y-61695532D01*
X152071404Y-61695532D01*
X152152216Y-61668595D01*
X152259966Y-61560845D01*
X152286903Y-61480033D01*
X152286903Y-61426158D01*
X152259966Y-61345346D01*
X150813096Y-36851218D02*
X150732284Y-36878155D01*
X150651471Y-36958967D01*
X150597597Y-37066717D01*
X150597597Y-37174467D01*
X150624534Y-37255279D01*
X150705346Y-37389966D01*
X150786158Y-37470778D01*
X150920845Y-37551590D01*
X151001658Y-37578528D01*
X151109407Y-37578528D01*
X151217157Y-37524653D01*
X151271032Y-37470778D01*
X151324906Y-37363028D01*
X151324906Y-37309154D01*
X151136345Y-37120592D01*
X151028595Y-37228341D01*
X151621218Y-37120592D02*
X151055532Y-36554906D01*
X151271032Y-36339407D01*
X151351844Y-36312470D01*
X151405719Y-36312470D01*
X151486531Y-36339407D01*
X151567343Y-36420219D01*
X151594280Y-36501032D01*
X151594280Y-36554906D01*
X151567343Y-36635719D01*
X151351844Y-36851218D01*
X152483215Y-36258595D02*
X152159966Y-36581844D01*
X152321590Y-36420219D02*
X151755905Y-35854534D01*
X151782842Y-35989221D01*
X151782842Y-36096971D01*
X151755905Y-36177783D01*
X150343722Y-80310592D02*
X150262910Y-80337529D01*
X150182097Y-80418341D01*
X150128223Y-80526091D01*
X150128223Y-80633841D01*
X150155160Y-80714653D01*
X150235972Y-80849340D01*
X150316784Y-80930152D01*
X150451471Y-81010964D01*
X150532284Y-81037902D01*
X150640033Y-81037902D01*
X150747783Y-80984027D01*
X150801658Y-80930152D01*
X150855532Y-80822402D01*
X150855532Y-80768528D01*
X150666971Y-80579966D01*
X150559221Y-80687715D01*
X151151844Y-80579966D02*
X150586158Y-80014280D01*
X150801658Y-79798781D01*
X150882470Y-79771844D01*
X150936345Y-79771844D01*
X151017157Y-79798781D01*
X151097969Y-79879593D01*
X151124906Y-79960406D01*
X151124906Y-80014280D01*
X151097969Y-80095093D01*
X150882470Y-80310592D01*
X152013841Y-79717969D02*
X151690592Y-80041218D01*
X151852216Y-79879593D02*
X151286531Y-79313908D01*
X151313468Y-79448595D01*
X151313468Y-79556345D01*
X151286531Y-79637157D01*
X152121590Y-78855972D02*
X152498714Y-79233096D01*
X151771404Y-78775160D02*
X152040778Y-79313908D01*
X152390964Y-78963722D01*
X169586158Y-77698155D02*
X169505346Y-77725093D01*
X169424534Y-77805905D01*
X169370659Y-77913654D01*
X169370659Y-78021404D01*
X169397597Y-78102216D01*
X169478409Y-78236903D01*
X169559221Y-78317715D01*
X169693908Y-78398528D01*
X169774720Y-78425465D01*
X169882470Y-78425465D01*
X169990219Y-78371590D01*
X170044094Y-78317715D01*
X170097969Y-78209966D01*
X170097969Y-78156091D01*
X169909407Y-77967529D01*
X169801658Y-78075279D01*
X170394280Y-77967529D02*
X169828595Y-77401844D01*
X170717529Y-77644280D01*
X170151844Y-77078595D01*
X170986903Y-77374906D02*
X170421218Y-76809221D01*
X170555905Y-76674534D01*
X170663654Y-76620659D01*
X170771404Y-76620659D01*
X170852216Y-76647597D01*
X170986903Y-76728409D01*
X171067715Y-76809221D01*
X171148528Y-76943908D01*
X171175465Y-77024720D01*
X171175465Y-77132470D01*
X171121590Y-77240219D01*
X170986903Y-77374906D01*
X169597722Y-75400592D02*
X169516910Y-75427529D01*
X169436097Y-75508341D01*
X169382223Y-75616091D01*
X169382223Y-75723841D01*
X169409160Y-75804653D01*
X169489972Y-75939340D01*
X169570784Y-76020152D01*
X169705471Y-76100964D01*
X169786284Y-76127902D01*
X169894033Y-76127902D01*
X170001783Y-76074027D01*
X170055658Y-76020152D01*
X170109532Y-75912402D01*
X170109532Y-75858528D01*
X169920971Y-75669966D01*
X169813221Y-75777715D01*
X170405844Y-75669966D02*
X169840158Y-75104280D01*
X170055658Y-74888781D01*
X170136470Y-74861844D01*
X170190345Y-74861844D01*
X170271157Y-74888781D01*
X170351969Y-74969593D01*
X170378906Y-75050406D01*
X170378906Y-75104280D01*
X170351969Y-75185093D01*
X170136470Y-75400592D01*
X171267841Y-74807969D02*
X170944592Y-75131218D01*
X171106216Y-74969593D02*
X170540531Y-74403908D01*
X170567468Y-74538595D01*
X170567468Y-74646345D01*
X170540531Y-74727157D01*
X171267841Y-74161471D02*
X171187028Y-74188409D01*
X171133154Y-74188409D01*
X171052341Y-74161471D01*
X171025404Y-74134534D01*
X170998467Y-74053722D01*
X170998467Y-73999847D01*
X171025404Y-73919035D01*
X171133154Y-73811285D01*
X171213966Y-73784348D01*
X171267841Y-73784348D01*
X171348653Y-73811285D01*
X171375590Y-73838223D01*
X171402528Y-73919035D01*
X171402528Y-73972910D01*
X171375590Y-74053722D01*
X171267841Y-74161471D01*
X171240903Y-74242284D01*
X171240903Y-74296158D01*
X171267841Y-74376971D01*
X171375590Y-74484720D01*
X171456402Y-74511658D01*
X171510277Y-74511658D01*
X171591089Y-74484720D01*
X171698839Y-74376971D01*
X171725776Y-74296158D01*
X171725776Y-74242284D01*
X171698839Y-74161471D01*
X171591089Y-74053722D01*
X171510277Y-74026784D01*
X171456402Y-74026784D01*
X171375590Y-74053722D01*
X150243722Y-72690592D02*
X150162910Y-72717529D01*
X150082097Y-72798341D01*
X150028223Y-72906091D01*
X150028223Y-73013841D01*
X150055160Y-73094653D01*
X150135972Y-73229340D01*
X150216784Y-73310152D01*
X150351471Y-73390964D01*
X150432284Y-73417902D01*
X150540033Y-73417902D01*
X150647783Y-73364027D01*
X150701658Y-73310152D01*
X150755532Y-73202402D01*
X150755532Y-73148528D01*
X150566971Y-72959966D01*
X150459221Y-73067715D01*
X151051844Y-72959966D02*
X150486158Y-72394280D01*
X150701658Y-72178781D01*
X150782470Y-72151844D01*
X150836345Y-72151844D01*
X150917157Y-72178781D01*
X150997969Y-72259593D01*
X151024906Y-72340406D01*
X151024906Y-72394280D01*
X150997969Y-72475093D01*
X150782470Y-72690592D01*
X151913841Y-72097969D02*
X151590592Y-72421218D01*
X151752216Y-72259593D02*
X151186531Y-71693908D01*
X151213468Y-71828595D01*
X151213468Y-71936345D01*
X151186531Y-72017157D01*
X151617529Y-71370659D02*
X151617529Y-71316784D01*
X151644467Y-71235972D01*
X151779154Y-71101285D01*
X151859966Y-71074348D01*
X151913841Y-71074348D01*
X151994653Y-71101285D01*
X152048528Y-71155160D01*
X152102402Y-71262910D01*
X152102402Y-71909407D01*
X152452589Y-71559221D01*
X150586158Y-53248155D02*
X150505346Y-53275093D01*
X150424534Y-53355905D01*
X150370659Y-53463654D01*
X150370659Y-53571404D01*
X150397597Y-53652216D01*
X150478409Y-53786903D01*
X150559221Y-53867715D01*
X150693908Y-53948528D01*
X150774720Y-53975465D01*
X150882470Y-53975465D01*
X150990219Y-53921590D01*
X151044094Y-53867715D01*
X151097969Y-53759966D01*
X151097969Y-53706091D01*
X150909407Y-53517529D01*
X150801658Y-53625279D01*
X151394280Y-53517529D02*
X150828595Y-52951844D01*
X151717529Y-53194280D01*
X151151844Y-52628595D01*
X151986903Y-52924906D02*
X151421218Y-52359221D01*
X151555905Y-52224534D01*
X151663654Y-52170659D01*
X151771404Y-52170659D01*
X151852216Y-52197597D01*
X151986903Y-52278409D01*
X152067715Y-52359221D01*
X152148528Y-52493908D01*
X152175465Y-52574720D01*
X152175465Y-52682470D01*
X152121590Y-52790219D01*
X151986903Y-52924906D01*
X169597722Y-83020592D02*
X169516910Y-83047529D01*
X169436097Y-83128341D01*
X169382223Y-83236091D01*
X169382223Y-83343841D01*
X169409160Y-83424653D01*
X169489972Y-83559340D01*
X169570784Y-83640152D01*
X169705471Y-83720964D01*
X169786284Y-83747902D01*
X169894033Y-83747902D01*
X170001783Y-83694027D01*
X170055658Y-83640152D01*
X170109532Y-83532402D01*
X170109532Y-83478528D01*
X169920971Y-83289966D01*
X169813221Y-83397715D01*
X170405844Y-83289966D02*
X169840158Y-82724280D01*
X170055658Y-82508781D01*
X170136470Y-82481844D01*
X170190345Y-82481844D01*
X170271157Y-82508781D01*
X170351969Y-82589593D01*
X170378906Y-82670406D01*
X170378906Y-82724280D01*
X170351969Y-82805093D01*
X170136470Y-83020592D01*
X171267841Y-82427969D02*
X170944592Y-82751218D01*
X171106216Y-82589593D02*
X170540531Y-82023908D01*
X170567468Y-82158595D01*
X170567468Y-82266345D01*
X170540531Y-82347157D01*
X171187028Y-81377410D02*
X171079279Y-81485160D01*
X171052341Y-81565972D01*
X171052341Y-81619847D01*
X171079279Y-81754534D01*
X171160091Y-81889221D01*
X171375590Y-82104720D01*
X171456402Y-82131658D01*
X171510277Y-82131658D01*
X171591089Y-82104720D01*
X171698839Y-81996971D01*
X171725776Y-81916158D01*
X171725776Y-81862284D01*
X171698839Y-81781471D01*
X171564152Y-81646784D01*
X171483340Y-81619847D01*
X171429465Y-81619847D01*
X171348653Y-81646784D01*
X171240903Y-81754534D01*
X171213966Y-81835346D01*
X171213966Y-81889221D01*
X171240903Y-81970033D01*
X150389722Y-75230592D02*
X150308910Y-75257529D01*
X150228097Y-75338341D01*
X150174223Y-75446091D01*
X150174223Y-75553841D01*
X150201160Y-75634653D01*
X150281972Y-75769340D01*
X150362784Y-75850152D01*
X150497471Y-75930964D01*
X150578284Y-75957902D01*
X150686033Y-75957902D01*
X150793783Y-75904027D01*
X150847658Y-75850152D01*
X150901532Y-75742402D01*
X150901532Y-75688528D01*
X150712971Y-75499966D01*
X150605221Y-75607715D01*
X151197844Y-75499966D02*
X150632158Y-74934280D01*
X150847658Y-74718781D01*
X150928470Y-74691844D01*
X150982345Y-74691844D01*
X151063157Y-74718781D01*
X151143969Y-74799593D01*
X151170906Y-74880406D01*
X151170906Y-74934280D01*
X151143969Y-75015093D01*
X150928470Y-75230592D01*
X152059841Y-74637969D02*
X151736592Y-74961218D01*
X151898216Y-74799593D02*
X151332531Y-74233908D01*
X151359468Y-74368595D01*
X151359468Y-74476345D01*
X151332531Y-74557157D01*
X151682717Y-73883722D02*
X152032903Y-73533536D01*
X152059841Y-73937597D01*
X152140653Y-73856784D01*
X152221465Y-73829847D01*
X152275340Y-73829847D01*
X152356152Y-73856784D01*
X152490839Y-73991471D01*
X152517776Y-74072284D01*
X152517776Y-74126158D01*
X152490839Y-74206971D01*
X152329215Y-74368595D01*
X152248402Y-74395532D01*
X152194528Y-74395532D01*
%TO.C,C4*%
X155533333Y-97607142D02*
X155485714Y-97654761D01*
X155342857Y-97702380D01*
X155247619Y-97702380D01*
X155104761Y-97654761D01*
X155009523Y-97559523D01*
X154961904Y-97464285D01*
X154914285Y-97273809D01*
X154914285Y-97130952D01*
X154961904Y-96940476D01*
X155009523Y-96845238D01*
X155104761Y-96750000D01*
X155247619Y-96702380D01*
X155342857Y-96702380D01*
X155485714Y-96750000D01*
X155533333Y-96797619D01*
X156390476Y-97035714D02*
X156390476Y-97702380D01*
X156152380Y-96654761D02*
X155914285Y-97369047D01*
X156533333Y-97369047D01*
%TO.C,R16*%
X149757142Y-120152380D02*
X149423809Y-119676190D01*
X149185714Y-120152380D02*
X149185714Y-119152380D01*
X149566666Y-119152380D01*
X149661904Y-119200000D01*
X149709523Y-119247619D01*
X149757142Y-119342857D01*
X149757142Y-119485714D01*
X149709523Y-119580952D01*
X149661904Y-119628571D01*
X149566666Y-119676190D01*
X149185714Y-119676190D01*
X150709523Y-120152380D02*
X150138095Y-120152380D01*
X150423809Y-120152380D02*
X150423809Y-119152380D01*
X150328571Y-119295238D01*
X150233333Y-119390476D01*
X150138095Y-119438095D01*
X151566666Y-119152380D02*
X151376190Y-119152380D01*
X151280952Y-119200000D01*
X151233333Y-119247619D01*
X151138095Y-119390476D01*
X151090476Y-119580952D01*
X151090476Y-119961904D01*
X151138095Y-120057142D01*
X151185714Y-120104761D01*
X151280952Y-120152380D01*
X151471428Y-120152380D01*
X151566666Y-120104761D01*
X151614285Y-120057142D01*
X151661904Y-119961904D01*
X151661904Y-119723809D01*
X151614285Y-119628571D01*
X151566666Y-119580952D01*
X151471428Y-119533333D01*
X151280952Y-119533333D01*
X151185714Y-119580952D01*
X151138095Y-119628571D01*
X151090476Y-119723809D01*
%TO.C,R14*%
X165272380Y-121142857D02*
X164796190Y-121476190D01*
X165272380Y-121714285D02*
X164272380Y-121714285D01*
X164272380Y-121333333D01*
X164320000Y-121238095D01*
X164367619Y-121190476D01*
X164462857Y-121142857D01*
X164605714Y-121142857D01*
X164700952Y-121190476D01*
X164748571Y-121238095D01*
X164796190Y-121333333D01*
X164796190Y-121714285D01*
X165272380Y-120190476D02*
X165272380Y-120761904D01*
X165272380Y-120476190D02*
X164272380Y-120476190D01*
X164415238Y-120571428D01*
X164510476Y-120666666D01*
X164558095Y-120761904D01*
X164605714Y-119333333D02*
X165272380Y-119333333D01*
X164224761Y-119571428D02*
X164939047Y-119809523D01*
X164939047Y-119190476D01*
%TO.C,D3*%
X155202380Y-30238095D02*
X154202380Y-30238095D01*
X154202380Y-30000000D01*
X154250000Y-29857142D01*
X154345238Y-29761904D01*
X154440476Y-29714285D01*
X154630952Y-29666666D01*
X154773809Y-29666666D01*
X154964285Y-29714285D01*
X155059523Y-29761904D01*
X155154761Y-29857142D01*
X155202380Y-30000000D01*
X155202380Y-30238095D01*
X154202380Y-29333333D02*
X154202380Y-28714285D01*
X154583333Y-29047619D01*
X154583333Y-28904761D01*
X154630952Y-28809523D01*
X154678571Y-28761904D01*
X154773809Y-28714285D01*
X155011904Y-28714285D01*
X155107142Y-28761904D01*
X155154761Y-28809523D01*
X155202380Y-28904761D01*
X155202380Y-29190476D01*
X155154761Y-29285714D01*
X155107142Y-29333333D01*
%TO.C,R5*%
X178333333Y-109952380D02*
X178000000Y-109476190D01*
X177761904Y-109952380D02*
X177761904Y-108952380D01*
X178142857Y-108952380D01*
X178238095Y-109000000D01*
X178285714Y-109047619D01*
X178333333Y-109142857D01*
X178333333Y-109285714D01*
X178285714Y-109380952D01*
X178238095Y-109428571D01*
X178142857Y-109476190D01*
X177761904Y-109476190D01*
X179238095Y-108952380D02*
X178761904Y-108952380D01*
X178714285Y-109428571D01*
X178761904Y-109380952D01*
X178857142Y-109333333D01*
X179095238Y-109333333D01*
X179190476Y-109380952D01*
X179238095Y-109428571D01*
X179285714Y-109523809D01*
X179285714Y-109761904D01*
X179238095Y-109857142D01*
X179190476Y-109904761D01*
X179095238Y-109952380D01*
X178857142Y-109952380D01*
X178761904Y-109904761D01*
X178714285Y-109857142D01*
%TO.C,J10*%
X147440476Y-30127380D02*
X147440476Y-30841666D01*
X147392857Y-30984523D01*
X147297619Y-31079761D01*
X147154761Y-31127380D01*
X147059523Y-31127380D01*
X148440476Y-31127380D02*
X147869047Y-31127380D01*
X148154761Y-31127380D02*
X148154761Y-30127380D01*
X148059523Y-30270238D01*
X147964285Y-30365476D01*
X147869047Y-30413095D01*
X149059523Y-30127380D02*
X149154761Y-30127380D01*
X149250000Y-30175000D01*
X149297619Y-30222619D01*
X149345238Y-30317857D01*
X149392857Y-30508333D01*
X149392857Y-30746428D01*
X149345238Y-30936904D01*
X149297619Y-31032142D01*
X149250000Y-31079761D01*
X149154761Y-31127380D01*
X149059523Y-31127380D01*
X148964285Y-31079761D01*
X148916666Y-31032142D01*
X148869047Y-30936904D01*
X148821428Y-30746428D01*
X148821428Y-30508333D01*
X148869047Y-30317857D01*
X148916666Y-30222619D01*
X148964285Y-30175000D01*
X149059523Y-30127380D01*
%TO.C,C7*%
X177533333Y-114007142D02*
X177485714Y-114054761D01*
X177342857Y-114102380D01*
X177247619Y-114102380D01*
X177104761Y-114054761D01*
X177009523Y-113959523D01*
X176961904Y-113864285D01*
X176914285Y-113673809D01*
X176914285Y-113530952D01*
X176961904Y-113340476D01*
X177009523Y-113245238D01*
X177104761Y-113150000D01*
X177247619Y-113102380D01*
X177342857Y-113102380D01*
X177485714Y-113150000D01*
X177533333Y-113197619D01*
X177866666Y-113102380D02*
X178533333Y-113102380D01*
X178104761Y-114102380D01*
%TO.C,R12*%
X165772380Y-110142857D02*
X165296190Y-110476190D01*
X165772380Y-110714285D02*
X164772380Y-110714285D01*
X164772380Y-110333333D01*
X164820000Y-110238095D01*
X164867619Y-110190476D01*
X164962857Y-110142857D01*
X165105714Y-110142857D01*
X165200952Y-110190476D01*
X165248571Y-110238095D01*
X165296190Y-110333333D01*
X165296190Y-110714285D01*
X165772380Y-109190476D02*
X165772380Y-109761904D01*
X165772380Y-109476190D02*
X164772380Y-109476190D01*
X164915238Y-109571428D01*
X165010476Y-109666666D01*
X165058095Y-109761904D01*
X164867619Y-108809523D02*
X164820000Y-108761904D01*
X164772380Y-108666666D01*
X164772380Y-108428571D01*
X164820000Y-108333333D01*
X164867619Y-108285714D01*
X164962857Y-108238095D01*
X165058095Y-108238095D01*
X165200952Y-108285714D01*
X165772380Y-108857142D01*
X165772380Y-108238095D01*
%TO.C,R1*%
X179833333Y-86132380D02*
X179500000Y-85656190D01*
X179261904Y-86132380D02*
X179261904Y-85132380D01*
X179642857Y-85132380D01*
X179738095Y-85180000D01*
X179785714Y-85227619D01*
X179833333Y-85322857D01*
X179833333Y-85465714D01*
X179785714Y-85560952D01*
X179738095Y-85608571D01*
X179642857Y-85656190D01*
X179261904Y-85656190D01*
X180785714Y-86132380D02*
X180214285Y-86132380D01*
X180500000Y-86132380D02*
X180500000Y-85132380D01*
X180404761Y-85275238D01*
X180309523Y-85370476D01*
X180214285Y-85418095D01*
%TO.C,C8*%
X148033333Y-114457142D02*
X147985714Y-114504761D01*
X147842857Y-114552380D01*
X147747619Y-114552380D01*
X147604761Y-114504761D01*
X147509523Y-114409523D01*
X147461904Y-114314285D01*
X147414285Y-114123809D01*
X147414285Y-113980952D01*
X147461904Y-113790476D01*
X147509523Y-113695238D01*
X147604761Y-113600000D01*
X147747619Y-113552380D01*
X147842857Y-113552380D01*
X147985714Y-113600000D01*
X148033333Y-113647619D01*
X148604761Y-113980952D02*
X148509523Y-113933333D01*
X148461904Y-113885714D01*
X148414285Y-113790476D01*
X148414285Y-113742857D01*
X148461904Y-113647619D01*
X148509523Y-113600000D01*
X148604761Y-113552380D01*
X148795238Y-113552380D01*
X148890476Y-113600000D01*
X148938095Y-113647619D01*
X148985714Y-113742857D01*
X148985714Y-113790476D01*
X148938095Y-113885714D01*
X148890476Y-113933333D01*
X148795238Y-113980952D01*
X148604761Y-113980952D01*
X148509523Y-114028571D01*
X148461904Y-114076190D01*
X148414285Y-114171428D01*
X148414285Y-114361904D01*
X148461904Y-114457142D01*
X148509523Y-114504761D01*
X148604761Y-114552380D01*
X148795238Y-114552380D01*
X148890476Y-114504761D01*
X148938095Y-114457142D01*
X148985714Y-114361904D01*
X148985714Y-114171428D01*
X148938095Y-114076190D01*
X148890476Y-114028571D01*
X148795238Y-113980952D01*
%TO.C,H1*%
X174038095Y-21952380D02*
X174038095Y-20952380D01*
X174038095Y-21428571D02*
X174609523Y-21428571D01*
X174609523Y-21952380D02*
X174609523Y-20952380D01*
X175609523Y-21952380D02*
X175038095Y-21952380D01*
X175323809Y-21952380D02*
X175323809Y-20952380D01*
X175228571Y-21095238D01*
X175133333Y-21190476D01*
X175038095Y-21238095D01*
%TO.C,D4*%
X162602380Y-30238095D02*
X161602380Y-30238095D01*
X161602380Y-30000000D01*
X161650000Y-29857142D01*
X161745238Y-29761904D01*
X161840476Y-29714285D01*
X162030952Y-29666666D01*
X162173809Y-29666666D01*
X162364285Y-29714285D01*
X162459523Y-29761904D01*
X162554761Y-29857142D01*
X162602380Y-30000000D01*
X162602380Y-30238095D01*
X161935714Y-28809523D02*
X162602380Y-28809523D01*
X161554761Y-29047619D02*
X162269047Y-29285714D01*
X162269047Y-28666666D01*
%TO.C,R6*%
X153433333Y-110052380D02*
X153100000Y-109576190D01*
X152861904Y-110052380D02*
X152861904Y-109052380D01*
X153242857Y-109052380D01*
X153338095Y-109100000D01*
X153385714Y-109147619D01*
X153433333Y-109242857D01*
X153433333Y-109385714D01*
X153385714Y-109480952D01*
X153338095Y-109528571D01*
X153242857Y-109576190D01*
X152861904Y-109576190D01*
X154290476Y-109052380D02*
X154100000Y-109052380D01*
X154004761Y-109100000D01*
X153957142Y-109147619D01*
X153861904Y-109290476D01*
X153814285Y-109480952D01*
X153814285Y-109861904D01*
X153861904Y-109957142D01*
X153909523Y-110004761D01*
X154004761Y-110052380D01*
X154195238Y-110052380D01*
X154290476Y-110004761D01*
X154338095Y-109957142D01*
X154385714Y-109861904D01*
X154385714Y-109623809D01*
X154338095Y-109528571D01*
X154290476Y-109480952D01*
X154195238Y-109433333D01*
X154004761Y-109433333D01*
X153909523Y-109480952D01*
X153861904Y-109528571D01*
X153814285Y-109623809D01*
%TO.C,R13*%
X167132380Y-124642857D02*
X166656190Y-124976190D01*
X167132380Y-125214285D02*
X166132380Y-125214285D01*
X166132380Y-124833333D01*
X166180000Y-124738095D01*
X166227619Y-124690476D01*
X166322857Y-124642857D01*
X166465714Y-124642857D01*
X166560952Y-124690476D01*
X166608571Y-124738095D01*
X166656190Y-124833333D01*
X166656190Y-125214285D01*
X167132380Y-123690476D02*
X167132380Y-124261904D01*
X167132380Y-123976190D02*
X166132380Y-123976190D01*
X166275238Y-124071428D01*
X166370476Y-124166666D01*
X166418095Y-124261904D01*
X166132380Y-123357142D02*
X166132380Y-122738095D01*
X166513333Y-123071428D01*
X166513333Y-122928571D01*
X166560952Y-122833333D01*
X166608571Y-122785714D01*
X166703809Y-122738095D01*
X166941904Y-122738095D01*
X167037142Y-122785714D01*
X167084761Y-122833333D01*
X167132380Y-122928571D01*
X167132380Y-123214285D01*
X167084761Y-123309523D01*
X167037142Y-123357142D01*
%TO.C,Q2*%
X153813761Y-52534619D02*
X153718523Y-52487000D01*
X153623285Y-52391761D01*
X153480428Y-52248904D01*
X153385190Y-52201285D01*
X153289952Y-52201285D01*
X153337571Y-52439380D02*
X153242333Y-52391761D01*
X153147095Y-52296523D01*
X153099476Y-52106047D01*
X153099476Y-51772714D01*
X153147095Y-51582238D01*
X153242333Y-51487000D01*
X153337571Y-51439380D01*
X153528047Y-51439380D01*
X153623285Y-51487000D01*
X153718523Y-51582238D01*
X153766142Y-51772714D01*
X153766142Y-52106047D01*
X153718523Y-52296523D01*
X153623285Y-52391761D01*
X153528047Y-52439380D01*
X153337571Y-52439380D01*
X154147095Y-51534619D02*
X154194714Y-51487000D01*
X154289952Y-51439380D01*
X154528047Y-51439380D01*
X154623285Y-51487000D01*
X154670904Y-51534619D01*
X154718523Y-51629857D01*
X154718523Y-51725095D01*
X154670904Y-51867952D01*
X154099476Y-52439380D01*
X154718523Y-52439380D01*
%TO.C,D2*%
X158902380Y-30238095D02*
X157902380Y-30238095D01*
X157902380Y-30000000D01*
X157950000Y-29857142D01*
X158045238Y-29761904D01*
X158140476Y-29714285D01*
X158330952Y-29666666D01*
X158473809Y-29666666D01*
X158664285Y-29714285D01*
X158759523Y-29761904D01*
X158854761Y-29857142D01*
X158902380Y-30000000D01*
X158902380Y-30238095D01*
X157997619Y-29285714D02*
X157950000Y-29238095D01*
X157902380Y-29142857D01*
X157902380Y-28904761D01*
X157950000Y-28809523D01*
X157997619Y-28761904D01*
X158092857Y-28714285D01*
X158188095Y-28714285D01*
X158330952Y-28761904D01*
X158902380Y-29333333D01*
X158902380Y-28714285D01*
%TO.C,R7*%
X167232380Y-93566666D02*
X166756190Y-93900000D01*
X167232380Y-94138095D02*
X166232380Y-94138095D01*
X166232380Y-93757142D01*
X166280000Y-93661904D01*
X166327619Y-93614285D01*
X166422857Y-93566666D01*
X166565714Y-93566666D01*
X166660952Y-93614285D01*
X166708571Y-93661904D01*
X166756190Y-93757142D01*
X166756190Y-94138095D01*
X166232380Y-93233333D02*
X166232380Y-92566666D01*
X167232380Y-92995238D01*
%TO.C,R11*%
X167232380Y-114892857D02*
X166756190Y-115226190D01*
X167232380Y-115464285D02*
X166232380Y-115464285D01*
X166232380Y-115083333D01*
X166280000Y-114988095D01*
X166327619Y-114940476D01*
X166422857Y-114892857D01*
X166565714Y-114892857D01*
X166660952Y-114940476D01*
X166708571Y-114988095D01*
X166756190Y-115083333D01*
X166756190Y-115464285D01*
X167232380Y-113940476D02*
X167232380Y-114511904D01*
X167232380Y-114226190D02*
X166232380Y-114226190D01*
X166375238Y-114321428D01*
X166470476Y-114416666D01*
X166518095Y-114511904D01*
X167232380Y-112988095D02*
X167232380Y-113559523D01*
X167232380Y-113273809D02*
X166232380Y-113273809D01*
X166375238Y-113369047D01*
X166470476Y-113464285D01*
X166518095Y-113559523D01*
%TO.C,R8*%
X165472380Y-88766666D02*
X164996190Y-89100000D01*
X165472380Y-89338095D02*
X164472380Y-89338095D01*
X164472380Y-88957142D01*
X164520000Y-88861904D01*
X164567619Y-88814285D01*
X164662857Y-88766666D01*
X164805714Y-88766666D01*
X164900952Y-88814285D01*
X164948571Y-88861904D01*
X164996190Y-88957142D01*
X164996190Y-89338095D01*
X164900952Y-88195238D02*
X164853333Y-88290476D01*
X164805714Y-88338095D01*
X164710476Y-88385714D01*
X164662857Y-88385714D01*
X164567619Y-88338095D01*
X164520000Y-88290476D01*
X164472380Y-88195238D01*
X164472380Y-88004761D01*
X164520000Y-87909523D01*
X164567619Y-87861904D01*
X164662857Y-87814285D01*
X164710476Y-87814285D01*
X164805714Y-87861904D01*
X164853333Y-87909523D01*
X164900952Y-88004761D01*
X164900952Y-88195238D01*
X164948571Y-88290476D01*
X164996190Y-88338095D01*
X165091428Y-88385714D01*
X165281904Y-88385714D01*
X165377142Y-88338095D01*
X165424761Y-88290476D01*
X165472380Y-88195238D01*
X165472380Y-88004761D01*
X165424761Y-87909523D01*
X165377142Y-87861904D01*
X165281904Y-87814285D01*
X165091428Y-87814285D01*
X164996190Y-87861904D01*
X164948571Y-87909523D01*
X164900952Y-88004761D01*
%TO.C,C1*%
X171733333Y-31307142D02*
X171685714Y-31354761D01*
X171542857Y-31402380D01*
X171447619Y-31402380D01*
X171304761Y-31354761D01*
X171209523Y-31259523D01*
X171161904Y-31164285D01*
X171114285Y-30973809D01*
X171114285Y-30830952D01*
X171161904Y-30640476D01*
X171209523Y-30545238D01*
X171304761Y-30450000D01*
X171447619Y-30402380D01*
X171542857Y-30402380D01*
X171685714Y-30450000D01*
X171733333Y-30497619D01*
X172685714Y-31402380D02*
X172114285Y-31402380D01*
X172400000Y-31402380D02*
X172400000Y-30402380D01*
X172304761Y-30545238D01*
X172209523Y-30640476D01*
X172114285Y-30688095D01*
%TO.C,D5*%
X171261904Y-35602380D02*
X171261904Y-34602380D01*
X171500000Y-34602380D01*
X171642857Y-34650000D01*
X171738095Y-34745238D01*
X171785714Y-34840476D01*
X171833333Y-35030952D01*
X171833333Y-35173809D01*
X171785714Y-35364285D01*
X171738095Y-35459523D01*
X171642857Y-35554761D01*
X171500000Y-35602380D01*
X171261904Y-35602380D01*
X172738095Y-34602380D02*
X172261904Y-34602380D01*
X172214285Y-35078571D01*
X172261904Y-35030952D01*
X172357142Y-34983333D01*
X172595238Y-34983333D01*
X172690476Y-35030952D01*
X172738095Y-35078571D01*
X172785714Y-35173809D01*
X172785714Y-35411904D01*
X172738095Y-35507142D01*
X172690476Y-35554761D01*
X172595238Y-35602380D01*
X172357142Y-35602380D01*
X172261904Y-35554761D01*
X172214285Y-35507142D01*
%TO.C,C2*%
X157807142Y-70166666D02*
X157854761Y-70214285D01*
X157902380Y-70357142D01*
X157902380Y-70452380D01*
X157854761Y-70595238D01*
X157759523Y-70690476D01*
X157664285Y-70738095D01*
X157473809Y-70785714D01*
X157330952Y-70785714D01*
X157140476Y-70738095D01*
X157045238Y-70690476D01*
X156950000Y-70595238D01*
X156902380Y-70452380D01*
X156902380Y-70357142D01*
X156950000Y-70214285D01*
X156997619Y-70166666D01*
X156997619Y-69785714D02*
X156950000Y-69738095D01*
X156902380Y-69642857D01*
X156902380Y-69404761D01*
X156950000Y-69309523D01*
X156997619Y-69261904D01*
X157092857Y-69214285D01*
X157188095Y-69214285D01*
X157330952Y-69261904D01*
X157902380Y-69833333D01*
X157902380Y-69214285D01*
%TO.C,C5*%
X180333333Y-104357142D02*
X180285714Y-104404761D01*
X180142857Y-104452380D01*
X180047619Y-104452380D01*
X179904761Y-104404761D01*
X179809523Y-104309523D01*
X179761904Y-104214285D01*
X179714285Y-104023809D01*
X179714285Y-103880952D01*
X179761904Y-103690476D01*
X179809523Y-103595238D01*
X179904761Y-103500000D01*
X180047619Y-103452380D01*
X180142857Y-103452380D01*
X180285714Y-103500000D01*
X180333333Y-103547619D01*
X181238095Y-103452380D02*
X180761904Y-103452380D01*
X180714285Y-103928571D01*
X180761904Y-103880952D01*
X180857142Y-103833333D01*
X181095238Y-103833333D01*
X181190476Y-103880952D01*
X181238095Y-103928571D01*
X181285714Y-104023809D01*
X181285714Y-104261904D01*
X181238095Y-104357142D01*
X181190476Y-104404761D01*
X181095238Y-104452380D01*
X180857142Y-104452380D01*
X180761904Y-104404761D01*
X180714285Y-104357142D01*
%TO.C,R9*%
X167332380Y-104066666D02*
X166856190Y-104400000D01*
X167332380Y-104638095D02*
X166332380Y-104638095D01*
X166332380Y-104257142D01*
X166380000Y-104161904D01*
X166427619Y-104114285D01*
X166522857Y-104066666D01*
X166665714Y-104066666D01*
X166760952Y-104114285D01*
X166808571Y-104161904D01*
X166856190Y-104257142D01*
X166856190Y-104638095D01*
X167332380Y-103590476D02*
X167332380Y-103400000D01*
X167284761Y-103304761D01*
X167237142Y-103257142D01*
X167094285Y-103161904D01*
X166903809Y-103114285D01*
X166522857Y-103114285D01*
X166427619Y-103161904D01*
X166380000Y-103209523D01*
X166332380Y-103304761D01*
X166332380Y-103495238D01*
X166380000Y-103590476D01*
X166427619Y-103638095D01*
X166522857Y-103685714D01*
X166760952Y-103685714D01*
X166856190Y-103638095D01*
X166903809Y-103590476D01*
X166951428Y-103495238D01*
X166951428Y-103304761D01*
X166903809Y-103209523D01*
X166856190Y-103161904D01*
X166760952Y-103114285D01*
%TO.C,R4*%
X150433333Y-100272380D02*
X150100000Y-99796190D01*
X149861904Y-100272380D02*
X149861904Y-99272380D01*
X150242857Y-99272380D01*
X150338095Y-99320000D01*
X150385714Y-99367619D01*
X150433333Y-99462857D01*
X150433333Y-99605714D01*
X150385714Y-99700952D01*
X150338095Y-99748571D01*
X150242857Y-99796190D01*
X149861904Y-99796190D01*
X151290476Y-99605714D02*
X151290476Y-100272380D01*
X151052380Y-99224761D02*
X150814285Y-99939047D01*
X151433333Y-99939047D01*
%TO.C,D1*%
X158902380Y-30238095D02*
X157902380Y-30238095D01*
X157902380Y-30000000D01*
X157950000Y-29857142D01*
X158045238Y-29761904D01*
X158140476Y-29714285D01*
X158330952Y-29666666D01*
X158473809Y-29666666D01*
X158664285Y-29714285D01*
X158759523Y-29761904D01*
X158854761Y-29857142D01*
X158902380Y-30000000D01*
X158902380Y-30238095D01*
X158902380Y-28714285D02*
X158902380Y-29285714D01*
X158902380Y-29000000D02*
X157902380Y-29000000D01*
X158045238Y-29095238D01*
X158140476Y-29190476D01*
X158188095Y-29285714D01*
%TO.C,J11*%
X183540476Y-68212380D02*
X183540476Y-68926666D01*
X183492857Y-69069523D01*
X183397619Y-69164761D01*
X183254761Y-69212380D01*
X183159523Y-69212380D01*
X184540476Y-69212380D02*
X183969047Y-69212380D01*
X184254761Y-69212380D02*
X184254761Y-68212380D01*
X184159523Y-68355238D01*
X184064285Y-68450476D01*
X183969047Y-68498095D01*
X185492857Y-69212380D02*
X184921428Y-69212380D01*
X185207142Y-69212380D02*
X185207142Y-68212380D01*
X185111904Y-68355238D01*
X185016666Y-68450476D01*
X184921428Y-68498095D01*
D11*
%TO.C,U2*%
X157400000Y-84560000D02*
X155450000Y-84560000D01*
X157400000Y-84560000D02*
X159350000Y-84560000D01*
X157400000Y-74440000D02*
X153950000Y-74440000D01*
X157400000Y-74440000D02*
X159350000Y-74440000D01*
%TO.C,R10*%
X162490000Y-98372936D02*
X162490000Y-99827064D01*
X164310000Y-98372936D02*
X164310000Y-99827064D01*
%TO.C,R15*%
X181227064Y-119910000D02*
X179772936Y-119910000D01*
X181227064Y-118090000D02*
X179772936Y-118090000D01*
%TO.C,R2*%
X148790000Y-86672936D02*
X148790000Y-88127064D01*
X150610000Y-86672936D02*
X150610000Y-88127064D01*
%TO.C,C6*%
X153911252Y-105410000D02*
X152488748Y-105410000D01*
X153911252Y-103590000D02*
X152488748Y-103590000D01*
%TO.C,R3*%
X181927064Y-94990000D02*
X180472936Y-94990000D01*
X181927064Y-96810000D02*
X180472936Y-96810000D01*
%TO.C,C3*%
X174690000Y-94988748D02*
X174690000Y-96411252D01*
X176510000Y-94988748D02*
X176510000Y-96411252D01*
D12*
%TO.C,Q1*%
X176291000Y-81681000D02*
X176291000Y-80906000D01*
X176616000Y-82956000D02*
X176616000Y-83331000D01*
X173316000Y-82156000D02*
X173316000Y-81681000D01*
X176616000Y-82056000D02*
X176341000Y-81681000D01*
X176341000Y-81681000D02*
X176291000Y-81681000D01*
X173541000Y-83331000D02*
X173666000Y-83331000D01*
X176616000Y-83331000D02*
X176316000Y-83331000D01*
X176616000Y-82331000D02*
X176616000Y-82056000D01*
X173616000Y-83331000D02*
X173316000Y-83331000D01*
X173316000Y-83331000D02*
X173316000Y-82881000D01*
X173316000Y-81681000D02*
X173666000Y-81681000D01*
D11*
%TO.C,U1*%
X149880000Y-35720000D02*
X149880000Y-84040000D01*
X167730000Y-35820000D02*
X167730000Y-84140000D01*
X147220000Y-35720000D02*
X147220000Y-84040000D01*
X165070000Y-84140000D02*
X167730000Y-84140000D01*
X147220000Y-84040000D02*
X149880000Y-84040000D01*
X165070000Y-35820000D02*
X167730000Y-35820000D01*
X165070000Y-33220000D02*
X166400000Y-33220000D01*
X147220000Y-33120000D02*
X148550000Y-33120000D01*
X165070000Y-35820000D02*
X165070000Y-84140000D01*
X147220000Y-35720000D02*
X149880000Y-35720000D01*
X147220000Y-34450000D02*
X147220000Y-33120000D01*
X165070000Y-34550000D02*
X165070000Y-33220000D01*
%TO.C,C4*%
X156411252Y-96310000D02*
X154988748Y-96310000D01*
X156411252Y-94490000D02*
X154988748Y-94490000D01*
%TO.C,R16*%
X151322936Y-116590000D02*
X152777064Y-116590000D01*
X151322936Y-118410000D02*
X152777064Y-118410000D01*
%TO.C,R14*%
X162090000Y-119772936D02*
X162090000Y-121227064D01*
X163910000Y-119772936D02*
X163910000Y-121227064D01*
%TO.C,D3*%
X153750000Y-28000000D02*
X152050000Y-28000000D01*
X152050000Y-28000000D02*
X152050000Y-30550000D01*
X153750000Y-28000000D02*
X153750000Y-30550000D01*
%TO.C,R5*%
X179272936Y-106690000D02*
X180727064Y-106690000D01*
X179272936Y-108510000D02*
X180727064Y-108510000D01*
%TO.C,J10*%
X149580000Y-21495000D02*
X146920000Y-21495000D01*
X148250000Y-29235000D02*
X146920000Y-29235000D01*
X149580000Y-26635000D02*
X149580000Y-21495000D01*
X146920000Y-26635000D02*
X146920000Y-21495000D01*
X146920000Y-29235000D02*
X146920000Y-27905000D01*
X149580000Y-26635000D02*
X146920000Y-26635000D01*
%TO.C,C7*%
X176988748Y-116410000D02*
X178411252Y-116410000D01*
X176988748Y-114590000D02*
X178411252Y-114590000D01*
%TO.C,R12*%
X164410000Y-108772936D02*
X164410000Y-110227064D01*
X162590000Y-108772936D02*
X162590000Y-110227064D01*
%TO.C,R1*%
X179272936Y-88410000D02*
X180727064Y-88410000D01*
X179272936Y-86590000D02*
X180727064Y-86590000D01*
%TO.C,C8*%
X152811252Y-115610000D02*
X151388748Y-115610000D01*
X152811252Y-113790000D02*
X151388748Y-113790000D01*
%TO.C,H1*%
X178017500Y-36650000D02*
X178017500Y-36650000D01*
X184517500Y-21800000D02*
X184517500Y-47400000D01*
X178017500Y-36650000D02*
X176707500Y-36650000D01*
X176317500Y-25710000D02*
X175317500Y-25210000D01*
X176707500Y-20500000D02*
X185827500Y-20500000D01*
X184517500Y-47400000D02*
X178017500Y-47400000D01*
X175317500Y-26210000D02*
X176317500Y-25710000D01*
X176707500Y-32550000D02*
X178017500Y-32550000D01*
X178017500Y-47400000D02*
X178017500Y-36650000D01*
X178017500Y-21800000D02*
X184517500Y-21800000D01*
X178017500Y-32550000D02*
X178017500Y-21800000D01*
X185827500Y-48700000D02*
X176707500Y-48700000D01*
X185827500Y-20500000D02*
X185827500Y-48700000D01*
X176707500Y-48700000D02*
X176707500Y-20500000D01*
X175317500Y-25210000D02*
X175317500Y-26210000D01*
%TO.C,D4*%
X163150000Y-31000000D02*
X163150000Y-28450000D01*
X164850000Y-31000000D02*
X164850000Y-28450000D01*
X163150000Y-31000000D02*
X164850000Y-31000000D01*
%TO.C,R6*%
X151272936Y-108410000D02*
X152727064Y-108410000D01*
X151272936Y-106590000D02*
X152727064Y-106590000D01*
%TO.C,R13*%
X169410000Y-124727064D02*
X169410000Y-123272936D01*
X167590000Y-124727064D02*
X167590000Y-123272936D01*
D12*
%TO.C,Q2*%
X154334000Y-53712000D02*
X154709000Y-53712000D01*
X154709000Y-56712000D02*
X154709000Y-57012000D01*
X153059000Y-57012000D02*
X153059000Y-56662000D01*
X154709000Y-53712000D02*
X154709000Y-54012000D01*
X153709000Y-53712000D02*
X153434000Y-53712000D01*
X153534000Y-57012000D02*
X153059000Y-57012000D01*
X153059000Y-53987000D02*
X153059000Y-54037000D01*
X154709000Y-56787000D02*
X154709000Y-56662000D01*
X153434000Y-53712000D02*
X153059000Y-53987000D01*
X154709000Y-57012000D02*
X154259000Y-57012000D01*
X153059000Y-54037000D02*
X152284000Y-54037000D01*
D11*
%TO.C,D2*%
X157450000Y-28000000D02*
X155750000Y-28000000D01*
X155750000Y-28000000D02*
X155750000Y-30550000D01*
X157450000Y-28000000D02*
X157450000Y-30550000D01*
%TO.C,R7*%
X167690000Y-94127064D02*
X167690000Y-92672936D01*
X169510000Y-94127064D02*
X169510000Y-92672936D01*
%TO.C,R11*%
X169510000Y-114977064D02*
X169510000Y-113522936D01*
X167690000Y-114977064D02*
X167690000Y-113522936D01*
%TO.C,R8*%
X162290000Y-87872936D02*
X162290000Y-89327064D01*
X164110000Y-87872936D02*
X164110000Y-89327064D01*
%TO.C,C1*%
X171188748Y-31890000D02*
X172611252Y-31890000D01*
X171188748Y-33710000D02*
X172611252Y-33710000D01*
%TO.C,D5*%
X170500000Y-37850000D02*
X173050000Y-37850000D01*
X170500000Y-36150000D02*
X173050000Y-36150000D01*
X170500000Y-36150000D02*
X170500000Y-37850000D01*
%TO.C,C2*%
X160210000Y-70711252D02*
X160210000Y-69288748D01*
X158390000Y-70711252D02*
X158390000Y-69288748D01*
%TO.C,C5*%
X175926248Y-103790000D02*
X177348752Y-103790000D01*
X175926248Y-105610000D02*
X177348752Y-105610000D01*
%TO.C,R9*%
X169610000Y-104627064D02*
X169610000Y-103172936D01*
X167790000Y-104627064D02*
X167790000Y-103172936D01*
%TO.C,R4*%
X151327064Y-98910000D02*
X149872936Y-98910000D01*
X151327064Y-97090000D02*
X149872936Y-97090000D01*
%TO.C,D1*%
X161150000Y-31000000D02*
X161150000Y-28450000D01*
X159450000Y-31000000D02*
X159450000Y-28450000D01*
X159450000Y-31000000D02*
X161150000Y-31000000D01*
%TO.C,J11*%
X184350000Y-70200000D02*
X185680000Y-70200000D01*
X183020000Y-72800000D02*
X185680000Y-72800000D01*
X185680000Y-70200000D02*
X185680000Y-71530000D01*
X183020000Y-72800000D02*
X183020000Y-83020000D01*
X183020000Y-83020000D02*
X185680000Y-83020000D01*
X185680000Y-72800000D02*
X185680000Y-83020000D01*
%TD*%
%LPC*%
D13*
%TO.C,U2*%
X154925000Y-75055000D03*
X154925000Y-76325000D03*
X154925000Y-77595000D03*
X154925000Y-78865000D03*
X154925000Y-80135000D03*
X154925000Y-81405000D03*
X154925000Y-82675000D03*
X154925000Y-83945000D03*
X159875000Y-83945000D03*
X159875000Y-82675000D03*
X159875000Y-81405000D03*
X159875000Y-80135000D03*
X159875000Y-78865000D03*
X159875000Y-77595000D03*
X159875000Y-76325000D03*
X159875000Y-75055000D03*
%TD*%
D14*
%TO.C,R10*%
X163400000Y-97550000D03*
X163400000Y-100650000D03*
%TD*%
D15*
%TO.C,R15*%
X182050000Y-119000000D03*
X178950000Y-119000000D03*
%TD*%
D14*
%TO.C,R2*%
X149700000Y-85850000D03*
X149700000Y-88950000D03*
%TD*%
D16*
%TO.C,C6*%
X154762500Y-104500000D03*
X151637500Y-104500000D03*
%TD*%
D15*
%TO.C,R3*%
X182750000Y-95900000D03*
X179650000Y-95900000D03*
%TD*%
D17*
%TO.C,C3*%
X175600000Y-94137500D03*
X175600000Y-97262500D03*
%TD*%
D18*
%TO.C,Q1*%
X175916000Y-81456000D03*
X174016000Y-81456000D03*
X174966000Y-83556000D03*
%TD*%
D19*
%TO.C,U1*%
X148610000Y-34370000D03*
X148610000Y-36910000D03*
D20*
X148610000Y-39450000D03*
D19*
X148610000Y-41990000D03*
X148610000Y-44530000D03*
X148610000Y-47070000D03*
X148610000Y-49610000D03*
D20*
X148610000Y-52150000D03*
D19*
X148610000Y-54690000D03*
X148610000Y-57230000D03*
X148610000Y-59770000D03*
X148610000Y-62310000D03*
D20*
X148610000Y-64850000D03*
D19*
X148610000Y-67390000D03*
X148610000Y-69930000D03*
X148610000Y-72470000D03*
X148610000Y-75010000D03*
D20*
X148610000Y-77550000D03*
D19*
X148610000Y-80090000D03*
X148610000Y-82630000D03*
X166390000Y-82630000D03*
X166390000Y-80090000D03*
D20*
X166390000Y-77550000D03*
D19*
X166390000Y-75010000D03*
X166390000Y-72470000D03*
X166390000Y-69930000D03*
X166390000Y-67390000D03*
D20*
X166390000Y-64850000D03*
D19*
X166390000Y-62310000D03*
X166390000Y-59770000D03*
X166390000Y-57230000D03*
X166390000Y-54690000D03*
D20*
X166390000Y-52150000D03*
D19*
X166390000Y-49610000D03*
X166390000Y-47070000D03*
X166390000Y-44530000D03*
X166390000Y-41990000D03*
D20*
X166390000Y-39450000D03*
D19*
X166390000Y-36910000D03*
X166390000Y-34370000D03*
%TD*%
D16*
%TO.C,C4*%
X157262500Y-95400000D03*
X154137500Y-95400000D03*
%TD*%
D21*
%TO.C,R16*%
X150500000Y-117500000D03*
X153600000Y-117500000D03*
%TD*%
D14*
%TO.C,R14*%
X163000000Y-118950000D03*
X163000000Y-122050000D03*
%TD*%
D22*
%TO.C,D3*%
X152900000Y-28450000D03*
X152900000Y-30550000D03*
%TD*%
D21*
%TO.C,R5*%
X178450000Y-107600000D03*
X181550000Y-107600000D03*
%TD*%
D20*
%TO.C,J10*%
X148250000Y-27905000D03*
D19*
X148250000Y-25365000D03*
X148250000Y-22825000D03*
%TD*%
D23*
%TO.C,C7*%
X176137500Y-115500000D03*
X179262500Y-115500000D03*
%TD*%
D14*
%TO.C,R12*%
X163500000Y-107950000D03*
X163500000Y-111050000D03*
%TD*%
D21*
%TO.C,R1*%
X178450000Y-87500000D03*
X181550000Y-87500000D03*
%TD*%
D16*
%TO.C,C8*%
X153662500Y-114700000D03*
X150537500Y-114700000D03*
%TD*%
D24*
%TO.C,H1*%
X179997500Y-25710000D03*
D25*
X182537500Y-25710000D03*
X179997500Y-28250000D03*
X182537500Y-28250000D03*
X179997500Y-30790000D03*
X182537500Y-30790000D03*
X179997500Y-33330000D03*
X182537500Y-33330000D03*
X179997500Y-35870000D03*
X182537500Y-35870000D03*
X179997500Y-38410000D03*
X182537500Y-38410000D03*
X179997500Y-40950000D03*
X182537500Y-40950000D03*
X179997500Y-43490000D03*
X182537500Y-43490000D03*
%TD*%
D22*
%TO.C,D4*%
X164000000Y-30550000D03*
X164000000Y-28450000D03*
%TD*%
D21*
%TO.C,R6*%
X150450000Y-107500000D03*
X153550000Y-107500000D03*
%TD*%
D26*
%TO.C,R13*%
X168500000Y-125550000D03*
X168500000Y-122450000D03*
%TD*%
D27*
%TO.C,Q2*%
X152834000Y-54412000D03*
X152834000Y-56312000D03*
X154934000Y-55362000D03*
%TD*%
D22*
%TO.C,D2*%
X156600000Y-28450000D03*
X156600000Y-30550000D03*
%TD*%
D26*
%TO.C,R7*%
X168600000Y-94950000D03*
X168600000Y-91850000D03*
%TD*%
%TO.C,R11*%
X168600000Y-115800000D03*
X168600000Y-112700000D03*
%TD*%
D14*
%TO.C,R8*%
X163200000Y-87050000D03*
X163200000Y-90150000D03*
%TD*%
D23*
%TO.C,C1*%
X170337500Y-32800000D03*
X173462500Y-32800000D03*
%TD*%
D28*
%TO.C,D5*%
X170950000Y-37000000D03*
X173050000Y-37000000D03*
%TD*%
D29*
%TO.C,C2*%
X159300000Y-71562500D03*
X159300000Y-68437500D03*
%TD*%
D23*
%TO.C,C5*%
X175075000Y-104700000D03*
X178200000Y-104700000D03*
%TD*%
D26*
%TO.C,R9*%
X168700000Y-105450000D03*
X168700000Y-102350000D03*
%TD*%
D15*
%TO.C,R4*%
X152150000Y-98000000D03*
X149050000Y-98000000D03*
%TD*%
D22*
%TO.C,D1*%
X160300000Y-30550000D03*
X160300000Y-28450000D03*
%TD*%
D20*
%TO.C,J11*%
X184350000Y-71530000D03*
D19*
X184350000Y-74070000D03*
X184350000Y-76610000D03*
X184350000Y-79150000D03*
X184350000Y-81690000D03*
%TD*%
D30*
%TO.C,SW3*%
X178400000Y-71800000D03*
X178400000Y-76500000D03*
%TD*%
D31*
%TO.C,SW2*%
X159250000Y-36500000D03*
X155750000Y-36500000D03*
%TD*%
D32*
%TO.C,D12*%
X169775000Y-119750000D03*
D33*
X167235000Y-119750000D03*
%TD*%
D32*
%TO.C,D6*%
X169775000Y-88250000D03*
D33*
X167235000Y-88250000D03*
%TD*%
D31*
%TO.C,SW1*%
X159250000Y-64500000D03*
X155750000Y-64500000D03*
%TD*%
D34*
%TO.C,J7*%
X173000000Y-122500000D03*
D35*
X184400000Y-122500000D03*
X176100000Y-122500000D03*
%TD*%
D32*
%TO.C,D13*%
X162000000Y-125250000D03*
D33*
X164540000Y-125250000D03*
%TD*%
D34*
%TO.C,J4*%
X173000000Y-101500000D03*
D35*
X184400000Y-101500000D03*
X176100000Y-101500000D03*
%TD*%
D32*
%TO.C,D7*%
X162000000Y-93750000D03*
D33*
X164540000Y-93750000D03*
%TD*%
D34*
%TO.C,J3*%
X158780000Y-101500000D03*
D35*
X147380000Y-101500000D03*
X155680000Y-101500000D03*
%TD*%
D32*
%TO.C,D9*%
X162000000Y-104250000D03*
D33*
X164540000Y-104250000D03*
%TD*%
D36*
%TO.C,J9*%
X166000000Y-25675000D03*
D19*
X159520000Y-25675000D03*
X162620000Y-25675000D03*
X170920000Y-25675000D03*
%TD*%
D34*
%TO.C,J1*%
X173000000Y-91000000D03*
D35*
X184400000Y-91000000D03*
X176100000Y-91000000D03*
%TD*%
D34*
%TO.C,J8*%
X158780000Y-122500000D03*
D35*
X147380000Y-122500000D03*
X155680000Y-122500000D03*
%TD*%
D34*
%TO.C,J6*%
X158780000Y-112000000D03*
D35*
X147380000Y-112000000D03*
X155680000Y-112000000D03*
%TD*%
D32*
%TO.C,D11*%
X162000000Y-114750000D03*
D33*
X164540000Y-114750000D03*
%TD*%
D32*
%TO.C,D10*%
X169775000Y-109250000D03*
D33*
X167235000Y-109250000D03*
%TD*%
D37*
%TO.C,S1*%
X180000000Y-51250000D03*
X175000000Y-51250000D03*
D38*
X171800000Y-58250000D03*
X183200000Y-58250000D03*
D37*
X180000000Y-65750000D03*
X175000000Y-65750000D03*
X177500000Y-65750000D03*
%TD*%
D34*
%TO.C,J2*%
X158780000Y-91000000D03*
D35*
X147380000Y-91000000D03*
X155680000Y-91000000D03*
%TD*%
D32*
%TO.C,D8*%
X169775000Y-98750000D03*
D33*
X167235000Y-98750000D03*
%TD*%
D39*
%TO.C,SW4*%
X152800000Y-50600000D03*
X157500000Y-50600000D03*
%TD*%
D34*
%TO.C,J5*%
X173000000Y-112000000D03*
D35*
X184400000Y-112000000D03*
X176100000Y-112000000D03*
%TD*%
M02*
