%TF.GenerationSoftware,KiCad,Pcbnew,6.0.2+dfsg-1*%
%TF.CreationDate,2023-09-10T21:51:06+01:00*%
%TF.ProjectId,useq,75736571-2e6b-4696-9361-645f70636258,rev?*%
%TF.SameCoordinates,Original*%
%TF.FileFunction,Soldermask,Bot*%
%TF.FilePolarity,Negative*%
%FSLAX46Y46*%
G04 Gerber Fmt 4.6, Leading zero omitted, Abs format (unit mm)*
G04 Created by KiCad (PCBNEW 6.0.2+dfsg-1) date 2023-09-10 21:51:06*
%MOMM*%
%LPD*%
G01*
G04 APERTURE LIST*
G04 Aperture macros list*
%AMRoundRect*
0 Rectangle with rounded corners*
0 $1 Rounding radius*
0 $2 $3 $4 $5 $6 $7 $8 $9 X,Y pos of 4 corners*
0 Add a 4 corners polygon primitive as box body*
4,1,4,$2,$3,$4,$5,$6,$7,$8,$9,$2,$3,0*
0 Add four circle primitives for the rounded corners*
1,1,$1+$1,$2,$3*
1,1,$1+$1,$4,$5*
1,1,$1+$1,$6,$7*
1,1,$1+$1,$8,$9*
0 Add four rect primitives between the rounded corners*
20,1,$1+$1,$2,$3,$4,$5,0*
20,1,$1+$1,$4,$5,$6,$7,0*
20,1,$1+$1,$6,$7,$8,$9,0*
20,1,$1+$1,$8,$9,$2,$3,0*%
G04 Aperture macros list end*
%ADD10O,1.700000X1.700000*%
%ADD11R,1.700000X1.700000*%
%ADD12RoundRect,0.250000X-0.600000X-0.600000X0.600000X-0.600000X0.600000X0.600000X-0.600000X0.600000X0*%
%ADD13C,1.700000*%
%ADD14O,3.200000X1.800000*%
%ADD15R,2.200000X3.400000*%
%ADD16R,1.800000X1.800000*%
%ADD17C,1.800000*%
%ADD18R,0.800000X1.700000*%
%ADD19R,1.830000X1.930000*%
%ADD20C,2.130000*%
%ADD21C,3.000000*%
%ADD22C,2.000000*%
%ADD23R,2.800000X3.600000*%
%ADD24O,1.800000X3.200000*%
G04 APERTURE END LIST*
D10*
%TO.C,U1*%
X148610000Y-34370000D03*
X148610000Y-36910000D03*
D11*
X148610000Y-39450000D03*
D10*
X148610000Y-41990000D03*
X148610000Y-44530000D03*
X148610000Y-47070000D03*
X148610000Y-49610000D03*
D11*
X148610000Y-52150000D03*
D10*
X148610000Y-54690000D03*
X148610000Y-57230000D03*
X148610000Y-59770000D03*
X148610000Y-62310000D03*
D11*
X148610000Y-64850000D03*
D10*
X148610000Y-67390000D03*
X148610000Y-69930000D03*
X148610000Y-72470000D03*
X148610000Y-75010000D03*
D11*
X148610000Y-77550000D03*
D10*
X148610000Y-80090000D03*
X148610000Y-82630000D03*
X166390000Y-82630000D03*
X166390000Y-80090000D03*
D11*
X166390000Y-77550000D03*
D10*
X166390000Y-75010000D03*
X166390000Y-72470000D03*
X166390000Y-69930000D03*
X166390000Y-67390000D03*
D11*
X166390000Y-64850000D03*
D10*
X166390000Y-62310000D03*
X166390000Y-59770000D03*
X166390000Y-57230000D03*
X166390000Y-54690000D03*
D11*
X166390000Y-52150000D03*
D10*
X166390000Y-49610000D03*
X166390000Y-47070000D03*
X166390000Y-44530000D03*
X166390000Y-41990000D03*
D11*
X166390000Y-39450000D03*
D10*
X166390000Y-36910000D03*
X166390000Y-34370000D03*
%TD*%
D11*
%TO.C,J10*%
X148250000Y-27905000D03*
D10*
X148250000Y-25365000D03*
X148250000Y-22825000D03*
%TD*%
D12*
%TO.C,H1*%
X179997500Y-25710000D03*
D13*
X182537500Y-25710000D03*
X179997500Y-28250000D03*
X182537500Y-28250000D03*
X179997500Y-30790000D03*
X182537500Y-30790000D03*
X179997500Y-33330000D03*
X182537500Y-33330000D03*
X179997500Y-35870000D03*
X182537500Y-35870000D03*
X179997500Y-38410000D03*
X182537500Y-38410000D03*
X179997500Y-40950000D03*
X182537500Y-40950000D03*
X179997500Y-43490000D03*
X182537500Y-43490000D03*
%TD*%
D11*
%TO.C,J11*%
X184350000Y-71530000D03*
D10*
X184350000Y-74070000D03*
X184350000Y-76610000D03*
X184350000Y-79150000D03*
X184350000Y-81690000D03*
%TD*%
D14*
%TO.C,SW3*%
X178400000Y-71800000D03*
X178400000Y-76500000D03*
%TD*%
D15*
%TO.C,SW2*%
X159250000Y-36500000D03*
X155750000Y-36500000D03*
%TD*%
D16*
%TO.C,D12*%
X169775000Y-119750000D03*
D17*
X167235000Y-119750000D03*
%TD*%
D16*
%TO.C,D6*%
X169775000Y-88250000D03*
D17*
X167235000Y-88250000D03*
%TD*%
D18*
%TO.C,S2*%
X156200000Y-22900000D03*
X152800000Y-22900000D03*
%TD*%
D15*
%TO.C,SW1*%
X159250000Y-64500000D03*
X155750000Y-64500000D03*
%TD*%
D19*
%TO.C,J7*%
X173000000Y-122500000D03*
D20*
X184400000Y-122500000D03*
X176100000Y-122500000D03*
%TD*%
D16*
%TO.C,D13*%
X162000000Y-125250000D03*
D17*
X164540000Y-125250000D03*
%TD*%
D19*
%TO.C,J4*%
X173000000Y-101500000D03*
D20*
X184400000Y-101500000D03*
X176100000Y-101500000D03*
%TD*%
D16*
%TO.C,D7*%
X162000000Y-93750000D03*
D17*
X164540000Y-93750000D03*
%TD*%
D19*
%TO.C,J3*%
X158780000Y-101500000D03*
D20*
X147380000Y-101500000D03*
X155680000Y-101500000D03*
%TD*%
D16*
%TO.C,D9*%
X162000000Y-104250000D03*
D17*
X164540000Y-104250000D03*
%TD*%
D21*
%TO.C,J9*%
X166000000Y-25675000D03*
D10*
X159520000Y-25675000D03*
X162620000Y-25675000D03*
X170920000Y-25675000D03*
%TD*%
D19*
%TO.C,J1*%
X173000000Y-91000000D03*
D20*
X184400000Y-91000000D03*
X176100000Y-91000000D03*
%TD*%
D19*
%TO.C,J8*%
X158780000Y-122500000D03*
D20*
X147380000Y-122500000D03*
X155680000Y-122500000D03*
%TD*%
D19*
%TO.C,J6*%
X158780000Y-112000000D03*
D20*
X147380000Y-112000000D03*
X155680000Y-112000000D03*
%TD*%
D16*
%TO.C,D11*%
X162000000Y-114750000D03*
D17*
X164540000Y-114750000D03*
%TD*%
D16*
%TO.C,D10*%
X169775000Y-109250000D03*
D17*
X167235000Y-109250000D03*
%TD*%
D22*
%TO.C,S1*%
X180000000Y-51250000D03*
X175000000Y-51250000D03*
D23*
X171800000Y-58250000D03*
X183200000Y-58250000D03*
D22*
X180000000Y-65750000D03*
X175000000Y-65750000D03*
X177500000Y-65750000D03*
%TD*%
D19*
%TO.C,J2*%
X158780000Y-91000000D03*
D20*
X147380000Y-91000000D03*
X155680000Y-91000000D03*
%TD*%
D16*
%TO.C,D8*%
X169775000Y-98750000D03*
D17*
X167235000Y-98750000D03*
%TD*%
D24*
%TO.C,SW4*%
X152800000Y-50600000D03*
X157500000Y-50600000D03*
%TD*%
D19*
%TO.C,J5*%
X173000000Y-112000000D03*
D20*
X184400000Y-112000000D03*
X176100000Y-112000000D03*
%TD*%
M02*
