%TF.GenerationSoftware,KiCad,Pcbnew,6.0.2+dfsg-1*%
%TF.CreationDate,2023-09-10T21:51:06+01:00*%
%TF.ProjectId,useq,75736571-2e6b-4696-9361-645f70636258,rev?*%
%TF.SameCoordinates,Original*%
%TF.FileFunction,Paste,Top*%
%TF.FilePolarity,Positive*%
%FSLAX46Y46*%
G04 Gerber Fmt 4.6, Leading zero omitted, Abs format (unit mm)*
G04 Created by KiCad (PCBNEW 6.0.2+dfsg-1) date 2023-09-10 21:51:06*
%MOMM*%
%LPD*%
G01*
G04 APERTURE LIST*
G04 Aperture macros list*
%AMRoundRect*
0 Rectangle with rounded corners*
0 $1 Rounding radius*
0 $2 $3 $4 $5 $6 $7 $8 $9 X,Y pos of 4 corners*
0 Add a 4 corners polygon primitive as box body*
4,1,4,$2,$3,$4,$5,$6,$7,$8,$9,$2,$3,0*
0 Add four circle primitives for the rounded corners*
1,1,$1+$1,$2,$3*
1,1,$1+$1,$4,$5*
1,1,$1+$1,$6,$7*
1,1,$1+$1,$8,$9*
0 Add four rect primitives between the rounded corners*
20,1,$1+$1,$2,$3,$4,$5,0*
20,1,$1+$1,$4,$5,$6,$7,0*
20,1,$1+$1,$6,$7,$8,$9,0*
20,1,$1+$1,$8,$9,$2,$3,0*%
G04 Aperture macros list end*
%ADD10RoundRect,0.150000X-0.825000X-0.150000X0.825000X-0.150000X0.825000X0.150000X-0.825000X0.150000X0*%
%ADD11RoundRect,0.250000X-0.625000X0.400000X-0.625000X-0.400000X0.625000X-0.400000X0.625000X0.400000X0*%
%ADD12RoundRect,0.250000X0.400000X0.625000X-0.400000X0.625000X-0.400000X-0.625000X0.400000X-0.625000X0*%
%ADD13RoundRect,0.250000X0.412500X0.650000X-0.412500X0.650000X-0.412500X-0.650000X0.412500X-0.650000X0*%
%ADD14RoundRect,0.250000X-0.650000X0.412500X-0.650000X-0.412500X0.650000X-0.412500X0.650000X0.412500X0*%
%ADD15R,0.600000X1.300000*%
%ADD16RoundRect,0.250000X-0.400000X-0.625000X0.400000X-0.625000X0.400000X0.625000X-0.400000X0.625000X0*%
%ADD17R,0.450000X0.600000*%
%ADD18RoundRect,0.250000X-0.412500X-0.650000X0.412500X-0.650000X0.412500X0.650000X-0.412500X0.650000X0*%
%ADD19RoundRect,0.250000X0.625000X-0.400000X0.625000X0.400000X-0.625000X0.400000X-0.625000X-0.400000X0*%
%ADD20R,1.300000X0.600000*%
%ADD21R,0.600000X0.450000*%
%ADD22RoundRect,0.250000X0.650000X-0.412500X0.650000X0.412500X-0.650000X0.412500X-0.650000X-0.412500X0*%
G04 APERTURE END LIST*
D10*
%TO.C,U2*%
X154925000Y-75055000D03*
X154925000Y-76325000D03*
X154925000Y-77595000D03*
X154925000Y-78865000D03*
X154925000Y-80135000D03*
X154925000Y-81405000D03*
X154925000Y-82675000D03*
X154925000Y-83945000D03*
X159875000Y-83945000D03*
X159875000Y-82675000D03*
X159875000Y-81405000D03*
X159875000Y-80135000D03*
X159875000Y-78865000D03*
X159875000Y-77595000D03*
X159875000Y-76325000D03*
X159875000Y-75055000D03*
%TD*%
D11*
%TO.C,R10*%
X163400000Y-97550000D03*
X163400000Y-100650000D03*
%TD*%
D12*
%TO.C,R15*%
X182050000Y-119000000D03*
X178950000Y-119000000D03*
%TD*%
D11*
%TO.C,R2*%
X149700000Y-85850000D03*
X149700000Y-88950000D03*
%TD*%
D13*
%TO.C,C6*%
X154762500Y-104500000D03*
X151637500Y-104500000D03*
%TD*%
D12*
%TO.C,R3*%
X182750000Y-95900000D03*
X179650000Y-95900000D03*
%TD*%
D14*
%TO.C,C3*%
X175600000Y-94137500D03*
X175600000Y-97262500D03*
%TD*%
D15*
%TO.C,Q1*%
X175916000Y-81456000D03*
X174016000Y-81456000D03*
X174966000Y-83556000D03*
%TD*%
D13*
%TO.C,C4*%
X157262500Y-95400000D03*
X154137500Y-95400000D03*
%TD*%
D16*
%TO.C,R16*%
X150500000Y-117500000D03*
X153600000Y-117500000D03*
%TD*%
D11*
%TO.C,R14*%
X163000000Y-118950000D03*
X163000000Y-122050000D03*
%TD*%
D17*
%TO.C,D3*%
X152900000Y-28450000D03*
X152900000Y-30550000D03*
%TD*%
D16*
%TO.C,R5*%
X178450000Y-107600000D03*
X181550000Y-107600000D03*
%TD*%
D18*
%TO.C,C7*%
X176137500Y-115500000D03*
X179262500Y-115500000D03*
%TD*%
D11*
%TO.C,R12*%
X163500000Y-107950000D03*
X163500000Y-111050000D03*
%TD*%
D16*
%TO.C,R1*%
X178450000Y-87500000D03*
X181550000Y-87500000D03*
%TD*%
D13*
%TO.C,C8*%
X153662500Y-114700000D03*
X150537500Y-114700000D03*
%TD*%
D17*
%TO.C,D4*%
X164000000Y-30550000D03*
X164000000Y-28450000D03*
%TD*%
D16*
%TO.C,R6*%
X150450000Y-107500000D03*
X153550000Y-107500000D03*
%TD*%
D19*
%TO.C,R13*%
X168500000Y-125550000D03*
X168500000Y-122450000D03*
%TD*%
D20*
%TO.C,Q2*%
X152834000Y-54412000D03*
X152834000Y-56312000D03*
X154934000Y-55362000D03*
%TD*%
D17*
%TO.C,D2*%
X156600000Y-28450000D03*
X156600000Y-30550000D03*
%TD*%
D19*
%TO.C,R7*%
X168600000Y-94950000D03*
X168600000Y-91850000D03*
%TD*%
%TO.C,R11*%
X168600000Y-115800000D03*
X168600000Y-112700000D03*
%TD*%
D11*
%TO.C,R8*%
X163200000Y-87050000D03*
X163200000Y-90150000D03*
%TD*%
D18*
%TO.C,C1*%
X170337500Y-32800000D03*
X173462500Y-32800000D03*
%TD*%
D21*
%TO.C,D5*%
X170950000Y-37000000D03*
X173050000Y-37000000D03*
%TD*%
D22*
%TO.C,C2*%
X159300000Y-71562500D03*
X159300000Y-68437500D03*
%TD*%
D18*
%TO.C,C5*%
X175075000Y-104700000D03*
X178200000Y-104700000D03*
%TD*%
D19*
%TO.C,R9*%
X168700000Y-105450000D03*
X168700000Y-102350000D03*
%TD*%
D12*
%TO.C,R4*%
X152150000Y-98000000D03*
X149050000Y-98000000D03*
%TD*%
D17*
%TO.C,D1*%
X160300000Y-30550000D03*
X160300000Y-28450000D03*
%TD*%
M02*
