M48
; DRILL file {KiCad 6.0.2+dfsg-1} date Sat 09 Sep 2023 18:17:51 BST
; FORMAT={-:-/ absolute / inch / decimal}
; #@! TF.CreationDate,2023-09-09T18:17:51+01:00
; #@! TF.GenerationSoftware,Kicad,Pcbnew,6.0.2+dfsg-1
; #@! TF.FileFunction,Plated,1,2,PTH
FMAT,2
INCH
; #@! TA.AperFunction,Plated,PTH,ViaDrill
T1C0.0157
; #@! TA.AperFunction,Plated,PTH,ComponentDrill
T2C0.0354
; #@! TA.AperFunction,Plated,PTH,ComponentDrill
T3C0.0394
; #@! TA.AperFunction,Plated,PTH,ComponentDrill
T4C0.0402
; #@! TA.AperFunction,Plated,PTH,ComponentDrill
T5C0.0433
; #@! TA.AperFunction,Plated,PTH,ComponentDrill
T6C0.0480
; #@! TA.AperFunction,Plated,PTH,ComponentDrill
T7C0.0559
; #@! TA.AperFunction,Plated,PTH,ComponentDrill
T8C0.0563
; #@! TA.AperFunction,Plated,PTH,ComponentDrill
T9C0.0709
; #@! TA.AperFunction,Plated,PTH,ComponentDrill
T10C0.1181
%
G90
G05
T1
X5.7638Y-3.185
X5.8071Y-3.3819
X5.9409Y-1.5787
X5.9449Y-2.1496
X5.9449Y-3.1339
X5.9646Y-3.0079
X5.9685Y-2.3307
X5.9724Y-2.2835
X5.9843Y-2.8465
X6.0276Y-3.2126
X6.0315Y-2.2953
X6.0512Y-1.815
X6.0512Y-2.8583
X6.1063Y-2.4213
X6.122Y-1.3031
X6.1417Y-4.626
X6.1614Y-2.9764
X6.1762Y-2.7786
X6.1969Y-2.9134
X6.2244Y-3.2598
X6.252Y-3.8504
X6.2559Y-4.2087
X6.2874Y-1.9961
X6.2992Y-1.8622
X6.3228Y-4.6693
X6.3543Y-2.7165
X6.3622Y-3.0039
X6.3622Y-3.0512
X6.3661Y-2.8346
X6.3701Y-2.7913
X6.4055Y-2.3504
X6.4134Y-2.8858
X6.437Y-2.5787
X6.4409Y-1.4646
X6.4409Y-1.7953
X6.4528Y-3.3386
X6.5Y-3.315
X6.6102Y-2.9843
X6.6457Y-3.1299
X6.6496Y-1.9606
X6.6496Y-2.2441
X6.6736Y-1.8244
X6.6772Y-2.4528
X6.7205Y-4.8976
X6.7598Y-4.189
X6.7677Y-4.5551
X6.878Y-2.4646
X6.9134Y-2.1732
X6.9291Y-3.4567
X6.9921Y-1.9331
X7.0591Y-2.4646
X7.0669Y-4.126
X7.0787Y-3.6969
X7.2138Y-3.065
T2
X6.378Y-3.6909
X6.378Y-4.1043
X6.378Y-4.5177
X6.378Y-4.9311
X6.478Y-3.6909
X6.478Y-4.1043
X6.478Y-4.5177
X6.478Y-4.9311
X6.5841Y-3.4744
X6.5841Y-3.8878
X6.5841Y-4.3012
X6.5841Y-4.7146
X6.6841Y-3.4744
X6.6841Y-3.8878
X6.6841Y-4.3012
X6.6841Y-4.7146
T3
X5.8366Y-0.8986
X5.8366Y-0.9986
X5.8366Y-1.0986
X6.8898Y-2.0177
X6.8898Y-2.5886
X6.9882Y-2.5886
X7.0865Y-1.0122
X7.0865Y-1.1122
X7.0865Y-1.2122
X7.0865Y-1.3122
X7.0865Y-1.4122
X7.0865Y-1.5122
X7.0865Y-1.6122
X7.0865Y-1.7122
X7.0866Y-2.0177
X7.0866Y-2.5886
X7.1865Y-1.0122
X7.1865Y-1.1122
X7.1865Y-1.2122
X7.1865Y-1.3122
X7.1865Y-1.4122
X7.1865Y-1.5122
X7.1865Y-1.6122
X7.1865Y-1.7122
X7.2579Y-2.8161
X7.2579Y-2.9161
X7.2579Y-3.0161
X7.2579Y-3.1161
X7.2579Y-3.2161
T4
X5.8508Y-1.3531
X5.8508Y-1.4531
X5.8508Y-1.5531
X5.8508Y-1.6531
X5.8508Y-1.7531
X5.8508Y-1.8531
X5.8508Y-1.9531
X5.8508Y-2.0531
X5.8508Y-2.1531
X5.8508Y-2.2531
X5.8508Y-2.3531
X5.8508Y-2.4531
X5.8508Y-2.5531
X5.8508Y-2.6531
X5.8508Y-2.7531
X5.8508Y-2.8531
X5.8508Y-2.9531
X5.8508Y-3.0531
X5.8508Y-3.1531
X5.8508Y-3.2531
X6.5508Y-1.3531
X6.5508Y-1.4531
X6.5508Y-1.5531
X6.5508Y-1.6531
X6.5508Y-1.7531
X6.5508Y-1.8531
X6.5508Y-1.9531
X6.5508Y-2.0531
X6.5508Y-2.1531
X6.5508Y-2.2531
X6.5508Y-2.3531
X6.5508Y-2.4531
X6.5508Y-2.5531
X6.5508Y-2.6531
X6.5508Y-2.7531
X6.5508Y-2.8531
X6.5508Y-2.9531
X6.5508Y-3.0531
X6.5508Y-3.1531
X6.5508Y-3.2531
T5
X6.2803Y-1.0108
X6.4024Y-1.0108
X6.7291Y-1.0108
T6
X6.2512Y-3.5827
X6.2512Y-3.9961
X6.2512Y-4.4094
X6.2512Y-4.8228
X6.811Y-3.5827
X6.811Y-3.9961
X6.811Y-4.4094
X6.811Y-4.8228
T7
X6.1291Y-3.5827
X6.1291Y-3.9961
X6.1291Y-4.4094
X6.1291Y-4.8228
X6.9331Y-3.5827
X6.9331Y-3.9961
X6.9331Y-4.4094
X6.9331Y-4.8228
T8
X5.8024Y-3.5827
X5.8024Y-3.9961
X5.8024Y-4.4094
X5.8024Y-4.8228
X7.2598Y-3.5827
X7.2598Y-3.9961
X7.2598Y-4.4094
X7.2598Y-4.8228
T10
X6.5354Y-1.0108
T2
G00X6.0157Y-1.9665
M15
G01X6.0157Y-2.0177
M16
G05
G00X6.1319Y-1.4665
M15
G01X6.1319Y-1.4075
M16
G05
G00X6.1319Y-2.5689
M15
G01X6.1319Y-2.5098
M16
G05
G00X6.2008Y-1.9665
M15
G01X6.2008Y-2.0177
M16
G05
G00X6.2697Y-1.4665
M15
G01X6.2697Y-1.4075
M16
G05
G00X6.2697Y-2.5689
M15
G01X6.2697Y-2.5098
M16
G05
G00X7.0492Y-2.8268
M15
G01X6.998Y-2.8268
M16
G05
G00X7.0492Y-3.0118
M15
G01X6.998Y-3.0118
M16
G05
T9
G00X6.7638Y-2.3091
M15
G01X6.7638Y-2.2776
M16
G05
G00X7.2126Y-2.3091
M15
G01X7.2126Y-2.2776
M16
G05
T0
M30
