<?xml version="1.0" encoding="UTF-8" standalone="no"?>
<!-- Created with Inkscape (http://www.inkscape.org/) -->

<svg
   width="210mm"
   height="297mm"
   viewBox="0 0 210 297"
   version="1.1"
   id="svg5642"
   inkscape:version="1.1.2 (0a00cf5339, 2022-02-04)"
   sodipodi:docname="arrows.svg"
   xmlns:inkscape="http://www.inkscape.org/namespaces/inkscape"
   xmlns:sodipodi="http://sodipodi.sourceforge.net/DTD/sodipodi-0.dtd"
   xmlns="http://www.w3.org/2000/svg"
   xmlns:svg="http://www.w3.org/2000/svg">
  <sodipodi:namedview
     id="namedview5644"
     pagecolor="#ffffff"
     bordercolor="#666666"
     borderopacity="1.0"
     inkscape:pageshadow="2"
     inkscape:pageopacity="0.0"
     inkscape:pagecheckerboard="0"
     inkscape:document-units="mm"
     showgrid="false"
     inkscape:zoom="0.74653479"
     inkscape:cx="397.16836"
     inkscape:cy="561.9296"
     inkscape:window-width="1920"
     inkscape:window-height="1016"
     inkscape:window-x="0"
     inkscape:window-y="27"
     inkscape:window-maximized="1"
     inkscape:current-layer="layer1" />
  <defs
     id="defs5639" />
  <g
     inkscape:label="Layer 1"
     inkscape:groupmode="layer"
     id="layer1">
    <g
       aria-label="↤"
       id="text65088"
       style="font-size:10.5833px;line-height:1.25;font-family:'Gothic Uralic';-inkscape-font-specification:'Gothic Uralic, Normal';letter-spacing:0px;word-spacing:0px;display:inline;fill:none;stroke:#000000;stroke-width:0.2"
       transform="translate(104.55831,103.71708)">
      <path
         d="m 17.404824,84.214928 h -2.891122 l 0.642165,0.642165 -0.330729,0.330729 -1.083137,-1.083137 v -0.248047 l 1.083137,-1.083137 0.330729,0.330729 -0.642165,0.642165 h 2.891122 v -0.950846 h 0.468532 v 2.370224 h -0.468532 z"
         style="font-size:5.64444px;font-family:'DejaVu Sans';-inkscape-font-specification:'DejaVu Sans, Normal'"
         id="path199480" />
    </g>
    <g
       aria-label="↤"
       transform="rotate(180,52.279155,51.85854)"
       id="text65088-6"
       style="font-size:10.5833px;line-height:1.25;font-family:'Gothic Uralic';-inkscape-font-specification:'Gothic Uralic, Normal';letter-spacing:0px;word-spacing:0px;display:inline;fill:none;stroke:#000000;stroke-width:0.2">
      <path
         d="m -23.102507,-78.340431 h -2.891122 l 0.642165,0.642165 -0.330729,0.330729 -1.083137,-1.083137 v -0.248047 l 1.083137,-1.083137 0.330729,0.330729 -0.642165,0.642165 h 2.891122 v -0.950846 h 0.468532 v 2.370224 h -0.468532 z"
         style="font-size:5.64444px;font-family:'DejaVu Sans';-inkscape-font-specification:'DejaVu Sans, Normal'"
         id="path199483" />
    </g>
    <g
       aria-label="↦"
       id="text65088-9"
       style="font-size:10.5833px;line-height:1.25;font-family:'Gothic Uralic';-inkscape-font-specification:'Gothic Uralic, Normal';letter-spacing:0px;word-spacing:0px;display:inline;fill:none;stroke:#000000;stroke-width:0.2"
       transform="translate(104.55831,103.71708)">
      <path
         d="m 17.101656,94.916199 h -2.891122 v 0.950845 H 13.742001 V 93.49682 h 0.468533 v 0.950846 h 2.891122 l -0.642166,-0.642165 0.330729,-0.330729 1.083137,1.083137 v 0.248047 l -1.083137,1.083137 -0.330729,-0.330729 z"
         style="font-size:5.64444px;font-family:'DejaVu Sans';-inkscape-font-specification:'DejaVu Sans, Normal'"
         id="path199489" />
    </g>
    <g
       aria-label="↦"
       transform="rotate(180,52.279155,51.85854)"
       id="text65088-6-9"
       style="font-size:10.5833px;line-height:1.25;font-family:'Gothic Uralic';-inkscape-font-specification:'Gothic Uralic, Normal';letter-spacing:0px;word-spacing:0px;display:inline;fill:none;stroke:#000000;stroke-width:0.2">
      <path
         d="m -23.405676,-89.041702 h -2.891122 v 0.950845 h -0.468533 v -2.370224 h 0.468533 v 0.950846 h 2.891122 l -0.642165,-0.642165 0.330728,-0.330729 1.083138,1.083137 v 0.248047 l -1.083138,1.083137 -0.330728,-0.330729 z"
         style="font-size:5.64444px;font-family:'DejaVu Sans';-inkscape-font-specification:'DejaVu Sans, Normal'"
         id="path199486" />
    </g>
    <g
       aria-label="↦"
       id="text65088-9-9"
       style="font-size:10.5833px;line-height:1.25;font-family:'Gothic Uralic';-inkscape-font-specification:'Gothic Uralic, Normal';letter-spacing:0px;word-spacing:0px;display:inline;fill:none;stroke:#000000;stroke-width:0.2"
       transform="translate(104.55831,103.71708)">
      <path
         d="m 17.101656,105.46445 h -2.891122 v 0.95084 h -0.468533 v -2.37022 h 0.468533 v 0.95084 h 2.891122 l -0.642166,-0.64216 0.330729,-0.33073 1.083137,1.08314 v 0.24804 l -1.083137,1.08314 -0.330729,-0.33073 z"
         style="font-size:5.64444px;font-family:'DejaVu Sans';-inkscape-font-specification:'DejaVu Sans, Normal'"
         id="path199492" />
    </g>
    <g
       aria-label="↦"
       transform="rotate(180,52.279155,51.85854)"
       id="text65088-6-9-3"
       style="font-size:10.5833px;line-height:1.25;font-family:'Gothic Uralic';-inkscape-font-specification:'Gothic Uralic, Normal';letter-spacing:0px;word-spacing:0px;display:inline;fill:none;stroke:#000000;stroke-width:0.2">
      <path
         d="m -23.405676,-99.589958 h -2.891122 v 0.950845 h -0.468533 v -2.370227 h 0.468533 v 0.95085 h 2.891122 l -0.642165,-0.64217 0.330728,-0.33073 1.083138,1.083142 v 0.248047 l -1.083138,1.083137 -0.330728,-0.330729 z"
         style="font-size:5.64444px;font-family:'DejaVu Sans';-inkscape-font-specification:'DejaVu Sans, Normal'"
         id="path199495" />
    </g>
    <g
       aria-label="↦"
       id="text65088-9-0"
       style="font-size:10.5833px;line-height:1.25;font-family:'Gothic Uralic';-inkscape-font-specification:'Gothic Uralic, Normal';letter-spacing:0px;word-spacing:0px;display:inline;fill:none;stroke:#000000;stroke-width:0.2"
       transform="translate(104.55831,103.71708)">
      <path
         d="m 17.101656,116.3606 h -2.891122 v 0.95084 h -0.468533 v -2.37022 h 0.468533 v 0.95084 h 2.891122 l -0.642166,-0.64216 0.330729,-0.33073 1.083137,1.08314 v 0.24804 l -1.083137,1.08314 -0.330729,-0.33073 z"
         style="font-size:5.64444px;font-family:'DejaVu Sans';-inkscape-font-specification:'DejaVu Sans, Normal'"
         id="path199501" />
    </g>
    <g
       aria-label="↦"
       transform="rotate(180,52.279155,51.85854)"
       id="text65088-6-9-1"
       style="font-size:10.5833px;line-height:1.25;font-family:'Gothic Uralic';-inkscape-font-specification:'Gothic Uralic, Normal';letter-spacing:0px;word-spacing:0px;display:inline;fill:none;stroke:#000000;stroke-width:0.2">
      <path
         d="m -23.405676,-110.48611 h -2.891122 v 0.95085 h -0.468533 v -2.37023 h 0.468533 v 0.95085 h 2.891122 l -0.642165,-0.64216 0.330728,-0.33073 1.083138,1.08313 v 0.24805 l -1.083138,1.08314 -0.330728,-0.33073 z"
         style="font-size:5.64444px;font-family:'DejaVu Sans';-inkscape-font-specification:'DejaVu Sans, Normal'"
         id="path199498" />
    </g>
  </g>
</svg>
