<?xml version="1.0" encoding="UTF-8" standalone="no"?>
<!-- Created with Inkscape (http://www.inkscape.org/) -->

<svg
   width="210mm"
   height="297mm"
   viewBox="0 0 210 297"
   version="1.1"
   id="svg6018"
   inkscape:version="1.1.2 (0a00cf5339, 2022-02-04)"
   sodipodi:docname="cephalo.svg"
   xmlns:inkscape="http://www.inkscape.org/namespaces/inkscape"
   xmlns:sodipodi="http://sodipodi.sourceforge.net/DTD/sodipodi-0.dtd"
   xmlns="http://www.w3.org/2000/svg"
   xmlns:svg="http://www.w3.org/2000/svg">
  <sodipodi:namedview
     id="namedview6020"
     pagecolor="#ffffff"
     bordercolor="#666666"
     borderopacity="1.0"
     inkscape:pageshadow="2"
     inkscape:pageopacity="0.0"
     inkscape:pagecheckerboard="0"
     inkscape:document-units="mm"
     showgrid="false"
     inkscape:zoom="4.2230385"
     inkscape:cx="85.601872"
     inkscape:cy="310.55838"
     inkscape:window-width="1920"
     inkscape:window-height="1016"
     inkscape:window-x="0"
     inkscape:window-y="27"
     inkscape:window-maximized="1"
     inkscape:current-layer="layer1" />
  <defs
     id="defs6015" />
  <g
     inkscape:label="Layer 1"
     inkscape:groupmode="layer"
     id="layer1">
    <g
       aria-label="⋑⊚⋐"
       id="text87913"
       style="font-size:3.31585px;line-height:1.25;font-family:'Gothic Uralic';-inkscape-font-specification:'Gothic Uralic, Normal';letter-spacing:0px;word-spacing:0px;display:inline;stroke-width:0.1;fill:none;stroke:#000000;stroke-miterlimit:4;stroke-dasharray:none;fill-opacity:1"
       transform="translate(15.388666,-55.129966)">
      <path
         d="m 16.591135,125.08319 v -0.27524 h 1.071823 q 0.20886,0 0.352957,0.14571 0.144097,0.14572 0.144097,0.35296 0,0.21048 -0.144097,0.35296 -0.145717,0.14571 -0.352957,0.14571 h -1.071823 v -0.27524 h 1.070204 q 0.09391,0 0.158668,-0.0648 0.06476,-0.0648 0.06476,-0.15867 0,-0.0923 -0.06476,-0.15867 -0.06476,-0.0648 -0.158668,-0.0648 z m 0,1.27259 v -0.27525 h 1.070204 q 0.325432,0 0.548864,-0.22505 0.22505,-0.22505 0.22505,-0.54886 0,-0.32057 -0.22505,-0.54886 -0.223432,-0.22505 -0.547245,-0.22505 h -1.071823 v -0.27525 h 1.073442 q 0.438767,0 0.739914,0.30601 0.306003,0.30924 0.306003,0.74315 0,0.43553 -0.306003,0.74315 -0.304385,0.30601 -0.743152,0.30601 z"
         style="font-family:'DejaVu Sans';-inkscape-font-specification:'DejaVu Sans, Normal';fill:none;stroke:#000000;stroke-width:0.1;stroke-miterlimit:4;stroke-dasharray:none;fill-opacity:1"
         id="path202454" />
      <path
         d="m 20.407277,124.99738 q -0.129525,0 -0.218574,0.0907 -0.08905,0.0891 -0.08905,0.21857 0,0.12791 0.08905,0.21696 0.08905,0.0874 0.218574,0.0874 0.129525,0 0.218574,-0.0874 0.08905,-0.0891 0.08905,-0.21696 0,-0.12791 -0.09067,-0.21857 -0.08905,-0.0907 -0.216954,-0.0907 z m 0,-0.20886 q 0.10362,0 0.199145,0.0405 0.09553,0.0389 0.165145,0.11333 0.07448,0.0729 0.111716,0.16515 0.03724,0.0923 0.03724,0.19914 0,0.21372 -0.150573,0.36267 -0.148954,0.14734 -0.365909,0.14734 -0.218574,0 -0.36429,-0.14572 -0.145716,-0.14572 -0.145716,-0.36429 0,-0.21695 0.148954,-0.36753 0.148954,-0.15057 0.36429,-0.15057 z m 0.323813,-0.26715 q -0.150573,-0.0631 -0.323813,-0.0631 -0.17324,0 -0.323813,0.0631 -0.148955,0.0631 -0.272004,0.1862 -0.124668,0.12466 -0.186193,0.27362 -0.06152,0.14895 -0.06152,0.32543 0,0.17162 0.06152,0.32058 0.06152,0.14895 0.186193,0.27362 0.123049,0.12305 0.272004,0.18619 0.150573,0.0631 0.323813,0.0631 0.17324,0 0.323813,-0.0631 0.148955,-0.0631 0.272004,-0.18619 0.124668,-0.12467 0.186193,-0.27362 0.06152,-0.14896 0.06152,-0.32058 0,-0.17648 -0.06152,-0.32543 -0.06152,-0.14896 -0.186193,-0.27362 -0.123049,-0.12305 -0.272004,-0.1862 z m -0.739913,-0.22505 q 0.192669,-0.081 0.4161,-0.081 0.223431,0 0.4161,0.081 0.192669,0.081 0.351338,0.23962 0.160288,0.16029 0.239622,0.35296 0.07933,0.19105 0.07933,0.41772 0,0.22181 -0.07933,0.41448 -0.07933,0.19105 -0.239622,0.35134 -0.158669,0.15867 -0.351338,0.23962 -0.192669,0.081 -0.4161,0.081 -0.223431,0 -0.4161,-0.081 -0.192669,-0.081 -0.351338,-0.23962 -0.160288,-0.16029 -0.239622,-0.35134 -0.07933,-0.19267 -0.07933,-0.41448 0,-0.22667 0.07933,-0.41772 0.07933,-0.19267 0.239622,-0.35296 0.158669,-0.15866 0.351338,-0.23962 z"
         style="font-family:'DejaVu Sans';-inkscape-font-specification:'DejaVu Sans, Normal';fill:none;stroke:#000000;stroke-width:0.1;stroke-miterlimit:4;stroke-dasharray:none;fill-opacity:1"
         id="path202456" />
      <path
         d="m 24.223419,125.08319 h -1.070204 q -0.09391,0 -0.158668,0.0648 -0.06476,0.0664 -0.06476,0.15867 0,0.0939 0.06476,0.15867 0.06476,0.0648 0.158668,0.0648 h 1.070204 v 0.27524 h -1.071823 q -0.20724,0 -0.352956,-0.14571 -0.144097,-0.14248 -0.144097,-0.35296 0,-0.20724 0.144097,-0.35296 0.144097,-0.14571 0.352956,-0.14571 h 1.071823 z m 0,1.27259 h -1.070204 q -0.438767,0 -0.743152,-0.30601 -0.306003,-0.30762 -0.306003,-0.74315 0,-0.43391 0.306003,-0.74315 0.301147,-0.30601 0.739914,-0.30601 h 1.073442 v 0.27525 h -1.071823 q -0.323813,0 -0.547245,0.22505 -0.22505,0.22829 -0.22505,0.54886 0,0.32381 0.22505,0.54886 0.223432,0.22505 0.548864,0.22505 h 1.070204 z"
         style="font-family:'DejaVu Sans';-inkscape-font-specification:'DejaVu Sans, Normal';fill:none;stroke:#000000;stroke-width:0.1;stroke-miterlimit:4;stroke-dasharray:none;fill-opacity:1"
         id="path202458" />
    </g>
  </g>
</svg>
