<?xml version="1.0" encoding="UTF-8" standalone="no"?>
<!-- Created with Inkscape (http://www.inkscape.org/) -->

<svg
   width="210mm"
   height="297mm"
   viewBox="0 0 210 297"
   version="1.1"
   id="svg16972"
   inkscape:version="1.1.2 (0a00cf5339, 2022-02-04)"
   sodipodi:docname="emute.svg"
   xmlns:inkscape="http://www.inkscape.org/namespaces/inkscape"
   xmlns:sodipodi="http://sodipodi.sourceforge.net/DTD/sodipodi-0.dtd"
   xmlns="http://www.w3.org/2000/svg"
   xmlns:svg="http://www.w3.org/2000/svg">
  <sodipodi:namedview
     id="namedview16974"
     pagecolor="#ffffff"
     bordercolor="#666666"
     borderopacity="1.0"
     inkscape:pageshadow="2"
     inkscape:pageopacity="0.0"
     inkscape:pagecheckerboard="0"
     inkscape:document-units="mm"
     showgrid="false"
     inkscape:zoom="0.74653479"
     inkscape:cx="397.16836"
     inkscape:cy="561.9296"
     inkscape:window-width="1920"
     inkscape:window-height="1016"
     inkscape:window-x="0"
     inkscape:window-y="27"
     inkscape:window-maximized="1"
     inkscape:current-layer="layer1" />
  <defs
     id="defs16969" />
  <g
     inkscape:label="Layer 1"
     inkscape:groupmode="layer"
     id="layer1">
    <path
       style="display:inline;fill:#000000;stroke-width:0.0130746"
       d="m 138.36543,82.568895 c -2.06279,-0.68043 -2.15148,-0.71098 -2.18672,-0.75319 l -0.0367,-0.044 v -0.85797 -0.85797 l 0.0425,-0.047 c 0.0405,-0.0448 0.0746,-0.0573 0.72552,-0.26693 0.37567,-0.12098 0.68303,-0.22291 0.68301,-0.2265 -1e-5,-0.004 -0.30738,-0.10642 -0.68303,-0.22849 -0.63645,-0.20682 -0.68591,-0.22504 -0.7255,-0.26731 l -0.0425,-0.0454 v -0.85401 -0.85402 l 0.0294,-0.0456 c 0.0342,-0.0531 -0.15341,0.012 1.75021,-0.60674 0.68756,-0.22348 1.27003,-0.40634 1.29438,-0.40636 0.0243,-3e-5 0.33929,0.0956 0.69987,0.21246 0.6119,0.19835 0.65743,0.21518 0.68315,0.25254 0.0267,0.0388 0.0276,0.054 0.0276,0.47772 v 0.43768 l -0.036,0.0401 c -0.0321,0.0358 -0.10848,0.0635 -0.7191,0.26072 -0.37573,0.12137 -0.68311,0.22373 -0.68307,0.22748 4e-5,0.004 0.60458,0.20301 1.34341,0.44281 1.23436,0.40063 1.34625,0.4393 1.37929,0.47673 l 0.036,0.0407 -4.7e-4,0.43849 c -4.7e-4,0.43331 -8.1e-4,0.43889 -0.0294,0.47258 -0.0243,0.0287 -0.24283,0.10541 -1.37368,0.4825 -0.78749,0.2626 -1.33741,0.45238 -1.32707,0.458 0.01,0.005 0.61484,0.20475 1.34473,0.44329 1.15123,0.37623 1.33091,0.43836 1.35602,0.46889 0.0286,0.0348 0.0289,0.0407 0.0294,0.47368 l 4.7e-4,0.4385 -0.036,0.0403 c -0.0317,0.0355 -0.1139,0.0667 -0.69731,0.26426 -0.36374,0.1232 -0.66969,0.22338 -0.67987,0.22263 -0.0102,-7.5e-4 -0.98603,-0.32051 -2.16853,-0.71057 z m 2.08552,-0.18712 c -0.008,-0.008 -4.09548,-1.33669 -4.11251,-1.33669 -0.009,0 -0.0134,0.11401 -0.0134,0.3329 v 0.3329 l 0.83351,0.27455 c 0.45843,0.151 1.38656,0.45655 2.06251,0.67901 l 1.22901,0.40447 0.004,-0.34053 c 0.002,-0.18729 7.5e-4,-0.34327 -0.003,-0.34661 z m 0.67358,0.51853 c 0.25465,-0.0871 0.50567,-0.1729 0.5578,-0.19077 l 0.0948,-0.0325 v -0.3331 -0.3331 l -0.0294,0.009 c -0.0397,0.0119 -0.84847,0.27199 -1.0002,0.32161 l -0.12094,0.0396 v 0.33886 c 0,0.27409 0.003,0.33886 0.0175,0.33886 0.01,0 0.22583,-0.0712 0.48049,-0.15827 z m -0.0715,-0.84168 c 0.27811,-0.0897 0.50832,-0.16584 0.51156,-0.16908 0.003,-0.003 -0.0668,-0.0292 -0.15555,-0.0577 -0.18332,-0.0588 -3.19883,-1.04327 -3.60333,-1.1764 l -0.26476,-0.0871 5e-5,-0.0852 5e-5,-0.0852 0.68635,-0.22227 c 0.37749,-0.12224 0.68635,-0.22549 0.68636,-0.22943 0,-0.004 -0.2304,-0.0818 -0.51201,-0.17307 l -0.51202,-0.1659 -0.27572,0.0904 c -0.15165,0.0497 -0.50381,0.16469 -0.78257,0.25545 l -0.50684,0.16501 0.004,0.36815 0.004,0.36815 2.09846,0.68286 c 1.15416,0.37557 2.10272,0.68323 2.10791,0.68369 0.005,4.6e-4 0.23698,-0.0726 0.5151,-0.16235 z m -0.60299,-2.11121 v -0.36982 l -2.05925,-0.66921 -2.05924,-0.66921 -0.004,0.3328 c -0.002,0.18303 -0.001,0.3351 0.002,0.33793 0.005,0.005 1.39088,0.45855 2.39776,0.78465 l 0.51318,0.1662 -6e-5,0.0855 -7e-5,0.0855 -0.68307,0.22073 c -0.3757,0.12141 -0.68706,0.22437 -0.69192,0.22881 -0.005,0.004 0.22755,0.0849 0.51645,0.17885 l 0.52528,0.17079 0.7714,-0.25688 0.7714,-0.25687 v -0.36982 z m 0.76796,0.11393 0.55911,-0.1862 v -0.33129 -0.33128 l -0.0359,0.008 c -0.0198,0.004 -0.27718,0.0869 -0.57201,0.18324 l -0.53606,0.17521 -0.004,0.33424 c -0.003,0.26112 9e-5,0.33424 0.0129,0.33424 0.009,0 0.26799,-0.0838 0.5755,-0.18619 z m -0.15049,-0.80843 c 0.27489,-0.089 0.49552,-0.16559 0.4903,-0.17025 -0.008,-0.007 -0.73957,-0.24624 -3.56252,-1.1641 l -0.45434,-0.14772 v -0.0859 -0.0859 l 1.34341,-0.43585 c 0.73888,-0.23971 1.34746,-0.43955 1.35241,-0.44407 0.005,-0.004 -0.22257,-0.0833 -0.50559,-0.17502 l -0.51459,-0.16679 -1.44252,0.46904 -1.44252,0.46903 v 0.36976 0.36975 l 2.09847,0.68356 c 1.15416,0.37595 2.1073,0.68191 2.11808,0.67991 0.0108,-0.002 0.24453,-0.0764 0.51941,-0.16542 z m -1.38427,-1.48856 c 0.4196,-0.13623 0.76536,-0.25014 0.76835,-0.25313 0.003,-0.003 0.004,-0.15563 0.002,-0.3392 l -0.004,-0.33377 -1.29111,0.4195 c -0.71011,0.23072 -1.29111,0.423 -1.29111,0.42729 0,0.0128 1.01159,0.33847 1.03289,0.33251 0.0108,-0.003 0.36292,-0.11696 0.78253,-0.2532 z m 3.65309,4.27402 c -0.0161,-0.007 -0.0411,-0.0311 -0.0555,-0.0547 -0.0257,-0.0422 -0.0262,-0.0655 -0.0262,-1.30179 -5e-5,-1.35524 -0.002,-1.31934 0.0668,-1.36743 0.0273,-0.0191 0.10658,-0.0213 0.75871,-0.0213 h 0.72826 l 0.0385,0.0324 c 0.0472,0.0397 0.0609,0.0982 0.0366,0.15625 -0.0373,0.0892 -0.01,0.0859 -0.71669,0.0859 h -0.63774 v 0.48376 0.48376 l 0.5524,5e-5 c 0.5254,6e-5 0.55445,0.001 0.59439,0.0256 0.0746,0.0455 0.0797,0.15835 0.01,0.21945 l -0.0336,0.0294 h -0.56148 -0.56148 v 0.48376 0.48376 h 0.64045 0.64045 l 0.0414,0.037 c 0.0349,0.0312 0.0416,0.0467 0.0427,0.0991 0.001,0.0545 -0.004,0.0669 -0.0414,0.1003 l -0.0427,0.0382 -0.72217,-8.3e-4 c -0.39719,-4.5e-4 -0.73536,-0.006 -0.7515,-0.0126 z m 1.91021,4.9e-4 c -0.0725,-0.0293 -0.07,0.005 -0.07,-0.96655 v -0.89525 l 0.0351,-0.0367 c 0.0277,-0.0289 0.0469,-0.0367 0.0908,-0.0367 0.0788,0 0.1229,0.0405 0.13201,0.12137 0.004,0.0339 0.008,0.0617 0.0103,0.0617 0.002,0 0.0386,-0.0235 0.0816,-0.0522 0.13038,-0.0871 0.23582,-0.12053 0.40222,-0.12768 0.25336,-0.0109 0.43845,0.0597 0.60976,0.23251 l 0.1001,0.10098 0.10295,-0.10117 c 0.0796,-0.0783 0.12801,-0.11319 0.21369,-0.15431 0.14174,-0.068 0.23841,-0.0864 0.40823,-0.0776 0.21559,0.0112 0.3545,0.0734 0.51154,0.22925 0.14055,0.1395 0.21019,0.28581 0.23125,0.48585 0.0168,0.15919 0.0154,1.06728 -0.002,1.12886 -0.0274,0.0987 -0.14711,0.12855 -0.22069,0.055 l -0.0334,-0.0334 -0.007,-0.59135 c -0.005,-0.36426 -0.0126,-0.60655 -0.0211,-0.63094 -0.0471,-0.13444 -0.1663,-0.27411 -0.28215,-0.33069 -0.1415,-0.0691 -0.32771,-0.0666 -0.47175,0.006 -0.0853,0.0432 -0.19284,0.1536 -0.23592,0.24214 -0.0518,0.10641 -0.0599,0.21005 -0.0606,0.77547 -5e-4,0.39045 -0.005,0.5281 -0.0166,0.54319 -0.0268,0.034 -0.079,0.0648 -0.10991,0.0648 -0.0242,0 -0.10969,-0.0315 -0.13482,-0.0497 -0.004,-0.003 -0.01,-0.28224 -0.0131,-0.62143 l -0.006,-0.6167 -0.042,-0.0886 c -0.15941,-0.33655 -0.59383,-0.41241 -0.85095,-0.14861 -0.0777,0.0797 -0.12795,0.17198 -0.14627,0.26857 -0.008,0.0407 -0.0133,0.30099 -0.0133,0.61891 v 0.54865 l -0.0444,0.0444 c -0.0458,0.0458 -0.0888,0.055 -0.14699,0.0315 z m 3.87463,-0.006 c -0.26688,-0.0584 -0.51162,-0.2965 -0.59163,-0.57564 -0.0192,-0.067 -0.0234,-0.16062 -0.0285,-0.64116 -0.007,-0.62664 -0.004,-0.65708 0.0657,-0.69953 0.023,-0.014 0.0554,-0.0255 0.0719,-0.0255 0.0462,-8e-5 0.10695,0.0368 0.12085,0.0733 0.007,0.019 0.0126,0.26077 0.0127,0.57138 2.5e-4,0.58448 0.007,0.65533 0.0706,0.76877 0.0408,0.0725 0.15332,0.18174 0.22459,0.2181 0.13247,0.0676 0.32168,0.0684 0.46199,0.002 0.10033,-0.0474 0.21371,-0.15869 0.25609,-0.25126 0.0499,-0.10908 0.058,-0.21631 0.0583,-0.77209 1.7e-4,-0.33153 0.005,-0.52971 0.0137,-0.54573 0.0165,-0.0308 0.0793,-0.0647 0.1199,-0.0646 0.0165,3e-5 0.0489,0.0115 0.0719,0.0255 0.0694,0.0423 0.0723,0.0727 0.066,0.69921 -0.006,0.6153 -0.008,0.63303 -0.0877,0.79078 -0.0784,0.1553 -0.24304,0.31324 -0.39401,0.37795 -0.14807,0.0635 -0.35448,0.083 -0.51251,0.0484 z m 1.84736,0.007 c -0.0711,-0.0217 -0.14326,-0.068 -0.18847,-0.12077 -0.0854,-0.0997 -0.0861,-0.10726 -0.0861,-0.86958 v -0.68404 l -0.1144,-2e-4 c -0.0659,-1e-4 -0.12827,-0.007 -0.14709,-0.0167 -0.0478,-0.0242 -0.0697,-0.0789 -0.0592,-0.14848 0.0128,-0.0856 0.0572,-0.10905 0.20631,-0.10911 l 0.1144,-5e-5 v -0.33405 c 0,-0.37513 0.005,-0.39808 0.087,-0.43249 0.0572,-0.0239 0.12194,-0.006 0.16124,0.0436 0.0249,0.0317 0.0263,0.0524 0.0263,0.37822 v 0.34471 h 0.10589 c 0.12824,0 0.18389,0.0225 0.21428,0.0865 0.0178,0.0374 0.0188,0.0532 0.006,0.0915 -0.0241,0.073 -0.0757,0.0964 -0.21231,0.0965 l -0.11475,5e-5 0.004,0.67198 c 0.004,0.76044 -0.003,0.71345 0.1108,0.74209 0.0698,0.0176 0.12162,0.0744 0.12162,0.13336 0,0.10255 -0.11395,0.16402 -0.23534,0.12696 z m 1.31736,-0.001 c -0.3594,-0.0605 -0.67643,-0.36191 -0.7628,-0.7252 -0.0315,-0.13235 -0.0287,-0.36325 0.006,-0.49355 0.0741,-0.27936 0.26391,-0.51044 0.51826,-0.63101 0.15481,-0.0734 0.23214,-0.0906 0.40531,-0.0901 0.28783,8.5e-4 0.51512,0.10834 0.71026,0.3359 0.15304,0.17846 0.27034,0.53997 0.21111,0.65064 -0.0345,0.0645 -0.0371,0.0647 -0.8441,0.0647 h -0.75426 l 0.008,0.0686 c 0.0123,0.10521 0.0988,0.26773 0.19228,0.36124 0.14021,0.14021 0.31776,0.20702 0.51593,0.19415 0.19325,-0.0126 0.36605,-0.10571 0.48099,-0.25932 0.0733,-0.0979 0.11626,-0.12367 0.1848,-0.11081 0.0526,0.01 0.0991,0.0727 0.0991,0.13405 0,0.0548 -0.0672,0.15369 -0.17454,0.25691 -0.20424,0.19631 -0.51424,0.29123 -0.79615,0.24377 z m 0.80072,-1.17058 c 0,-0.0365 -0.0562,-0.15434 -0.10625,-0.22289 -0.1915,-0.26226 -0.53589,-0.35107 -0.82205,-0.21198 -0.14868,0.0723 -0.3251,0.27885 -0.35813,0.41937 l -0.008,0.036 h 0.64744 c 0.57867,0 0.64744,-0.002 0.64744,-0.0205 z m 0.71962,1.10661 c -0.009,-0.0171 -0.0136,-0.44592 -0.0136,-1.3098 0,-1.16754 0.002,-1.28654 0.0213,-1.30789 0.0162,-0.0179 0.0271,-0.0203 0.0458,-0.0104 0.0237,0.0127 0.0245,0.055 0.0245,1.28742 v 1.27431 l 0.68315,1.8e-4 c 0.37573,1e-4 0.6967,0.004 0.71326,0.008 0.0233,0.006 0.0292,0.0159 0.0262,0.0423 l -0.004,0.0343 -0.74146,0.003 c -0.72258,0.003 -0.74181,0.003 -0.75506,-0.022 z m 2.21137,0.006 c -0.19067,-0.0461 -0.40236,-0.1979 -0.51682,-0.3705 -0.11554,-0.17424 -0.15891,-0.32344 -0.15847,-0.54525 2.4e-4,-0.12657 0.006,-0.17585 0.0306,-0.25496 0.10469,-0.33863 0.34988,-0.57817 0.66313,-0.64786 0.12123,-0.027 0.31842,-0.0206 0.41726,0.0135 0.20168,0.0696 0.39599,0.22206 0.49356,0.38729 l 0.049,0.083 v -0.2261 c 0,-0.13086 0.006,-0.23676 0.0135,-0.25139 0.0174,-0.0325 0.0601,-0.0325 0.0775,0 0.009,0.0167 0.0135,0.32298 0.0135,0.903 0,0.58003 -0.005,0.8863 -0.0135,0.90301 -0.007,0.0139 -0.0249,0.0253 -0.0388,0.0253 -0.0441,0 -0.0523,-0.0428 -0.0529,-0.27698 l -5.7e-4,-0.22639 -0.0273,0.0523 c -0.10475,0.20039 -0.3251,0.37217 -0.5528,0.43095 -0.0939,0.0242 -0.29892,0.0248 -0.39701,0.001 z m 0.38273,-0.0924 c 0.25116,-0.0654 0.47426,-0.28206 0.55837,-0.54222 0.0384,-0.11885 0.0474,-0.35292 0.0183,-0.47722 -0.036,-0.15372 -0.10398,-0.27373 -0.22272,-0.39298 -0.20906,-0.20996 -0.45342,-0.28301 -0.71925,-0.21503 -0.19181,0.0491 -0.35102,0.16475 -0.46452,0.33755 -0.16888,0.25709 -0.18723,0.57824 -0.0495,0.86535 0.0974,0.203 0.30477,0.37581 0.51086,0.42575 0.0956,0.0232 0.27712,0.0226 0.36838,-0.001 z m 1.24444,0.0915 c -0.005,-0.0118 -0.008,-0.60304 -0.008,-1.31396 v -1.29257 l 0.0285,-0.02 c 0.0619,-0.0434 0.0625,-0.0379 0.0661,0.64987 l 0.003,0.64145 0.0488,-0.0791 c 0.12705,-0.20587 0.364,-0.36934 0.59377,-0.40966 0.41458,-0.0727 0.82471,0.15264 0.98929,0.54368 0.22078,0.52454 -0.0738,1.13639 -0.61348,1.27443 -0.12167,0.0311 -0.30306,0.0337 -0.42032,0.006 -0.20661,-0.0487 -0.40332,-0.1869 -0.52615,-0.3696 l -0.0719,-0.10697 -0.006,0.24486 -0.006,0.24485 -0.0343,0.004 c -0.0223,0.003 -0.0371,-0.004 -0.0425,-0.0174 z m 1.1518,-0.11032 c 0.31085,-0.10986 0.53156,-0.41214 0.54935,-0.75239 0.0251,-0.47977 -0.34253,-0.88127 -0.80774,-0.88218 -0.45507,-9e-4 -0.83622,0.41459 -0.8051,0.87761 0.0154,0.22991 0.10462,0.42082 0.27067,0.57946 0.10449,0.0998 0.21004,0.16099 0.33884,0.19635 0.10594,0.0291 0.3466,0.0191 0.45398,-0.0189 z"
       id="path59580" />
  </g>
</svg>
