<?xml version="1.0" encoding="iso-8859-1"?>
<!-- Uploaded to: SVG Repo, www.svgrepo.com, Generator: SVG Repo Mixer Tools -->
<svg fill="#000000" height="800px" width="800px" version="1.1" id="Layer_1" xmlns="http://www.w3.org/2000/svg" xmlns:xlink="http://www.w3.org/1999/xlink" 
	 viewBox="0 0 512.001 512.001" xml:space="preserve">
<g>
	<g>
		<path d="M364.379,111.922v63.622h24.032v17.054c0,18.239-14.838,33.077-33.077,33.077h-40.857
			c-18.583,0-35.28,8.195-46.695,21.149V92.713h45.749L260.006,0l-53.527,92.713h45.748v218.197
			c-11.416-12.953-28.112-21.149-46.695-21.149h-40.855c-18.239,0-33.077-14.838-33.077-33.077v-25.834
			c18.246-3.628,32.044-19.758,32.044-39.054c0-21.958-17.864-39.823-39.822-39.823s-39.822,17.864-39.822,39.823
			c0,19.296,13.797,35.426,32.044,39.054v25.834c0,26.816,21.817,48.634,48.634,48.634h40.855c25.748,0,46.695,20.948,46.695,46.695
			v64.962c-22.687,3.728-40.054,23.465-40.054,47.192c0,26.375,21.457,47.834,47.833,47.834s47.834-21.458,47.834-47.834
			c0-23.725-17.368-43.463-40.055-47.192V287.928c0-25.748,20.947-46.695,46.695-46.695h40.857
			c26.816,0,48.634-21.817,48.634-48.634v-17.054h24.032v-63.623H364.379z M123.82,216.062c-13.38,0-24.265-10.885-24.265-24.265
			c0-13.38,10.885-24.265,24.265-24.265c13.38,0,24.265,10.885,24.265,24.265C148.085,205.177,137.2,216.062,123.82,216.062z
			 M233.425,77.156l26.581-46.04l26.582,46.04H233.425z M292.282,464.167c0,17.797-14.479,32.276-32.276,32.276
			s-32.275-14.479-32.275-32.276s14.478-32.276,32.275-32.276S292.282,446.37,292.282,464.167z M412.444,159.986h-32.507v-32.507
			h32.507V159.986z"/>
	</g>
</g>
</svg>