<?xml version="1.0" standalone="no"?>
<!DOCTYPE svg PUBLIC "-//W3C//DTD SVG 1.1//EN" "http://www.w3.org/Graphics/SVG/1.1/DTD/svg11.dtd">
<svg width="41mm" height="129mm" viewBox="-41 0 41 129" xmlns="http://www.w3.org/2000/svg" version="1.1">
<title>OpenSCAD Model</title>
<path d="
M 0,-0 L -40.64,-0 L -40.64,128.5 L 0,128.5 z
M -35.56,5.0125 L -36.0544,4.93419 L -36.5004,4.70692 L -36.8544,4.35295 L -37.0817,3.90692 L -37.16,3.41249
 L -37.0817,2.91806 L -36.8544,2.47203 L -36.5004,2.11807 L -36.0544,1.89081 L -35.56,1.8125 L -33.68,1.8125
 L -33.1856,1.89081 L -32.7395,2.11807 L -32.3856,2.47203 L -32.1583,2.91806 L -32.08,3.41249 L -32.1583,3.90692
 L -32.3856,4.35295 L -32.7395,4.70692 L -33.1856,4.93419 L -33.68,5.0125 z
M -6.01999,5.0125 L -6.51442,4.93419 L -6.96045,4.70692 L -7.31442,4.35295 L -7.54169,3.90692 L -7.62,3.41249
 L -7.54169,2.91806 L -7.31442,2.47203 L -6.96045,2.11807 L -6.51442,1.89081 L -6.01999,1.8125 L -4.14,1.8125
 L -3.64557,1.89081 L -3.19954,2.11807 L -2.84557,2.47203 L -2.6183,2.91806 L -2.53999,3.41249 L -2.6183,3.90692
 L -2.84557,4.35295 L -3.19954,4.70692 L -3.64557,4.93419 L -4.14,5.0125 z
M -9.11359,14.5482 L -9.18701,14.5428 L -9.26009,14.5338 L -9.33263,14.5212 L -9.40446,14.505 L -9.47542,14.4854
 L -9.54533,14.4623 L -9.61401,14.4358 L -9.68132,14.406 L -9.74709,14.3729 L -9.81114,14.3366 L -9.87335,14.2972
 L -9.93355,14.2548 L -9.99158,14.2095 L -10.0473,14.1614 L -10.1006,14.1107 L -10.1514,14.0573 L -10.1995,14.0016
 L -10.2448,13.9435 L -10.2872,13.8833 L -10.3266,13.8212 L -10.3629,13.7571 L -10.396,13.6913 L -10.4258,13.624
 L -10.4523,13.5553 L -10.4754,13.4854 L -10.495,13.4145 L -10.5112,13.3426 L -10.5238,13.2701 L -10.5328,13.197
 L -10.5382,13.1236 L -10.54,13.05 L -10.5382,12.9764 L -10.5328,12.903 L -10.5238,12.8299 L -10.5112,12.7574
 L -10.495,12.6855 L -10.4754,12.6146 L -10.4523,12.5447 L -10.4258,12.476 L -10.396,12.4087 L -10.3629,12.3429
 L -10.3266,12.2788 L -10.2872,12.2166 L -10.2448,12.1564 L -10.1995,12.0984 L -10.1514,12.0426 L -10.1006,11.9893
 L -10.0473,11.9386 L -9.99158,11.8905 L -9.93355,11.8452 L -9.87335,11.8028 L -9.81114,11.7634 L -9.74709,11.7271
 L -9.68132,11.694 L -9.61401,11.6642 L -9.54533,11.6377 L -9.47542,11.6146 L -9.40446,11.5949 L -9.33263,11.5788
 L -9.26009,11.5662 L -9.18701,11.5572 L -9.11359,11.5518 L -9.03999,11.55 L -8.96638,11.5518 L -8.89296,11.5572
 L -8.8199,11.5662 L -8.74736,11.5788 L -8.67552,11.5949 L -8.60457,11.6146 L -8.53465,11.6377 L -8.46597,11.6642
 L -8.39867,11.694 L -8.3329,11.7271 L -8.26884,11.7634 L -8.20663,11.8028 L -8.14644,11.8452 L -8.08841,11.8905
 L -8.03265,11.9386 L -7.97934,11.9893 L -7.92856,12.0426 L -7.88048,12.0984 L -7.83517,12.1564 L -7.79279,12.2166
 L -7.7534,12.2788 L -7.71712,12.3429 L -7.68401,12.4087 L -7.65417,12.476 L -7.62767,12.5447 L -7.60458,12.6146
 L -7.58495,12.6855 L -7.56882,12.7574 L -7.55623,12.8299 L -7.54721,12.903 L -7.54179,12.9764 L -7.53999,13.05
 L -7.54179,13.1236 L -7.54721,13.197 L -7.55623,13.2701 L -7.56882,13.3426 L -7.58495,13.4145 L -7.60458,13.4854
 L -7.62767,13.5553 L -7.65417,13.624 L -7.68401,13.6913 L -7.71712,13.7571 L -7.7534,13.8212 L -7.79279,13.8833
 L -7.83517,13.9435 L -7.88048,14.0016 L -7.92856,14.0573 L -7.97934,14.1107 L -8.03265,14.1614 L -8.08841,14.2095
 L -8.14644,14.2548 L -8.20663,14.2972 L -8.26884,14.3366 L -8.3329,14.3729 L -8.39867,14.406 L -8.46597,14.4358
 L -8.53465,14.4623 L -8.60457,14.4854 L -8.67552,14.505 L -8.74736,14.5212 L -8.8199,14.5338 L -8.89296,14.5428
 L -8.96638,14.5482 L -9.03999,14.55 z
M -20.6717,19.3658 L -20.843,19.3531 L -21.0135,19.3321 L -21.1828,19.3027 L -21.3504,19.2651 L -21.516,19.2193
 L -21.6791,19.1654 L -21.8394,19.1036 L -21.9964,19.034 L -22.1499,18.9567 L -22.2993,18.872 L -22.4445,18.7801
 L -22.5849,18.6812 L -22.7204,18.5755 L -22.8504,18.4633 L -22.9749,18.3449 L -23.0933,18.2204 L -23.2055,18.0904
 L -23.3112,17.9549 L -23.4101,17.8145 L -23.502,17.6694 L -23.5867,17.5199 L -23.664,17.3664 L -23.7336,17.2094
 L -23.7954,17.0491 L -23.8493,16.886 L -23.8951,16.7204 L -23.9327,16.5528 L -23.9621,16.3835 L -23.9831,16.2131
 L -23.9958,16.0417 L -24,15.87 L -23.9958,15.6983 L -23.9831,15.5269 L -23.9621,15.3564 L -23.9327,15.1872
 L -23.8951,15.0196 L -23.8493,14.854 L -23.7954,14.6909 L -23.7336,14.5306 L -23.664,14.3736 L -23.5867,14.2201
 L -23.502,14.0706 L -23.4101,13.9255 L -23.3112,13.785 L -23.2055,13.6496 L -23.0933,13.5195 L -22.9749,13.3951
 L -22.8504,13.2767 L -22.7204,13.1645 L -22.5849,13.0588 L -22.4445,12.9599 L -22.2993,12.8679 L -22.1499,12.7833
 L -21.9964,12.706 L -21.8394,12.6364 L -21.6791,12.5746 L -21.516,12.5207 L -21.3504,12.4749 L -21.1828,12.4372
 L -21.0135,12.4079 L -20.843,12.3868 L -20.6717,12.3742 L -20.5,12.37 L -20.3283,12.3742 L -20.1569,12.3868
 L -19.9864,12.4079 L -19.8172,12.4372 L -19.6496,12.4749 L -19.484,12.5207 L -19.3209,12.5746 L -19.1606,12.6364
 L -19.0036,12.706 L -18.8501,12.7833 L -18.7006,12.8679 L -18.5555,12.9599 L -18.415,13.0588 L -18.2796,13.1645
 L -18.1495,13.2767 L -18.0251,13.3951 L -17.9067,13.5195 L -17.7945,13.6496 L -17.6888,13.785 L -17.5898,13.9255
 L -17.4979,14.0706 L -17.4133,14.2201 L -17.336,14.3736 L -17.2664,14.5306 L -17.2046,14.6909 L -17.1507,14.854
 L -17.1049,15.0196 L -17.0672,15.1872 L -17.0379,15.3564 L -17.0168,15.5269 L -17.0042,15.6983 L -17,15.87
 L -17.0042,16.0417 L -17.0168,16.2131 L -17.0379,16.3835 L -17.0672,16.5528 L -17.1049,16.7204 L -17.1507,16.886
 L -17.2046,17.0491 L -17.2664,17.2094 L -17.336,17.3664 L -17.4133,17.5199 L -17.4979,17.6694 L -17.5898,17.8145
 L -17.6888,17.9549 L -17.7945,18.0904 L -17.9067,18.2204 L -18.0251,18.3449 L -18.1495,18.4633 L -18.2796,18.5755
 L -18.415,18.6812 L -18.5555,18.7801 L -18.7006,18.872 L -18.8501,18.9567 L -19.0036,19.034 L -19.1606,19.1036
 L -19.3209,19.1654 L -19.484,19.2193 L -19.6496,19.2651 L -19.8172,19.3027 L -19.9864,19.3321 L -20.1569,19.3531
 L -20.3283,19.3658 L -20.5,19.37 z
M -12.1363,30.7452 L -12.3321,30.7307 L -12.5269,30.7067 L -12.7204,30.6731 L -12.9119,30.6301 L -13.1011,30.5778
 L -13.2876,30.5162 L -13.4707,30.4455 L -13.6502,30.366 L -13.8256,30.2777 L -13.9964,30.1809 L -14.1623,30.0759
 L -14.3228,29.9628 L -14.4776,29.842 L -14.6262,29.7138 L -14.7684,29.5784 L -14.9038,29.4362 L -15.032,29.2876
 L -15.1528,29.1328 L -15.2659,28.9723 L -15.3709,28.8064 L -15.4677,28.6356 L -15.556,28.4602 L -15.6355,28.2807
 L -15.7062,28.0975 L -15.7678,27.9111 L -15.8201,27.7219 L -15.8631,27.5303 L -15.8967,27.3369 L -15.9207,27.1421
 L -15.9352,26.9463 L -15.94,26.75 L -15.9352,26.5537 L -15.9207,26.3579 L -15.8967,26.1631 L -15.8631,25.9696
 L -15.8201,25.7781 L -15.7678,25.5889 L -15.7062,25.4024 L -15.6355,25.2193 L -15.556,25.0398 L -15.4677,24.8644
 L -15.3709,24.6936 L -15.2659,24.5277 L -15.1528,24.3672 L -15.032,24.2124 L -14.9038,24.0638 L -14.7684,23.9216
 L -14.6262,23.7862 L -14.4776,23.658 L -14.3228,23.5372 L -14.1623,23.4241 L -13.9964,23.3191 L -13.8256,23.2223
 L -13.6502,23.134 L -13.4707,23.0545 L -13.2876,22.9838 L -13.1011,22.9222 L -12.9119,22.8699 L -12.7204,22.8269
 L -12.5269,22.7933 L -12.3321,22.7693 L -12.1363,22.7548 L -11.94,22.75 L -11.7437,22.7548 L -11.5479,22.7693
 L -11.3531,22.7933 L -11.1596,22.8269 L -10.9681,22.8699 L -10.7789,22.9222 L -10.5924,22.9838 L -10.4093,23.0545
 L -10.2298,23.134 L -10.0544,23.2223 L -9.88358,23.3191 L -9.71771,23.4241 L -9.55719,23.5372 L -9.40242,23.658
 L -9.25375,23.7862 L -9.11157,23.9216 L -8.97618,24.0638 L -8.84795,24.2124 L -8.72716,24.3672 L -8.61412,24.5277
 L -8.50908,24.6936 L -8.41231,24.8644 L -8.32404,25.0398 L -8.24448,25.2193 L -8.17381,25.4024 L -8.11223,25.5889
 L -8.05986,25.7781 L -8.01685,25.9696 L -7.98329,26.1631 L -7.95926,26.3579 L -7.94481,26.5537 L -7.93999,26.75
 L -7.94481,26.9463 L -7.95926,27.1421 L -7.98329,27.3369 L -8.01685,27.5303 L -8.05986,27.7219 L -8.11223,27.9111
 L -8.17381,28.0975 L -8.24448,28.2807 L -8.32404,28.4602 L -8.41231,28.6356 L -8.50908,28.8064 L -8.61412,28.9723
 L -8.72716,29.1328 L -8.84795,29.2876 L -8.97618,29.4362 L -9.11157,29.5784 L -9.25375,29.7138 L -9.40242,29.842
 L -9.55719,29.9628 L -9.71771,30.0759 L -9.88358,30.1809 L -10.0544,30.2777 L -10.2298,30.366 L -10.4093,30.4455
 L -10.5924,30.5162 L -10.7789,30.5778 L -10.9681,30.6301 L -11.1596,30.6731 L -11.3531,30.7067 L -11.5479,30.7307
 L -11.7437,30.7452 L -11.94,30.75 z
M -12.1117,44.2458 L -12.2831,44.2331 L -12.4536,44.2121 L -12.6228,44.1827 L -12.7904,44.1451 L -12.956,44.0993
 L -13.1191,44.0454 L -13.2794,43.9836 L -13.4364,43.914 L -13.5899,43.8367 L -13.7393,43.752 L -13.8845,43.6601
 L -14.0249,43.5612 L -14.1604,43.4555 L -14.2905,43.3433 L -14.4149,43.2249 L -14.5333,43.1004 L -14.6455,42.9704
 L -14.7512,42.8349 L -14.8501,42.6945 L -14.942,42.5493 L -15.0267,42.3999 L -15.104,42.2464 L -15.1736,42.0894
 L -15.2354,41.9291 L -15.2893,41.766 L -15.3351,41.6004 L -15.3727,41.4328 L -15.4021,41.2635 L -15.4231,41.093
 L -15.4358,40.9217 L -15.44,40.75 L -15.4358,40.5783 L -15.4231,40.4069 L -15.4021,40.2364 L -15.3727,40.0672
 L -15.3351,39.8996 L -15.2893,39.734 L -15.2354,39.5709 L -15.1736,39.4106 L -15.104,39.2536 L -15.0267,39.1001
 L -14.942,38.9506 L -14.8501,38.8055 L -14.7512,38.6651 L -14.6455,38.5296 L -14.5333,38.3995 L -14.4149,38.2751
 L -14.2905,38.1567 L -14.1604,38.0445 L -14.0249,37.9388 L -13.8845,37.8398 L -13.7393,37.7479 L -13.5899,37.6633
 L -13.4364,37.586 L -13.2794,37.5164 L -13.1191,37.4546 L -12.956,37.4007 L -12.7904,37.3549 L -12.6228,37.3172
 L -12.4536,37.2879 L -12.2831,37.2668 L -12.1117,37.2542 L -11.94,37.25 L -11.7682,37.2542 L -11.5969,37.2668
 L -11.4264,37.2879 L -11.2572,37.3172 L -11.0896,37.3549 L -10.924,37.4007 L -10.7609,37.4546 L -10.6006,37.5164
 L -10.4435,37.586 L -10.2901,37.6633 L -10.1406,37.7479 L -9.9955,37.8398 L -9.85504,37.9388 L -9.71962,38.0445
 L -9.58954,38.1567 L -9.46512,38.2751 L -9.34666,38.3995 L -9.23445,38.5296 L -9.12877,38.6651 L -9.02985,38.8055
 L -8.93794,38.9506 L -8.85327,39.1001 L -8.77603,39.2536 L -8.70642,39.4106 L -8.64459,39.5709 L -8.5907,39.734
 L -8.54488,39.8996 L -8.50725,40.0672 L -8.47787,40.2364 L -8.45685,40.4069 L -8.44421,40.5783 L -8.43999,40.75
 L -8.44421,40.9217 L -8.45685,41.093 L -8.47787,41.2635 L -8.50725,41.4328 L -8.54488,41.6004 L -8.5907,41.766
 L -8.64459,41.9291 L -8.70642,42.0894 L -8.77603,42.2464 L -8.85327,42.3999 L -8.93794,42.5493 L -9.02985,42.6945
 L -9.12877,42.8349 L -9.23445,42.9704 L -9.34666,43.1004 L -9.46512,43.2249 L -9.58954,43.3433 L -9.71962,43.4555
 L -9.85504,43.5612 L -9.9955,43.6601 L -10.1406,43.752 L -10.2901,43.8367 L -10.4435,43.914 L -10.6006,43.9836
 L -10.7609,44.0454 L -10.924,44.0993 L -11.0896,44.1451 L -11.2572,44.1827 L -11.4264,44.2121 L -11.5969,44.2331
 L -11.7682,44.2458 L -11.94,44.25 z
M -32.1463,52.4452 L -32.3421,52.4307 L -32.5369,52.4067 L -32.7304,52.3731 L -32.9219,52.3301 L -33.1111,52.2778
 L -33.2975,52.2162 L -33.4807,52.1455 L -33.6602,52.0659 L -33.8356,51.9777 L -34.0064,51.8809 L -34.1723,51.7759
 L -34.3328,51.6628 L -34.4876,51.542 L -34.6362,51.4138 L -34.7784,51.2784 L -34.9138,51.1362 L -35.042,50.9876
 L -35.1628,50.8328 L -35.2759,50.6723 L -35.3809,50.5064 L -35.4777,50.3356 L -35.5659,50.1602 L -35.6455,49.9807
 L -35.7162,49.7975 L -35.7778,49.6111 L -35.8301,49.4219 L -35.8731,49.2304 L -35.9067,49.0369 L -35.9307,48.8421
 L -35.9452,48.6463 L -35.95,48.45 L -35.9452,48.2537 L -35.9307,48.0579 L -35.9067,47.8631 L -35.8731,47.6696
 L -35.8301,47.4781 L -35.7778,47.2888 L -35.7162,47.1024 L -35.6455,46.9193 L -35.5659,46.7398 L -35.4777,46.5644
 L -35.3809,46.3936 L -35.2759,46.2277 L -35.1628,46.0672 L -35.042,45.9124 L -34.9138,45.7638 L -34.7784,45.6216
 L -34.6362,45.4862 L -34.4876,45.358 L -34.3328,45.2372 L -34.1723,45.1241 L -34.0064,45.0191 L -33.8356,44.9223
 L -33.6602,44.834 L -33.4807,44.7545 L -33.2975,44.6838 L -33.1111,44.6222 L -32.9219,44.5699 L -32.7304,44.5269
 L -32.5369,44.4933 L -32.3421,44.4693 L -32.1463,44.4548 L -31.95,44.45 L -31.7537,44.4548 L -31.5579,44.4693
 L -31.3631,44.4933 L -31.1696,44.5269 L -30.9781,44.5699 L -30.7888,44.6222 L -30.6024,44.6838 L -30.4193,44.7545
 L -30.2398,44.834 L -30.0644,44.9223 L -29.8936,45.0191 L -29.7277,45.1241 L -29.5672,45.2372 L -29.4124,45.358
 L -29.2638,45.4862 L -29.1216,45.6216 L -28.9862,45.7638 L -28.858,45.9124 L -28.7372,46.0672 L -28.6241,46.2277
 L -28.5191,46.3936 L -28.4223,46.5644 L -28.334,46.7398 L -28.2545,46.9193 L -28.1838,47.1024 L -28.1222,47.2888
 L -28.0699,47.4781 L -28.0269,47.6696 L -27.9933,47.8631 L -27.9693,48.0579 L -27.9548,48.2537 L -27.95,48.45
 L -27.9548,48.6463 L -27.9693,48.8421 L -27.9933,49.0369 L -28.0269,49.2304 L -28.0699,49.4219 L -28.1222,49.6111
 L -28.1838,49.7975 L -28.2545,49.9807 L -28.334,50.1602 L -28.4223,50.3356 L -28.5191,50.5064 L -28.6241,50.6723
 L -28.7372,50.8328 L -28.858,50.9876 L -28.9862,51.1362 L -29.1216,51.2784 L -29.2638,51.4138 L -29.4124,51.542
 L -29.5672,51.6628 L -29.7277,51.7759 L -29.8936,51.8809 L -30.0644,51.9777 L -30.2398,52.0659 L -30.4193,52.1455
 L -30.6024,52.2162 L -30.7888,52.2778 L -30.9781,52.3301 L -31.1696,52.3731 L -31.3631,52.4067 L -31.5579,52.4307
 L -31.7537,52.4452 L -31.95,52.45 z
M -12.1363,58.6952 L -12.3321,58.6807 L -12.5269,58.6567 L -12.7204,58.6231 L -12.9119,58.5801 L -13.1011,58.5278
 L -13.2876,58.4662 L -13.4707,58.3955 L -13.6502,58.3159 L -13.8256,58.2277 L -13.9964,58.1309 L -14.1623,58.0259
 L -14.3228,57.9128 L -14.4776,57.792 L -14.6262,57.6638 L -14.7684,57.5284 L -14.9038,57.3862 L -15.032,57.2376
 L -15.1528,57.0828 L -15.2659,56.9223 L -15.3709,56.7564 L -15.4677,56.5856 L -15.556,56.4102 L -15.6355,56.2307
 L -15.7062,56.0475 L -15.7678,55.8611 L -15.8201,55.6719 L -15.8631,55.4804 L -15.8967,55.2869 L -15.9207,55.0921
 L -15.9352,54.8963 L -15.94,54.7 L -15.9352,54.5037 L -15.9207,54.3079 L -15.8967,54.1131 L -15.8631,53.9196
 L -15.8201,53.7281 L -15.7678,53.5388 L -15.7062,53.3524 L -15.6355,53.1693 L -15.556,52.9898 L -15.4677,52.8144
 L -15.3709,52.6436 L -15.2659,52.4777 L -15.1528,52.3172 L -15.032,52.1624 L -14.9038,52.0138 L -14.7684,51.8716
 L -14.6262,51.7362 L -14.4776,51.608 L -14.3228,51.4872 L -14.1623,51.3741 L -13.9964,51.2691 L -13.8256,51.1723
 L -13.6502,51.084 L -13.4707,51.0045 L -13.2876,50.9338 L -13.1011,50.8722 L -12.9119,50.8199 L -12.7204,50.7769
 L -12.5269,50.7433 L -12.3321,50.7193 L -12.1363,50.7048 L -11.94,50.7 L -11.7437,50.7048 L -11.5479,50.7193
 L -11.3531,50.7433 L -11.1596,50.7769 L -10.9681,50.8199 L -10.7789,50.8722 L -10.5924,50.9338 L -10.4093,51.0045
 L -10.2298,51.084 L -10.0544,51.1723 L -9.88358,51.2691 L -9.71771,51.3741 L -9.55719,51.4872 L -9.40242,51.608
 L -9.25375,51.7362 L -9.11157,51.8716 L -8.97618,52.0138 L -8.84795,52.1624 L -8.72716,52.3172 L -8.61412,52.4777
 L -8.50908,52.6436 L -8.41231,52.8144 L -8.32404,52.9898 L -8.24448,53.1693 L -8.17381,53.3524 L -8.11223,53.5388
 L -8.05986,53.7281 L -8.01685,53.9196 L -7.98329,54.1131 L -7.95926,54.3079 L -7.94481,54.5037 L -7.93999,54.7
 L -7.94481,54.8963 L -7.95926,55.0921 L -7.98329,55.2869 L -8.01685,55.4804 L -8.05986,55.6719 L -8.11223,55.8611
 L -8.17381,56.0475 L -8.24448,56.2307 L -8.32404,56.4102 L -8.41231,56.5856 L -8.50908,56.7564 L -8.61412,56.9223
 L -8.72716,57.0828 L -8.84795,57.2376 L -8.97618,57.3862 L -9.11157,57.5284 L -9.25375,57.6638 L -9.40242,57.792
 L -9.55719,57.9128 L -9.71771,58.0259 L -9.88358,58.1309 L -10.0544,58.2277 L -10.2298,58.3159 L -10.4093,58.3955
 L -10.5924,58.4662 L -10.7789,58.5278 L -10.9681,58.5801 L -11.1596,58.6231 L -11.3531,58.6567 L -11.5479,58.6807
 L -11.7437,58.6952 L -11.94,58.7 z
M -33.0517,70.1558 L -33.2231,70.1431 L -33.3936,70.1221 L -33.5628,70.0927 L -33.7304,70.0551 L -33.896,70.0093
 L -34.0591,69.9554 L -34.2194,69.8936 L -34.3764,69.824 L -34.5299,69.7467 L -34.6794,69.662 L -34.8245,69.5701
 L -34.9649,69.4712 L -35.1004,69.3655 L -35.2305,69.2533 L -35.3549,69.1349 L -35.4733,69.0105 L -35.5855,68.8804
 L -35.6912,68.7449 L -35.7901,68.6045 L -35.882,68.4594 L -35.9667,68.3099 L -36.044,68.1564 L -36.1136,67.9994
 L -36.1754,67.8391 L -36.2293,67.676 L -36.2751,67.5104 L -36.3127,67.3428 L -36.3421,67.1736 L -36.3631,67.0031
 L -36.3758,66.8317 L -36.38,66.66 L -36.3758,66.4883 L -36.3631,66.3169 L -36.3421,66.1464 L -36.3127,65.9772
 L -36.2751,65.8096 L -36.2293,65.644 L -36.1754,65.4809 L -36.1136,65.3206 L -36.044,65.1636 L -35.9667,65.0101
 L -35.882,64.8606 L -35.7901,64.7155 L -35.6912,64.575 L -35.5855,64.4396 L -35.4733,64.3095 L -35.3549,64.1851
 L -35.2305,64.0667 L -35.1004,63.9545 L -34.9649,63.8488 L -34.8245,63.7498 L -34.6794,63.6579 L -34.5299,63.5733
 L -34.3764,63.496 L -34.2194,63.4264 L -34.0591,63.3646 L -33.896,63.3107 L -33.7304,63.2649 L -33.5628,63.2272
 L -33.3936,63.1979 L -33.2231,63.1768 L -33.0517,63.1642 L -32.88,63.16 L -32.7083,63.1642 L -32.5369,63.1768
 L -32.3664,63.1979 L -32.1972,63.2272 L -32.0296,63.2649 L -31.864,63.3107 L -31.7009,63.3646 L -31.5406,63.4264
 L -31.3835,63.496 L -31.2301,63.5733 L -31.0806,63.6579 L -30.9355,63.7498 L -30.795,63.8488 L -30.6596,63.9545
 L -30.5295,64.0667 L -30.4051,64.1851 L -30.2867,64.3095 L -30.1745,64.4396 L -30.0688,64.575 L -29.9698,64.7155
 L -29.8779,64.8606 L -29.7933,65.0101 L -29.716,65.1636 L -29.6464,65.3206 L -29.5846,65.4809 L -29.5307,65.644
 L -29.4849,65.8096 L -29.4473,65.9772 L -29.4179,66.1464 L -29.3969,66.3169 L -29.3842,66.4883 L -29.38,66.66
 L -29.3842,66.8317 L -29.3969,67.0031 L -29.4179,67.1736 L -29.4473,67.3428 L -29.4849,67.5104 L -29.5307,67.676
 L -29.5846,67.8391 L -29.6464,67.9994 L -29.716,68.1564 L -29.7933,68.3099 L -29.8779,68.4594 L -29.9698,68.6045
 L -30.0688,68.7449 L -30.1745,68.8804 L -30.2867,69.0105 L -30.4051,69.1349 L -30.5295,69.2533 L -30.6596,69.3655
 L -30.795,69.4712 L -30.9355,69.5701 L -31.0806,69.662 L -31.2301,69.7467 L -31.3835,69.824 L -31.5406,69.8936
 L -31.7009,69.9554 L -31.864,70.0093 L -32.0296,70.0551 L -32.1972,70.0927 L -32.3664,70.1221 L -32.5369,70.1431
 L -32.7083,70.1558 L -32.88,70.16 z
M -23.0581,80.3876 L -23.156,80.3804 L -23.2534,80.3683 L -23.3502,80.3516 L -23.446,80.3301 L -23.5406,80.3039
 L -23.6338,80.2731 L -23.7254,80.2378 L -23.8151,80.198 L -23.9028,80.1538 L -23.9882,80.1055 L -24.0711,80.0529
 L -24.1514,79.9964 L -24.2288,79.936 L -24.3031,79.8719 L -24.3742,79.8042 L -24.4419,79.7331 L -24.506,79.6588
 L -24.5664,79.5814 L -24.6229,79.5011 L -24.6754,79.4182 L -24.7238,79.3328 L -24.768,79.2451 L -24.8078,79.1554
 L -24.8431,79.0638 L -24.8739,78.9706 L -24.9001,78.876 L -24.9216,78.7802 L -24.9383,78.6835 L -24.9504,78.586
 L -24.9576,78.4881 L -24.96,78.39 L -24.9576,78.2919 L -24.9504,78.194 L -24.9383,78.0965 L -24.9216,77.9998
 L -24.9001,77.904 L -24.8739,77.8094 L -24.8431,77.7162 L -24.8078,77.6246 L -24.768,77.5349 L -24.7238,77.4472
 L -24.6754,77.3618 L -24.6229,77.2789 L -24.5664,77.1986 L -24.506,77.1212 L -24.4419,77.0469 L -24.3742,76.9758
 L -24.3031,76.9081 L -24.2288,76.844 L -24.1514,76.7836 L -24.0711,76.7271 L -23.9882,76.6745 L -23.9028,76.6262
 L -23.8151,76.582 L -23.7254,76.5422 L -23.6338,76.5069 L -23.5406,76.4761 L -23.446,76.4499 L -23.3502,76.4284
 L -23.2534,76.4116 L -23.156,76.3996 L -23.0581,76.3924 L -22.96,76.39 L -22.8619,76.3924 L -22.764,76.3996
 L -22.6665,76.4116 L -22.5698,76.4284 L -22.474,76.4499 L -22.3794,76.4761 L -22.2862,76.5069 L -22.1946,76.5422
 L -22.1049,76.582 L -22.0172,76.6262 L -21.9318,76.6745 L -21.8488,76.7271 L -21.7686,76.7836 L -21.6912,76.844
 L -21.6169,76.9081 L -21.5458,76.9758 L -21.4781,77.0469 L -21.414,77.1212 L -21.3536,77.1986 L -21.2971,77.2789
 L -21.2445,77.3618 L -21.1962,77.4472 L -21.152,77.5349 L -21.1122,77.6246 L -21.0769,77.7162 L -21.0461,77.8094
 L -21.0199,77.904 L -20.9984,77.9998 L -20.9816,78.0965 L -20.9696,78.194 L -20.9624,78.2919 L -20.96,78.39
 L -20.9624,78.4881 L -20.9696,78.586 L -20.9816,78.6835 L -20.9984,78.7802 L -21.0199,78.876 L -21.0461,78.9706
 L -21.0769,79.0638 L -21.1122,79.1554 L -21.152,79.2451 L -21.1962,79.3328 L -21.2445,79.4182 L -21.2971,79.5011
 L -21.3536,79.5814 L -21.414,79.6588 L -21.4781,79.7331 L -21.5458,79.8042 L -21.6169,79.8719 L -21.6912,79.936
 L -21.7686,79.9964 L -21.8488,80.0529 L -21.9318,80.1055 L -22.0172,80.1538 L -22.1049,80.198 L -22.1946,80.2378
 L -22.2862,80.2731 L -22.3794,80.3039 L -22.474,80.3301 L -22.5698,80.3516 L -22.6665,80.3683 L -22.764,80.3804
 L -22.8619,80.3876 L -22.96,80.39 z
M -34.0817,84.6458 L -34.2531,84.6331 L -34.4236,84.6121 L -34.5928,84.5827 L -34.7604,84.5451 L -34.926,84.4993
 L -35.0891,84.4454 L -35.2494,84.3836 L -35.4064,84.314 L -35.5599,84.2367 L -35.7094,84.1521 L -35.8545,84.0601
 L -35.9949,83.9612 L -36.1304,83.8555 L -36.2605,83.7433 L -36.3849,83.6249 L -36.5033,83.5005 L -36.6155,83.3704
 L -36.7212,83.2349 L -36.8201,83.0945 L -36.912,82.9494 L -36.9967,82.7999 L -37.074,82.6464 L -37.1436,82.4894
 L -37.2054,82.3291 L -37.2593,82.166 L -37.3051,82.0004 L -37.3427,81.8328 L -37.3721,81.6636 L -37.3931,81.4931
 L -37.4058,81.3217 L -37.41,81.15 L -37.4058,80.9783 L -37.3931,80.8069 L -37.3721,80.6364 L -37.3427,80.4672
 L -37.3051,80.2996 L -37.2593,80.134 L -37.2054,79.9709 L -37.1436,79.8106 L -37.074,79.6535 L -36.9967,79.5001
 L -36.912,79.3506 L -36.8201,79.2055 L -36.7212,79.065 L -36.6155,78.9296 L -36.5033,78.7995 L -36.3849,78.6751
 L -36.2605,78.5567 L -36.1304,78.4445 L -35.9949,78.3388 L -35.8545,78.2399 L -35.7094,78.1479 L -35.5599,78.0633
 L -35.4064,77.986 L -35.2494,77.9164 L -35.0891,77.8546 L -34.926,77.8007 L -34.7604,77.7549 L -34.5928,77.7173
 L -34.4236,77.6879 L -34.2531,77.6669 L -34.0817,77.6542 L -33.91,77.65 L -33.7383,77.6542 L -33.5669,77.6669
 L -33.3964,77.6879 L -33.2272,77.7173 L -33.0596,77.7549 L -32.894,77.8007 L -32.7309,77.8546 L -32.5706,77.9164
 L -32.4136,77.986 L -32.2601,78.0633 L -32.1106,78.1479 L -31.9655,78.2399 L -31.825,78.3388 L -31.6896,78.4445
 L -31.5595,78.5567 L -31.4351,78.6751 L -31.3167,78.7995 L -31.2045,78.9296 L -31.0988,79.065 L -30.9998,79.2055
 L -30.9079,79.3506 L -30.8233,79.5001 L -30.746,79.6535 L -30.6764,79.8106 L -30.6146,79.9709 L -30.5607,80.134
 L -30.5149,80.2996 L -30.4772,80.4672 L -30.4479,80.6364 L -30.4268,80.8069 L -30.4142,80.9783 L -30.41,81.15
 L -30.4142,81.3217 L -30.4268,81.4931 L -30.4479,81.6636 L -30.4772,81.8328 L -30.5149,82.0004 L -30.5607,82.166
 L -30.6146,82.3291 L -30.6764,82.4894 L -30.746,82.6464 L -30.8233,82.7999 L -30.9079,82.9494 L -30.9998,83.0945
 L -31.0988,83.2349 L -31.2045,83.3704 L -31.3167,83.5005 L -31.4351,83.6249 L -31.5595,83.7433 L -31.6896,83.8555
 L -31.825,83.9612 L -31.9655,84.0601 L -32.1106,84.1521 L -32.2601,84.2367 L -32.4136,84.314 L -32.5706,84.3836
 L -32.7309,84.4454 L -32.894,84.4993 L -33.0596,84.5451 L -33.2272,84.5827 L -33.3964,84.6121 L -33.5669,84.6331
 L -33.7383,84.6458 L -33.91,84.65 z
M -6.91173,84.6458 L -7.08305,84.6331 L -7.25356,84.6121 L -7.42281,84.5827 L -7.59042,84.5451 L -7.75598,84.4993
 L -7.91911,84.4454 L -8.07939,84.3836 L -8.23643,84.314 L -8.38988,84.2367 L -8.53935,84.1521 L -8.68449,84.0601
 L -8.82494,83.9612 L -8.96037,83.8555 L -9.09045,83.7433 L -9.21486,83.6249 L -9.33333,83.5005 L -9.44553,83.3704
 L -9.55122,83.2349 L -9.65013,83.0945 L -9.74203,82.9494 L -9.82672,82.7999 L -9.90396,82.6464 L -9.97357,82.4894
 L -10.0354,82.3291 L -10.0893,82.166 L -10.1351,82.0004 L -10.1727,81.8328 L -10.2021,81.6636 L -10.2231,81.4931
 L -10.2358,81.3217 L -10.24,81.15 L -10.2358,80.9783 L -10.2231,80.8069 L -10.2021,80.6364 L -10.1727,80.4672
 L -10.1351,80.2996 L -10.0893,80.134 L -10.0354,79.9709 L -9.97357,79.8106 L -9.90396,79.6535 L -9.82672,79.5001
 L -9.74203,79.3506 L -9.65013,79.2055 L -9.55122,79.065 L -9.44553,78.9296 L -9.33333,78.7995 L -9.21486,78.6751
 L -9.09045,78.5567 L -8.96037,78.4445 L -8.82494,78.3388 L -8.68449,78.2399 L -8.53935,78.1479 L -8.38988,78.0633
 L -8.23643,77.986 L -8.07939,77.9164 L -7.91911,77.8546 L -7.75598,77.8007 L -7.59042,77.7549 L -7.42281,77.7173
 L -7.25356,77.6879 L -7.08305,77.6669 L -6.91173,77.6542 L -6.73999,77.65 L -6.56825,77.6542 L -6.39693,77.6669
 L -6.22644,77.6879 L -6.05717,77.7173 L -5.88956,77.7549 L -5.724,77.8007 L -5.56088,77.8546 L -5.4006,77.9164
 L -5.24355,77.986 L -5.0901,78.0633 L -4.94063,78.1479 L -4.7955,78.2399 L -4.65504,78.3388 L -4.51962,78.4445
 L -4.38954,78.5567 L -4.26512,78.6751 L -4.14667,78.7995 L -4.03445,78.9296 L -3.92877,79.065 L -3.82985,79.2055
 L -3.73795,79.3506 L -3.65327,79.5001 L -3.57603,79.6535 L -3.50641,79.8106 L -3.4446,79.9709 L -3.3907,80.134
 L -3.34488,80.2996 L -3.30725,80.4672 L -3.27788,80.6364 L -3.25685,80.8069 L -3.2442,80.9783 L -3.23999,81.15
 L -3.2442,81.3217 L -3.25685,81.4931 L -3.27788,81.6636 L -3.30725,81.8328 L -3.34488,82.0004 L -3.3907,82.166
 L -3.4446,82.3291 L -3.50641,82.4894 L -3.57603,82.6464 L -3.65327,82.7999 L -3.73795,82.9494 L -3.82985,83.0945
 L -3.92877,83.2349 L -4.03445,83.3704 L -4.14667,83.5005 L -4.26512,83.6249 L -4.38954,83.7433 L -4.51962,83.8555
 L -4.65504,83.9612 L -4.7955,84.0601 L -4.94063,84.1521 L -5.0901,84.2367 L -5.24355,84.314 L -5.4006,84.3836
 L -5.56088,84.4454 L -5.724,84.4993 L -5.88956,84.5451 L -6.05717,84.5827 L -6.22644,84.6121 L -6.39693,84.6331
 L -6.56825,84.6458 L -6.73999,84.65 z
M -17.7981,85.8876 L -17.896,85.8804 L -17.9935,85.8683 L -18.0902,85.8516 L -18.186,85.8301 L -18.2806,85.8039
 L -18.3738,85.7731 L -18.4654,85.7378 L -18.5551,85.698 L -18.6428,85.6538 L -18.7282,85.6055 L -18.8111,85.5529
 L -18.8914,85.4964 L -18.9688,85.436 L -19.0431,85.3719 L -19.1142,85.3042 L -19.1819,85.2331 L -19.246,85.1588
 L -19.3064,85.0814 L -19.3629,85.0011 L -19.4155,84.9182 L -19.4638,84.8328 L -19.508,84.7451 L -19.5478,84.6554
 L -19.5831,84.5638 L -19.6139,84.4706 L -19.6401,84.376 L -19.6616,84.2802 L -19.6783,84.1835 L -19.6904,84.086
 L -19.6976,83.9881 L -19.7,83.89 L -19.6976,83.7919 L -19.6904,83.694 L -19.6783,83.5965 L -19.6616,83.4998
 L -19.6401,83.404 L -19.6139,83.3094 L -19.5831,83.2162 L -19.5478,83.1246 L -19.508,83.0349 L -19.4638,82.9472
 L -19.4155,82.8618 L -19.3629,82.7789 L -19.3064,82.6986 L -19.246,82.6212 L -19.1819,82.5469 L -19.1142,82.4758
 L -19.0431,82.4081 L -18.9688,82.344 L -18.8914,82.2836 L -18.8111,82.2271 L -18.7282,82.1745 L -18.6428,82.1262
 L -18.5551,82.082 L -18.4654,82.0422 L -18.3738,82.0069 L -18.2806,81.9761 L -18.186,81.9499 L -18.0902,81.9284
 L -17.9935,81.9116 L -17.896,81.8996 L -17.7981,81.8924 L -17.7,81.89 L -17.6019,81.8924 L -17.504,81.8996
 L -17.4065,81.9116 L -17.3098,81.9284 L -17.214,81.9499 L -17.1194,81.9761 L -17.0262,82.0069 L -16.9346,82.0422
 L -16.8449,82.082 L -16.7572,82.1262 L -16.6718,82.1745 L -16.5889,82.2271 L -16.5086,82.2836 L -16.4312,82.344
 L -16.3569,82.4081 L -16.2858,82.4758 L -16.2181,82.5469 L -16.154,82.6212 L -16.0936,82.6986 L -16.037,82.7789
 L -15.9845,82.8618 L -15.9362,82.9472 L -15.892,83.0349 L -15.8522,83.1246 L -15.8169,83.2162 L -15.7861,83.3094
 L -15.7599,83.404 L -15.7384,83.4998 L -15.7216,83.5965 L -15.7096,83.694 L -15.7024,83.7919 L -15.7,83.89
 L -15.7024,83.9881 L -15.7096,84.086 L -15.7216,84.1835 L -15.7384,84.2802 L -15.7599,84.376 L -15.7861,84.4706
 L -15.8169,84.5638 L -15.8522,84.6554 L -15.892,84.7451 L -15.9362,84.8328 L -15.9845,84.9182 L -16.037,85.0011
 L -16.0936,85.0814 L -16.154,85.1588 L -16.2181,85.2331 L -16.2858,85.3042 L -16.3569,85.3719 L -16.4312,85.436
 L -16.5086,85.4964 L -16.5889,85.5529 L -16.6718,85.6055 L -16.7572,85.6538 L -16.8449,85.698 L -16.9346,85.7378
 L -17.0262,85.7731 L -17.1194,85.8039 L -17.214,85.8301 L -17.3098,85.8516 L -17.4065,85.8683 L -17.504,85.8804
 L -17.6019,85.8876 L -17.7,85.89 z
M -23.0581,90.9376 L -23.156,90.9304 L -23.2534,90.9184 L -23.3502,90.9016 L -23.446,90.8801 L -23.5406,90.8539
 L -23.6338,90.8231 L -23.7254,90.7878 L -23.8151,90.748 L -23.9028,90.7038 L -23.9882,90.6555 L -24.0711,90.6029
 L -24.1514,90.5464 L -24.2288,90.486 L -24.3031,90.4219 L -24.3742,90.3542 L -24.4419,90.2831 L -24.506,90.2088
 L -24.5664,90.1314 L -24.6229,90.0511 L -24.6754,89.9682 L -24.7238,89.8828 L -24.768,89.7951 L -24.8078,89.7054
 L -24.8431,89.6138 L -24.8739,89.5206 L -24.9001,89.4259 L -24.9216,89.3302 L -24.9383,89.2335 L -24.9504,89.136
 L -24.9576,89.0381 L -24.96,88.94 L -24.9576,88.8419 L -24.9504,88.744 L -24.9383,88.6465 L -24.9216,88.5498
 L -24.9001,88.454 L -24.8739,88.3594 L -24.8431,88.2662 L -24.8078,88.1746 L -24.768,88.0849 L -24.7238,87.9972
 L -24.6754,87.9118 L -24.6229,87.8289 L -24.5664,87.7486 L -24.506,87.6712 L -24.4419,87.5969 L -24.3742,87.5258
 L -24.3031,87.4581 L -24.2288,87.394 L -24.1514,87.3336 L -24.0711,87.2771 L -23.9882,87.2245 L -23.9028,87.1761
 L -23.8151,87.132 L -23.7254,87.0922 L -23.6338,87.0569 L -23.5406,87.0261 L -23.446,86.9999 L -23.3502,86.9784
 L -23.2534,86.9616 L -23.156,86.9496 L -23.0581,86.9424 L -22.96,86.94 L -22.8619,86.9424 L -22.764,86.9496
 L -22.6665,86.9616 L -22.5698,86.9784 L -22.474,86.9999 L -22.3794,87.0261 L -22.2862,87.0569 L -22.1946,87.0922
 L -22.1049,87.132 L -22.0172,87.1761 L -21.9318,87.2245 L -21.8488,87.2771 L -21.7686,87.3336 L -21.6912,87.394
 L -21.6169,87.4581 L -21.5458,87.5258 L -21.4781,87.5969 L -21.414,87.6712 L -21.3536,87.7486 L -21.2971,87.8289
 L -21.2445,87.9118 L -21.1962,87.9972 L -21.152,88.0849 L -21.1122,88.1746 L -21.0769,88.2662 L -21.0461,88.3594
 L -21.0199,88.454 L -20.9984,88.5498 L -20.9816,88.6465 L -20.9696,88.744 L -20.9624,88.8419 L -20.96,88.94
 L -20.9624,89.0381 L -20.9696,89.136 L -20.9816,89.2335 L -20.9984,89.3302 L -21.0199,89.4259 L -21.0461,89.5206
 L -21.0769,89.6138 L -21.1122,89.7054 L -21.152,89.7951 L -21.1962,89.8828 L -21.2445,89.9682 L -21.2971,90.0511
 L -21.3536,90.1314 L -21.414,90.2088 L -21.4781,90.2831 L -21.5458,90.3542 L -21.6169,90.4219 L -21.6912,90.486
 L -21.7686,90.5464 L -21.8488,90.6029 L -21.9318,90.6555 L -22.0172,90.7038 L -22.1049,90.748 L -22.1946,90.7878
 L -22.2862,90.8231 L -22.3794,90.8539 L -22.474,90.8801 L -22.5698,90.9016 L -22.6665,90.9184 L -22.764,90.9304
 L -22.8619,90.9376 L -22.96,90.94 z
M -34.0817,95.1958 L -34.2531,95.1831 L -34.4236,95.1621 L -34.5928,95.1328 L -34.7604,95.0951 L -34.926,95.0493
 L -35.0891,94.9954 L -35.2494,94.9336 L -35.4064,94.864 L -35.5599,94.7867 L -35.7094,94.702 L -35.8545,94.6101
 L -35.9949,94.5112 L -36.1304,94.4055 L -36.2605,94.2933 L -36.3849,94.1749 L -36.5033,94.0504 L -36.6155,93.9204
 L -36.7212,93.7849 L -36.8201,93.6445 L -36.912,93.4994 L -36.9967,93.3499 L -37.074,93.1964 L -37.1436,93.0394
 L -37.2054,92.8791 L -37.2593,92.716 L -37.3051,92.5504 L -37.3427,92.3828 L -37.3721,92.2135 L -37.3931,92.0431
 L -37.4058,91.8717 L -37.41,91.7 L -37.4058,91.5283 L -37.3931,91.3569 L -37.3721,91.1864 L -37.3427,91.0172
 L -37.3051,90.8496 L -37.2593,90.684 L -37.2054,90.5209 L -37.1436,90.3606 L -37.074,90.2036 L -36.9967,90.0501
 L -36.912,89.9006 L -36.8201,89.7555 L -36.7212,89.6151 L -36.6155,89.4796 L -36.5033,89.3495 L -36.3849,89.2251
 L -36.2605,89.1067 L -36.1304,88.9945 L -35.9949,88.8888 L -35.8545,88.7899 L -35.7094,88.698 L -35.5599,88.6133
 L -35.4064,88.536 L -35.2494,88.4664 L -35.0891,88.4046 L -34.926,88.3507 L -34.7604,88.3049 L -34.5928,88.2672
 L -34.4236,88.2379 L -34.2531,88.2168 L -34.0817,88.2042 L -33.91,88.2 L -33.7383,88.2042 L -33.5669,88.2168
 L -33.3964,88.2379 L -33.2272,88.2672 L -33.0596,88.3049 L -32.894,88.3507 L -32.7309,88.4046 L -32.5706,88.4664
 L -32.4136,88.536 L -32.2601,88.6133 L -32.1106,88.698 L -31.9655,88.7899 L -31.825,88.8888 L -31.6896,88.9945
 L -31.5595,89.1067 L -31.4351,89.2251 L -31.3167,89.3495 L -31.2045,89.4796 L -31.0988,89.6151 L -30.9998,89.7555
 L -30.9079,89.9006 L -30.8233,90.0501 L -30.746,90.2036 L -30.6764,90.3606 L -30.6146,90.5209 L -30.5607,90.684
 L -30.5149,90.8496 L -30.4772,91.0172 L -30.4479,91.1864 L -30.4268,91.3569 L -30.4142,91.5283 L -30.41,91.7
 L -30.4142,91.8717 L -30.4268,92.0431 L -30.4479,92.2135 L -30.4772,92.3828 L -30.5149,92.5504 L -30.5607,92.716
 L -30.6146,92.8791 L -30.6764,93.0394 L -30.746,93.1964 L -30.8233,93.3499 L -30.9079,93.4994 L -30.9998,93.6445
 L -31.0988,93.7849 L -31.2045,93.9204 L -31.3167,94.0504 L -31.4351,94.1749 L -31.5595,94.2933 L -31.6896,94.4055
 L -31.825,94.5112 L -31.9655,94.6101 L -32.1106,94.702 L -32.2601,94.7867 L -32.4136,94.864 L -32.5706,94.9336
 L -32.7309,94.9954 L -32.894,95.0493 L -33.0596,95.0951 L -33.2272,95.1328 L -33.3964,95.1621 L -33.5669,95.1831
 L -33.7383,95.1958 L -33.91,95.2 z
M -6.91173,95.1958 L -7.08305,95.1831 L -7.25356,95.1621 L -7.42281,95.1328 L -7.59042,95.0951 L -7.75598,95.0493
 L -7.91911,94.9954 L -8.07939,94.9336 L -8.23643,94.864 L -8.38988,94.7867 L -8.53935,94.702 L -8.68449,94.6101
 L -8.82494,94.5112 L -8.96037,94.4055 L -9.09045,94.2933 L -9.21486,94.1749 L -9.33333,94.0504 L -9.44553,93.9204
 L -9.55122,93.7849 L -9.65013,93.6445 L -9.74203,93.4994 L -9.82672,93.3499 L -9.90396,93.1964 L -9.97357,93.0394
 L -10.0354,92.8791 L -10.0893,92.716 L -10.1351,92.5504 L -10.1727,92.3828 L -10.2021,92.2135 L -10.2231,92.0431
 L -10.2358,91.8717 L -10.24,91.7 L -10.2358,91.5283 L -10.2231,91.3569 L -10.2021,91.1864 L -10.1727,91.0172
 L -10.1351,90.8496 L -10.0893,90.684 L -10.0354,90.5209 L -9.97357,90.3606 L -9.90396,90.2036 L -9.82672,90.0501
 L -9.74203,89.9006 L -9.65013,89.7555 L -9.55122,89.6151 L -9.44553,89.4796 L -9.33333,89.3495 L -9.21486,89.2251
 L -9.09045,89.1067 L -8.96037,88.9945 L -8.82494,88.8888 L -8.68449,88.7899 L -8.53935,88.698 L -8.38988,88.6133
 L -8.23643,88.536 L -8.07939,88.4664 L -7.91911,88.4046 L -7.75598,88.3507 L -7.59042,88.3049 L -7.42281,88.2672
 L -7.25356,88.2379 L -7.08305,88.2168 L -6.91173,88.2042 L -6.73999,88.2 L -6.56825,88.2042 L -6.39693,88.2168
 L -6.22644,88.2379 L -6.05717,88.2672 L -5.88956,88.3049 L -5.724,88.3507 L -5.56088,88.4046 L -5.4006,88.4664
 L -5.24355,88.536 L -5.0901,88.6133 L -4.94063,88.698 L -4.7955,88.7899 L -4.65504,88.8888 L -4.51962,88.9945
 L -4.38954,89.1067 L -4.26512,89.2251 L -4.14667,89.3495 L -4.03445,89.4796 L -3.92877,89.6151 L -3.82985,89.7555
 L -3.73795,89.9006 L -3.65327,90.0501 L -3.57603,90.2036 L -3.50641,90.3606 L -3.4446,90.5209 L -3.3907,90.684
 L -3.34488,90.8496 L -3.30725,91.0172 L -3.27788,91.1864 L -3.25685,91.3569 L -3.2442,91.5283 L -3.23999,91.7
 L -3.2442,91.8717 L -3.25685,92.0431 L -3.27788,92.2135 L -3.30725,92.3828 L -3.34488,92.5504 L -3.3907,92.716
 L -3.4446,92.8791 L -3.50641,93.0394 L -3.57603,93.1964 L -3.65327,93.3499 L -3.73795,93.4994 L -3.82985,93.6445
 L -3.92877,93.7849 L -4.03445,93.9204 L -4.14667,94.0504 L -4.26512,94.1749 L -4.38954,94.2933 L -4.51962,94.4055
 L -4.65504,94.5112 L -4.7955,94.6101 L -4.94063,94.702 L -5.0901,94.7867 L -5.24355,94.864 L -5.4006,94.9336
 L -5.56088,94.9954 L -5.724,95.0493 L -5.88956,95.0951 L -6.05717,95.1328 L -6.22644,95.1621 L -6.39693,95.1831
 L -6.56825,95.1958 L -6.73999,95.2 z
M -17.7981,96.4376 L -17.896,96.4304 L -17.9935,96.4184 L -18.0902,96.4016 L -18.186,96.3801 L -18.2806,96.3539
 L -18.3738,96.3231 L -18.4654,96.2878 L -18.5551,96.248 L -18.6428,96.2038 L -18.7282,96.1555 L -18.8111,96.1029
 L -18.8914,96.0464 L -18.9688,95.986 L -19.0431,95.9219 L -19.1142,95.8542 L -19.1819,95.7831 L -19.246,95.7088
 L -19.3064,95.6314 L -19.3629,95.5511 L -19.4155,95.4682 L -19.4638,95.3828 L -19.508,95.2951 L -19.5478,95.2054
 L -19.5831,95.1138 L -19.6139,95.0206 L -19.6401,94.9259 L -19.6616,94.8302 L -19.6783,94.7335 L -19.6904,94.636
 L -19.6976,94.5381 L -19.7,94.44 L -19.6976,94.3419 L -19.6904,94.244 L -19.6783,94.1465 L -19.6616,94.0498
 L -19.6401,93.954 L -19.6139,93.8594 L -19.5831,93.7662 L -19.5478,93.6746 L -19.508,93.5849 L -19.4638,93.4972
 L -19.4155,93.4118 L -19.3629,93.3289 L -19.3064,93.2486 L -19.246,93.1712 L -19.1819,93.0969 L -19.1142,93.0258
 L -19.0431,92.9581 L -18.9688,92.894 L -18.8914,92.8336 L -18.8111,92.7771 L -18.7282,92.7245 L -18.6428,92.6761
 L -18.5551,92.632 L -18.4654,92.5922 L -18.3738,92.5569 L -18.2806,92.5261 L -18.186,92.4999 L -18.0902,92.4784
 L -17.9935,92.4616 L -17.896,92.4496 L -17.7981,92.4424 L -17.7,92.44 L -17.6019,92.4424 L -17.504,92.4496
 L -17.4065,92.4616 L -17.3098,92.4784 L -17.214,92.4999 L -17.1194,92.5261 L -17.0262,92.5569 L -16.9346,92.5922
 L -16.8449,92.632 L -16.7572,92.6761 L -16.6718,92.7245 L -16.5889,92.7771 L -16.5086,92.8336 L -16.4312,92.894
 L -16.3569,92.9581 L -16.2858,93.0258 L -16.2181,93.0969 L -16.154,93.1712 L -16.0936,93.2486 L -16.037,93.3289
 L -15.9845,93.4118 L -15.9362,93.4972 L -15.892,93.5849 L -15.8522,93.6746 L -15.8169,93.7662 L -15.7861,93.8594
 L -15.7599,93.954 L -15.7384,94.0498 L -15.7216,94.1465 L -15.7096,94.244 L -15.7024,94.3419 L -15.7,94.44
 L -15.7024,94.5381 L -15.7096,94.636 L -15.7216,94.7335 L -15.7384,94.8302 L -15.7599,94.9259 L -15.7861,95.0206
 L -15.8169,95.1138 L -15.8522,95.2054 L -15.892,95.2951 L -15.9362,95.3828 L -15.9845,95.4682 L -16.037,95.5511
 L -16.0936,95.6314 L -16.154,95.7088 L -16.2181,95.7831 L -16.2858,95.8542 L -16.3569,95.9219 L -16.4312,95.986
 L -16.5086,96.0464 L -16.5889,96.1029 L -16.6718,96.1555 L -16.7572,96.2038 L -16.8449,96.248 L -16.9346,96.2878
 L -17.0262,96.3231 L -17.1194,96.3539 L -17.214,96.3801 L -17.3098,96.4016 L -17.4065,96.4184 L -17.504,96.4304
 L -17.6019,96.4376 L -17.7,96.44 z
M -23.0581,101.418 L -23.156,101.41 L -23.2534,101.398 L -23.3502,101.382 L -23.446,101.36 L -23.5406,101.334
 L -23.6338,101.303 L -23.7254,101.268 L -23.8151,101.228 L -23.9028,101.184 L -23.9882,101.135 L -24.0711,101.083
 L -24.1514,101.026 L -24.2288,100.966 L -24.3031,100.902 L -24.3742,100.834 L -24.4419,100.763 L -24.506,100.689
 L -24.5664,100.611 L -24.6229,100.531 L -24.6754,100.448 L -24.7238,100.363 L -24.768,100.275 L -24.8078,100.185
 L -24.8431,100.094 L -24.8739,100.001 L -24.9001,99.906 L -24.9216,99.8102 L -24.9383,99.7135 L -24.9504,99.616
 L -24.9576,99.5181 L -24.96,99.42 L -24.9576,99.3219 L -24.9504,99.224 L -24.9383,99.1265 L -24.9216,99.0298
 L -24.9001,98.934 L -24.8739,98.8394 L -24.8431,98.7462 L -24.8078,98.6546 L -24.768,98.5649 L -24.7238,98.4772
 L -24.6754,98.3918 L -24.6229,98.3089 L -24.5664,98.2286 L -24.506,98.1512 L -24.4419,98.0769 L -24.3742,98.0058
 L -24.3031,97.9381 L -24.2288,97.874 L -24.1514,97.8136 L -24.0711,97.757 L -23.9882,97.7045 L -23.9028,97.6562
 L -23.8151,97.612 L -23.7254,97.5722 L -23.6338,97.5369 L -23.5406,97.5061 L -23.446,97.4799 L -23.3502,97.4584
 L -23.2534,97.4417 L -23.156,97.4296 L -23.0581,97.4224 L -22.96,97.42 L -22.8619,97.4224 L -22.764,97.4296
 L -22.6665,97.4417 L -22.5698,97.4584 L -22.474,97.4799 L -22.3794,97.5061 L -22.2862,97.5369 L -22.1946,97.5722
 L -22.1049,97.612 L -22.0172,97.6562 L -21.9318,97.7045 L -21.8488,97.757 L -21.7686,97.8136 L -21.6912,97.874
 L -21.6169,97.9381 L -21.5458,98.0058 L -21.4781,98.0769 L -21.414,98.1512 L -21.3536,98.2286 L -21.2971,98.3089
 L -21.2445,98.3918 L -21.1962,98.4772 L -21.152,98.5649 L -21.1122,98.6546 L -21.0769,98.7462 L -21.0461,98.8394
 L -21.0199,98.934 L -20.9984,99.0298 L -20.9816,99.1265 L -20.9696,99.224 L -20.9624,99.3219 L -20.96,99.42
 L -20.9624,99.5181 L -20.9696,99.616 L -20.9816,99.7135 L -20.9984,99.8102 L -21.0199,99.906 L -21.0461,100.001
 L -21.0769,100.094 L -21.1122,100.185 L -21.152,100.275 L -21.1962,100.363 L -21.2445,100.448 L -21.2971,100.531
 L -21.3536,100.611 L -21.414,100.689 L -21.4781,100.763 L -21.5458,100.834 L -21.6169,100.902 L -21.6912,100.966
 L -21.7686,101.026 L -21.8488,101.083 L -21.9318,101.135 L -22.0172,101.184 L -22.1049,101.228 L -22.1946,101.268
 L -22.2862,101.303 L -22.3794,101.334 L -22.474,101.36 L -22.5698,101.382 L -22.6665,101.398 L -22.764,101.41
 L -22.8619,101.418 L -22.96,101.42 z
M -6.91173,105.676 L -7.08305,105.663 L -7.25356,105.642 L -7.42281,105.613 L -7.59042,105.575 L -7.75598,105.529
 L -7.91911,105.475 L -8.07939,105.414 L -8.23643,105.344 L -8.38988,105.267 L -8.53935,105.182 L -8.68449,105.09
 L -8.82494,104.991 L -8.96037,104.886 L -9.09045,104.773 L -9.21486,104.655 L -9.33333,104.53 L -9.44553,104.4
 L -9.55122,104.265 L -9.65013,104.124 L -9.74203,103.979 L -9.82672,103.83 L -9.90396,103.676 L -9.97357,103.519
 L -10.0354,103.359 L -10.0893,103.196 L -10.1351,103.03 L -10.1727,102.863 L -10.2021,102.694 L -10.2231,102.523
 L -10.2358,102.352 L -10.24,102.18 L -10.2358,102.008 L -10.2231,101.837 L -10.2021,101.666 L -10.1727,101.497
 L -10.1351,101.33 L -10.0893,101.164 L -10.0354,101.001 L -9.97357,100.841 L -9.90396,100.684 L -9.82672,100.53
 L -9.74203,100.381 L -9.65013,100.236 L -9.55122,100.095 L -9.44553,99.9596 L -9.33333,99.8295 L -9.21486,99.7051
 L -9.09045,99.5867 L -8.96037,99.4745 L -8.82494,99.3688 L -8.68449,99.2699 L -8.53935,99.1779 L -8.38988,99.0933
 L -8.23643,99.016 L -8.07939,98.9464 L -7.91911,98.8846 L -7.75598,98.8307 L -7.59042,98.7849 L -7.42281,98.7473
 L -7.25356,98.7179 L -7.08305,98.6969 L -6.91173,98.6842 L -6.73999,98.68 L -6.56825,98.6842 L -6.39693,98.6969
 L -6.22644,98.7179 L -6.05717,98.7473 L -5.88956,98.7849 L -5.724,98.8307 L -5.56088,98.8846 L -5.4006,98.9464
 L -5.24355,99.016 L -5.0901,99.0933 L -4.94063,99.1779 L -4.7955,99.2699 L -4.65504,99.3688 L -4.51962,99.4745
 L -4.38954,99.5867 L -4.26512,99.7051 L -4.14667,99.8295 L -4.03445,99.9596 L -3.92877,100.095 L -3.82985,100.236
 L -3.73795,100.381 L -3.65327,100.53 L -3.57603,100.684 L -3.50641,100.841 L -3.4446,101.001 L -3.3907,101.164
 L -3.34488,101.33 L -3.30725,101.497 L -3.27788,101.666 L -3.25685,101.837 L -3.2442,102.008 L -3.23999,102.18
 L -3.2442,102.352 L -3.25685,102.523 L -3.27788,102.694 L -3.30725,102.863 L -3.34488,103.03 L -3.3907,103.196
 L -3.4446,103.359 L -3.50641,103.519 L -3.57603,103.676 L -3.65327,103.83 L -3.73795,103.979 L -3.82985,104.124
 L -3.92877,104.265 L -4.03445,104.4 L -4.14667,104.53 L -4.26512,104.655 L -4.38954,104.773 L -4.51962,104.886
 L -4.65504,104.991 L -4.7955,105.09 L -4.94063,105.182 L -5.0901,105.267 L -5.24355,105.344 L -5.4006,105.414
 L -5.56088,105.475 L -5.724,105.529 L -5.88956,105.575 L -6.05717,105.613 L -6.22644,105.642 L -6.39693,105.663
 L -6.56825,105.676 L -6.73999,105.68 z
M -34.0817,105.676 L -34.2531,105.663 L -34.4236,105.642 L -34.5928,105.613 L -34.7604,105.575 L -34.926,105.529
 L -35.0891,105.475 L -35.2494,105.414 L -35.4064,105.344 L -35.5599,105.267 L -35.7094,105.182 L -35.8545,105.09
 L -35.9949,104.991 L -36.1304,104.886 L -36.2605,104.773 L -36.3849,104.655 L -36.5033,104.53 L -36.6155,104.4
 L -36.7212,104.265 L -36.8201,104.124 L -36.912,103.979 L -36.9967,103.83 L -37.074,103.676 L -37.1436,103.519
 L -37.2054,103.359 L -37.2593,103.196 L -37.3051,103.03 L -37.3427,102.863 L -37.3721,102.694 L -37.3931,102.523
 L -37.4058,102.352 L -37.41,102.18 L -37.4058,102.008 L -37.3931,101.837 L -37.3721,101.666 L -37.3427,101.497
 L -37.3051,101.33 L -37.2593,101.164 L -37.2054,101.001 L -37.1436,100.841 L -37.074,100.684 L -36.9967,100.53
 L -36.912,100.381 L -36.8201,100.236 L -36.7212,100.095 L -36.6155,99.9596 L -36.5033,99.8295 L -36.3849,99.7051
 L -36.2605,99.5867 L -36.1304,99.4745 L -35.9949,99.3688 L -35.8545,99.2699 L -35.7094,99.1779 L -35.5599,99.0933
 L -35.4064,99.016 L -35.2494,98.9464 L -35.0891,98.8846 L -34.926,98.8307 L -34.7604,98.7849 L -34.5928,98.7473
 L -34.4236,98.7179 L -34.2531,98.6969 L -34.0817,98.6842 L -33.91,98.68 L -33.7383,98.6842 L -33.5669,98.6969
 L -33.3964,98.7179 L -33.2272,98.7473 L -33.0596,98.7849 L -32.894,98.8307 L -32.7309,98.8846 L -32.5706,98.9464
 L -32.4136,99.016 L -32.2601,99.0933 L -32.1106,99.1779 L -31.9655,99.2699 L -31.825,99.3688 L -31.6896,99.4745
 L -31.5595,99.5867 L -31.4351,99.7051 L -31.3167,99.8295 L -31.2045,99.9596 L -31.0988,100.095 L -30.9998,100.236
 L -30.9079,100.381 L -30.8233,100.53 L -30.746,100.684 L -30.6764,100.841 L -30.6146,101.001 L -30.5607,101.164
 L -30.5149,101.33 L -30.4772,101.497 L -30.4479,101.666 L -30.4268,101.837 L -30.4142,102.008 L -30.41,102.18
 L -30.4142,102.352 L -30.4268,102.523 L -30.4479,102.694 L -30.4772,102.863 L -30.5149,103.03 L -30.5607,103.196
 L -30.6146,103.359 L -30.6764,103.519 L -30.746,103.676 L -30.8233,103.83 L -30.9079,103.979 L -30.9998,104.124
 L -31.0988,104.265 L -31.2045,104.4 L -31.3167,104.53 L -31.4351,104.655 L -31.5595,104.773 L -31.6896,104.886
 L -31.825,104.991 L -31.9655,105.09 L -32.1106,105.182 L -32.2601,105.267 L -32.4136,105.344 L -32.5706,105.414
 L -32.7309,105.475 L -32.894,105.529 L -33.0596,105.575 L -33.2272,105.613 L -33.3964,105.642 L -33.5669,105.663
 L -33.7383,105.676 L -33.91,105.68 z
M -17.7981,106.918 L -17.896,106.91 L -17.9935,106.898 L -18.0902,106.882 L -18.186,106.86 L -18.2806,106.834
 L -18.3738,106.803 L -18.4654,106.768 L -18.5551,106.728 L -18.6428,106.684 L -18.7282,106.635 L -18.8111,106.583
 L -18.8914,106.526 L -18.9688,106.466 L -19.0431,106.402 L -19.1142,106.334 L -19.1819,106.263 L -19.246,106.189
 L -19.3064,106.111 L -19.3629,106.031 L -19.4155,105.948 L -19.4638,105.863 L -19.508,105.775 L -19.5478,105.685
 L -19.5831,105.594 L -19.6139,105.501 L -19.6401,105.406 L -19.6616,105.31 L -19.6783,105.213 L -19.6904,105.116
 L -19.6976,105.018 L -19.7,104.92 L -19.6976,104.822 L -19.6904,104.724 L -19.6783,104.627 L -19.6616,104.53
 L -19.6401,104.434 L -19.6139,104.339 L -19.5831,104.246 L -19.5478,104.155 L -19.508,104.065 L -19.4638,103.977
 L -19.4155,103.892 L -19.3629,103.809 L -19.3064,103.729 L -19.246,103.651 L -19.1819,103.577 L -19.1142,103.506
 L -19.0431,103.438 L -18.9688,103.374 L -18.8914,103.314 L -18.8111,103.257 L -18.7282,103.205 L -18.6428,103.156
 L -18.5551,103.112 L -18.4654,103.072 L -18.3738,103.037 L -18.2806,103.006 L -18.186,102.98 L -18.0902,102.958
 L -17.9935,102.942 L -17.896,102.93 L -17.7981,102.922 L -17.7,102.92 L -17.6019,102.922 L -17.504,102.93
 L -17.4065,102.942 L -17.3098,102.958 L -17.214,102.98 L -17.1194,103.006 L -17.0262,103.037 L -16.9346,103.072
 L -16.8449,103.112 L -16.7572,103.156 L -16.6718,103.205 L -16.5889,103.257 L -16.5086,103.314 L -16.4312,103.374
 L -16.3569,103.438 L -16.2858,103.506 L -16.2181,103.577 L -16.154,103.651 L -16.0936,103.729 L -16.037,103.809
 L -15.9845,103.892 L -15.9362,103.977 L -15.892,104.065 L -15.8522,104.155 L -15.8169,104.246 L -15.7861,104.339
 L -15.7599,104.434 L -15.7384,104.53 L -15.7216,104.627 L -15.7096,104.724 L -15.7024,104.822 L -15.7,104.92
 L -15.7024,105.018 L -15.7096,105.116 L -15.7216,105.213 L -15.7384,105.31 L -15.7599,105.406 L -15.7861,105.501
 L -15.8169,105.594 L -15.8522,105.685 L -15.892,105.775 L -15.9362,105.863 L -15.9845,105.948 L -16.037,106.031
 L -16.0936,106.111 L -16.154,106.189 L -16.2181,106.263 L -16.2858,106.334 L -16.3569,106.402 L -16.4312,106.466
 L -16.5086,106.526 L -16.5889,106.583 L -16.6718,106.635 L -16.7572,106.684 L -16.8449,106.728 L -16.9346,106.768
 L -17.0262,106.803 L -17.1194,106.834 L -17.214,106.86 L -17.3098,106.882 L -17.4065,106.898 L -17.504,106.91
 L -17.6019,106.918 L -17.7,106.92 z
M -23.0581,112.068 L -23.156,112.06 L -23.2534,112.048 L -23.3502,112.032 L -23.446,112.01 L -23.5406,111.984
 L -23.6338,111.953 L -23.7254,111.918 L -23.8151,111.878 L -23.9028,111.834 L -23.9882,111.785 L -24.0711,111.733
 L -24.1514,111.676 L -24.2288,111.616 L -24.3031,111.552 L -24.3742,111.484 L -24.4419,111.413 L -24.506,111.339
 L -24.5664,111.261 L -24.6229,111.181 L -24.6754,111.098 L -24.7238,111.013 L -24.768,110.925 L -24.8078,110.835
 L -24.8431,110.744 L -24.8739,110.651 L -24.9001,110.556 L -24.9216,110.46 L -24.9383,110.363 L -24.9504,110.266
 L -24.9576,110.168 L -24.96,110.07 L -24.9576,109.972 L -24.9504,109.874 L -24.9383,109.777 L -24.9216,109.68
 L -24.9001,109.584 L -24.8739,109.489 L -24.8431,109.396 L -24.8078,109.305 L -24.768,109.215 L -24.7238,109.127
 L -24.6754,109.042 L -24.6229,108.959 L -24.5664,108.879 L -24.506,108.801 L -24.4419,108.727 L -24.3742,108.656
 L -24.3031,108.588 L -24.2288,108.524 L -24.1514,108.464 L -24.0711,108.407 L -23.9882,108.355 L -23.9028,108.306
 L -23.8151,108.262 L -23.7254,108.222 L -23.6338,108.187 L -23.5406,108.156 L -23.446,108.13 L -23.3502,108.108
 L -23.2534,108.092 L -23.156,108.08 L -23.0581,108.072 L -22.96,108.07 L -22.8619,108.072 L -22.764,108.08
 L -22.6665,108.092 L -22.5698,108.108 L -22.474,108.13 L -22.3794,108.156 L -22.2862,108.187 L -22.1946,108.222
 L -22.1049,108.262 L -22.0172,108.306 L -21.9318,108.355 L -21.8488,108.407 L -21.7686,108.464 L -21.6912,108.524
 L -21.6169,108.588 L -21.5458,108.656 L -21.4781,108.727 L -21.414,108.801 L -21.3536,108.879 L -21.2971,108.959
 L -21.2445,109.042 L -21.1962,109.127 L -21.152,109.215 L -21.1122,109.305 L -21.0769,109.396 L -21.0461,109.489
 L -21.0199,109.584 L -20.9984,109.68 L -20.9816,109.777 L -20.9696,109.874 L -20.9624,109.972 L -20.96,110.07
 L -20.9624,110.168 L -20.9696,110.266 L -20.9816,110.363 L -20.9984,110.46 L -21.0199,110.556 L -21.0461,110.651
 L -21.0769,110.744 L -21.1122,110.835 L -21.152,110.925 L -21.1962,111.013 L -21.2445,111.098 L -21.2971,111.181
 L -21.3536,111.261 L -21.414,111.339 L -21.4781,111.413 L -21.5458,111.484 L -21.6169,111.552 L -21.6912,111.616
 L -21.7686,111.676 L -21.8488,111.733 L -21.9318,111.785 L -22.0172,111.834 L -22.1049,111.878 L -22.1946,111.918
 L -22.2862,111.953 L -22.3794,111.984 L -22.474,112.01 L -22.5698,112.032 L -22.6665,112.048 L -22.764,112.06
 L -22.8619,112.068 L -22.96,112.07 z
M -34.0817,116.326 L -34.2531,116.313 L -34.4236,116.292 L -34.5928,116.263 L -34.7604,116.225 L -34.926,116.179
 L -35.0891,116.125 L -35.2494,116.064 L -35.4064,115.994 L -35.5599,115.917 L -35.7094,115.832 L -35.8545,115.74
 L -35.9949,115.641 L -36.1304,115.536 L -36.2605,115.423 L -36.3849,115.305 L -36.5033,115.18 L -36.6155,115.05
 L -36.7212,114.915 L -36.8201,114.774 L -36.912,114.629 L -36.9967,114.48 L -37.074,114.326 L -37.1436,114.169
 L -37.2054,114.009 L -37.2593,113.846 L -37.3051,113.68 L -37.3427,113.513 L -37.3721,113.344 L -37.3931,113.173
 L -37.4058,113.002 L -37.41,112.83 L -37.4058,112.658 L -37.3931,112.487 L -37.3721,112.316 L -37.3427,112.147
 L -37.3051,111.98 L -37.2593,111.814 L -37.2054,111.651 L -37.1436,111.491 L -37.074,111.334 L -36.9967,111.18
 L -36.912,111.031 L -36.8201,110.885 L -36.7212,110.745 L -36.6155,110.61 L -36.5033,110.48 L -36.3849,110.355
 L -36.2605,110.237 L -36.1304,110.124 L -35.9949,110.019 L -35.8545,109.92 L -35.7094,109.828 L -35.5599,109.743
 L -35.4064,109.666 L -35.2494,109.596 L -35.0891,109.535 L -34.926,109.481 L -34.7604,109.435 L -34.5928,109.397
 L -34.4236,109.368 L -34.2531,109.347 L -34.0817,109.334 L -33.91,109.33 L -33.7383,109.334 L -33.5669,109.347
 L -33.3964,109.368 L -33.2272,109.397 L -33.0596,109.435 L -32.894,109.481 L -32.7309,109.535 L -32.5706,109.596
 L -32.4136,109.666 L -32.2601,109.743 L -32.1106,109.828 L -31.9655,109.92 L -31.825,110.019 L -31.6896,110.124
 L -31.5595,110.237 L -31.4351,110.355 L -31.3167,110.48 L -31.2045,110.61 L -31.0988,110.745 L -30.9998,110.885
 L -30.9079,111.031 L -30.8233,111.18 L -30.746,111.334 L -30.6764,111.491 L -30.6146,111.651 L -30.5607,111.814
 L -30.5149,111.98 L -30.4772,112.147 L -30.4479,112.316 L -30.4268,112.487 L -30.4142,112.658 L -30.41,112.83
 L -30.4142,113.002 L -30.4268,113.173 L -30.4479,113.344 L -30.4772,113.513 L -30.5149,113.68 L -30.5607,113.846
 L -30.6146,114.009 L -30.6764,114.169 L -30.746,114.326 L -30.8233,114.48 L -30.9079,114.629 L -30.9998,114.774
 L -31.0988,114.915 L -31.2045,115.05 L -31.3167,115.18 L -31.4351,115.305 L -31.5595,115.423 L -31.6896,115.536
 L -31.825,115.641 L -31.9655,115.74 L -32.1106,115.832 L -32.2601,115.917 L -32.4136,115.994 L -32.5706,116.064
 L -32.7309,116.125 L -32.894,116.179 L -33.0596,116.225 L -33.2272,116.263 L -33.3964,116.292 L -33.5669,116.313
 L -33.7383,116.326 L -33.91,116.33 z
M -6.91173,116.326 L -7.08305,116.313 L -7.25356,116.292 L -7.42281,116.263 L -7.59042,116.225 L -7.75598,116.179
 L -7.91911,116.125 L -8.07939,116.064 L -8.23643,115.994 L -8.38988,115.917 L -8.53935,115.832 L -8.68449,115.74
 L -8.82494,115.641 L -8.96037,115.536 L -9.09045,115.423 L -9.21486,115.305 L -9.33333,115.18 L -9.44553,115.05
 L -9.55122,114.915 L -9.65013,114.774 L -9.74203,114.629 L -9.82672,114.48 L -9.90396,114.326 L -9.97357,114.169
 L -10.0354,114.009 L -10.0893,113.846 L -10.1351,113.68 L -10.1727,113.513 L -10.2021,113.344 L -10.2231,113.173
 L -10.2358,113.002 L -10.24,112.83 L -10.2358,112.658 L -10.2231,112.487 L -10.2021,112.316 L -10.1727,112.147
 L -10.1351,111.98 L -10.0893,111.814 L -10.0354,111.651 L -9.97357,111.491 L -9.90396,111.334 L -9.82672,111.18
 L -9.74203,111.031 L -9.65013,110.885 L -9.55122,110.745 L -9.44553,110.61 L -9.33333,110.48 L -9.21486,110.355
 L -9.09045,110.237 L -8.96037,110.124 L -8.82494,110.019 L -8.68449,109.92 L -8.53935,109.828 L -8.38988,109.743
 L -8.23643,109.666 L -8.07939,109.596 L -7.91911,109.535 L -7.75598,109.481 L -7.59042,109.435 L -7.42281,109.397
 L -7.25356,109.368 L -7.08305,109.347 L -6.91173,109.334 L -6.73999,109.33 L -6.56825,109.334 L -6.39693,109.347
 L -6.22644,109.368 L -6.05717,109.397 L -5.88956,109.435 L -5.724,109.481 L -5.56088,109.535 L -5.4006,109.596
 L -5.24355,109.666 L -5.0901,109.743 L -4.94063,109.828 L -4.7955,109.92 L -4.65504,110.019 L -4.51962,110.124
 L -4.38954,110.237 L -4.26512,110.355 L -4.14667,110.48 L -4.03445,110.61 L -3.92877,110.745 L -3.82985,110.885
 L -3.73795,111.031 L -3.65327,111.18 L -3.57603,111.334 L -3.50641,111.491 L -3.4446,111.651 L -3.3907,111.814
 L -3.34488,111.98 L -3.30725,112.147 L -3.27788,112.316 L -3.25685,112.487 L -3.2442,112.658 L -3.23999,112.83
 L -3.2442,113.002 L -3.25685,113.173 L -3.27788,113.344 L -3.30725,113.513 L -3.34488,113.68 L -3.3907,113.846
 L -3.4446,114.009 L -3.50641,114.169 L -3.57603,114.326 L -3.65327,114.48 L -3.73795,114.629 L -3.82985,114.774
 L -3.92877,114.915 L -4.03445,115.05 L -4.14667,115.18 L -4.26512,115.305 L -4.38954,115.423 L -4.51962,115.536
 L -4.65504,115.641 L -4.7955,115.74 L -4.94063,115.832 L -5.0901,115.917 L -5.24355,115.994 L -5.4006,116.064
 L -5.56088,116.125 L -5.724,116.179 L -5.88956,116.225 L -6.05717,116.263 L -6.22644,116.292 L -6.39693,116.313
 L -6.56825,116.326 L -6.73999,116.33 z
M -17.7981,117.568 L -17.896,117.56 L -17.9935,117.548 L -18.0902,117.532 L -18.186,117.51 L -18.2806,117.484
 L -18.3738,117.453 L -18.4654,117.418 L -18.5551,117.378 L -18.6428,117.334 L -18.7282,117.285 L -18.8111,117.233
 L -18.8914,117.176 L -18.9688,117.116 L -19.0431,117.052 L -19.1142,116.984 L -19.1819,116.913 L -19.246,116.839
 L -19.3064,116.761 L -19.3629,116.681 L -19.4155,116.598 L -19.4638,116.513 L -19.508,116.425 L -19.5478,116.335
 L -19.5831,116.244 L -19.6139,116.151 L -19.6401,116.056 L -19.6616,115.96 L -19.6783,115.863 L -19.6904,115.766
 L -19.6976,115.668 L -19.7,115.57 L -19.6976,115.472 L -19.6904,115.374 L -19.6783,115.277 L -19.6616,115.18
 L -19.6401,115.084 L -19.6139,114.989 L -19.5831,114.896 L -19.5478,114.805 L -19.508,114.715 L -19.4638,114.627
 L -19.4155,114.542 L -19.3629,114.459 L -19.3064,114.379 L -19.246,114.301 L -19.1819,114.227 L -19.1142,114.156
 L -19.0431,114.088 L -18.9688,114.024 L -18.8914,113.964 L -18.8111,113.907 L -18.7282,113.855 L -18.6428,113.806
 L -18.5551,113.762 L -18.4654,113.722 L -18.3738,113.687 L -18.2806,113.656 L -18.186,113.63 L -18.0902,113.608
 L -17.9935,113.592 L -17.896,113.58 L -17.7981,113.572 L -17.7,113.57 L -17.6019,113.572 L -17.504,113.58
 L -17.4065,113.592 L -17.3098,113.608 L -17.214,113.63 L -17.1194,113.656 L -17.0262,113.687 L -16.9346,113.722
 L -16.8449,113.762 L -16.7572,113.806 L -16.6718,113.855 L -16.5889,113.907 L -16.5086,113.964 L -16.4312,114.024
 L -16.3569,114.088 L -16.2858,114.156 L -16.2181,114.227 L -16.154,114.301 L -16.0936,114.379 L -16.037,114.459
 L -15.9845,114.542 L -15.9362,114.627 L -15.892,114.715 L -15.8522,114.805 L -15.8169,114.896 L -15.7861,114.989
 L -15.7599,115.084 L -15.7384,115.18 L -15.7216,115.277 L -15.7096,115.374 L -15.7024,115.472 L -15.7,115.57
 L -15.7024,115.668 L -15.7096,115.766 L -15.7216,115.863 L -15.7384,115.96 L -15.7599,116.056 L -15.7861,116.151
 L -15.8169,116.244 L -15.8522,116.335 L -15.892,116.425 L -15.9362,116.513 L -15.9845,116.598 L -16.037,116.681
 L -16.0936,116.761 L -16.154,116.839 L -16.2181,116.913 L -16.2858,116.984 L -16.3569,117.052 L -16.4312,117.116
 L -16.5086,117.176 L -16.5889,117.233 L -16.6718,117.285 L -16.7572,117.334 L -16.8449,117.378 L -16.9346,117.418
 L -17.0262,117.453 L -17.1194,117.484 L -17.214,117.51 L -17.3098,117.532 L -17.4065,117.548 L -17.504,117.56
 L -17.6019,117.568 L -17.7,117.57 z
M -6.01999,126.688 L -6.51442,126.609 L -6.96045,126.382 L -7.31442,126.028 L -7.54169,125.582 L -7.62,125.087
 L -7.54169,124.593 L -7.31442,124.147 L -6.96045,123.793 L -6.51442,123.566 L -6.01999,123.488 L -4.14,123.488
 L -3.64557,123.566 L -3.19954,123.793 L -2.84557,124.147 L -2.6183,124.593 L -2.53999,125.087 L -2.6183,125.582
 L -2.84557,126.028 L -3.19954,126.382 L -3.64557,126.609 L -4.14,126.688 z
M -35.56,126.688 L -36.0544,126.609 L -36.5004,126.382 L -36.8544,126.028 L -37.0817,125.582 L -37.16,125.087
 L -37.0817,124.593 L -36.8544,124.147 L -36.5004,123.793 L -36.0544,123.566 L -35.56,123.488 L -33.68,123.488
 L -33.1856,123.566 L -32.7395,123.793 L -32.3856,124.147 L -32.1583,124.593 L -32.08,125.087 L -32.1583,125.582
 L -32.3856,126.028 L -32.7395,126.382 L -33.1856,126.609 L -33.68,126.688 z
" stroke="black" fill="lightgray" stroke-width="0.5"/>
</svg>
