<?xml version="1.0" standalone="no"?>
 <!DOCTYPE svg PUBLIC "-//W3C//DTD SVG 1.1//EN" 
 "http://www.w3.org/Graphics/SVG/1.1/DTD/svg11.dtd"> 
<svg
  xmlns:svg="http://www.w3.org/2000/svg"
  xmlns="http://www.w3.org/2000/svg"
  xmlns:xlink="http://www.w3.org/1999/xlink"
  version="1.1"
  width="4.069080cm" height="10.807700cm" viewBox="0 0 40690800 108077000">
<title>SVG Picture created as useq-B_Courtyard.svg date 2023/03/27 21:02:20 </title>
  <desc>Picture generated by PCBNEW </desc>
<g style="fill:#000000; fill-opacity:1.000000;stroke:#000000; stroke-opacity:1.000000;
stroke-linecap:round; stroke-linejoin:round;"
 transform="translate(0 0) scale(1 1)">
</g>
<g style="fill:#000000; fill-opacity:0.0; 
stroke:#000000; stroke-width:0.000000; stroke-opacity:1; 
stroke-linecap:round; stroke-linejoin:round;">
</g>
<g style="fill:#848484; fill-opacity:0.0; 
stroke:#848484; stroke-width:0.000000; stroke-opacity:1; 
stroke-linecap:round; stroke-linejoin:round;">
</g>
<g style="fill:#848484; fill-opacity:0.0; 
stroke:#848484; stroke-width:120000.000000; stroke-opacity:1; 
stroke-linecap:round; stroke-linejoin:round;">
<path d="M11840800 49800000
L11840800 63000000
" />
<path d="M3940800 49800000
L3940800 63000000
" />
<path d="M11840800 63000000
L3940800 63000000
" />
<path d="M11840800 49800000
L3940800 49800000
" />
<circle cx="28740800.000000" cy="16500000.000000" r="5200000.000000" /> 
</g>
<g style="fill:#848484; fill-opacity:0.0; 
stroke:#848484; stroke-width:50000.000000; stroke-opacity:1; 
stroke-linecap:round; stroke-linejoin:round;">
<path d="M15315800 102000000
L20165800 102000000
" />
<path d="M20165800 102000000
L20165800 97500000
" />
<path d="M20165800 97500000
L15315800 97500000
" />
<path d="M15315800 97500000
L15315800 102000000
" />
<path d="M15315800 66000000
L15315800 70500000
" />
<path d="M15315800 70500000
L20165800 70500000
" />
<path d="M20165800 70500000
L20165800 66000000
" />
<path d="M20165800 66000000
L15315800 66000000
" />
<path d="M29390800 4650000
L29390800 1150000
" />
<path d="M34090800 4650000
L34090800 1150000
" />
<path d="M29390800 4650000
L34090800 4650000
" />
<path d="M29390800 1150000
L34090800 1150000
" />
</g>
<g style="fill:#848484; fill-opacity:0.0; 
stroke:#848484; stroke-width:120000.000000; stroke-opacity:1; 
stroke-linecap:round; stroke-linejoin:round;">
<circle cx="28740800.000000" cy="44500000.000000" r="5200000.000000" /> 
</g>
<g style="fill:#848484; fill-opacity:0.0; 
stroke:#848484; stroke-width:50000.000000; stroke-opacity:1; 
stroke-linecap:round; stroke-linejoin:round;">
<path d="M260800 107500000
L14660800 107500000
" />
<path d="M14660800 107500000
L14660800 97500000
" />
<path d="M260800 107500000
L260800 97500000
" />
<path d="M260800 97500000
L14660800 97500000
" />
<path d="M25390800 103000000
L20540800 103000000
" />
<path d="M20540800 103000000
L20540800 107500000
" />
<path d="M20540800 107500000
L25390800 107500000
" />
<path d="M25390800 107500000
L25390800 103000000
" />
<path d="M14660800 86500000
L14660800 76500000
" />
<path d="M260800 86500000
L14660800 86500000
" />
<path d="M260800 86500000
L260800 76500000
" />
<path d="M260800 76500000
L14660800 76500000
" />
<path d="M20540800 76000000
L25390800 76000000
" />
<path d="M25390800 71500000
L20540800 71500000
" />
<path d="M20540800 71500000
L20540800 76000000
" />
<path d="M25390800 76000000
L25390800 71500000
" />
<path d="M26040800 76500000
L26040800 86500000
" />
<path d="M40440800 86500000
L26040800 86500000
" />
<path d="M40440800 76500000
L40440800 86500000
" />
<path d="M40440800 76500000
L26040800 76500000
" />
<path d="M20540800 86500000
L25390800 86500000
" />
<path d="M20540800 82000000
L20540800 86500000
" />
<path d="M25390800 86500000
L25390800 82000000
" />
<path d="M25390800 82000000
L20540800 82000000
" />
<path d="M14660800 76000000
L14660800 66000000
" />
<path d="M260800 76000000
L14660800 76000000
" />
<path d="M260800 76000000
L260800 66000000
" />
<path d="M260800 66000000
L14660800 66000000
" />
<path d="M40440800 107500000
L26040800 107500000
" />
<path d="M26040800 97500000
L26040800 107500000
" />
<path d="M40440800 97500000
L26040800 97500000
" />
<path d="M40440800 97500000
L40440800 107500000
" />
<path d="M40440800 97000000
L26040800 97000000
" />
<path d="M40440800 87000000
L40440800 97000000
" />
<path d="M40440800 87000000
L26040800 87000000
" />
<path d="M26040800 87000000
L26040800 97000000
" />
<path d="M20540800 92500000
L20540800 97000000
" />
<path d="M25390800 92500000
L20540800 92500000
" />
<path d="M25390800 97000000
L25390800 92500000
" />
<path d="M20540800 97000000
L25390800 97000000
" />
<path d="M20165800 91500000
L20165800 87000000
" />
<path d="M15315800 87000000
L15315800 91500000
" />
<path d="M20165800 87000000
L15315800 87000000
" />
<path d="M15315800 91500000
L20165800 91500000
" />
<path d="M16090800 47000000
L1390800 47000000
" />
<path d="M1390800 47000000
L1390800 30000000
" />
<path d="M16090800 30000000
L16090800 47000000
" />
<path d="M1390800 30000000
L16090800 30000000
" />
<path d="M40440800 76000000
L26040800 76000000
" />
<path d="M40440800 66000000
L26040800 66000000
" />
<path d="M26040800 66000000
L26040800 76000000
" />
<path d="M40440800 66000000
L40440800 76000000
" />
<path d="M15315800 81000000
L20165800 81000000
" />
<path d="M20165800 81000000
L20165800 76500000
" />
<path d="M20165800 76500000
L15315800 76500000
" />
<path d="M15315800 76500000
L15315800 81000000
" />
</g>
<g style="fill:#848484; fill-opacity:0.0; 
stroke:#848484; stroke-width:120000.000000; stroke-opacity:1; 
stroke-linecap:round; stroke-linejoin:round;">
<path d="M35440800 34600000
L35440800 26700000
" />
<path d="M35440800 34600000
L22240800 34600000
" />
<path d="M22240800 34600000
L22240800 26700000
" />
<path d="M35440800 26700000
L22240800 26700000
" />
</g>
<g style="fill:#848484; fill-opacity:0.0; 
stroke:#848484; stroke-width:50000.000000; stroke-opacity:1; 
stroke-linecap:round; stroke-linejoin:round;">
<path d="M14660800 97000000
L14660800 87000000
" />
<path d="M260800 97000000
L14660800 97000000
" />
<path d="M260800 97000000
L260800 87000000
" />
<path d="M260800 87000000
L14660800 87000000
" />
<g >
</g>
<g >
</g>
<g >
</g>
<g >
</g>
<g >
</g>
<g >
</g>
<g >
</g>
<g >
</g>
<g >
</g>
<g >
</g>
<g >
</g>
<g >
</g>
<g >
</g>
<g >
</g>
<g >
</g>
<g >
</g>
<g >
</g>
<g >
</g>
<g >
</g>
<g >
</g>
<g >
</g>
<g >
</g>
<g >
</g>
<g >
</g>
<g >
</g>
<g >
</g>
<g >
</g>
<g >
</g>
<g >
</g>
<g >
</g>
<g >
</g>
<g >
</g>
<g >
</g>
<g >
</g>
<g >
</g>
<g >
</g>
<g >
</g>
<g >
</g>
<g >
</g>
<g >
</g>
<g >
</g>
<g >
</g>
<g >
</g>
<g >
</g>
<g >
</g>
<g >
</g>
<g >
</g>
<g >
</g>
<g >
</g>
<g >
</g>
<g >
</g>
<g >
</g>
<g >
</g>
<g >
</g>
<g >
</g>
<g >
</g>
<g >
</g>
<g >
</g>
<g >
</g>
<g >
</g>
<g >
</g>
<g >
</g>
</g>
<g style="fill:#000000; fill-opacity:0.0; 
stroke:#000000; stroke-width:50000.000000; stroke-opacity:1; 
stroke-linecap:round; stroke-linejoin:round;">
</g>
<g style="fill:#C2C200; fill-opacity:0.0; 
stroke:#C2C200; stroke-width:50000.000000; stroke-opacity:1; 
stroke-linecap:round; stroke-linejoin:round;">
</g>
<g style="fill:#C2C200; fill-opacity:0.0; 
stroke:#C2C200; stroke-width:100000.000000; stroke-opacity:1; 
stroke-linecap:round; stroke-linejoin:round;">
<path d="M40640800 50000
L40800 50000
" />
<path d="M40800 50000
L40800 108050000
" />
<path d="M40800 108050000
L40640800 108050000
" />
<path d="M40640800 108050000
L40640800 50000
" />
<g >
</g>
<g >
</g>
<g >
</g>
<g >
</g>
<g >
</g>
<g >
</g>
<g >
</g>
<g >
</g>
<g >
</g>
<g >
</g>
<g >
</g>
<g >
</g>
<g >
</g>
<g >
</g>
<g >
</g>
<g >
</g>
<g >
</g>
<g >
</g>
<g >
</g>
<g >
</g>
<g >
</g>
<g >
</g>
<g >
</g>
<g >
</g>
<g >
</g>
<g >
</g>
<g >
</g>
<g >
</g>
<g >
</g>
<g >
</g>
<g >
</g>
<g >
</g>
<g >
</g>
<g >
</g>
<g >
</g>
<g >
</g>
<g >
</g>
<g >
</g>
<g >
</g>
<g >
</g>
<g >
</g>
<g >
</g>
<g >
</g>
<g >
</g>
<g >
</g>
<g >
</g>
<g >
</g>
<g >
</g>
<g >
</g>
<g >
</g>
<g >
</g>
<g >
</g>
<g >
</g>
<g >
</g>
<g >
</g>
<g >
</g>
<g >
</g>
<g >
</g>
<g >
</g>
<g >
</g>
<g >
</g>
<g >
</g>
</g> 
</svg>
