<?xml version="1.0" standalone="no"?>
 <!DOCTYPE svg PUBLIC "-//W3C//DTD SVG 1.1//EN" 
 "http://www.w3.org/Graphics/SVG/1.1/DTD/svg11.dtd"> 
<svg
  xmlns:svg="http://www.w3.org/2000/svg"
  xmlns="http://www.w3.org/2000/svg"
  xmlns:xlink="http://www.w3.org/1999/xlink"
  version="1.1"
  width="4.069080cm" height="10.807700cm" viewBox="0 0 40690800 108077000">
<title>SVG Picture created as useq-brd.svg date 2023/03/27 21:02:36 </title>
  <desc>Picture generated by PCBNEW </desc>
<g style="fill:#000000; fill-opacity:1.000000;stroke:#000000; stroke-opacity:1.000000;
stroke-linecap:round; stroke-linejoin:round;"
 transform="translate(0 0) scale(1 1)">
</g>
<g style="fill:#000000; fill-opacity:0.0; 
stroke:#000000; stroke-width:0.000000; stroke-opacity:1; 
stroke-linecap:round; stroke-linejoin:round;">
</g>
<g style="fill:#848484; fill-opacity:0.0; 
stroke:#848484; stroke-width:0.000000; stroke-opacity:1; 
stroke-linecap:round; stroke-linejoin:round;">
</g>
<g style="fill:#848484; fill-opacity:0.0; 
stroke:#848484; stroke-width:120000.000000; stroke-opacity:1; 
stroke-linecap:round; stroke-linejoin:round;">
<path d="M11840800 49800000
L11840800 63000000
" />
<path d="M3940800 49800000
L3940800 63000000
" />
<path d="M11840800 63000000
L3940800 63000000
" />
<path d="M11840800 49800000
L3940800 49800000
" />
<circle cx="28740800.000000" cy="16500000.000000" r="5200000.000000" /> 
</g>
<g style="fill:#848484; fill-opacity:0.0; 
stroke:#848484; stroke-width:50000.000000; stroke-opacity:1; 
stroke-linecap:round; stroke-linejoin:round;">
<path d="M15315800 102000000
L20165800 102000000
" />
<path d="M20165800 102000000
L20165800 97500000
" />
<path d="M20165800 97500000
L15315800 97500000
" />
<path d="M15315800 97500000
L15315800 102000000
" />
<path d="M15315800 66000000
L15315800 70500000
" />
<path d="M15315800 70500000
L20165800 70500000
" />
<path d="M20165800 70500000
L20165800 66000000
" />
<path d="M20165800 66000000
L15315800 66000000
" />
<path d="M29390800 4650000
L29390800 1150000
" />
<path d="M34090800 4650000
L34090800 1150000
" />
<path d="M29390800 4650000
L34090800 4650000
" />
<path d="M29390800 1150000
L34090800 1150000
" />
</g>
<g style="fill:#848484; fill-opacity:0.0; 
stroke:#848484; stroke-width:120000.000000; stroke-opacity:1; 
stroke-linecap:round; stroke-linejoin:round;">
<circle cx="28740800.000000" cy="44500000.000000" r="5200000.000000" /> 
</g>
<g style="fill:#848484; fill-opacity:0.0; 
stroke:#848484; stroke-width:50000.000000; stroke-opacity:1; 
stroke-linecap:round; stroke-linejoin:round;">
<path d="M260800 107500000
L14660800 107500000
" />
<path d="M14660800 107500000
L14660800 97500000
" />
<path d="M260800 107500000
L260800 97500000
" />
<path d="M260800 97500000
L14660800 97500000
" />
<path d="M25390800 103000000
L20540800 103000000
" />
<path d="M20540800 103000000
L20540800 107500000
" />
<path d="M20540800 107500000
L25390800 107500000
" />
<path d="M25390800 107500000
L25390800 103000000
" />
<path d="M14660800 86500000
L14660800 76500000
" />
<path d="M260800 86500000
L14660800 86500000
" />
<path d="M260800 86500000
L260800 76500000
" />
<path d="M260800 76500000
L14660800 76500000
" />
<path d="M20540800 76000000
L25390800 76000000
" />
<path d="M25390800 71500000
L20540800 71500000
" />
<path d="M20540800 71500000
L20540800 76000000
" />
<path d="M25390800 76000000
L25390800 71500000
" />
<path d="M26040800 76500000
L26040800 86500000
" />
<path d="M40440800 86500000
L26040800 86500000
" />
<path d="M40440800 76500000
L40440800 86500000
" />
<path d="M40440800 76500000
L26040800 76500000
" />
<path d="M20540800 86500000
L25390800 86500000
" />
<path d="M20540800 82000000
L20540800 86500000
" />
<path d="M25390800 86500000
L25390800 82000000
" />
<path d="M25390800 82000000
L20540800 82000000
" />
<path d="M14660800 76000000
L14660800 66000000
" />
<path d="M260800 76000000
L14660800 76000000
" />
<path d="M260800 76000000
L260800 66000000
" />
<path d="M260800 66000000
L14660800 66000000
" />
<path d="M40440800 107500000
L26040800 107500000
" />
<path d="M26040800 97500000
L26040800 107500000
" />
<path d="M40440800 97500000
L26040800 97500000
" />
<path d="M40440800 97500000
L40440800 107500000
" />
<path d="M40440800 97000000
L26040800 97000000
" />
<path d="M40440800 87000000
L40440800 97000000
" />
<path d="M40440800 87000000
L26040800 87000000
" />
<path d="M26040800 87000000
L26040800 97000000
" />
<path d="M20540800 92500000
L20540800 97000000
" />
<path d="M25390800 92500000
L20540800 92500000
" />
<path d="M25390800 97000000
L25390800 92500000
" />
<path d="M20540800 97000000
L25390800 97000000
" />
<path d="M20165800 91500000
L20165800 87000000
" />
<path d="M15315800 87000000
L15315800 91500000
" />
<path d="M20165800 87000000
L15315800 87000000
" />
<path d="M15315800 91500000
L20165800 91500000
" />
<path d="M16090800 47000000
L1390800 47000000
" />
<path d="M1390800 47000000
L1390800 30000000
" />
<path d="M16090800 30000000
L16090800 47000000
" />
<path d="M1390800 30000000
L16090800 30000000
" />
<path d="M40440800 76000000
L26040800 76000000
" />
<path d="M40440800 66000000
L26040800 66000000
" />
<path d="M26040800 66000000
L26040800 76000000
" />
<path d="M40440800 66000000
L40440800 76000000
" />
<path d="M15315800 81000000
L20165800 81000000
" />
<path d="M20165800 81000000
L20165800 76500000
" />
<path d="M20165800 76500000
L15315800 76500000
" />
<path d="M15315800 76500000
L15315800 81000000
" />
</g>
<g style="fill:#848484; fill-opacity:0.0; 
stroke:#848484; stroke-width:120000.000000; stroke-opacity:1; 
stroke-linecap:round; stroke-linejoin:round;">
<path d="M35440800 34600000
L35440800 26700000
" />
<path d="M35440800 34600000
L22240800 34600000
" />
<path d="M22240800 34600000
L22240800 26700000
" />
<path d="M35440800 26700000
L22240800 26700000
" />
</g>
<g style="fill:#848484; fill-opacity:0.0; 
stroke:#848484; stroke-width:50000.000000; stroke-opacity:1; 
stroke-linecap:round; stroke-linejoin:round;">
<path d="M14660800 97000000
L14660800 87000000
" />
<path d="M260800 97000000
L14660800 97000000
" />
<path d="M260800 97000000
L260800 87000000
" />
<path d="M260800 87000000
L14660800 87000000
" />
<g >
</g>
<g >
</g>
<g >
</g>
<g >
</g>
<g >
</g>
<g >
</g>
<g >
</g>
<g >
</g>
<g >
</g>
<g >
</g>
<g >
</g>
<g >
</g>
<g >
</g>
<g >
</g>
<g >
</g>
<g >
</g>
<g >
</g>
<g >
</g>
<g >
</g>
<g >
</g>
<g >
</g>
<g >
</g>
<g >
</g>
<g >
</g>
<g >
</g>
<g >
</g>
<g >
</g>
<g >
</g>
<g >
</g>
<g >
</g>
<g >
</g>
<g >
</g>
<g >
</g>
<g >
</g>
<g >
</g>
<g >
</g>
<g >
</g>
<g >
</g>
<g >
</g>
<g >
</g>
<g >
</g>
<g >
</g>
<g >
</g>
<g >
</g>
<g >
</g>
<g >
</g>
<g >
</g>
<g >
</g>
<g >
</g>
<g >
</g>
<g >
</g>
<g >
</g>
<g >
</g>
<g >
</g>
<g >
</g>
<g >
</g>
<g >
</g>
<g >
</g>
<g >
</g>
<g >
</g>
<g >
</g>
<g >
</g>
</g>
<g style="fill:#000000; fill-opacity:0.0; 
stroke:#000000; stroke-width:50000.000000; stroke-opacity:1; 
stroke-linecap:round; stroke-linejoin:round;">
</g>
<g style="fill:#840084; fill-opacity:0.0; 
stroke:#840084; stroke-width:50000.000000; stroke-opacity:1; 
stroke-linecap:round; stroke-linejoin:round;">
</g>
<g style="fill:#840084; fill-opacity:0.0; 
stroke:#840084; stroke-width:150000.000000; stroke-opacity:1; 
stroke-linecap:round; stroke-linejoin:round;">
<g transform="rotate(-90.000000 35540800.000000 47000000.000000)">
<text x="35540800.000000" y="47500000.000000"
transform="scale(-1 1) translate(-71081600.000000 0)"
textLength="35185952.000000" font-size="1333333.000000" lengthAdjust="spacingAndGlyphs"
text-anchor="middle" opacity="0">Algorithms are thoughts. Chainsaws are tools.</text>
</g>
<g class="stroked-text"><desc>Algorithms are thoughts. Chainsaws are tools.</desc>
<path d="M35374134 29500000
L35374134 29976190
" />
<path d="M35088420 29404761
L36088420 29738095
L35088420 30071428
" />
<path d="M35088420 30547619
L35136039 30452380
L35231277 30404761
L36088420 30404761
" />
<path d="M35755086 31357142
L34945562 31357142
L34850324 31309523
L34802705 31261904
L34755086 31166666
L34755086 31023809
L34802705 30928571
" />
<path d="M35136039 31357142
L35088420 31261904
L35088420 31071428
L35136039 30976190
L35183658 30928571
L35278896 30880952
L35564610 30880952
L35659848 30928571
L35707467 30976190
L35755086 31071428
L35755086 31261904
L35707467 31357142
" />
<path d="M35088420 31976190
L35136039 31880952
L35183658 31833333
L35278896 31785714
L35564610 31785714
L35659848 31833333
L35707467 31880952
L35755086 31976190
L35755086 32119047
L35707467 32214285
L35659848 32261904
L35564610 32309523
L35278896 32309523
L35183658 32261904
L35136039 32214285
L35088420 32119047
L35088420 31976190
" />
<path d="M35088420 32738095
L35755086 32738095
" />
<path d="M35564610 32738095
L35659848 32785714
L35707467 32833333
L35755086 32928571
L35755086 33023809
" />
<path d="M35088420 33357142
L35755086 33357142
" />
<path d="M36088420 33357142
L36040800 33309523
L35993181 33357142
L36040800 33404761
L36088420 33357142
L35993181 33357142
" />
<path d="M35755086 33690476
L35755086 34071428
" />
<path d="M36088420 33833333
L35231277 33833333
L35136039 33880952
L35088420 33976190
L35088420 34071428
" />
<path d="M35088420 34404761
L36088420 34404761
" />
<path d="M35088420 34833333
L35612229 34833333
L35707467 34785714
L35755086 34690476
L35755086 34547619
L35707467 34452380
L35659848 34404761
" />
<path d="M35088420 35309523
L35755086 35309523
" />
<path d="M35659848 35309523
L35707467 35357142
L35755086 35452380
L35755086 35595238
L35707467 35690476
L35612229 35738095
L35088420 35738095
" />
<path d="M35612229 35738095
L35707467 35785714
L35755086 35880952
L35755086 36023809
L35707467 36119047
L35612229 36166666
L35088420 36166666
" />
<path d="M35136039 36595238
L35088420 36690476
L35088420 36880952
L35136039 36976190
L35231277 37023809
L35278896 37023809
L35374134 36976190
L35421753 36880952
L35421753 36738095
L35469372 36642857
L35564610 36595238
L35612229 36595238
L35707467 36642857
L35755086 36738095
L35755086 36880952
L35707467 36976190
" />
<path d="M35088420 38642857
L35612229 38642857
L35707467 38595238
L35755086 38500000
L35755086 38309523
L35707467 38214285
" />
<path d="M35136039 38642857
L35088420 38547619
L35088420 38309523
L35136039 38214285
L35231277 38166666
L35326515 38166666
L35421753 38214285
L35469372 38309523
L35469372 38547619
L35516991 38642857
" />
<path d="M35088420 39119047
L35755086 39119047
" />
<path d="M35564610 39119047
L35659848 39166666
L35707467 39214285
L35755086 39309523
L35755086 39404761
" />
<path d="M35136039 40119047
L35088420 40023809
L35088420 39833333
L35136039 39738095
L35231277 39690476
L35612229 39690476
L35707467 39738095
L35755086 39833333
L35755086 40023809
L35707467 40119047
L35612229 40166666
L35516991 40166666
L35421753 39690476
" />
<path d="M35755086 41214285
L35755086 41595238
" />
<path d="M36088420 41357142
L35231277 41357142
L35136039 41404761
L35088420 41500000
L35088420 41595238
" />
<path d="M35088420 41928571
L36088420 41928571
" />
<path d="M35088420 42357142
L35612229 42357142
L35707467 42309523
L35755086 42214285
L35755086 42071428
L35707467 41976190
L35659848 41928571
" />
<path d="M35088420 42976190
L35136039 42880952
L35183658 42833333
L35278896 42785714
L35564610 42785714
L35659848 42833333
L35707467 42880952
L35755086 42976190
L35755086 43119047
L35707467 43214285
L35659848 43261904
L35564610 43309523
L35278896 43309523
L35183658 43261904
L35136039 43214285
L35088420 43119047
L35088420 42976190
" />
<path d="M35755086 44166666
L35088420 44166666
" />
<path d="M35755086 43738095
L35231277 43738095
L35136039 43785714
L35088420 43880952
L35088420 44023809
L35136039 44119047
L35183658 44166666
" />
<path d="M35755086 45071428
L34945562 45071428
L34850324 45023809
L34802705 44976190
L34755086 44880952
L34755086 44738095
L34802705 44642857
" />
<path d="M35136039 45071428
L35088420 44976190
L35088420 44785714
L35136039 44690476
L35183658 44642857
L35278896 44595238
L35564610 44595238
L35659848 44642857
L35707467 44690476
L35755086 44785714
L35755086 44976190
L35707467 45071428
" />
<path d="M35088420 45547619
L36088420 45547619
" />
<path d="M35088420 45976190
L35612229 45976190
L35707467 45928571
L35755086 45833333
L35755086 45690476
L35707467 45595238
L35659848 45547619
" />
<path d="M35755086 46309523
L35755086 46690476
" />
<path d="M36088420 46452380
L35231277 46452380
L35136039 46499999
L35088420 46595238
L35088420 46690476
" />
<path d="M35136039 46976190
L35088420 47071428
L35088420 47261904
L35136039 47357142
L35231277 47404761
L35278896 47404761
L35374134 47357142
L35421753 47261904
L35421753 47119047
L35469372 47023809
L35564610 46976190
L35612229 46976190
L35707467 47023809
L35755086 47119047
L35755086 47261904
L35707467 47357142
" />
<path d="M35183658 47833333
L35136039 47880952
L35088420 47833333
L35136039 47785714
L35183658 47833333
L35088420 47833333
" />
<path d="M35183658 49642857
L35136039 49595238
L35088420 49452380
L35088420 49357142
L35136039 49214285
L35231277 49119047
L35326515 49071428
L35516991 49023809
L35659848 49023809
L35850324 49071428
L35945562 49119047
L36040800 49214285
L36088420 49357142
L36088420 49452380
L36040800 49595238
L35993181 49642857
" />
<path d="M35088420 50071428
L36088420 50071428
" />
<path d="M35088420 50499999
L35612229 50499999
L35707467 50452380
L35755086 50357142
L35755086 50214285
L35707467 50119047
L35659848 50071428
" />
<path d="M35088420 51404761
L35612229 51404761
L35707467 51357142
L35755086 51261904
L35755086 51071428
L35707467 50976190
" />
<path d="M35136039 51404761
L35088420 51309523
L35088420 51071428
L35136039 50976190
L35231277 50928571
L35326515 50928571
L35421753 50976190
L35469372 51071428
L35469372 51309523
L35516991 51404761
" />
<path d="M35088420 51880952
L35755086 51880952
" />
<path d="M36088420 51880952
L36040800 51833333
L35993181 51880952
L36040800 51928571
L36088420 51880952
L35993181 51880952
" />
<path d="M35755086 52357142
L35088420 52357142
" />
<path d="M35659848 52357142
L35707467 52404761
L35755086 52499999
L35755086 52642857
L35707467 52738095
L35612229 52785714
L35088420 52785714
" />
<path d="M35136039 53214285
L35088420 53309523
L35088420 53499999
L35136039 53595238
L35231277 53642857
L35278896 53642857
L35374134 53595238
L35421753 53499999
L35421753 53357142
L35469372 53261904
L35564610 53214285
L35612229 53214285
L35707467 53261904
L35755086 53357142
L35755086 53499999
L35707467 53595238
" />
<path d="M35088420 54499999
L35612229 54499999
L35707467 54452380
L35755086 54357142
L35755086 54166666
L35707467 54071428
" />
<path d="M35136039 54499999
L35088420 54404761
L35088420 54166666
L35136039 54071428
L35231277 54023809
L35326515 54023809
L35421753 54071428
L35469372 54166666
L35469372 54404761
L35516991 54499999
" />
<path d="M35755086 54880952
L35088420 55071428
L35564610 55261904
L35088420 55452380
L35755086 55642857
" />
<path d="M35136039 55976190
L35088420 56071428
L35088420 56261904
L35136039 56357142
L35231277 56404761
L35278896 56404761
L35374134 56357142
L35421753 56261904
L35421753 56119047
L35469372 56023809
L35564610 55976190
L35612229 55976190
L35707467 56023809
L35755086 56119047
L35755086 56261904
L35707467 56357142
" />
<path d="M35088420 58023809
L35612229 58023809
L35707467 57976190
L35755086 57880952
L35755086 57690476
L35707467 57595238
" />
<path d="M35136039 58023809
L35088420 57928571
L35088420 57690476
L35136039 57595238
L35231277 57547619
L35326515 57547619
L35421753 57595238
L35469372 57690476
L35469372 57928571
L35516991 58023809
" />
<path d="M35088420 58499999
L35755086 58499999
" />
<path d="M35564610 58499999
L35659848 58547619
L35707467 58595238
L35755086 58690476
L35755086 58785714
" />
<path d="M35136039 59499999
L35088420 59404761
L35088420 59214285
L35136039 59119047
L35231277 59071428
L35612229 59071428
L35707467 59119047
L35755086 59214285
L35755086 59404761
L35707467 59499999
L35612229 59547619
L35516991 59547619
L35421753 59071428
" />
<path d="M35755086 60595238
L35755086 60976190
" />
<path d="M36088420 60738095
L35231277 60738095
L35136039 60785714
L35088420 60880952
L35088420 60976190
" />
<path d="M35088420 61452380
L35136039 61357142
L35183658 61309523
L35278896 61261904
L35564610 61261904
L35659848 61309523
L35707467 61357142
L35755086 61452380
L35755086 61595238
L35707467 61690476
L35659848 61738095
L35564610 61785714
L35278896 61785714
L35183658 61738095
L35136039 61690476
L35088420 61595238
L35088420 61452380
" />
<path d="M35088420 62357142
L35136039 62261904
L35183658 62214285
L35278896 62166666
L35564610 62166666
L35659848 62214285
L35707467 62261904
L35755086 62357142
L35755086 62499999
L35707467 62595238
L35659848 62642857
L35564610 62690476
L35278896 62690476
L35183658 62642857
L35136039 62595238
L35088420 62499999
L35088420 62357142
" />
<path d="M35088420 63261904
L35136039 63166666
L35231277 63119047
L36088420 63119047
" />
<path d="M35136039 63595238
L35088420 63690476
L35088420 63880952
L35136039 63976190
L35231277 64023809
L35278896 64023809
L35374134 63976190
L35421753 63880952
L35421753 63738095
L35469372 63642857
L35564610 63595238
L35612229 63595238
L35707467 63642857
L35755086 63738095
L35755086 63880952
L35707467 63976190
" />
<path d="M35183658 64452380
L35136039 64499999
L35088420 64452380
L35136039 64404761
L35183658 64452380
L35088420 64452380
" />
</g><text x="8540800.000000" y="34700000.000000"
transform="scale(-1 1) translate(-17081600.000000 0)"
textLength="14328810.000000" font-size="1333333.000000" lengthAdjust="spacingAndGlyphs"
text-anchor="middle" opacity="0">(version USEQ 0.2)</text>
<g class="stroked-text"><desc>(version USEQ 0.2)</desc>
<path d="M1802705 35033333
L1755086 34985714
L1659848 34842857
L1612229 34747619
L1564610 34604761
L1516991 34366666
L1516991 34176190
L1564610 33938095
L1612229 33795238
L1659848 33700000
L1755086 33557142
L1802705 33509523
" />
<path d="M2088420 33985714
L2326515 34652380
L2564610 33985714
" />
<path d="M3326515 34604761
L3231277 34652380
L3040800 34652380
L2945562 34604761
L2897943 34509523
L2897943 34128571
L2945562 34033333
L3040800 33985714
L3231277 33985714
L3326515 34033333
L3374134 34128571
L3374134 34223809
L2897943 34319047
" />
<path d="M3802705 34652380
L3802705 33985714
" />
<path d="M3802705 34176190
L3850324 34080952
L3897943 34033333
L3993181 33985714
L4088420 33985714
" />
<path d="M4374134 34604761
L4469372 34652380
L4659848 34652380
L4755086 34604761
L4802705 34509523
L4802705 34461904
L4755086 34366666
L4659848 34319047
L4516991 34319047
L4421753 34271428
L4374134 34176190
L4374134 34128571
L4421753 34033333
L4516991 33985714
L4659848 33985714
L4755086 34033333
" />
<path d="M5231277 34652380
L5231277 33985714
" />
<path d="M5231277 33652380
L5183658 33700000
L5231277 33747619
L5278896 33700000
L5231277 33652380
L5231277 33747619
" />
<path d="M5850324 34652380
L5755086 34604761
L5707467 34557142
L5659848 34461904
L5659848 34176190
L5707467 34080952
L5755086 34033333
L5850324 33985714
L5993181 33985714
L6088420 34033333
L6136039 34080952
L6183658 34176190
L6183658 34461904
L6136039 34557142
L6088420 34604761
L5993181 34652380
L5850324 34652380
" />
<path d="M6612229 33985714
L6612229 34652380
" />
<path d="M6612229 34080952
L6659848 34033333
L6755086 33985714
L6897943 33985714
L6993181 34033333
L7040800 34128571
L7040800 34652380
" />
<path d="M8278896 33652380
L8278896 34461904
L8326515 34557142
L8374134 34604761
L8469372 34652380
L8659848 34652380
L8755086 34604761
L8802705 34557142
L8850324 34461904
L8850324 33652380
" />
<path d="M9278896 34604761
L9421753 34652380
L9659848 34652380
L9755086 34604761
L9802705 34557142
L9850324 34461904
L9850324 34366666
L9802705 34271428
L9755086 34223809
L9659848 34176190
L9469372 34128571
L9374134 34080952
L9326515 34033333
L9278896 33938095
L9278896 33842857
L9326515 33747619
L9374134 33700000
L9469372 33652380
L9707467 33652380
L9850324 33700000
" />
<path d="M10278896 34128571
L10612229 34128571
" />
<path d="M10755086 34652380
L10278896 34652380
L10278896 33652380
L10755086 33652380
" />
<path d="M11850324 34747619
L11755086 34700000
L11659848 34604761
L11516991 34461904
L11421753 34414285
L11326515 34414285
" />
<path d="M11374134 34652380
L11278896 34604761
L11183658 34509523
L11136039 34319047
L11136039 33985714
L11183658 33795238
L11278896 33700000
L11374134 33652380
L11564610 33652380
L11659848 33700000
L11755086 33795238
L11802705 33985714
L11802705 34319047
L11755086 34509523
L11659848 34604761
L11564610 34652380
L11374134 34652380
" />
<path d="M13183658 33652380
L13278896 33652380
L13374134 33700000
L13421753 33747619
L13469372 33842857
L13516991 34033333
L13516991 34271428
L13469372 34461904
L13421753 34557142
L13374134 34604761
L13278896 34652380
L13183658 34652380
L13088420 34604761
L13040800 34557142
L12993181 34461904
L12945562 34271428
L12945562 34033333
L12993181 33842857
L13040800 33747619
L13088420 33700000
L13183658 33652380
" />
<path d="M13945562 34557142
L13993181 34604761
L13945562 34652380
L13897943 34604761
L13945562 34557142
L13945562 34652380
" />
<path d="M14374134 33747619
L14421753 33700000
L14516991 33652380
L14755086 33652380
L14850324 33700000
L14897943 33747619
L14945562 33842857
L14945562 33938095
L14897943 34080952
L14326515 34652380
L14945562 34652380
" />
<path d="M15278896 35033333
L15326515 34985714
L15421753 34842857
L15469372 34747619
L15516991 34604761
L15564610 34366666
L15564610 34176190
L15516991 33938095
L15469372 33795238
L15421753 33700000
L15326515 33557142
L15278896 33509523
" />
</g><text x="5940800.000000" y="49500000.000000"
transform="scale(-1 1) translate(-11881600.000000 0)"
textLength="2852619.000000" font-size="1333333.000000" lengthAdjust="spacingAndGlyphs"
text-anchor="middle" opacity="0">SW3</text>
<g class="stroked-text"><desc>SW3</desc>
<path d="M4607467 49404761
L4750324 49452380
L4988420 49452380
L5083658 49404761
L5131277 49357142
L5178896 49261904
L5178896 49166666
L5131277 49071428
L5083658 49023809
L4988420 48976190
L4797943 48928571
L4702705 48880952
L4655086 48833333
L4607467 48738095
L4607467 48642857
L4655086 48547619
L4702705 48500000
L4797943 48452380
L5036039 48452380
L5178896 48500000
" />
<path d="M5512229 48452380
L5750324 49452380
L5940800 48738095
L6131277 49452380
L6369372 48452380
" />
<path d="M6655086 48452380
L7274134 48452380
L6940800 48833333
L7083658 48833333
L7178896 48880952
L7226515 48928571
L7274134 49023809
L7274134 49261904
L7226515 49357142
L7178896 49404761
L7083658 49452380
L6797943 49452380
L6702705 49404761
L6655086 49357142
" />
</g><text x="7740800.000000" y="64500000.000000"
transform="scale(-1 1) translate(-15481600.000000 0)"
textLength="6328810.000000" font-size="1333333.000000" lengthAdjust="spacingAndGlyphs"
text-anchor="middle" opacity="0">SW_SPST</text>
<g class="stroked-text"><desc>SW_SPST</desc>
<path d="M4669372 64404761
L4812229 64452380
L5050324 64452380
L5145562 64404761
L5193181 64357142
L5240800 64261904
L5240800 64166666
L5193181 64071428
L5145562 64023809
L5050324 63976190
L4859848 63928571
L4764610 63880952
L4716991 63833333
L4669372 63738095
L4669372 63642857
L4716991 63547619
L4764610 63500000
L4859848 63452380
L5097943 63452380
L5240800 63500000
" />
<path d="M5574134 63452380
L5812229 64452380
L6002705 63738095
L6193181 64452380
L6431277 63452380
" />
<path d="M6574134 64547619
L7336039 64547619
" />
<path d="M7526515 64404761
L7669372 64452380
L7907467 64452380
L8002705 64404761
L8050324 64357142
L8097943 64261904
L8097943 64166666
L8050324 64071428
L8002705 64023809
L7907467 63976190
L7716991 63928571
L7621753 63880952
L7574134 63833333
L7526515 63738095
L7526515 63642857
L7574134 63547619
L7621753 63500000
L7716991 63452380
L7955086 63452380
L8097943 63500000
" />
<path d="M8526515 64452380
L8526515 63452380
L8907467 63452380
L9002705 63500000
L9050324 63547619
L9097943 63642857
L9097943 63785714
L9050324 63880952
L9002705 63928571
L8907467 63976190
L8526515 63976190
" />
<path d="M9478896 64404761
L9621753 64452380
L9859848 64452380
L9955086 64404761
L10002705 64357142
L10050324 64261904
L10050324 64166666
L10002705 64071428
L9955086 64023809
L9859848 63976190
L9669372 63928571
L9574134 63880952
L9526515 63833333
L9478896 63738095
L9478896 63642857
L9526515 63547619
L9574134 63500000
L9669372 63452380
L9907467 63452380
L10050324 63500000
" />
<path d="M10336039 63452380
L10907467 63452380
" />
<path d="M10621753 64452380
L10621753 63452380
" />
</g><text x="28740800.000000" y="23400000.000000"
transform="scale(-1 1) translate(-57481600.000000 0)"
textLength="2852619.000000" font-size="1333333.000000" lengthAdjust="spacingAndGlyphs"
text-anchor="middle" opacity="0">SW2</text>
<g class="stroked-text"><desc>SW2</desc>
<path d="M27407467 23304761
L27550324 23352380
L27788420 23352380
L27883658 23304761
L27931277 23257142
L27978896 23161904
L27978896 23066666
L27931277 22971428
L27883658 22923809
L27788420 22876190
L27597943 22828571
L27502705 22780952
L27455086 22733333
L27407467 22638095
L27407467 22542857
L27455086 22447619
L27502705 22400000
L27597943 22352380
L27836039 22352380
L27978896 22400000
" />
<path d="M28312229 22352380
L28550324 23352380
L28740800 22638095
L28931277 23352380
L29169372 22352380
" />
<path d="M29502705 22447619
L29550324 22400000
L29645562 22352380
L29883658 22352380
L29978896 22400000
L30026515 22447619
L30074134 22542857
L30074134 22638095
L30026515 22780952
L29455086 23352380
L30074134 23352380
" />
</g><text x="17735800.000000" y="97290000.000000"
transform="scale(-1 1) translate(-35471600.000000 0)"
textLength="2709762.000000" font-size="1333333.000000" lengthAdjust="spacingAndGlyphs"
text-anchor="middle" opacity="0">D12</text>
<g class="stroked-text"><desc>D12</desc>
<path d="M16521515 97242380
L16521515 96242380
L16759610 96242380
L16902467 96290000
L16997705 96385238
L17045324 96480476
L17092943 96670952
L17092943 96813809
L17045324 97004285
L16997705 97099523
L16902467 97194761
L16759610 97242380
L16521515 97242380
" />
<path d="M18045324 97242380
L17473896 97242380
" />
<path d="M17759610 97242380
L17759610 96242380
L17664372 96385238
L17569134 96480476
L17473896 96528095
" />
<path d="M18426277 96337619
L18473896 96290000
L18569134 96242380
L18807229 96242380
L18902467 96290000
L18950086 96337619
L18997705 96432857
L18997705 96528095
L18950086 96670952
L18378658 97242380
L18997705 97242380
" />
</g><text x="17735800.000000" y="65790000.000000"
transform="scale(-1 1) translate(-35471600.000000 0)"
textLength="1757381.000000" font-size="1333333.000000" lengthAdjust="spacingAndGlyphs"
text-anchor="middle" opacity="0">D6</text>
<g class="stroked-text"><desc>D6</desc>
<path d="M16997705 65742380
L16997705 64742380
L17235800 64742380
L17378658 64790000
L17473896 64885238
L17521515 64980476
L17569134 65170952
L17569134 65313809
L17521515 65504285
L17473896 65599523
L17378658 65694761
L17235800 65742380
L16997705 65742380
" />
<path d="M18426277 64742380
L18235800 64742380
L18140562 64790000
L18092943 64837619
L17997705 64980476
L17950086 65170952
L17950086 65551904
L17997705 65647142
L18045324 65694761
L18140562 65742380
L18331039 65742380
L18426277 65694761
L18473896 65647142
L18521515 65551904
L18521515 65313809
L18473896 65218571
L18426277 65170952
L18331039 65123333
L18140562 65123333
L18045324 65170952
L17997705 65218571
L17950086 65313809
" />
</g><text x="28240800.000000" y="2800000.000000"
transform="scale(-1 1) translate(-56481600.000000 0)"
textLength="1709762.000000" font-size="1333333.000000" lengthAdjust="spacingAndGlyphs"
text-anchor="middle" opacity="0">S2</text>
<g class="stroked-text"><desc>S2</desc>
<path d="M27478896 2704761
L27621753 2752380
L27859848 2752380
L27955086 2704761
L28002705 2657142
L28050324 2561904
L28050324 2466666
L28002705 2371428
L27955086 2323809
L27859848 2276190
L27669372 2228571
L27574134 2180952
L27526515 2133333
L27478896 2038095
L27478896 1942857
L27526515 1847619
L27574134 1800000
L27669372 1752380
L27907467 1752380
L28050324 1800000
" />
<path d="M28431277 1847619
L28478896 1800000
L28574134 1752380
L28812229 1752380
L28907467 1800000
L28955086 1847619
L29002705 1942857
L29002705 2038095
L28955086 2180952
L28383658 2752380
L29002705 2752380
" />
</g><text x="28740800.000000" y="51400000.000000"
transform="scale(-1 1) translate(-57481600.000000 0)"
textLength="2852619.000000" font-size="1333333.000000" lengthAdjust="spacingAndGlyphs"
text-anchor="middle" opacity="0">SW1</text>
<g class="stroked-text"><desc>SW1</desc>
<path d="M27407467 51304761
L27550324 51352380
L27788420 51352380
L27883658 51304761
L27931277 51257142
L27978896 51161904
L27978896 51066666
L27931277 50971428
L27883658 50923809
L27788420 50876190
L27597943 50828571
L27502705 50780952
L27455086 50733333
L27407467 50638095
L27407467 50542857
L27455086 50447619
L27502705 50400000
L27597943 50352380
L27836039 50352380
L27978896 50400000
" />
<path d="M28312229 50352380
L28550324 51352380
L28740800 50638095
L28931277 51352380
L29169372 50352380
" />
<path d="M30074134 51352380
L29502705 51352380
" />
<path d="M29788420 51352380
L29788420 50352380
L29693181 50495238
L29597943 50590476
L29502705 50638095
" />
</g><g transform="rotate(-90.000000 12160800.000000 98470000.000000)">
<text x="12160800.000000" y="98970000.000000"
transform="scale(-1 1) translate(-24321600.000000 0)"
textLength="1519286.000000" font-size="1333333.000000" lengthAdjust="spacingAndGlyphs"
text-anchor="middle" opacity="0">J7</text>
</g>
<g class="stroked-text"><desc>J7</desc>
<path d="M12708420 98136666
L11994134 98136666
L11851277 98089047
L11756039 97993809
L11708420 97850952
L11708420 97755714
" />
<path d="M12708420 98517619
L12708420 99184285
L11708420 98755714
" />
</g><text x="27440800.000000" y="105400000.000000"
transform="scale(-1 1) translate(-54881600.000000 0)"
textLength="2709762.000000" font-size="1333333.000000" lengthAdjust="spacingAndGlyphs"
text-anchor="middle" opacity="0">D13</text>
<g class="stroked-text"><desc>D13</desc>
<path d="M26226515 105352380
L26226515 104352380
L26464610 104352380
L26607467 104400000
L26702705 104495238
L26750324 104590476
L26797943 104780952
L26797943 104923809
L26750324 105114285
L26702705 105209523
L26607467 105304761
L26464610 105352380
L26226515 105352380
" />
<path d="M27750324 105352380
L27178896 105352380
" />
<path d="M27464610 105352380
L27464610 104352380
L27369372 104495238
L27274134 104590476
L27178896 104638095
" />
<path d="M28083658 104352380
L28702705 104352380
L28369372 104733333
L28512229 104733333
L28607467 104780952
L28655086 104828571
L28702705 104923809
L28702705 105161904
L28655086 105257142
L28607467 105304761
L28512229 105352380
L28226515 105352380
L28131277 105304761
L28083658 105257142
" />
</g><g transform="rotate(-90.000000 12160800.000000 77470000.000000)">
<text x="12160800.000000" y="77970000.000000"
transform="scale(-1 1) translate(-24321600.000000 0)"
textLength="1519286.000000" font-size="1333333.000000" lengthAdjust="spacingAndGlyphs"
text-anchor="middle" opacity="0">J4</text>
</g>
<g class="stroked-text"><desc>J4</desc>
<path d="M12708420 77136666
L11994134 77136666
L11851277 77089047
L11756039 76993809
L11708420 76850952
L11708420 76755714
" />
<path d="M12375086 78041428
L11708420 78041428
" />
<path d="M12756039 77803333
L12041753 77565238
L12041753 78184285
" />
</g><text x="22970800.000000" y="77210000.000000"
transform="scale(-1 1) translate(-45941600.000000 0)"
textLength="1757381.000000" font-size="1333333.000000" lengthAdjust="spacingAndGlyphs"
text-anchor="middle" opacity="0">D7</text>
<g class="stroked-text"><desc>D7</desc>
<path d="M22232705 77162380
L22232705 76162380
L22470800 76162380
L22613658 76210000
L22708896 76305238
L22756515 76400476
L22804134 76590952
L22804134 76733809
L22756515 76924285
L22708896 77019523
L22613658 77114761
L22470800 77162380
L22232705 77162380
" />
<path d="M23137467 76162380
L23804134 76162380
L23375562 77162380
" />
</g><g transform="rotate(-90.000000 28540800.000000 85530000.000000)">
<text x="28540800.000000" y="86030000.000000"
transform="scale(-1 1) translate(-57081600.000000 0)"
textLength="1519286.000000" font-size="1333333.000000" lengthAdjust="spacingAndGlyphs"
text-anchor="middle" opacity="0">J3</text>
</g>
<g class="stroked-text"><desc>J3</desc>
<path d="M29088420 85196666
L28374134 85196666
L28231277 85149047
L28136039 85053809
L28088420 84910952
L28088420 84815714
" />
<path d="M29088420 85577619
L29088420 86196666
L28707467 85863333
L28707467 86006190
L28659848 86101428
L28612229 86149047
L28516991 86196666
L28278896 86196666
L28183658 86149047
L28136039 86101428
L28088420 86006190
L28088420 85720476
L28136039 85625238
L28183658 85577619
" />
</g><text x="22970800.000000" y="87710000.000000"
transform="scale(-1 1) translate(-45941600.000000 0)"
textLength="1757381.000000" font-size="1333333.000000" lengthAdjust="spacingAndGlyphs"
text-anchor="middle" opacity="0">D9</text>
<g class="stroked-text"><desc>D9</desc>
<path d="M22232705 87662380
L22232705 86662380
L22470800 86662380
L22613658 86710000
L22708896 86805238
L22756515 86900476
L22804134 87090952
L22804134 87233809
L22756515 87424285
L22708896 87519523
L22613658 87614761
L22470800 87662380
L22232705 87662380
" />
<path d="M23280324 87662380
L23470800 87662380
L23566039 87614761
L23613658 87567142
L23708896 87424285
L23756515 87233809
L23756515 86852857
L23708896 86757619
L23661277 86710000
L23566039 86662380
L23375562 86662380
L23280324 86710000
L23232705 86757619
L23185086 86852857
L23185086 87090952
L23232705 87186190
L23280324 87233809
L23375562 87281428
L23566039 87281428
L23661277 87233809
L23708896 87186190
L23756515 87090952
" />
</g><g transform="rotate(-90.000000 12620800.000000 5675000.000000)">
<text x="12620800.000000" y="6175000.000000"
transform="scale(-1 1) translate(-25241600.000000 0)"
textLength="1519286.000000" font-size="1333333.000000" lengthAdjust="spacingAndGlyphs"
text-anchor="middle" opacity="0">J9</text>
</g>
<g class="stroked-text"><desc>J9</desc>
<path d="M13168420 5341666
L12454134 5341666
L12311277 5294047
L12216039 5198809
L12168420 5055952
L12168420 4960714
" />
<path d="M12168420 5865476
L12168420 6055952
L12216039 6151190
L12263658 6198809
L12406515 6294047
L12596991 6341666
L12977943 6341666
L13073181 6294047
L13120800 6246428
L13168420 6151190
L13168420 5960714
L13120800 5865476
L13073181 5817857
L12977943 5770238
L12739848 5770238
L12644610 5817857
L12596991 5865476
L12549372 5960714
L12549372 6151190
L12596991 6246428
L12644610 6294047
L12739848 6341666
" />
</g><g transform="rotate(-90.000000 12160800.000000 66970000.000000)">
<text x="12160800.000000" y="67470000.000000"
transform="scale(-1 1) translate(-24321600.000000 0)"
textLength="1519286.000000" font-size="1333333.000000" lengthAdjust="spacingAndGlyphs"
text-anchor="middle" opacity="0">J1</text>
</g>
<g class="stroked-text"><desc>J1</desc>
<path d="M12708420 66636666
L11994134 66636666
L11851277 66589047
L11756039 66493809
L11708420 66350952
L11708420 66255714
" />
<path d="M11708420 67636666
L11708420 67065238
" />
<path d="M11708420 67350952
L12708420 67350952
L12565562 67255714
L12470324 67160476
L12422705 67065238
" />
</g><g transform="rotate(-90.000000 28540800.000000 106530000.000000)">
<text x="28540800.000000" y="107030000.000000"
transform="scale(-1 1) translate(-57081600.000000 0)"
textLength="1519286.000000" font-size="1333333.000000" lengthAdjust="spacingAndGlyphs"
text-anchor="middle" opacity="0">J8</text>
</g>
<g class="stroked-text"><desc>J8</desc>
<path d="M29088420 106196666
L28374134 106196666
L28231277 106149047
L28136039 106053809
L28088420 105910952
L28088420 105815714
" />
<path d="M28659848 106815714
L28707467 106720476
L28755086 106672857
L28850324 106625238
L28897943 106625238
L28993181 106672857
L29040800 106720476
L29088420 106815714
L29088420 107006190
L29040800 107101428
L28993181 107149047
L28897943 107196666
L28850324 107196666
L28755086 107149047
L28707467 107101428
L28659848 107006190
L28659848 106815714
L28612229 106720476
L28564610 106672857
L28469372 106625238
L28278896 106625238
L28183658 106672857
L28136039 106720476
L28088420 106815714
L28088420 107006190
L28136039 107101428
L28183658 107149047
L28278896 107196666
L28469372 107196666
L28564610 107149047
L28612229 107101428
L28659848 107006190
" />
</g><g transform="rotate(-90.000000 28540800.000000 96030000.000000)">
<text x="28540800.000000" y="96530000.000000"
transform="scale(-1 1) translate(-57081600.000000 0)"
textLength="1519286.000000" font-size="1333333.000000" lengthAdjust="spacingAndGlyphs"
text-anchor="middle" opacity="0">J6</text>
</g>
<g class="stroked-text"><desc>J6</desc>
<path d="M29088420 95696666
L28374134 95696666
L28231277 95649047
L28136039 95553809
L28088420 95410952
L28088420 95315714
" />
<path d="M29088420 96601428
L29088420 96410952
L29040800 96315714
L28993181 96268095
L28850324 96172857
L28659848 96125238
L28278896 96125238
L28183658 96172857
L28136039 96220476
L28088420 96315714
L28088420 96506190
L28136039 96601428
L28183658 96649047
L28278896 96696666
L28516991 96696666
L28612229 96649047
L28659848 96601428
L28707467 96506190
L28707467 96315714
L28659848 96220476
L28612229 96172857
L28516991 96125238
" />
</g><text x="22970800.000000" y="98210000.000000"
transform="scale(-1 1) translate(-45941600.000000 0)"
textLength="2709762.000000" font-size="1333333.000000" lengthAdjust="spacingAndGlyphs"
text-anchor="middle" opacity="0">D11</text>
<g class="stroked-text"><desc>D11</desc>
<path d="M21756515 98162380
L21756515 97162380
L21994610 97162380
L22137467 97210000
L22232705 97305238
L22280324 97400476
L22327943 97590952
L22327943 97733809
L22280324 97924285
L22232705 98019523
L22137467 98114761
L21994610 98162380
L21756515 98162380
" />
<path d="M23280324 98162380
L22708896 98162380
" />
<path d="M22994610 98162380
L22994610 97162380
L22899372 97305238
L22804134 97400476
L22708896 97448095
" />
<path d="M24232705 98162380
L23661277 98162380
" />
<path d="M23946991 98162380
L23946991 97162380
L23851753 97305238
L23756515 97400476
L23661277 97448095
" />
</g><text x="17735800.000000" y="86790000.000000"
transform="scale(-1 1) translate(-35471600.000000 0)"
textLength="2709762.000000" font-size="1333333.000000" lengthAdjust="spacingAndGlyphs"
text-anchor="middle" opacity="0">D10</text>
<g class="stroked-text"><desc>D10</desc>
<path d="M16521515 86742380
L16521515 85742380
L16759610 85742380
L16902467 85790000
L16997705 85885238
L17045324 85980476
L17092943 86170952
L17092943 86313809
L17045324 86504285
L16997705 86599523
L16902467 86694761
L16759610 86742380
L16521515 86742380
" />
<path d="M18045324 86742380
L17473896 86742380
" />
<path d="M17759610 86742380
L17759610 85742380
L17664372 85885238
L17569134 85980476
L17473896 86028095
" />
<path d="M18664372 85742380
L18759610 85742380
L18854848 85790000
L18902467 85837619
L18950086 85932857
L18997705 86123333
L18997705 86361428
L18950086 86551904
L18902467 86647142
L18854848 86694761
L18759610 86742380
L18664372 86742380
L18569134 86694761
L18521515 86647142
L18473896 86551904
L18426277 86361428
L18426277 86123333
L18473896 85932857
L18521515 85837619
L18569134 85790000
L18664372 85742380
" />
</g><text x="8315800.000000" y="29350000.000000"
transform="scale(-1 1) translate(-16631600.000000 0)"
textLength="1709762.000000" font-size="1333333.000000" lengthAdjust="spacingAndGlyphs"
text-anchor="middle" opacity="0">S1</text>
<g class="stroked-text"><desc>S1</desc>
<path d="M7553896 29254761
L7696753 29302380
L7934848 29302380
L8030086 29254761
L8077705 29207142
L8125324 29111904
L8125324 29016666
L8077705 28921428
L8030086 28873809
L7934848 28826190
L7744372 28778571
L7649134 28730952
L7601515 28683333
L7553896 28588095
L7553896 28492857
L7601515 28397619
L7649134 28350000
L7744372 28302380
L7982467 28302380
L8125324 28350000
" />
<path d="M9077705 29302380
L8506277 29302380
" />
<path d="M8791991 29302380
L8791991 28302380
L8696753 28445238
L8601515 28540476
L8506277 28588095
" />
</g><g transform="rotate(-90.000000 28540800.000000 75030000.000000)">
<text x="28540800.000000" y="75530000.000000"
transform="scale(-1 1) translate(-57081600.000000 0)"
textLength="1519286.000000" font-size="1333333.000000" lengthAdjust="spacingAndGlyphs"
text-anchor="middle" opacity="0">J2</text>
</g>
<g class="stroked-text"><desc>J2</desc>
<path d="M29088420 74696666
L28374134 74696666
L28231277 74649047
L28136039 74553809
L28088420 74410952
L28088420 74315714
" />
<path d="M28993181 75125238
L29040800 75172857
L29088420 75268095
L29088420 75506190
L29040800 75601428
L28993181 75649047
L28897943 75696666
L28802705 75696666
L28659848 75649047
L28088420 75077619
L28088420 75696666
" />
</g><text x="17735800.000000" y="76290000.000000"
transform="scale(-1 1) translate(-35471600.000000 0)"
textLength="1757381.000000" font-size="1333333.000000" lengthAdjust="spacingAndGlyphs"
text-anchor="middle" opacity="0">D8</text>
<g class="stroked-text"><desc>D8</desc>
<path d="M16997705 76242380
L16997705 75242380
L17235800 75242380
L17378658 75290000
L17473896 75385238
L17521515 75480476
L17569134 75670952
L17569134 75813809
L17521515 76004285
L17473896 76099523
L17378658 76194761
L17235800 76242380
L16997705 76242380
" />
<path d="M18140562 75670952
L18045324 75623333
L17997705 75575714
L17950086 75480476
L17950086 75432857
L17997705 75337619
L18045324 75290000
L18140562 75242380
L18331039 75242380
L18426277 75290000
L18473896 75337619
L18521515 75432857
L18521515 75480476
L18473896 75575714
L18426277 75623333
L18331039 75670952
L18140562 75670952
L18045324 75718571
L17997705 75766190
L17950086 75861428
L17950086 76051904
L17997705 76147142
L18045324 76194761
L18140562 76242380
L18331039 76242380
L18426277 76194761
L18473896 76147142
L18521515 76051904
L18521515 75861428
L18473896 75766190
L18426277 75718571
L18331039 75670952
" />
</g><text x="29940800.000000" y="26300000.000000"
transform="scale(-1 1) translate(-59881600.000000 0)"
textLength="2852619.000000" font-size="1333333.000000" lengthAdjust="spacingAndGlyphs"
text-anchor="middle" opacity="0">SW4</text>
<g class="stroked-text"><desc>SW4</desc>
<path d="M28607467 26204761
L28750324 26252380
L28988420 26252380
L29083658 26204761
L29131277 26157142
L29178896 26061904
L29178896 25966666
L29131277 25871428
L29083658 25823809
L28988420 25776190
L28797943 25728571
L28702705 25680952
L28655086 25633333
L28607467 25538095
L28607467 25442857
L28655086 25347619
L28702705 25300000
L28797943 25252380
L29036039 25252380
L29178896 25300000
" />
<path d="M29512229 25252380
L29750324 26252380
L29940800 25538095
L30131277 26252380
L30369372 25252380
" />
<path d="M31178896 25585714
L31178896 26252380
" />
<path d="M30940800 25204761
L30702705 25919047
L31321753 25919047
" />
</g><g transform="rotate(-90.000000 23440800.000000 30800000.000000)">
<text x="23440800.000000" y="31300000.000000"
transform="scale(-1 1) translate(-46881600.000000 0)"
textLength="6328810.000000" font-size="1333333.000000" lengthAdjust="spacingAndGlyphs"
text-anchor="middle" opacity="0">SW_SPST</text>
</g>
<g class="stroked-text"><desc>SW_SPST</desc>
<path d="M23036039 27728571
L22988420 27871428
L22988420 28109523
L23036039 28204761
L23083658 28252380
L23178896 28300000
L23274134 28300000
L23369372 28252380
L23416991 28204761
L23464610 28109523
L23512229 27919047
L23559848 27823809
L23607467 27776190
L23702705 27728571
L23797943 27728571
L23893181 27776190
L23940800 27823809
L23988420 27919047
L23988420 28157142
L23940800 28300000
" />
<path d="M23988420 28633333
L22988420 28871428
L23702705 29061904
L22988420 29252380
L23988420 29490476
" />
<path d="M22893181 29633333
L22893181 30395238
" />
<path d="M23036039 30585714
L22988420 30728571
L22988420 30966666
L23036039 31061904
L23083658 31109523
L23178896 31157142
L23274134 31157142
L23369372 31109523
L23416991 31061904
L23464610 30966666
L23512229 30776190
L23559848 30680952
L23607467 30633333
L23702705 30585714
L23797943 30585714
L23893181 30633333
L23940800 30680952
L23988420 30776190
L23988420 31014285
L23940800 31157142
" />
<path d="M22988420 31585714
L23988420 31585714
L23988420 31966666
L23940800 32061904
L23893181 32109523
L23797943 32157142
L23655086 32157142
L23559848 32109523
L23512229 32061904
L23464610 31966666
L23464610 31585714
" />
<path d="M23036039 32538095
L22988420 32680952
L22988420 32919047
L23036039 33014285
L23083658 33061904
L23178896 33109523
L23274134 33109523
L23369372 33061904
L23416991 33014285
L23464610 32919047
L23512229 32728571
L23559848 32633333
L23607467 32585714
L23702705 32538095
L23797943 32538095
L23893181 32585714
L23940800 32633333
L23988420 32728571
L23988420 32966666
L23940800 33109523
" />
<path d="M23988420 33395238
L23988420 33966666
" />
<path d="M22988420 33680952
L23988420 33680952
" />
</g><g transform="rotate(-90.000000 12160800.000000 87970000.000000)">
<text x="12160800.000000" y="88470000.000000"
transform="scale(-1 1) translate(-24321600.000000 0)"
textLength="1519286.000000" font-size="1333333.000000" lengthAdjust="spacingAndGlyphs"
text-anchor="middle" opacity="0">J5</text>
</g>
<g class="stroked-text"><desc>J5</desc>
<path d="M12708420 87636666
L11994134 87636666
L11851277 87589047
L11756039 87493809
L11708420 87350952
L11708420 87255714
" />
<path d="M12708420 88589047
L12708420 88112857
L12232229 88065238
L12279848 88112857
L12327467 88208095
L12327467 88446190
L12279848 88541428
L12232229 88589047
L12136991 88636666
L11898896 88636666
L11803658 88589047
L11756039 88541428
L11708420 88446190
L11708420 88208095
L11756039 88112857
L11803658 88065238
" />
</g><path d="M11840800 49800000
L11840800 63000000
" />
<path d="M11840800 63000000
L3940800 63000000
" />
<path d="M3940800 63000000
L3940800 49800000
" />
<path d="M3940800 49800000
L11840800 49800000
" />
<circle cx="7740800.000000" cy="56500000.000000" r="3000417.000000" /> 
</g>
<g style="fill:#840084; fill-opacity:0.0; 
stroke:#840084; stroke-width:120000.000000; stroke-opacity:1; 
stroke-linecap:round; stroke-linejoin:round;">
<circle cx="28740800.000000" cy="16500000.000000" r="5000000.000000" /> 
<path d="M16175800 100830000
L16175800 100986000
" />
<path d="M16175800 98514000
L16175800 98670000
" />
<path d="M16175799.660687 100985516.268735 A1990001.000000 1990001.000000 0.0 0 0 19408135.475694 100828608.306809" />
<path d="M18776930.087115 98670162.909646 A1500000.000000 1500000.000000 0.0 0 0 16694838.954550 98669999.952845" />
<path d="M16694838.954550 100830000.047155 A1500000.000000 1500000.000000 0.0 0 0 18776930.087115 100829837.090354" />
<path d="M19408134.635325 98671392.235205 A1990000.000000 1990000.000000 0.0 0 0 16175800.444606 98514484.352127" />
<path d="M16175800 67014000
L16175800 67170000
" />
<path d="M16175800 69330000
L16175800 69486000
" />
<path d="M16694838.954550 69330000.047155 A1500000.000000 1500000.000000 0.0 0 0 18776930.087115 69329837.090354" />
<path d="M19408134.635325 67171392.235205 A1990000.000000 1990000.000000 0.0 0 0 16175800.444606 67014484.352127" />
<path d="M18776930.087115 67170162.909646 A1500000.000000 1500000.000000 0.0 0 0 16694838.954550 67169999.952845" />
<path d="M16175799.660687 69485516.268735 A1990001.000000 1990001.000000 0.0 0 0 19408135.475694 69328608.306809" />
</g>
<g style="fill:#840084; fill-opacity:0.0; 
stroke:#840084; stroke-width:100000.000000; stroke-opacity:1; 
stroke-linecap:round; stroke-linejoin:round;">
<path d="M30140800 4500000
L30640800 4500000
" />
<path d="M33340800 1300000
L33340800 1800000
" />
<path d="M33340800 4500000
L33340800 4000000
" />
<path d="M30140800 1800000
L29740800 1800000
" />
<path d="M33340800 1300000
L32840800 1300000
" />
<path d="M30140800 1300000
L30640800 1300000
" />
<path d="M30140800 1300000
L30140800 1800000
" />
<path d="M30140800 4500000
L30140800 4000000
" />
<path d="M33340800 4500000
L32940800 4500000
" />
</g>
<g style="fill:#840084; fill-opacity:1.0; 
stroke:#840084; stroke-width:1.000000; stroke-opacity:1; 
stroke-linecap:round; stroke-linejoin:round;">
<path style="fill:#840084; fill-opacity:1.0; 
stroke:#840084; stroke-width:1.000000; stroke-opacity:1; 
stroke-linecap:round; stroke-linejoin:round;fill-rule:evenodd;"
d="M 16548577.000000,21989304.000000
15797749.000000,21994402.000000
15680599.000000,22052096.000000
15570641.000000,22120580.000000
15463929.000000,22224459.000000
15382589.000000,22351400.000000
15365553.000000,22393050.000000
15341577.000000,22497098.000000
15333656.000000,22613416.000000
15342195.000000,22728983.000000
15367603.000000,22830778.000000
15371767.000000,22841517.000000
15437690.000000,22961094.000000
15531105.000000,23065314.000000
15646225.000000,23148872.000000
15777265.000000,23206462.000000
15797727.000000,23211238.000000
15839047.000000,23216621.000000
15899065.000000,23221000.000000
15980515.000000,23224459.000000
16086131.000000,23227081.000000
16218648.000000,23228948.000000
16380799.000000,23230145.000000
16575320.000000,23230754.000000
17299404.000000,23231928.000000
17299404.000000,22986178.000000
16603686.000000,22986178.000000
16413206.000000,22985824.000000
16246593.000000,22984659.000000
16110942.000000,22982624.000000
16004142.000000,22979659.000000
15924080.000000,22975705.000000
15868643.000000,22970701.000000
15835718.000000,22964590.000000
15826200.000000,22961463.000000
15755389.000000,22923427.000000
15686843.000000,22865142.000000
15630956.000000,22796912.000000
15598123.000000,22729041.000000
15585144.000000,22663469.000000
15586311.000000,22552648.000000
15614996.000000,22450176.000000
15668341.000000,22361766.000000
15743491.000000,22293131.000000
15837590.000000,22249984.000000
15852301.000000,22247314.000000
15905884.000000,22242729.000000
15991060.000000,22238848.000000
16105525.000000,22235726.000000
16246980.000000,22233419.000000
16413122.000000,22231983.000000
16601650.000000,22231473.000000
17299404.000000,22231375.000000
17299404.000000,21984205.000000
Z" /> 
<path style="fill:#840084; fill-opacity:1.0; 
stroke:#840084; stroke-width:1.000000; stroke-opacity:1; 
stroke-linecap:round; stroke-linejoin:round;fill-rule:evenodd;"
d="M 8382196.000000,21614447.000000
9167718.000000,21621186.000000
9172493.000000,21621227.000000
9361973.000000,21622985.000000
9519811.000000,21624806.000000
9649394.000000,21626835.000000
9754107.000000,21629218.000000
9837338.000000,21632099.000000
9902473.000000,21635625.000000
9952898.000000,21639941.000000
9992001.000000,21645192.000000
10023167.000000,21651524.000000
10049784.000000,21659082.000000
10102098.000000,21677539.000000
10268762.000000,21759218.000000
10417271.000000,21868008.000000
10543975.000000,22000290.000000
10645225.000000,22152447.000000
10717372.000000,22320861.000000
10746897.000000,22451772.000000
10758599.000000,22597077.000000
10752040.000000,22741706.000000
10726967.000000,22871163.000000
10706077.000000,22935005.000000
10626782.000000,23105830.000000
10520759.000000,23256214.000000
10390510.000000,23383551.000000
10238536.000000,23485233.000000
10067338.000000,23558654.000000
10063784.000000,23559790.000000
10037046.000000,23567161.000000
10005513.000000,23573328.000000
9965819.000000,23578432.000000
9914594.000000,23582616.000000
9848470.000000,23586023.000000
9764081.000000,23588796.000000
9658056.000000,23591077.000000
9527029.000000,23593010.000000
9367631.000000,23594736.000000
9176494.000000,23596399.000000
8382196.000000,23602806.000000
8382196.000000,23846303.000000
9106280.000000,23845955.000000
9168010.000000,23845905.000000
9359140.000000,23845365.000000
9520047.000000,23844067.000000
9654515.000000,23841769.000000
9766324.000000,23838225.000000
9859259.000000,23833194.000000
9937102.000000,23826429.000000
10003635.000000,23817688.000000
10062642.000000,23806727.000000
10117904.000000,23793302.000000
10173206.000000,23777169.000000
10264558.000000,23743767.000000
10430208.000000,23656189.000000
10582946.000000,23539940.000000
10718852.000000,23398780.000000
10834003.000000,23236470.000000
10924476.000000,23056772.000000
10942244.000000,23008475.000000
10974363.000000,22889845.000000
10997338.000000,22760277.000000
11008978.000000,22633880.000000
11007092.000000,22524766.000000
10998023.000000,22451862.000000
10951041.000000,22247812.000000
10875010.000000,22058030.000000
10772002.000000,21885607.000000
10644092.000000,21733635.000000
10493355.000000,21605206.000000
10321864.000000,21503410.000000
10304755.000000,21495159.000000
10250963.000000,21469710.000000
10202130.000000,21448444.000000
10154615.000000,21430951.000000
10104774.000000,21416823.000000
10048966.000000,21405651.000000
9983549.000000,21397028.000000
9904879.000000,21390543.000000
9809315.000000,21385790.000000
9693215.000000,21382358.000000
9552936.000000,21379840.000000
9384835.000000,21377828.000000
9185271.000000,21375911.000000
8382196.000000,21368476.000000
Z" /> 
<path style="fill:#840084; fill-opacity:1.0; 
stroke:#840084; stroke-width:1.000000; stroke-opacity:1; 
stroke-linecap:round; stroke-linejoin:round;fill-rule:evenodd;"
d="M 16478775.000000,21375004.000000
15658146.000000,21380667.000000
15517718.000000,21428171.000000
15347024.000000,21498621.000000
15182371.000000,21598316.000000
15032879.000000,21726271.000000
14921163.000000,21853219.000000
14809881.000000,22026620.000000
14724741.000000,22222599.000000
14710317.000000,22265228.000000
14694760.000000,22319044.000000
14684695.000000,22371090.000000
14678953.000000,22430583.000000
14676365.000000,22506739.000000
14675762.000000,22608777.000000
14676016.000000,22681876.000000
14677852.000000,22765197.000000
14682473.000000,22828949.000000
14691049.000000,22882348.000000
14704749.000000,22934611.000000
14724741.000000,22994955.000000
14741939.000000,23041749.000000
14834151.000000,23235189.000000
14951377.000000,23404948.000000
15092126.000000,23549681.000000
15254906.000000,23668045.000000
15438226.000000,23758695.000000
15640593.000000,23820287.000000
15665384.000000,23824660.000000
15715973.000000,23830117.000000
15786237.000000,23834600.000000
15878745.000000,23838179.000000
15996069.000000,23840928.000000
16140782.000000,23842918.000000
16315455.000000,23844220.000000
16522659.000000,23844907.000000
17299404.000000,23846303.000000
17299404.000000,23600553.000000
16540212.000000,23600293.000000
16416188.000000,23600168.000000
16241625.000000,23599577.000000
16096871.000000,23598421.000000
15978652.000000,23596601.000000
15883694.000000,23594018.000000
15808721.000000,23590575.000000
15750460.000000,23586171.000000
15705636.000000,23580708.000000
15670975.000000,23574088.000000
15584616.000000,23549283.000000
15423459.000000,23477107.000000
15279138.000000,23377721.000000
15154577.000000,23254865.000000
15052698.000000,23112278.000000
14976423.000000,22953699.000000
14928676.000000,22782868.000000
14912379.000000,22603524.000000
14923050.000000,22462029.000000
14964087.000000,22291550.000000
15033086.000000,22132326.000000
15127035.000000,21988097.000000
15242923.000000,21862599.000000
15377736.000000,21759572.000000
15528462.000000,21682754.000000
15692089.000000,21635883.000000
15724055.000000,21632107.000000
15794598.000000,21627740.000000
15895451.000000,21624033.000000
16023908.000000,21621046.000000
16177261.000000,21618839.000000
16352802.000000,21617470.000000
16547825.000000,21617001.000000
17299404.000000,21617001.000000
17299404.000000,21369340.000000
Z" /> 
<path style="fill:#840084; fill-opacity:1.0; 
stroke:#840084; stroke-width:1.000000; stroke-opacity:1; 
stroke-linecap:round; stroke-linejoin:round;fill-rule:evenodd;"
d="M 11398918.000000,22917461.000000
11459600.000000,23130180.000000
11552993.000000,23330714.000000
11678686.000000,23518044.000000
11836269.000000,23691151.000000
11877625.000000,23729361.000000
12057705.000000,23868013.000000
12251483.000000,23974393.000000
12459630.000000,24048821.000000
12682818.000000,24091613.000000
12714727.000000,24095336.000000
12784025.000000,24102744.000000
12836704.000000,24105994.000000
12885630.000000,24105037.000000
12943666.000000,24099825.000000
13023674.000000,24090309.000000
13216393.000000,24054418.000000
13428321.000000,23984140.000000
13623373.000000,23885674.000000
13799419.000000,23761419.000000
13954332.000000,23613776.000000
14085983.000000,23445147.000000
14192242.000000,23257932.000000
14270982.000000,23054532.000000
14320072.000000,22837346.000000
14337385.000000,22608777.000000
14336207.000000,22591339.000000
14114153.000000,22591339.000000
14108914.000000,22724287.000000
14094686.000000,22848414.000000
14071827.000000,22951071.000000
14017938.000000,23096663.000000
13919394.000000,23282614.000000
13795544.000000,23447956.000000
13649057.000000,23590210.000000
13482600.000000,23706897.000000
13298844.000000,23795536.000000
13100455.000000,23853649.000000
13077883.000000,23858062.000000
12872651.000000,23878847.000000
12667464.000000,23865823.000000
12468022.000000,23819300.000000
12365086.000000,23781230.000000
12229081.000000,23712359.000000
12100511.000000,23622049.000000
11970032.000000,23504392.000000
11924464.000000,23458537.000000
11860971.000000,23389864.000000
11812454.000000,23328056.000000
11771353.000000,23263041.000000
11730111.000000,23184749.000000
11703434.000000,23128950.000000
11648423.000000,22990389.000000
11614261.000000,22855857.000000
11598421.000000,22713178.000000
11598375.000000,22550172.000000
11600630.000000,22507352.000000
11629035.000000,22302916.000000
11686786.000000,22115909.000000
11775180.000000,21942973.000000
11895512.000000,21780751.000000
11940398.000000,21731511.000000
12091937.000000,21596950.000000
12258462.000000,21490793.000000
12436347.000000,21412994.000000
12621967.000000,21363506.000000
12811697.000000,21342281.000000
13001913.000000,21349273.000000
13188990.000000,21384436.000000
13369302.000000,21447721.000000
13539226.000000,21539082.000000
13695136.000000,21658473.000000
13833407.000000,21805845.000000
13840534.000000,21814990.000000
13899179.000000,21901484.000000
13959201.000000,22006723.000000
14014818.000000,22119130.000000
14060251.000000,22227129.000000
14089718.000000,22319143.000000
14096231.000000,22349578.000000
14110044.000000,22462220.000000
14114153.000000,22591339.000000
14336207.000000,22591339.000000
14322621.000000,22390142.000000
14275954.000000,22173759.000000
14199502.000000,21970726.000000
14095431.000000,21783468.000000
13965910.000000,21614409.000000
13813104.000000,21465972.000000
13639182.000000,21340582.000000
13446311.000000,21240662.000000
13236658.000000,21168635.000000
13012391.000000,21126927.000000
12797051.000000,21117379.000000
12577054.000000,21139891.000000
12367276.000000,21195903.000000
12168306.000000,21285204.000000
11980731.000000,21407582.000000
11805140.000000,21562824.000000
11749866.000000,21620831.000000
11615988.000000,21784969.000000
11513700.000000,21953236.000000
11440522.000000,22131207.000000
11393978.000000,22324457.000000
11371590.000000,22538563.000000
11371573.000000,22550172.000000
11371357.000000,22693576.000000
Z" /> 
<path style="fill:#840084; fill-opacity:1.0; 
stroke:#840084; stroke-width:1.000000; stroke-opacity:1; 
stroke-linecap:round; stroke-linejoin:round;fill-rule:evenodd;"
d="M 8382196.000000,22229557.000000
9097503.000000,22234855.000000
9224926.000000,22235822.000000
9380007.000000,22237168.000000
9505922.000000,22238639.000000
9606169.000000,22240427.000000
9684245.000000,22242724.000000
9743650.000000,22245722.000000
9787881.000000,22249613.000000
9820435.000000,22254588.000000
9844812.000000,22260839.000000
9864510.000000,22268559.000000
9883025.000000,22277939.000000
9957729.000000,22328694.000000
10029732.000000,22409344.000000
10074198.000000,22501897.000000
10091126.000000,22600784.000000
10080512.000000,22700438.000000
10042354.000000,22795289.000000
9976647.000000,22879770.000000
9883390.000000,22948313.000000
9874079.000000,22952806.000000
9853886.000000,22959357.000000
9825167.000000,22964758.000000
9784598.000000,22969155.000000
9728857.000000,22972695.000000
9654621.000000,22975526.000000
9558567.000000,22977794.000000
9437375.000000,22979645.000000
9287720.000000,22981229.000000
9106280.000000,22982690.000000
8382196.000000,22987978.000000
8382196.000000,23233692.000000
9123834.000000,23228422.000000
9865472.000000,23223151.000000
9965844.000000,23176107.000000
9997675.000000,23160109.000000
10117086.000000,23078794.000000
10216474.000000,22975964.000000
10288699.000000,22858640.000000
10307718.000000,22814872.000000
10327285.000000,22754449.000000
10336662.000000,22691077.000000
10339072.000000,22608777.000000
10335948.000000,22540219.000000
10306869.000000,22401730.000000
10246834.000000,22279348.000000
10155325.000000,22171842.000000
10124985.000000,22143958.000000
10080633.000000,22106418.000000
10036489.000000,22075318.000000
9989023.000000,22050055.000000
9934704.000000,22030025.000000
9869998.000000,22014624.000000
9791377.000000,22003248.000000
9695307.000000,21995294.000000
9578258.000000,21990159.000000
9436698.000000,21987238.000000
9267096.000000,21985928.000000
9065921.000000,21985626.000000
8382196.000000,21985626.000000
Z" /> 
<path style="fill:#840084; fill-opacity:1.0; 
stroke:#840084; stroke-width:1.000000; stroke-opacity:1; 
stroke-linecap:round; stroke-linejoin:round;fill-rule:evenodd;"
d="M 12403340.000000,22810643.000000
12444853.000000,22884651.000000
12529658.000000,22979641.000000
12636039.000000,23049550.000000
12759066.000000,23090501.000000
12883114.000000,23098509.000000
12998865.000000,23075945.000000
13102968.000000,23026964.000000
13192120.000000,22955727.000000
13263017.000000,22866399.000000
13312354.000000,22763144.000000
13336754.000000,22650459.000000
13170057.000000,22650459.000000
13137084.000000,22753598.000000
13132677.000000,22762217.000000
13088040.000000,22825217.000000
13033668.000000,22874310.000000
12968364.000000,22905515.000000
12882980.000000,22925096.000000
12797732.000000,22927187.000000
12726702.000000,22910144.000000
12700066.000000,22896349.000000
12620497.000000,22831572.000000
12563584.000000,22746230.000000
12533380.000000,22648009.000000
12533939.000000,22544596.000000
12539005.000000,22522258.000000
12576481.000000,22443748.000000
12637504.000000,22373476.000000
12713138.000000,22320097.000000
12794448.000000,22292265.000000
12889302.000000,22289407.000000
12984485.000000,22316272.000000
13067824.000000,22375769.000000
13132291.000000,22456833.000000
13168333.000000,22550848.000000
13170057.000000,22650459.000000
13336754.000000,22650459.000000
13336827.000000,22650124.000000
13333133.000000,22531504.000000
13297966.000000,22411446.000000
13271827.000000,22359720.000000
13198398.000000,22263682.000000
13107388.000000,22192352.000000
13003962.000000,22145833.000000
12893286.000000,22124229.000000
12780524.000000,22127645.000000
12670842.000000,22156184.000000
12569403.000000,22209952.000000
12481374.000000,22289051.000000
12411918.000000,22393586.000000
12382225.000000,22475158.000000
12365895.000000,22589931.000000
12369360.000000,22648009.000000
12372840.000000,22706325.000000
Z" /> 
</g>
<g style="fill:#840084; fill-opacity:0.0; 
stroke:#840084; stroke-width:120000.000000; stroke-opacity:1; 
stroke-linecap:round; stroke-linejoin:round;">
<circle cx="28740800.000000" cy="44500000.000000" r="5000000.000000" /> 
<path d="M760800 107000000
L760800 103300000
" />
<path d="M14410800 101270000
L14410800 102130000
" />
<path d="M11260800 107000000
L11260800 103220000
" />
<path d="M11260800 98000000
L760800 98000000
" />
<path d="M14410800 101270000
L13610800 101270000
" />
<path d="M11260800 107000000
L760800 107000000
" />
<path d="M760800 101700000
L760800 98000000
" />
<path d="M11260800 101780000
L11260800 98000000
" />
<circle cx="6760800.000000" cy="102500000.000000" r="1800000.000000" /> 
<path d="M24530800 106486000
L24530800 106330000
" />
<path d="M24530800 104170000
L24530800 104014000
" />
<path d="M21298465.364675 106328607.764795 A1990000.000000 1990000.000000 0.0 0 0 24530799.555394 106485515.647873" />
<path d="M24011761.045450 104169999.952845 A1500000.000000 1500000.000000 0.0 0 0 21929669.912885 104170162.909646" />
<path d="M24530800.339313 104014483.731265 A1990001.000000 1990001.000000 0.0 0 0 21298464.524306 104171391.693191" />
<path d="M21929669.912885 106329837.090354 A1500000.000000 1500000.000000 0.0 0 0 24011761.045450 106330000.047155" />
<path d="M14410800 80270000
L14410800 81130000
" />
<path d="M760800 80700000
L760800 77000000
" />
<path d="M11260800 80780000
L11260800 77000000
" />
<path d="M14410800 80270000
L13610800 80270000
" />
<path d="M11260800 77000000
L760800 77000000
" />
<path d="M11260800 86000000
L11260800 82220000
" />
<path d="M760800 86000000
L760800 82300000
" />
<path d="M11260800 86000000
L760800 86000000
" />
<circle cx="6760800.000000" cy="81500000.000000" r="1800000.000000" /> 
<path d="M24530800 72670000
L24530800 72514000
" />
<path d="M24530800 74986000
L24530800 74830000
" />
<path d="M21298465.364675 74828607.764795 A1990000.000000 1990000.000000 0.0 0 0 24530799.555394 74985515.647873" />
<path d="M21929669.912885 74829837.090354 A1500000.000000 1500000.000000 0.0 0 0 24011761.045450 74830000.047155" />
<path d="M24011761.045450 72669999.952845 A1500000.000000 1500000.000000 0.0 0 0 21929669.912885 72670162.909646" />
<path d="M24530800.339313 72514483.731265 A1990001.000000 1990001.000000 0.0 0 0 21298464.524306 72671391.693191" />
<path d="M39940800 77000000
L39940800 80700000
" />
<path d="M29440800 86000000
L39940800 86000000
" />
<path d="M29440800 82220000
L29440800 86000000
" />
<path d="M26290800 82730000
L26290800 81870000
" />
<path d="M26290800 82730000
L27090800 82730000
" />
<path d="M29440800 77000000
L29440800 80780000
" />
<path d="M29440800 77000000
L39940800 77000000
" />
<path d="M39940800 82300000
L39940800 86000000
" />
<circle cx="33940800.000000" cy="81500000.000000" r="1800000.000000" /> 
<path d="M24530800 85486000
L24530800 85330000
" />
<path d="M24530800 83170000
L24530800 83014000
" />
<path d="M24011761.045450 83169999.952845 A1500000.000000 1500000.000000 0.0 0 0 21929669.912885 83170162.909646" />
<path d="M24530800.339313 83014483.731265 A1990001.000000 1990001.000000 0.0 0 0 21298464.524306 83171391.693191" />
<path d="M21929669.912885 85329837.090354 A1500000.000000 1500000.000000 0.0 0 0 24011761.045450 85330000.047155" />
<path d="M21298465.364675 85328607.764795 A1990000.000000 1990000.000000 0.0 0 0 24530799.555394 85485515.647873" />
</g>
<g style="fill:#840084; fill-opacity:0.0; 
stroke:#840084; stroke-width:150000.000000; stroke-opacity:1; 
stroke-linecap:round; stroke-linejoin:round;">
<path d="M24140800 4675000
L24140800 1575000
" />
<path d="M16340800 2675000
L24140800 2675000
" />
<path d="M24140800 9775000
L24140800 6675000
" />
<path d="M14240800 10675000
L14240800 675000
" />
<path d="M16340800 9775000
L24140800 9775000
" />
<path d="M16340800 8675000
L24140800 8675000
" />
<path d="M14240800 4405000
L16340800 4405000
" />
<path d="M14240800 675000
L24740800 675000
" />
<path d="M16340800 1575000
L24140800 1575000
" />
<path d="M14240800 6945000
L16340800 6945000
" />
<path d="M16340800 9775000
L16340800 1575000
" />
<path d="M24740800 10675000
L24740800 675000
" />
<path d="M14240800 10675000
L24740800 10675000
" />
<path d="M23059878.016651 4648939.993940 A3000000.000000 3000000.000000 0.0 0 0 17240800.000000 5675000.000000" />
<path d="M17240800.000000 5675000.000000 A3000000.000000 3000000.000000 0.0 0 0 23059878.016651 6701060.006060" />
</g>
<g style="fill:#840084; fill-opacity:0.0; 
stroke:#840084; stroke-width:120000.000000; stroke-opacity:1; 
stroke-linecap:round; stroke-linejoin:round;">
<path d="M760800 70200000
L760800 66500000
" />
<path d="M11260800 75500000
L11260800 71720000
" />
<path d="M11260800 75500000
L760800 75500000
" />
<path d="M14410800 69770000
L14410800 70630000
" />
<path d="M760800 75500000
L760800 71800000
" />
<path d="M14410800 69770000
L13610800 69770000
" />
<path d="M11260800 66500000
L760800 66500000
" />
<path d="M11260800 70280000
L11260800 66500000
" />
<circle cx="6760800.000000" cy="71000000.000000" r="1800000.000000" /> 
<path d="M29440800 98000000
L29440800 101780000
" />
<path d="M29440800 103220000
L29440800 107000000
" />
<path d="M29440800 98000000
L39940800 98000000
" />
<path d="M26290800 103730000
L27090800 103730000
" />
<path d="M39940800 103300000
L39940800 107000000
" />
<path d="M29440800 107000000
L39940800 107000000
" />
<path d="M26290800 103730000
L26290800 102870000
" />
<path d="M39940800 98000000
L39940800 101700000
" />
<circle cx="33940800.000000" cy="102500000.000000" r="1800000.000000" /> 
<path d="M39940800 92800000
L39940800 96500000
" />
<path d="M26290800 93230000
L27090800 93230000
" />
<path d="M29440800 87500000
L39940800 87500000
" />
<path d="M29440800 87500000
L29440800 91280000
" />
<path d="M39940800 87500000
L39940800 91200000
" />
<path d="M29440800 92720000
L29440800 96500000
" />
<path d="M29440800 96500000
L39940800 96500000
" />
<path d="M26290800 93230000
L26290800 92370000
" />
<circle cx="33940800.000000" cy="92000000.000000" r="1800000.000000" /> 
<path d="M24530800 93670000
L24530800 93514000
" />
<path d="M24530800 95986000
L24530800 95830000
" />
<path d="M21298465.364675 95828607.764795 A1990000.000000 1990000.000000 0.0 0 0 24530799.555394 95985515.647873" />
<path d="M21929669.912885 95829837.090354 A1500000.000000 1500000.000000 0.0 0 0 24011761.045450 95830000.047155" />
<path d="M24011761.045450 93669999.952845 A1500000.000000 1500000.000000 0.0 0 0 21929669.912885 93670162.909646" />
<path d="M24530800.339313 93514483.731265 A1990001.000000 1990001.000000 0.0 0 0 21298464.524306 93671391.693191" />
<path d="M16175800 90330000
L16175800 90486000
" />
<path d="M16175800 88014000
L16175800 88170000
" />
<path d="M16175799.660687 90485516.268735 A1990001.000000 1990001.000000 0.0 0 0 19408135.475694 90328608.306809" />
<path d="M16694838.954550 90330000.047155 A1500000.000000 1500000.000000 0.0 0 0 18776930.087115 90329837.090354" />
<path d="M18776930.087115 88170162.909646 A1500000.000000 1500000.000000 0.0 0 0 16694838.954550 88169999.952845" />
<path d="M19408134.635325 88171392.235205 A1990000.000000 1990000.000000 0.0 0 0 16175800.444606 88014484.352127" />
</g>
<g style="fill:#840084; fill-opacity:0.0; 
stroke:#840084; stroke-width:100000.000000; stroke-opacity:1; 
stroke-linecap:round; stroke-linejoin:round;">
<path d="M15115800 31425000
L15115800 31925000
" />
<path d="M3215800 31425000
L2365800 31425000
" />
<path d="M3315800 45075000
L2365800 45075000
" />
<path d="M2365800 45075000
L2365800 44400000
" />
<path d="M15115800 45075000
L14315800 45075000
" />
<path d="M15115800 44500000
L15115800 45075000
" />
<path d="M2365800 31425000
L2365800 32100000
" />
<path d="M14415800 31425000
L15115800 31425000
" />
</g>
<g style="fill:#840084; fill-opacity:0.0; 
stroke:#840084; stroke-width:120000.000000; stroke-opacity:1; 
stroke-linecap:round; stroke-linejoin:round;">
<path d="M39940800 66500000
L39940800 70200000
" />
<path d="M26290800 72230000
L26290800 71370000
" />
<path d="M29440800 66500000
L29440800 70280000
" />
<path d="M29440800 71720000
L29440800 75500000
" />
<path d="M29440800 66500000
L39940800 66500000
" />
<path d="M26290800 72230000
L27090800 72230000
" />
<path d="M29440800 75500000
L39940800 75500000
" />
<path d="M39940800 71800000
L39940800 75500000
" />
<circle cx="33940800.000000" cy="71000000.000000" r="1800000.000000" /> 
<path d="M16175800 79830000
L16175800 79986000
" />
<path d="M16175800 77514000
L16175800 77670000
" />
<path d="M18776930.087115 77670162.909646 A1500000.000000 1500000.000000 0.0 0 0 16694838.954550 77669999.952845" />
<path d="M19408134.635325 77671392.235205 A1990000.000000 1990000.000000 0.0 0 0 16175800.444606 77514484.352127" />
<path d="M16175799.660687 79985516.268735 A1990001.000000 1990001.000000 0.0 0 0 19408135.475694 79828608.306809" />
<path d="M16694838.954550 79830000.047155 A1500000.000000 1500000.000000 0.0 0 0 18776930.087115 79829837.090354" />
</g>
<g style="fill:#840084; fill-opacity:0.0; 
stroke:#840084; stroke-width:150000.000000; stroke-opacity:1; 
stroke-linecap:round; stroke-linejoin:round;">
<path d="M35440800 26700000
L35440800 34600000
" />
<path d="M22240800 26700000
L35440800 26700000
" />
<path d="M22240800 34600000
L22240800 26700000
" />
<path d="M35440800 34600000
L22240800 34600000
" />
<circle cx="28740800.000000" cy="30500000.000000" r="3000417.000000" /> 
</g>
<g style="fill:#840084; fill-opacity:0.0; 
stroke:#840084; stroke-width:120000.000000; stroke-opacity:1; 
stroke-linecap:round; stroke-linejoin:round;">
<path d="M11260800 96500000
L760800 96500000
" />
<path d="M760800 96500000
L760800 92800000
" />
<path d="M760800 91200000
L760800 87500000
" />
<path d="M14410800 90770000
L13610800 90770000
" />
<path d="M11260800 91280000
L11260800 87500000
" />
<path d="M14410800 90770000
L14410800 91630000
" />
<path d="M11260800 87500000
L760800 87500000
" />
<path d="M11260800 96500000
L11260800 92720000
" />
<circle cx="6760800.000000" cy="92000000.000000" r="1800000.000000" /> 
<g >
</g>
<g >
</g>
<g >
</g>
<g >
</g>
<g >
</g>
<g >
</g>
<g >
</g>
<g >
</g>
<g >
</g>
<g >
</g>
<g >
</g>
<g >
</g>
<g >
</g>
<g >
</g>
<g >
</g>
<g >
</g>
<g >
</g>
<g >
</g>
<g >
</g>
<g >
</g>
<g >
</g>
<g >
</g>
<g >
</g>
<g >
</g>
<g >
</g>
<g >
</g>
<g >
</g>
<g >
</g>
<g >
</g>
<g >
</g>
<g >
</g>
<g >
</g>
<g >
</g>
<g >
</g>
<g >
</g>
<g >
</g>
<g >
</g>
<g >
</g>
<g >
</g>
<g >
</g>
<g >
</g>
<g >
</g>
<g >
</g>
<g >
</g>
<g >
</g>
<g >
</g>
<g >
</g>
<g >
</g>
<g >
</g>
<g >
</g>
<g >
</g>
<g >
</g>
<g >
</g>
<g >
</g>
<g >
</g>
<g >
</g>
<g >
</g>
<g >
</g>
<g >
</g>
<g >
</g>
<g >
</g>
<g >
</g>
</g>
<g style="fill:#000000; fill-opacity:0.0; 
stroke:#000000; stroke-width:120000.000000; stroke-opacity:1; 
stroke-linecap:round; stroke-linejoin:round;">
</g>
<g style="fill:#C2C200; fill-opacity:0.0; 
stroke:#C2C200; stroke-width:120000.000000; stroke-opacity:1; 
stroke-linecap:round; stroke-linejoin:round;">
</g>
<g style="fill:#C2C200; fill-opacity:0.0; 
stroke:#C2C200; stroke-width:100000.000000; stroke-opacity:1; 
stroke-linecap:round; stroke-linejoin:round;">
<path d="M40640800 50000
L40800 50000
" />
<path d="M40800 50000
L40800 108050000
" />
<path d="M40800 108050000
L40640800 108050000
" />
<path d="M40640800 108050000
L40640800 50000
" />
<g >
</g>
<g >
</g>
<g >
</g>
<g >
</g>
<g >
</g>
<g >
</g>
<g >
</g>
<g >
</g>
<g >
</g>
<g >
</g>
<g >
</g>
<g >
</g>
<g >
</g>
<g >
</g>
<g >
</g>
<g >
</g>
<g >
</g>
<g >
</g>
<g >
</g>
<g >
</g>
<g >
</g>
<g >
</g>
<g >
</g>
<g >
</g>
<g >
</g>
<g >
</g>
<g >
</g>
<g >
</g>
<g >
</g>
<g >
</g>
<g >
</g>
<g >
</g>
<g >
</g>
<g >
</g>
<g >
</g>
<g >
</g>
<g >
</g>
<g >
</g>
<g >
</g>
<g >
</g>
<g >
</g>
<g >
</g>
<g >
</g>
<g >
</g>
<g >
</g>
<g >
</g>
<g >
</g>
<g >
</g>
<g >
</g>
<g >
</g>
<g >
</g>
<g >
</g>
<g >
</g>
<g >
</g>
<g >
</g>
<g >
</g>
<g >
</g>
<g >
</g>
<g >
</g>
<g >
</g>
<g >
</g>
<g >
</g>
</g> 
</svg>
